<?xml version="1.0" encoding="utf-8" standalone="no"?>
<!DOCTYPE svg PUBLIC "-//W3C//DTD SVG 1.1//EN"
  "http://www.w3.org/Graphics/SVG/1.1/DTD/svg11.dtd">
<!-- Created with matplotlib (https://matplotlib.org/) -->
<svg height="360pt" version="1.1" viewBox="0 0 720 360" width="720pt" xmlns="http://www.w3.org/2000/svg" xmlns:xlink="http://www.w3.org/1999/xlink">
 <defs>
  <style type="text/css">
*{stroke-linecap:butt;stroke-linejoin:round;}
  </style>
 </defs>
 <g id="figure_1">
  <g id="patch_1">
   <path d="M 0 360 
L 720 360 
L 720 0 
L 0 0 
z
" style="fill:#ffffff;"/>
  </g>
  <g id="axes_1">
   <g id="patch_2">
    <path d="M 65.45 304 
L 703.8 304 
L 703.8 16.2 
L 65.45 16.2 
z
" style="fill:#ffffff;"/>
   </g>
   <g id="matplotlib.axis_1">
    <g id="xtick_1">
     <g id="line2d_1">
      <defs>
       <path d="M 0 0 
L 0 3.5 
" id="m28dcdc35fd" style="stroke:#000000;stroke-width:0.8;"/>
      </defs>
      <g>
       <use style="stroke:#000000;stroke-width:0.8;" x="93.440612" xlink:href="#m28dcdc35fd" y="304"/>
      </g>
     </g>
     <g id="text_1">
      <text style="font-family:DejaVu Sans;font-size:15px;font-style:normal;font-weight:normal;text-anchor:middle;" transform="rotate(-0, 93.440612, 322.397656)" x="93.440612" y="322.397656">0</text>
     </g>
    </g>
    <g id="xtick_2">
     <g id="line2d_2">
      <g>
       <use style="stroke:#000000;stroke-width:0.8;" x="195.970326" xlink:href="#m28dcdc35fd" y="304"/>
      </g>
     </g>
     <g id="text_2">
      <text style="font-family:DejaVu Sans;font-size:15px;font-style:normal;font-weight:normal;text-anchor:middle;" transform="rotate(-0, 195.970326, 322.397656)" x="195.970326" y="322.397656">100</text>
     </g>
    </g>
    <g id="xtick_3">
     <g id="line2d_3">
      <g>
       <use style="stroke:#000000;stroke-width:0.8;" x="298.50004" xlink:href="#m28dcdc35fd" y="304"/>
      </g>
     </g>
     <g id="text_3">
      <text style="font-family:DejaVu Sans;font-size:15px;font-style:normal;font-weight:normal;text-anchor:middle;" transform="rotate(-0, 298.50004, 322.397656)" x="298.50004" y="322.397656">200</text>
     </g>
    </g>
    <g id="xtick_4">
     <g id="line2d_4">
      <g>
       <use style="stroke:#000000;stroke-width:0.8;" x="401.029754" xlink:href="#m28dcdc35fd" y="304"/>
      </g>
     </g>
     <g id="text_4">
      <text style="font-family:DejaVu Sans;font-size:15px;font-style:normal;font-weight:normal;text-anchor:middle;" transform="rotate(-0, 401.029754, 322.397656)" x="401.029754" y="322.397656">300</text>
     </g>
    </g>
    <g id="xtick_5">
     <g id="line2d_5">
      <g>
       <use style="stroke:#000000;stroke-width:0.8;" x="503.559468" xlink:href="#m28dcdc35fd" y="304"/>
      </g>
     </g>
     <g id="text_5">
      <text style="font-family:DejaVu Sans;font-size:15px;font-style:normal;font-weight:normal;text-anchor:middle;" transform="rotate(-0, 503.559468, 322.397656)" x="503.559468" y="322.397656">400</text>
     </g>
    </g>
    <g id="xtick_6">
     <g id="line2d_6">
      <g>
       <use style="stroke:#000000;stroke-width:0.8;" x="606.089182" xlink:href="#m28dcdc35fd" y="304"/>
      </g>
     </g>
     <g id="text_6">
      <text style="font-family:DejaVu Sans;font-size:15px;font-style:normal;font-weight:normal;text-anchor:middle;" transform="rotate(-0, 606.089182, 322.397656)" x="606.089182" y="322.397656">500</text>
     </g>
    </g>
    <g id="text_7">
     <text style="font-family:DejaVu Sans;font-size:15px;font-style:normal;font-weight:normal;text-anchor:middle;" transform="rotate(-0, 384.625, 340.914844)" x="384.625" y="340.914844">Epochs</text>
    </g>
   </g>
   <g id="matplotlib.axis_2">
    <g id="ytick_1">
     <g id="line2d_7">
      <defs>
       <path d="M 0 0 
L -3.5 0 
" id="m88fe20bf48" style="stroke:#000000;stroke-width:0.8;"/>
      </defs>
      <g>
       <use style="stroke:#000000;stroke-width:0.8;" x="65.45" xlink:href="#m88fe20bf48" y="271.994523"/>
      </g>
     </g>
     <g id="text_8">
      <text style="font-family:DejaVu Sans;font-size:15px;font-style:normal;font-weight:normal;text-anchor:end;" transform="rotate(-0, 58.45, 277.693351)" x="58.45" y="277.693351">0.2</text>
     </g>
    </g>
    <g id="ytick_2">
     <g id="line2d_8">
      <g>
       <use style="stroke:#000000;stroke-width:0.8;" x="65.45" xlink:href="#m88fe20bf48" y="229.105659"/>
      </g>
     </g>
     <g id="text_9">
      <text style="font-family:DejaVu Sans;font-size:15px;font-style:normal;font-weight:normal;text-anchor:end;" transform="rotate(-0, 58.45, 234.804487)" x="58.45" y="234.804487">0.4</text>
     </g>
    </g>
    <g id="ytick_3">
     <g id="line2d_9">
      <g>
       <use style="stroke:#000000;stroke-width:0.8;" x="65.45" xlink:href="#m88fe20bf48" y="186.216795"/>
      </g>
     </g>
     <g id="text_10">
      <text style="font-family:DejaVu Sans;font-size:15px;font-style:normal;font-weight:normal;text-anchor:end;" transform="rotate(-0, 58.45, 191.915623)" x="58.45" y="191.915623">0.6</text>
     </g>
    </g>
    <g id="ytick_4">
     <g id="line2d_10">
      <g>
       <use style="stroke:#000000;stroke-width:0.8;" x="65.45" xlink:href="#m88fe20bf48" y="143.327931"/>
      </g>
     </g>
     <g id="text_11">
      <text style="font-family:DejaVu Sans;font-size:15px;font-style:normal;font-weight:normal;text-anchor:end;" transform="rotate(-0, 58.45, 149.026759)" x="58.45" y="149.026759">0.8</text>
     </g>
    </g>
    <g id="ytick_5">
     <g id="line2d_11">
      <g>
       <use style="stroke:#000000;stroke-width:0.8;" x="65.45" xlink:href="#m88fe20bf48" y="100.439067"/>
      </g>
     </g>
     <g id="text_12">
      <text style="font-family:DejaVu Sans;font-size:15px;font-style:normal;font-weight:normal;text-anchor:end;" transform="rotate(-0, 58.45, 106.137895)" x="58.45" y="106.137895">1.0</text>
     </g>
    </g>
    <g id="ytick_6">
     <g id="line2d_12">
      <g>
       <use style="stroke:#000000;stroke-width:0.8;" x="65.45" xlink:href="#m88fe20bf48" y="57.550203"/>
      </g>
     </g>
     <g id="text_13">
      <text style="font-family:DejaVu Sans;font-size:15px;font-style:normal;font-weight:normal;text-anchor:end;" transform="rotate(-0, 58.45, 63.249031)" x="58.45" y="63.249031">1.2</text>
     </g>
    </g>
    <g id="text_14">
     <text style="font-family:DejaVu Sans;font-size:15px;font-style:normal;font-weight:normal;text-anchor:middle;" transform="rotate(-90, 27.475781, 160.1)" x="27.475781" y="160.1">Loss</text>
    </g>
   </g>
   <g id="line2d_13">
    <path clip-path="url(#pfc2a4a5e34)" d="M 94.465909 29.281818 
L 95.491206 52.514414 
L 98.567098 110.090906 
L 101.642989 137.370423 
L 102.668286 144.357432 
L 104.718881 156.519146 
L 105.744178 160.902985 
L 106.769475 163.796827 
L 107.794772 171.742554 
L 110.870663 181.985017 
L 111.89596 184.868992 
L 112.921258 190.552096 
L 113.946555 192.525567 
L 114.971852 193.683132 
L 117.022446 197.994255 
L 118.047743 200.349776 
L 119.07304 203.024448 
L 120.098338 202.045663 
L 121.123635 204.284613 
L 122.148932 207.101496 
L 123.174229 207.777165 
L 124.199526 212.036707 
L 125.224823 212.099472 
L 127.275418 217.822353 
L 128.300715 215.467267 
L 129.326012 219.597085 
L 130.351309 218.677103 
L 131.376606 221.846791 
L 132.401903 222.315937 
L 133.4272 222.055194 
L 134.452498 224.205246 
L 135.477795 227.396632 
L 136.503092 224.656472 
L 137.528389 227.657605 
L 139.578983 229.784305 
L 140.60428 228.86339 
L 141.629578 232.878932 
L 142.654875 231.717814 
L 143.680172 232.104325 
L 144.705469 234.491896 
L 145.730766 235.431978 
L 147.78136 235.951108 
L 148.806658 237.345527 
L 149.831955 239.001298 
L 150.857252 235.36594 
L 151.882549 237.463555 
L 152.907846 237.635599 
L 153.933143 240.270193 
L 154.95844 241.479289 
L 155.983738 242.256037 
L 157.009035 240.664975 
L 158.034332 238.319155 
L 159.059629 241.493803 
L 160.084926 241.84563 
L 161.110223 244.239791 
L 162.13552 245.499585 
L 163.160818 244.276699 
L 164.186115 246.76285 
L 165.211412 245.914658 
L 166.236709 244.269279 
L 167.262006 247.524145 
L 168.287303 245.431209 
L 169.3126 245.948389 
L 170.337898 247.455117 
L 171.363195 249.610403 
L 172.388492 246.989045 
L 173.413789 249.548987 
L 174.439086 249.933031 
L 175.464383 252.675919 
L 176.48968 247.85471 
L 177.514978 250.282276 
L 178.540275 249.89581 
L 179.565572 248.71093 
L 180.590869 252.485546 
L 181.616166 251.992095 
L 182.641463 250.871777 
L 183.66676 249.47999 
L 184.692058 252.7011 
L 185.717355 251.635379 
L 186.742652 253.149462 
L 187.767949 252.220802 
L 188.793246 255.023228 
L 189.818543 252.419125 
L 190.84384 253.272782 
L 191.869137 252.928183 
L 192.894435 256.284614 
L 193.919732 255.378066 
L 194.945029 257.667345 
L 195.970326 255.751169 
L 196.995623 255.705097 
L 198.02092 258.883221 
L 199.046217 255.974257 
L 200.071515 258.568429 
L 201.096812 256.025877 
L 202.122109 257.871842 
L 203.147406 260.833812 
L 204.172703 258.217157 
L 205.198 256.814691 
L 206.223297 258.456907 
L 207.248595 256.117938 
L 208.273892 260.323719 
L 209.299189 259.071268 
L 210.324486 259.29249 
L 211.349783 259.988745 
L 212.37508 259.538152 
L 213.400377 260.071693 
L 214.425675 256.998354 
L 215.450972 260.467158 
L 216.476269 259.18054 
L 217.501566 260.365612 
L 218.526863 257.280329 
L 219.55216 261.999756 
L 220.577457 264.570204 
L 221.602755 258.893434 
L 222.628052 260.95014 
L 223.653349 260.228514 
L 224.678646 263.274301 
L 225.703943 263.563011 
L 226.72924 263.334142 
L 227.754537 263.589921 
L 228.779835 266.396792 
L 229.805132 263.201598 
L 230.830429 265.071781 
L 231.855726 262.850572 
L 232.881023 264.165821 
L 233.90632 264.682253 
L 234.931617 265.940811 
L 235.956915 265.541688 
L 236.982212 262.932785 
L 238.007509 265.199258 
L 239.032806 266.906808 
L 240.058103 264.278963 
L 241.0834 264.215114 
L 242.108697 265.534801 
L 244.159292 265.191886 
L 245.184589 268.600711 
L 247.235183 267.362338 
L 248.26048 267.495382 
L 249.285777 266.624309 
L 250.311075 264.009403 
L 251.336372 266.84434 
L 252.361669 266.842598 
L 253.386966 260.360557 
L 254.412263 266.864893 
L 255.43756 268.665547 
L 256.462857 268.269363 
L 257.488155 267.292287 
L 258.513452 269.69072 
L 259.538749 269.725794 
L 260.564046 267.447955 
L 261.589343 269.386387 
L 262.61464 269.16249 
L 263.639937 271.000319 
L 264.665235 270.608494 
L 265.690532 269.065786 
L 266.715829 269.382811 
L 267.741126 268.499034 
L 268.766423 268.746357 
L 269.79172 266.07658 
L 270.817017 267.57786 
L 271.842314 268.095583 
L 272.867612 272.181097 
L 273.892909 270.474876 
L 274.918206 267.413344 
L 275.943503 271.639685 
L 276.9688 268.557441 
L 279.019394 272.118941 
L 280.044692 272.148036 
L 281.069989 271.027852 
L 282.095286 270.585573 
L 283.120583 271.063797 
L 284.14588 271.227578 
L 285.171177 271.14348 
L 286.196474 270.663527 
L 287.221772 271.614246 
L 288.247069 272.986029 
L 289.272366 272.926047 
L 290.297663 273.255151 
L 291.32296 272.497477 
L 292.348257 270.217327 
L 293.373554 269.66924 
L 294.398852 272.314766 
L 295.424149 270.755991 
L 296.449446 272.811253 
L 297.474743 272.704866 
L 298.50004 272.717593 
L 299.525337 274.076039 
L 300.550634 273.046085 
L 301.575932 273.283377 
L 302.601229 271.850944 
L 303.626526 273.400369 
L 304.651823 274.28206 
L 305.67712 275.358735 
L 306.702417 272.645951 
L 308.753012 274.654371 
L 309.778309 275.124469 
L 310.803606 273.800714 
L 311.828903 276.399081 
L 312.8542 273.685073 
L 313.879497 274.801212 
L 314.904794 274.479032 
L 315.930092 273.254464 
L 316.955389 275.845159 
L 317.980686 275.052203 
L 319.005983 275.212929 
L 320.03128 273.529508 
L 321.056577 274.537627 
L 322.081874 272.213802 
L 323.107172 275.638067 
L 324.132469 275.729279 
L 325.157766 277.595513 
L 326.183063 276.869796 
L 327.20836 273.205574 
L 328.233657 276.253722 
L 329.258954 273.88386 
L 330.284252 275.626615 
L 331.309549 275.468679 
L 332.334846 276.576535 
L 333.360143 273.305355 
L 334.38544 278.167112 
L 335.410737 275.596015 
L 336.436034 274.187794 
L 337.461332 278.767365 
L 338.486629 277.274636 
L 339.511926 279.867495 
L 340.537223 273.503826 
L 341.56252 273.494048 
L 342.587817 275.730186 
L 343.613114 276.131633 
L 344.638412 274.49514 
L 345.663709 277.532338 
L 346.689006 278.773053 
L 347.714303 276.593688 
L 348.7396 274.751564 
L 349.764897 273.749928 
L 350.790194 276.189187 
L 351.815491 277.97809 
L 352.840789 277.878424 
L 353.866086 272.531624 
L 354.891383 275.308154 
L 355.91668 279.89348 
L 356.941977 279.079661 
L 357.967274 277.28568 
L 358.992571 277.899795 
L 360.017869 275.340521 
L 361.043166 279.154397 
L 362.068463 280.707871 
L 363.09376 278.727469 
L 364.119057 280.63403 
L 365.144354 278.182824 
L 366.169651 280.279848 
L 367.194949 278.15179 
L 368.220246 278.788758 
L 369.245543 277.598341 
L 370.27084 277.714467 
L 371.296137 276.847073 
L 372.321434 277.472404 
L 373.346731 277.090849 
L 374.372029 279.130383 
L 375.397326 278.964532 
L 376.422623 277.764425 
L 377.44792 280.388692 
L 378.473217 279.253632 
L 379.498514 280.295563 
L 380.523811 277.344572 
L 381.549109 278.349819 
L 382.574406 279.983944 
L 383.599703 280.853076 
L 384.625 280.131437 
L 385.650297 279.014566 
L 386.675594 279.807276 
L 387.700891 279.343077 
L 388.726189 280.675479 
L 389.751486 279.006101 
L 390.776783 278.287485 
L 391.80208 279.060901 
L 392.827377 281.570373 
L 393.852674 276.692454 
L 394.877971 277.920192 
L 395.903269 276.9519 
L 396.928566 278.718052 
L 397.953863 280.062396 
L 398.97916 279.843723 
L 400.004457 280.385062 
L 401.029754 279.429536 
L 402.055051 280.780696 
L 403.080349 279.012083 
L 404.105646 279.374018 
L 405.130943 276.505966 
L 407.181537 280.603315 
L 408.206834 280.142238 
L 409.232131 281.884913 
L 410.257429 280.742663 
L 411.282726 282.524109 
L 412.308023 280.599784 
L 413.33332 280.503463 
L 414.358617 279.655501 
L 415.383914 279.690271 
L 416.409211 280.198274 
L 417.434509 279.809206 
L 418.459806 282.68578 
L 419.485103 281.01084 
L 420.5104 281.618161 
L 421.535697 280.534926 
L 422.560994 283.046287 
L 423.586291 279.988782 
L 424.611588 281.808566 
L 425.636886 280.62028 
L 426.662183 282.139754 
L 429.738074 281.919219 
L 430.763371 283.681738 
L 431.788668 279.643329 
L 432.813966 282.644645 
L 433.839263 280.396019 
L 434.86456 282.890789 
L 435.889857 283.086403 
L 436.915154 277.765131 
L 437.940451 280.388493 
L 438.965748 284.645383 
L 439.991046 285.162097 
L 441.016343 280.917989 
L 442.04164 279.397316 
L 443.066937 283.991305 
L 444.092234 283.641737 
L 445.117531 280.640373 
L 446.142828 282.413092 
L 448.193423 283.153834 
L 449.21872 281.185118 
L 450.244017 281.340318 
L 451.269314 282.84819 
L 452.294611 282.018643 
L 453.319908 283.950975 
L 454.345206 283.02235 
L 455.370503 283.789262 
L 456.3958 279.774465 
L 457.421097 283.217995 
L 458.446394 281.586299 
L 459.471691 279.591019 
L 460.496988 283.357206 
L 461.522286 282.949988 
L 462.547583 282.724644 
L 463.57288 280.849843 
L 464.598177 283.520737 
L 465.623474 282.390966 
L 466.648771 282.001141 
L 467.674068 284.178732 
L 468.699366 282.196816 
L 469.724663 282.842908 
L 470.74996 279.898781 
L 471.775257 286.713551 
L 472.800554 286.152944 
L 473.825851 283.316397 
L 474.851148 281.054337 
L 475.876446 284.623756 
L 476.901743 285.141773 
L 477.92704 286.27117 
L 478.952337 282.122819 
L 481.002931 282.991782 
L 482.028228 280.710034 
L 483.053526 283.378024 
L 484.078823 282.792554 
L 485.10412 285.936062 
L 486.129417 285.995625 
L 487.154714 283.702042 
L 488.180011 283.555149 
L 489.205308 285.593683 
L 490.230606 282.380408 
L 491.255903 283.984096 
L 492.2812 282.747514 
L 493.306497 282.017032 
L 494.331794 282.985867 
L 495.357091 283.630288 
L 496.382388 282.839029 
L 497.407686 284.316911 
L 498.432983 282.629936 
L 499.45828 286.915856 
L 500.483577 284.834625 
L 501.508874 284.000208 
L 502.534171 286.054415 
L 503.559468 284.941609 
L 504.584765 284.669847 
L 505.610063 284.768236 
L 506.63536 285.350974 
L 507.660657 284.663734 
L 508.685954 282.432955 
L 509.711251 285.864694 
L 510.736548 286.000067 
L 511.761845 281.82039 
L 512.787143 285.428944 
L 513.81244 282.698974 
L 514.837737 283.981744 
L 515.863034 285.963744 
L 516.888331 285.247799 
L 517.913628 285.440144 
L 518.938925 286.725183 
L 519.964223 287.033092 
L 520.98952 285.765561 
L 522.014817 284.709097 
L 523.040114 285.346926 
L 524.065411 286.871312 
L 525.090708 283.859764 
L 526.116005 285.725327 
L 527.141303 287.202295 
L 528.1666 287.123754 
L 529.191897 286.71668 
L 530.217194 284.018291 
L 531.242491 284.643143 
L 532.267788 284.250551 
L 533.293085 287.7747 
L 534.318383 285.571299 
L 536.368977 283.108554 
L 537.394274 286.120421 
L 538.419571 283.719192 
L 539.444868 287.901576 
L 540.470165 284.628437 
L 541.495463 282.923817 
L 543.546057 286.444464 
L 544.571354 286.482889 
L 545.596651 287.570557 
L 546.621948 286.250457 
L 547.647245 284.383562 
L 548.672543 284.042145 
L 549.69784 288.135636 
L 550.723137 289.768068 
L 551.748434 286.213652 
L 552.773731 287.295133 
L 553.799028 285.778899 
L 554.824325 282.821236 
L 555.849623 286.165132 
L 556.87492 287.124834 
L 557.900217 287.779959 
L 559.950811 283.696082 
L 560.976108 288.596747 
L 562.001405 285.933774 
L 563.026703 287.878102 
L 564.052 288.070638 
L 565.077297 288.646147 
L 566.102594 284.918404 
L 567.127891 289.279994 
L 568.153188 286.480908 
L 569.178485 286.553461 
L 570.203783 288.826607 
L 571.22908 288.036945 
L 572.254377 285.60093 
L 573.279674 287.211239 
L 574.304971 287.768238 
L 575.330268 287.462441 
L 577.380863 287.593881 
L 578.40616 286.337454 
L 579.431457 289.063937 
L 580.456754 285.601662 
L 581.482051 287.042793 
L 582.507348 286.077356 
L 583.532645 286.693362 
L 584.557942 285.387323 
L 586.608537 289.317256 
L 587.633834 286.658298 
L 588.659131 288.798865 
L 589.684428 285.982431 
L 590.709725 287.229051 
L 591.735022 287.684287 
L 592.76032 287.528575 
L 593.785617 288.355518 
L 594.810914 288.637828 
L 595.836211 287.551454 
L 596.861508 287.602588 
L 597.886805 289.300439 
L 598.912102 288.090495 
L 599.9374 287.771488 
L 600.962697 284.217589 
L 601.987994 287.706991 
L 603.013291 287.469874 
L 604.038588 284.312245 
L 605.063885 286.624072 
L 606.089182 289.343391 
L 607.11448 285.817321 
L 608.139777 287.710196 
L 609.165074 289.222099 
L 610.190371 286.986649 
L 611.215668 286.293753 
L 612.240965 285.224507 
L 613.266262 286.542149 
L 614.29156 287.146365 
L 615.316857 288.867849 
L 616.342154 290.086443 
L 617.367451 287.849077 
L 618.392748 289.726543 
L 619.418045 288.616062 
L 621.46864 284.726781 
L 622.493937 285.958909 
L 623.519234 288.381315 
L 624.544531 287.94706 
L 625.569828 289.780405 
L 626.595125 286.557663 
L 628.64572 285.45461 
L 629.671017 286.587736 
L 630.696314 286.734526 
L 631.721611 288.811642 
L 632.746908 289.331721 
L 633.772205 286.996306 
L 634.797502 287.964111 
L 635.8228 288.554832 
L 636.848097 288.967849 
L 637.873394 286.697357 
L 638.898691 286.504871 
L 639.923988 289.151332 
L 640.949285 289.574763 
L 641.974582 287.184672 
L 642.99988 287.650699 
L 644.025177 288.619061 
L 645.050474 290.725692 
L 646.075771 287.238222 
L 647.101068 289.726433 
L 648.126365 287.360893 
L 649.151662 288.554674 
L 650.17696 288.057342 
L 651.202257 288.000824 
L 652.227554 288.183274 
L 653.252851 288.077013 
L 654.278148 289.243366 
L 655.303445 289.361188 
L 656.328742 287.126467 
L 657.35404 288.670928 
L 658.379337 287.435484 
L 659.404634 289.044768 
L 660.429931 285.873903 
L 661.455228 288.689872 
L 662.480525 289.657007 
L 663.505822 288.141851 
L 664.531119 290.076794 
L 665.556417 288.740399 
L 666.581714 289.9211 
L 667.607011 289.106202 
L 668.632308 290.918182 
L 669.657605 287.249569 
L 670.682902 286.343474 
L 671.708199 288.213431 
L 672.733497 289.728202 
L 673.758794 288.496842 
L 674.784091 289.462716 
L 674.784091 289.462716 
" style="fill:none;stroke:#1f77b4;stroke-linecap:square;stroke-width:1.5;"/>
   </g>
   <g id="line2d_14">
    <path clip-path="url(#pfc2a4a5e34)" d="M 94.465909 47.552796 
L 96.516503 96.643565 
L 98.567098 131.714967 
L 99.592395 142.018694 
L 100.617692 150.590566 
L 101.642989 161.846236 
L 102.668286 170.535702 
L 104.718881 179.073152 
L 105.744178 186.559523 
L 106.769475 189.66428 
L 107.794772 197.197918 
L 108.820069 199.76397 
L 109.845366 203.027464 
L 110.870663 206.751503 
L 111.89596 208.565149 
L 112.921258 213.570654 
L 113.946555 211.137169 
L 115.997149 220.015698 
L 117.022446 218.048554 
L 119.07304 224.2179 
L 120.098338 225.303158 
L 122.148932 230.468647 
L 123.174229 229.040566 
L 124.199526 228.814468 
L 125.224823 233.525088 
L 126.25012 236.257003 
L 127.275418 235.262414 
L 128.300715 235.618747 
L 129.326012 237.151965 
L 130.351309 237.807624 
L 131.376606 237.537377 
L 132.401903 236.033736 
L 133.4272 238.784792 
L 134.452498 238.115725 
L 135.477795 237.698946 
L 136.503092 241.230956 
L 137.528389 242.597888 
L 138.553686 242.005474 
L 139.578983 243.467363 
L 140.60428 242.464081 
L 141.629578 244.431493 
L 142.654875 245.474693 
L 143.680172 242.739575 
L 144.705469 246.000175 
L 145.730766 246.160543 
L 147.78136 246.039403 
L 148.806658 242.830282 
L 149.831955 248.071638 
L 150.857252 247.441523 
L 151.882549 247.466704 
L 152.907846 245.049101 
L 153.933143 246.952732 
L 154.95844 246.253614 
L 155.983738 249.05498 
L 157.009035 246.045263 
L 158.034332 247.625269 
L 159.059629 247.445767 
L 160.084926 248.842602 
L 161.110223 248.193449 
L 162.13552 249.102011 
L 163.160818 249.398333 
L 164.186115 251.023823 
L 165.211412 250.979029 
L 166.236709 248.057923 
L 167.262006 248.497562 
L 168.287303 247.022546 
L 169.3126 250.847581 
L 170.337898 252.162759 
L 171.363195 252.13005 
L 172.388492 250.085135 
L 173.413789 250.644036 
L 174.439086 251.457148 
L 175.464383 250.939527 
L 176.48968 253.011258 
L 177.514978 250.451061 
L 178.540275 251.505918 
L 179.565572 250.614075 
L 180.590869 250.563503 
L 181.616166 252.674194 
L 182.641463 251.49396 
L 183.66676 252.986813 
L 184.692058 252.615557 
L 185.717355 251.374859 
L 186.742652 248.390795 
L 187.767949 252.38919 
L 188.793246 253.298819 
L 189.818543 253.600886 
L 190.84384 254.495797 
L 191.869137 252.587616 
L 192.894435 254.029463 
L 193.919732 252.987152 
L 194.945029 252.555553 
L 195.970326 255.93795 
L 196.995623 255.558878 
L 198.02092 253.893406 
L 199.046217 254.911579 
L 200.071515 253.995917 
L 201.096812 251.707839 
L 202.122109 256.022931 
L 203.147406 255.008337 
L 204.172703 256.123582 
L 205.198 256.931141 
L 206.223297 257.128512 
L 207.248595 255.450597 
L 208.273892 254.238574 
L 209.299189 254.70009 
L 210.324486 255.797522 
L 211.349783 254.317816 
L 212.37508 253.190269 
L 213.400377 255.165931 
L 214.425675 255.93131 
L 215.450972 256.004237 
L 216.476269 254.896886 
L 217.501566 255.115718 
L 218.526863 253.249685 
L 219.55216 254.159077 
L 220.577457 254.579275 
L 221.602755 253.070931 
L 222.628052 257.324375 
L 223.653349 255.72836 
L 224.678646 255.827093 
L 225.703943 258.127646 
L 226.72924 256.555047 
L 227.754537 257.626002 
L 228.779835 257.855341 
L 229.805132 256.281732 
L 230.830429 254.980332 
L 231.855726 254.745376 
L 232.881023 256.636403 
L 233.90632 253.104221 
L 234.931617 254.19256 
L 235.956915 255.026162 
L 236.982212 253.862921 
L 238.007509 255.5542 
L 239.032806 256.353425 
L 240.058103 257.809147 
L 241.0834 258.162202 
L 242.108697 255.236321 
L 243.133995 255.398402 
L 244.159292 256.406834 
L 245.184589 256.156354 
L 246.209886 257.074771 
L 247.235183 256.492607 
L 248.26048 252.449463 
L 249.285777 257.135018 
L 250.311075 256.788329 
L 251.336372 254.323855 
L 252.361669 256.664875 
L 253.386966 257.858217 
L 255.43756 255.463251 
L 256.462857 257.952879 
L 257.488155 256.14818 
L 258.513452 257.222178 
L 259.538749 256.932834 
L 260.564046 258.616029 
L 261.589343 255.942047 
L 262.61464 258.094937 
L 263.639937 257.800852 
L 264.665235 258.342957 
L 265.690532 255.310514 
L 266.715829 257.823284 
L 267.741126 257.350335 
L 268.766423 256.140869 
L 269.79172 256.296533 
L 270.817017 257.718332 
L 271.842314 256.633176 
L 272.867612 256.746679 
L 273.892909 257.590328 
L 274.918206 254.86141 
L 275.943503 257.697095 
L 276.9688 256.232739 
L 277.994097 258.243347 
L 279.019394 256.896713 
L 280.044692 257.40246 
L 281.069989 256.880882 
L 282.095286 259.137849 
L 283.120583 257.297904 
L 284.14588 253.653235 
L 285.171177 256.266285 
L 286.196474 256.714143 
L 287.221772 259.952131 
L 288.247069 254.990781 
L 289.272366 260.122322 
L 290.297663 254.696146 
L 291.32296 256.754067 
L 292.348257 257.193105 
L 293.373554 256.51279 
L 294.398852 258.959797 
L 295.424149 259.183237 
L 296.449446 259.577513 
L 297.474743 257.293341 
L 298.50004 257.868091 
L 299.525337 257.608242 
L 300.550634 257.068584 
L 301.575932 256.118309 
L 302.601229 256.304484 
L 303.626526 258.456543 
L 304.651823 256.45947 
L 305.67712 257.580268 
L 306.702417 257.181519 
L 307.727714 257.645935 
L 308.753012 255.526534 
L 309.778309 256.957184 
L 310.803606 257.597038 
L 311.828903 255.123176 
L 312.8542 255.110318 
L 313.879497 256.737272 
L 314.904794 254.657366 
L 315.930092 259.957678 
L 316.955389 258.480963 
L 317.980686 258.841744 
L 319.005983 256.957676 
L 320.03128 256.92142 
L 321.056577 258.50744 
L 322.081874 259.153277 
L 323.107172 257.692973 
L 324.132469 258.160987 
L 325.157766 255.164155 
L 326.183063 255.737224 
L 327.20836 258.029775 
L 328.233657 259.14146 
L 329.258954 259.197674 
L 330.284252 256.816008 
L 331.309549 259.207721 
L 332.334846 257.004598 
L 333.360143 258.978024 
L 334.38544 258.12339 
L 335.410737 257.728538 
L 336.436034 258.50629 
L 337.461332 256.962386 
L 338.486629 257.390656 
L 339.511926 256.63572 
L 341.56252 256.51612 
L 342.587817 257.77631 
L 343.613114 256.73531 
L 344.638412 256.391177 
L 345.663709 259.908142 
L 346.689006 260.64271 
L 347.714303 256.752623 
L 348.7396 259.04465 
L 349.764897 260.074025 
L 350.790194 258.704025 
L 351.815491 257.579597 
L 352.840789 258.108364 
L 354.891383 256.680961 
L 355.91668 259.928989 
L 356.941977 258.88611 
L 357.967274 259.731362 
L 358.992571 255.468657 
L 360.017869 255.454425 
L 361.043166 256.886698 
L 362.068463 257.476435 
L 363.09376 254.840882 
L 364.119057 256.677746 
L 365.144354 256.078327 
L 366.169651 257.545917 
L 367.194949 257.92527 
L 368.220246 257.709301 
L 370.27084 256.922021 
L 371.296137 258.36282 
L 372.321434 259.54421 
L 373.346731 256.53211 
L 374.372029 256.739643 
L 375.397326 255.8396 
L 376.422623 258.376349 
L 377.44792 257.163285 
L 378.473217 259.038521 
L 379.498514 255.67435 
L 380.523811 256.122553 
L 381.549109 259.524596 
L 382.574406 257.953346 
L 383.599703 255.906565 
L 384.625 256.137527 
L 385.650297 256.004001 
L 386.675594 256.555469 
L 387.700891 253.392983 
L 388.726189 255.18504 
L 389.751486 255.865068 
L 390.776783 254.096325 
L 391.80208 259.261903 
L 392.827377 254.773911 
L 393.852674 252.023616 
L 394.877971 257.138022 
L 395.903269 258.941206 
L 396.928566 257.820446 
L 397.953863 260.080007 
L 398.97916 257.200902 
L 400.004457 257.338608 
L 401.029754 260.359336 
L 402.055051 257.05756 
L 403.080349 256.682495 
L 404.105646 257.108464 
L 405.130943 257.102686 
L 406.15624 257.532202 
L 407.181537 256.482094 
L 408.206834 258.599099 
L 409.232131 255.777538 
L 410.257429 257.503315 
L 411.282726 258.481774 
L 412.308023 256.753287 
L 413.33332 258.874005 
L 414.358617 256.526179 
L 415.383914 255.766929 
L 416.409211 256.48497 
L 417.434509 258.385936 
L 418.459806 259.272148 
L 419.485103 256.448427 
L 420.5104 258.487475 
L 421.535697 258.12955 
L 422.560994 257.983319 
L 423.586291 254.580994 
L 424.611588 256.842799 
L 425.636886 257.869618 
L 426.662183 258.06683 
L 427.68748 256.067635 
L 428.712777 258.119421 
L 429.738074 257.303777 
L 430.763371 257.904743 
L 431.788668 258.891395 
L 432.813966 258.609261 
L 433.839263 257.115947 
L 434.86456 258.96916 
L 435.889857 255.507329 
L 436.915154 258.651275 
L 437.940451 260.557193 
L 438.965748 255.046779 
L 439.991046 256.663622 
L 441.016343 258.063379 
L 442.04164 258.919081 
L 443.066937 257.599703 
L 444.092234 253.727779 
L 445.117531 258.8701 
L 446.142828 258.545754 
L 447.168126 257.600943 
L 448.193423 255.371394 
L 449.21872 259.319895 
L 451.269314 257.244591 
L 452.294611 257.350137 
L 453.319908 256.409576 
L 454.345206 256.825032 
L 455.370503 259.207222 
L 456.3958 256.648156 
L 457.421097 258.899358 
L 458.446394 258.472929 
L 459.471691 257.702048 
L 460.496988 258.028542 
L 461.522286 257.764666 
L 462.547583 253.858588 
L 463.57288 258.769807 
L 464.598177 258.204542 
L 465.623474 257.324739 
L 466.648771 258.034607 
L 467.674068 257.969195 
L 468.699366 258.973487 
L 469.724663 260.849087 
L 470.74996 257.467404 
L 471.775257 259.429103 
L 472.800554 259.187359 
L 473.825851 257.892517 
L 474.851148 256.950633 
L 475.876446 255.402204 
L 476.901743 254.931665 
L 477.92704 255.636349 
L 478.952337 258.117356 
L 479.977634 259.607142 
L 481.002931 254.71043 
L 482.028228 256.665834 
L 483.053526 256.453686 
L 484.078823 256.516867 
L 485.10412 254.88712 
L 486.129417 255.561166 
L 487.154714 255.480289 
L 488.180011 256.894521 
L 489.205308 256.499331 
L 490.230606 258.838401 
L 491.255903 254.278537 
L 492.2812 256.076947 
L 493.306497 259.052939 
L 494.331794 257.772962 
L 495.357091 256.13938 
L 496.382388 259.406064 
L 497.407686 258.116187 
L 498.432983 257.6429 
L 499.45828 258.319873 
L 500.483577 257.777697 
L 501.508874 259.01821 
L 502.534171 256.53133 
L 503.559468 257.474415 
L 504.584765 257.28454 
L 505.610063 258.288231 
L 506.63536 258.841143 
L 507.660657 257.228243 
L 508.685954 258.674812 
L 509.711251 258.701968 
L 510.736548 254.174435 
L 511.761845 260.495092 
L 512.787143 257.17732 
L 513.81244 255.58078 
L 514.837737 256.67418 
L 515.863034 258.219445 
L 516.888331 252.38487 
L 517.913628 258.061429 
L 518.938925 254.198094 
L 519.964223 257.235567 
L 520.98952 256.894962 
L 522.014817 255.575718 
L 523.040114 259.184733 
L 524.065411 255.72751 
L 525.090708 258.348351 
L 526.116005 257.93324 
L 527.141303 257.336588 
L 528.1666 254.692312 
L 529.191897 257.430273 
L 530.217194 254.709887 
L 531.242491 257.475297 
L 532.267788 258.483104 
L 533.293085 255.987992 
L 534.318383 257.511342 
L 535.34368 252.601708 
L 536.368977 258.445653 
L 537.394274 258.096177 
L 538.419571 255.882841 
L 539.444868 255.754102 
L 540.470165 254.907974 
L 541.495463 255.962651 
L 542.52076 256.289414 
L 543.546057 258.216563 
L 544.571354 258.262066 
L 546.621948 259.217806 
L 548.672543 258.051881 
L 549.69784 258.302924 
L 550.723137 256.325254 
L 551.748434 254.99252 
L 552.773731 254.646393 
L 553.799028 254.751287 
L 554.824325 255.871504 
L 555.849623 255.246016 
L 556.87492 257.012523 
L 557.900217 258.1417 
L 558.925514 254.935302 
L 559.950811 256.236995 
L 560.976108 254.758656 
L 562.001405 256.947802 
L 563.026703 256.017064 
L 565.077297 256.150462 
L 566.102594 252.995875 
L 567.127891 255.020876 
L 568.153188 256.419827 
L 569.178485 255.745238 
L 570.203783 254.66979 
L 571.22908 254.158771 
L 572.254377 255.470294 
L 573.279674 255.495084 
L 574.304971 256.454971 
L 575.330268 255.342654 
L 576.355565 258.20543 
L 577.380863 258.678826 
L 578.40616 253.653803 
L 579.431457 252.73191 
L 580.456754 254.495439 
L 581.482051 254.065514 
L 582.507348 257.497518 
L 583.532645 256.154354 
L 584.557942 255.159796 
L 585.58324 256.576642 
L 586.608537 256.967716 
L 587.633834 257.222548 
L 588.659131 255.625702 
L 589.684428 258.551148 
L 590.709725 256.288615 
L 591.735022 255.763593 
L 592.76032 256.042724 
L 594.810914 257.929463 
L 595.836211 257.468472 
L 596.861508 257.130717 
L 597.886805 257.818964 
L 598.912102 256.957829 
L 599.9374 253.675341 
L 600.962697 254.829691 
L 601.987994 254.335001 
L 603.013291 256.614834 
L 604.038588 255.022864 
L 605.063885 253.872623 
L 606.089182 256.302848 
L 607.11448 254.559387 
L 608.139777 257.41436 
L 609.165074 254.384569 
L 611.215668 258.107278 
L 612.240965 258.028427 
L 613.266262 255.867311 
L 614.29156 257.481158 
L 615.316857 253.288005 
L 616.342154 253.391468 
L 617.367451 256.341506 
L 618.392748 255.924542 
L 620.443342 253.240495 
L 621.46864 256.90065 
L 622.493937 258.032849 
L 623.519234 256.5943 
L 624.544531 253.610901 
L 626.595125 256.471722 
L 627.620422 254.464315 
L 628.64572 255.456221 
L 629.671017 254.794835 
L 630.696314 257.942788 
L 631.721611 255.875064 
L 632.746908 256.955247 
L 633.772205 255.762628 
L 634.797502 255.69429 
L 635.8228 257.609622 
L 636.848097 257.295137 
L 637.873394 250.26272 
L 638.898691 254.488358 
L 639.923988 255.192364 
L 640.949285 255.447165 
L 641.974582 257.072253 
L 642.99988 255.995597 
L 644.025177 254.524697 
L 645.050474 252.681083 
L 646.075771 256.590606 
L 647.101068 256.285055 
L 648.126365 256.978619 
L 650.17696 256.220839 
L 651.202257 255.427481 
L 652.227554 255.651732 
L 653.252851 259.504676 
L 654.278148 256.014073 
L 655.303445 257.291078 
L 656.328742 256.401402 
L 657.35404 257.04164 
L 658.379337 255.138764 
L 659.404634 256.226668 
L 660.429931 254.037074 
L 661.455228 253.350662 
L 662.480525 255.467066 
L 663.505822 255.0418 
L 664.531119 255.485204 
L 665.556417 256.24391 
L 666.581714 255.266685 
L 667.607011 259.359972 
L 668.632308 257.127918 
L 669.657605 255.167293 
L 670.682902 255.540626 
L 671.708199 256.396392 
L 672.733497 255.742151 
L 673.758794 257.2385 
L 674.784091 256.721192 
L 674.784091 256.721192 
" style="fill:none;stroke:#ff7f0e;stroke-linecap:square;stroke-width:1.5;"/>
   </g>
   <g id="patch_3">
    <path d="M 65.45 304 
L 65.45 16.2 
" style="fill:none;stroke:#000000;stroke-linecap:square;stroke-linejoin:miter;stroke-width:0.8;"/>
   </g>
   <g id="patch_4">
    <path d="M 703.8 304 
L 703.8 16.2 
" style="fill:none;stroke:#000000;stroke-linecap:square;stroke-linejoin:miter;stroke-width:0.8;"/>
   </g>
   <g id="patch_5">
    <path d="M 65.45 304 
L 703.8 304 
" style="fill:none;stroke:#000000;stroke-linecap:square;stroke-linejoin:miter;stroke-width:0.8;"/>
   </g>
   <g id="patch_6">
    <path d="M 65.45 16.2 
L 703.8 16.2 
" style="fill:none;stroke:#000000;stroke-linecap:square;stroke-linejoin:miter;stroke-width:0.8;"/>
   </g>
   <g id="legend_1">
    <g id="patch_7">
     <path d="M 532.153125 72.234375 
L 693.3 72.234375 
Q 696.3 72.234375 696.3 69.234375 
L 696.3 26.7 
Q 696.3 23.7 693.3 23.7 
L 532.153125 23.7 
Q 529.153125 23.7 529.153125 26.7 
L 529.153125 69.234375 
Q 529.153125 72.234375 532.153125 72.234375 
z
" style="fill:#ffffff;opacity:0.8;stroke:#cccccc;stroke-linejoin:miter;"/>
    </g>
    <g id="line2d_15">
     <path d="M 535.153125 35.847656 
L 565.153125 35.847656 
" style="fill:none;stroke:#1f77b4;stroke-linecap:square;stroke-width:1.5;"/>
    </g>
    <g id="line2d_16"/>
    <g id="text_15">
     <text style="font-family:DejaVu Sans;font-size:15px;font-style:normal;font-weight:normal;text-anchor:start;" transform="rotate(-0, 577.153125, 41.097656)" x="577.153125" y="41.097656">Training Loss</text>
    </g>
    <g id="line2d_17">
     <path d="M 535.153125 57.864844 
L 565.153125 57.864844 
" style="fill:none;stroke:#ff7f0e;stroke-linecap:square;stroke-width:1.5;"/>
    </g>
    <g id="line2d_18"/>
    <g id="text_16">
     <text style="font-family:DejaVu Sans;font-size:15px;font-style:normal;font-weight:normal;text-anchor:start;" transform="rotate(-0, 577.153125, 63.114844)" x="577.153125" y="63.114844">Validation Loss</text>
    </g>
   </g>
  </g>
 </g>
 <defs>
  <clipPath id="pfc2a4a5e34">
   <rect height="287.8" width="638.35" x="65.45" y="16.2"/>
  </clipPath>
 </defs>
</svg>
