<?xml version="1.0" encoding="utf-8" standalone="no"?>
<!DOCTYPE svg PUBLIC "-//W3C//DTD SVG 1.1//EN"
  "http://www.w3.org/Graphics/SVG/1.1/DTD/svg11.dtd">
<!-- Created with matplotlib (https://matplotlib.org/) -->
<svg height="360pt" version="1.1" viewBox="0 0 720 360" width="720pt" xmlns="http://www.w3.org/2000/svg" xmlns:xlink="http://www.w3.org/1999/xlink">
 <defs>
  <style type="text/css">
*{stroke-linecap:butt;stroke-linejoin:round;}
  </style>
 </defs>
 <g id="figure_1">
  <g id="patch_1">
   <path d="M 0 360 
L 720 360 
L 720 0 
L 0 0 
z
" style="fill:#ffffff;"/>
  </g>
  <g id="axes_1">
   <g id="patch_2">
    <path d="M 65.45 304 
L 703.8 304 
L 703.8 16.2 
L 65.45 16.2 
z
" style="fill:#ffffff;"/>
   </g>
   <g id="matplotlib.axis_1">
    <g id="xtick_1">
     <g id="line2d_1">
      <defs>
       <path d="M 0 0 
L 0 3.5 
" id="mfe41a8108f" style="stroke:#000000;stroke-width:0.8;"/>
      </defs>
      <g>
       <use style="stroke:#000000;stroke-width:0.8;" x="93.440612" xlink:href="#mfe41a8108f" y="304"/>
      </g>
     </g>
     <g id="text_1">
      <text style="font-family:DejaVu Sans;font-size:15px;font-style:normal;font-weight:normal;text-anchor:middle;" transform="rotate(-0, 93.440612, 322.397656)" x="93.440612" y="322.397656">0</text>
     </g>
    </g>
    <g id="xtick_2">
     <g id="line2d_2">
      <g>
       <use style="stroke:#000000;stroke-width:0.8;" x="195.970326" xlink:href="#mfe41a8108f" y="304"/>
      </g>
     </g>
     <g id="text_2">
      <text style="font-family:DejaVu Sans;font-size:15px;font-style:normal;font-weight:normal;text-anchor:middle;" transform="rotate(-0, 195.970326, 322.397656)" x="195.970326" y="322.397656">100</text>
     </g>
    </g>
    <g id="xtick_3">
     <g id="line2d_3">
      <g>
       <use style="stroke:#000000;stroke-width:0.8;" x="298.50004" xlink:href="#mfe41a8108f" y="304"/>
      </g>
     </g>
     <g id="text_3">
      <text style="font-family:DejaVu Sans;font-size:15px;font-style:normal;font-weight:normal;text-anchor:middle;" transform="rotate(-0, 298.50004, 322.397656)" x="298.50004" y="322.397656">200</text>
     </g>
    </g>
    <g id="xtick_4">
     <g id="line2d_4">
      <g>
       <use style="stroke:#000000;stroke-width:0.8;" x="401.029754" xlink:href="#mfe41a8108f" y="304"/>
      </g>
     </g>
     <g id="text_4">
      <text style="font-family:DejaVu Sans;font-size:15px;font-style:normal;font-weight:normal;text-anchor:middle;" transform="rotate(-0, 401.029754, 322.397656)" x="401.029754" y="322.397656">300</text>
     </g>
    </g>
    <g id="xtick_5">
     <g id="line2d_5">
      <g>
       <use style="stroke:#000000;stroke-width:0.8;" x="503.559468" xlink:href="#mfe41a8108f" y="304"/>
      </g>
     </g>
     <g id="text_5">
      <text style="font-family:DejaVu Sans;font-size:15px;font-style:normal;font-weight:normal;text-anchor:middle;" transform="rotate(-0, 503.559468, 322.397656)" x="503.559468" y="322.397656">400</text>
     </g>
    </g>
    <g id="xtick_6">
     <g id="line2d_6">
      <g>
       <use style="stroke:#000000;stroke-width:0.8;" x="606.089182" xlink:href="#mfe41a8108f" y="304"/>
      </g>
     </g>
     <g id="text_6">
      <text style="font-family:DejaVu Sans;font-size:15px;font-style:normal;font-weight:normal;text-anchor:middle;" transform="rotate(-0, 606.089182, 322.397656)" x="606.089182" y="322.397656">500</text>
     </g>
    </g>
    <g id="text_7">
     <text style="font-family:DejaVu Sans;font-size:15px;font-style:normal;font-weight:normal;text-anchor:middle;" transform="rotate(-0, 384.625, 340.914844)" x="384.625" y="340.914844">Epoch</text>
    </g>
   </g>
   <g id="matplotlib.axis_2">
    <g id="ytick_1">
     <g id="line2d_7">
      <defs>
       <path d="M 0 0 
L -3.5 0 
" id="me335e37ac4" style="stroke:#000000;stroke-width:0.8;"/>
      </defs>
      <g>
       <use style="stroke:#000000;stroke-width:0.8;" x="65.45" xlink:href="#me335e37ac4" y="269.059778"/>
      </g>
     </g>
     <g id="text_8">
      <text style="font-family:DejaVu Sans;font-size:15px;font-style:normal;font-weight:normal;text-anchor:end;" transform="rotate(-0, 58.45, 274.758606)" x="58.45" y="274.758606">0.4</text>
     </g>
    </g>
    <g id="ytick_2">
     <g id="line2d_8">
      <g>
       <use style="stroke:#000000;stroke-width:0.8;" x="65.45" xlink:href="#me335e37ac4" y="226.269046"/>
      </g>
     </g>
     <g id="text_9">
      <text style="font-family:DejaVu Sans;font-size:15px;font-style:normal;font-weight:normal;text-anchor:end;" transform="rotate(-0, 58.45, 231.967874)" x="58.45" y="231.967874">0.5</text>
     </g>
    </g>
    <g id="ytick_3">
     <g id="line2d_9">
      <g>
       <use style="stroke:#000000;stroke-width:0.8;" x="65.45" xlink:href="#me335e37ac4" y="183.478314"/>
      </g>
     </g>
     <g id="text_10">
      <text style="font-family:DejaVu Sans;font-size:15px;font-style:normal;font-weight:normal;text-anchor:end;" transform="rotate(-0, 58.45, 189.177142)" x="58.45" y="189.177142">0.6</text>
     </g>
    </g>
    <g id="ytick_4">
     <g id="line2d_10">
      <g>
       <use style="stroke:#000000;stroke-width:0.8;" x="65.45" xlink:href="#me335e37ac4" y="140.687581"/>
      </g>
     </g>
     <g id="text_11">
      <text style="font-family:DejaVu Sans;font-size:15px;font-style:normal;font-weight:normal;text-anchor:end;" transform="rotate(-0, 58.45, 146.38641)" x="58.45" y="146.38641">0.7</text>
     </g>
    </g>
    <g id="ytick_5">
     <g id="line2d_11">
      <g>
       <use style="stroke:#000000;stroke-width:0.8;" x="65.45" xlink:href="#me335e37ac4" y="97.896849"/>
      </g>
     </g>
     <g id="text_12">
      <text style="font-family:DejaVu Sans;font-size:15px;font-style:normal;font-weight:normal;text-anchor:end;" transform="rotate(-0, 58.45, 103.595677)" x="58.45" y="103.595677">0.8</text>
     </g>
    </g>
    <g id="ytick_6">
     <g id="line2d_12">
      <g>
       <use style="stroke:#000000;stroke-width:0.8;" x="65.45" xlink:href="#me335e37ac4" y="55.106117"/>
      </g>
     </g>
     <g id="text_13">
      <text style="font-family:DejaVu Sans;font-size:15px;font-style:normal;font-weight:normal;text-anchor:end;" transform="rotate(-0, 58.45, 60.804945)" x="58.45" y="60.804945">0.9</text>
     </g>
    </g>
    <g id="text_14">
     <text style="font-family:DejaVu Sans;font-size:15px;font-style:normal;font-weight:normal;text-anchor:middle;" transform="rotate(-90, 27.475781, 160.1)" x="27.475781" y="160.1">Accuracy</text>
    </g>
   </g>
   <g id="line2d_13">
    <path clip-path="url(#p202320b3de)" d="M 94.465909 290.918182 
L 95.491206 251.400556 
L 96.516503 223.405952 
L 97.541801 200.359906 
L 98.567098 183.181397 
L 99.592395 171.516998 
L 101.642989 153.560858 
L 102.668286 145.289731 
L 103.693583 141.260205 
L 104.718881 134.685713 
L 105.744178 132.352823 
L 106.769475 128.74745 
L 107.794772 122.667837 
L 108.820069 121.041877 
L 109.845366 117.648605 
L 110.870663 113.336303 
L 111.89596 110.437859 
L 112.921258 105.065175 
L 113.946555 105.277251 
L 114.971852 104.570297 
L 115.997149 101.883955 
L 117.022446 98.632059 
L 118.047743 97.713053 
L 119.07304 95.450864 
L 120.098338 96.299169 
L 121.123635 95.309463 
L 122.148932 91.845491 
L 123.174229 92.55242 
L 124.199526 89.159149 
L 125.224823 88.381519 
L 126.25012 85.200298 
L 127.275418 85.4124 
L 128.300715 83.574363 
L 129.326012 82.726033 
L 130.351309 84.069216 
L 131.376606 82.089804 
L 133.4272 80.534544 
L 134.452498 80.110391 
L 135.477795 77.918877 
L 136.503092 79.262061 
L 137.528389 76.505018 
L 138.553686 72.404792 
L 140.60428 76.010165 
L 141.629578 71.768563 
L 142.654875 74.31353 
L 143.680172 71.768563 
L 144.705469 73.182422 
L 145.730766 71.20301 
L 146.756063 70.213303 
L 147.78136 71.132309 
L 148.806658 68.728744 
L 149.831955 68.233891 
L 150.857252 70.778857 
L 151.882549 68.87012 
L 152.907846 67.526961 
L 153.933143 67.951114 
L 154.95844 65.971701 
L 155.983738 64.699218 
L 157.009035 67.38556 
L 158.034332 69.223597 
L 159.059629 67.173484 
L 160.084926 63.921588 
L 161.110223 65.335447 
L 162.13552 62.719806 
L 163.160818 61.871475 
L 164.186115 63.356035 
L 165.211412 64.487142 
L 166.236709 64.062964 
L 167.262006 61.023145 
L 168.287303 64.416441 
L 169.3126 64.275066 
L 170.337898 63.497436 
L 171.363195 59.679986 
L 172.388492 63.002583 
L 173.413789 58.336803 
L 174.439086 60.386916 
L 175.464383 57.91265 
L 176.48968 63.143958 
L 177.514978 61.871475 
L 178.540275 59.39721 
L 179.565572 61.942176 
L 180.590869 58.336803 
L 181.616166 58.548879 
L 182.641463 59.750687 
L 183.66676 59.750687 
L 184.692058 58.407503 
L 185.717355 58.124726 
L 186.742652 58.973057 
L 187.767949 58.266102 
L 188.793246 55.791836 
L 189.818543 58.478204 
L 190.84384 57.983351 
L 191.869137 57.205721 
L 192.894435 55.296983 
L 193.919732 56.35739 
L 194.945029 54.095201 
L 195.970326 56.852243 
L 196.995623 56.569466 
L 198.02092 53.812424 
L 199.046217 55.791836 
L 200.071515 52.46924 
L 201.096812 56.28669 
L 202.122109 54.80213 
L 203.147406 51.338158 
L 204.172703 55.933238 
L 205.198 55.50906 
L 206.223297 54.73143 
L 207.248595 55.014206 
L 208.273892 50.914006 
L 209.299189 54.095201 
L 211.349783 50.843305 
L 212.37508 52.398565 
L 213.400377 54.236576 
L 214.425675 53.529647 
L 215.450972 51.196783 
L 216.476269 53.388271 
L 217.501566 53.24687 
L 218.526863 54.943531 
L 219.55216 53.105495 
L 220.577457 47.944861 
L 221.602755 54.307277 
L 222.628052 51.408859 
L 223.653349 52.752017 
L 224.678646 49.288045 
L 225.703943 50.489828 
L 226.72924 50.419153 
L 227.754537 50.560528 
L 228.779835 50.560528 
L 229.805132 49.924299 
L 230.830429 47.874186 
L 231.855726 51.762311 
L 232.881023 48.863893 
L 233.90632 49.712198 
L 234.931617 49.217345 
L 235.956915 48.369039 
L 236.982212 49.853599 
L 238.007509 49.641523 
L 239.032806 47.591409 
L 240.058103 49.570822 
L 241.0834 49.712198 
L 243.133995 48.581116 
L 244.159292 49.005268 
L 245.184589 46.81378 
L 246.209886 47.308633 
L 247.235183 47.591409 
L 248.26048 48.298339 
L 249.285777 48.510415 
L 250.311075 50.843305 
L 251.336372 48.086263 
L 252.361669 46.672404 
L 253.386966 51.974387 
L 254.412263 47.803486 
L 255.43756 46.10685 
L 256.462857 45.824073 
L 257.488155 48.086263 
L 258.513452 44.834367 
L 259.538749 46.460302 
L 260.564046 47.874186 
L 261.589343 46.460302 
L 262.61464 45.894774 
L 263.639937 44.975743 
L 264.665235 42.784254 
L 265.690532 47.096556 
L 266.715829 45.965449 
L 267.741126 48.227638 
L 268.766423 45.32922 
L 269.79172 48.015562 
L 270.817017 48.227638 
L 271.842314 45.753373 
L 272.867612 44.55159 
L 273.892909 45.541296 
L 274.918206 47.379333 
L 275.943503 46.10685 
L 277.994097 46.03615 
L 279.019394 42.99633 
L 280.044692 45.753373 
L 281.069989 45.824073 
L 282.095286 45.25852 
L 283.120583 44.268813 
L 284.14588 45.682672 
L 285.171177 45.117144 
L 286.196474 43.844661 
L 287.221772 44.410189 
L 288.247069 42.501477 
L 289.272366 44.268813 
L 290.297663 42.99633 
L 291.32296 43.70326 
L 292.348257 45.611997 
L 293.373554 46.177525 
L 294.398852 43.632584 
L 295.424149 45.25852 
L 296.449446 43.208406 
L 297.474743 43.70326 
L 298.50004 43.632584 
L 299.525337 42.289401 
L 300.550634 43.208406 
L 301.575932 43.067031 
L 302.601229 44.622291 
L 303.626526 42.360101 
L 304.651823 42.501477 
L 305.67712 41.794548 
L 306.702417 44.55159 
L 307.727714 44.763666 
L 308.753012 42.289401 
L 309.778309 42.077324 
L 310.803606 43.279107 
L 311.828903 40.946217 
L 312.8542 42.360101 
L 313.879497 41.865248 
L 314.904794 41.865248 
L 315.930092 42.289401 
L 316.955389 40.592765 
L 317.980686 41.935923 
L 319.005983 41.299694 
L 320.03128 42.289401 
L 321.056577 42.854954 
L 322.081874 46.177525 
L 323.107172 41.370395 
L 324.132469 41.511771 
L 325.157766 39.532358 
L 326.183063 41.016918 
L 327.20836 43.632584 
L 328.233657 42.148 
L 329.258954 45.824073 
L 330.284252 42.784254 
L 331.309549 42.501477 
L 332.334846 41.158293 
L 333.360143 43.349808 
L 334.38544 39.88581 
L 335.410737 41.299694 
L 336.436034 42.360101 
L 337.461332 39.320282 
L 338.486629 41.016918 
L 339.511926 38.047799 
L 340.537223 43.70326 
L 341.56252 43.420483 
L 342.587817 41.299694 
L 343.613114 41.016918 
L 344.638412 41.582471 
L 345.663709 38.966805 
L 346.689006 39.108206 
L 347.714303 40.804841 
L 348.7396 41.794548 
L 349.764897 43.561884 
L 350.790194 40.451364 
L 351.815491 39.320282 
L 352.840789 39.320282 
L 353.866086 44.975743 
L 354.891383 41.158293 
L 355.91668 38.754728 
L 356.941977 39.249581 
L 357.967274 39.956511 
L 358.992571 39.037505 
L 360.017869 42.077324 
L 361.043166 38.754728 
L 362.068463 39.249581 
L 363.09376 40.451364 
L 364.119057 37.765022 
L 365.144354 40.522064 
L 366.169651 37.552946 
L 367.194949 41.158293 
L 368.220246 38.896104 
L 369.245543 39.249581 
L 370.27084 41.370395 
L 371.296137 40.380689 
L 372.321434 39.88581 
L 373.346731 41.158293 
L 374.372029 39.037505 
L 375.397326 40.027211 
L 376.422623 38.896104 
L 377.44792 36.987392 
L 378.473217 37.906398 
L 379.498514 37.906398 
L 380.523811 40.168587 
L 381.549109 40.239288 
L 382.574406 37.199468 
L 383.599703 36.563239 
L 384.625 38.118474 
L 385.650297 39.108206 
L 386.675594 38.966805 
L 387.700891 39.178881 
L 389.751486 38.542652 
L 390.776783 40.380689 
L 392.827377 37.270169 
L 393.852674 40.027211 
L 394.877971 40.66344 
L 395.903269 39.603059 
L 396.928566 39.532358 
L 397.953863 38.047799 
L 398.97916 38.259875 
L 400.004457 39.390957 
L 401.029754 40.097912 
L 402.055051 38.684028 
L 403.080349 40.027211 
L 404.105646 37.835723 
L 405.130943 41.228994 
L 406.15624 39.108206 
L 407.181537 38.542652 
L 408.206834 38.754728 
L 409.232131 37.270169 
L 410.257429 37.270169 
L 411.282726 34.654502 
L 412.308023 38.542652 
L 413.33332 37.623621 
L 415.383914 39.249581 
L 416.409211 37.906398 
L 417.434509 37.977098 
L 418.459806 34.371725 
L 419.485103 36.633915 
L 420.5104 36.633915 
L 421.535697 37.835723 
L 422.560994 36.492539 
L 423.586291 37.552946 
L 424.611588 37.835723 
L 425.636886 35.997686 
L 426.662183 37.765022 
L 427.68748 36.139061 
L 428.712777 36.775316 
L 429.738074 39.108206 
L 430.763371 34.795903 
L 431.788668 38.754728 
L 432.813966 36.421838 
L 433.839263 37.411545 
L 434.86456 35.644208 
L 435.889857 36.987392 
L 436.915154 40.804841 
L 437.940451 36.704615 
L 438.965748 33.169943 
L 439.991046 34.159649 
L 441.016343 37.906398 
L 442.04164 38.401251 
L 443.066937 34.513126 
L 444.092234 34.159649 
L 445.117531 36.775316 
L 447.168126 36.846016 
L 448.193423 35.573533 
L 449.21872 37.977098 
L 450.244017 36.421838 
L 451.269314 35.926985 
L 452.294611 35.997686 
L 453.319908 36.209762 
L 454.345206 34.937279 
L 455.370503 34.866578 
L 456.3958 38.684028 
L 457.421097 34.937279 
L 458.446394 36.563239 
L 459.471691 38.401251 
L 460.496988 35.220056 
L 461.522286 36.351163 
L 462.547583 35.149355 
L 463.57288 38.330576 
L 464.598177 35.785609 
L 465.623474 37.058093 
L 466.648771 36.421838 
L 467.674068 34.159649 
L 468.699366 35.997686 
L 469.724663 35.785609 
L 470.74996 36.846016 
L 471.775257 33.876872 
L 472.800554 33.664796 
L 473.825851 35.644208 
L 474.851148 37.058093 
L 475.876446 34.513126 
L 476.901743 33.806197 
L 477.92704 33.240643 
L 478.952337 36.492539 
L 479.977634 35.926985 
L 481.002931 35.573533 
L 482.028228 37.482245 
L 483.053526 35.644208 
L 484.078823 34.230349 
L 485.10412 34.30105 
L 486.129417 32.604389 
L 487.154714 34.583827 
L 488.180011 35.714909 
L 489.205308 33.240643 
L 490.230606 37.128768 
L 491.255903 34.583827 
L 492.2812 36.421838 
L 493.306497 37.765022 
L 494.331794 36.846016 
L 495.357091 34.583827 
L 496.382388 36.633915 
L 497.407686 35.220056 
L 498.432983 36.280463 
L 499.45828 33.028567 
L 500.483577 34.088948 
L 501.508874 34.371725 
L 502.534171 33.806197 
L 503.559468 35.502833 
L 504.584765 34.442426 
L 506.63536 34.230349 
L 507.660657 33.664796 
L 508.685954 35.220056 
L 509.711251 32.604389 
L 510.736548 32.392313 
L 511.761845 36.775316 
L 512.787143 33.806197 
L 513.81244 35.785609 
L 514.837737 35.290756 
L 515.863034 32.675089 
L 516.888331 34.795903 
L 517.913628 34.795903 
L 518.938925 32.180236 
L 519.964223 33.382019 
L 520.98952 33.452719 
L 522.014817 35.502833 
L 523.040114 35.149355 
L 524.065411 32.957866 
L 525.090708 34.725203 
L 526.116005 33.099242 
L 527.141303 33.028567 
L 528.1666 32.816491 
L 529.191897 33.735496 
L 530.217194 35.432132 
L 531.242491 33.806197 
L 532.267788 36.916691 
L 533.293085 32.533714 
L 534.318383 33.806197 
L 535.34368 34.654502 
L 536.368977 34.654502 
L 537.394274 33.382019 
L 538.419571 34.937279 
L 539.444868 33.099242 
L 540.470165 33.806197 
L 541.495463 37.128768 
L 542.52076 35.432132 
L 543.546057 32.604389 
L 544.571354 33.240643 
L 545.596651 32.957866 
L 546.621948 33.169943 
L 547.647245 35.220056 
L 548.672543 33.594095 
L 549.69784 32.74579 
L 550.723137 31.685383 
L 551.748434 32.533714 
L 552.773731 32.109536 
L 553.799028 34.937279 
L 554.824325 35.007979 
L 555.849623 33.240643 
L 556.87492 33.52342 
L 557.900217 32.604389 
L 558.925514 33.735496 
L 559.950811 34.583827 
L 560.976108 30.837053 
L 562.001405 33.735496 
L 563.026703 32.816491 
L 564.052 32.321638 
L 565.077297 31.402606 
L 566.102594 34.30105 
L 567.127891 30.271524 
L 568.153188 34.018273 
L 569.178485 31.96816 
L 570.203783 31.19053 
L 571.22908 32.957866 
L 572.254377 34.371725 
L 573.279674 32.392313 
L 574.304971 31.685383 
L 575.330268 32.321638 
L 576.355565 32.038861 
L 577.380863 32.180236 
L 578.40616 33.806197 
L 579.431457 32.109536 
L 580.456754 35.007979 
L 581.482051 32.675089 
L 582.507348 32.74579 
L 583.532645 32.463013 
L 584.557942 33.028567 
L 585.58324 32.321638 
L 586.608537 31.473307 
L 587.633834 34.230349 
L 588.659131 30.4129 
L 589.684428 33.52342 
L 590.709725 32.816491 
L 591.735022 31.614683 
L 592.76032 33.240643 
L 593.785617 32.109536 
L 594.810914 32.463013 
L 595.836211 32.038861 
L 596.861508 33.594095 
L 597.886805 30.200824 
L 598.912102 33.806197 
L 599.9374 32.250937 
L 600.962697 34.725203 
L 601.987994 32.74579 
L 603.013291 31.756084 
L 604.038588 34.230349 
L 605.063885 33.311344 
L 606.089182 31.89746 
L 607.11448 34.725203 
L 608.139777 33.594095 
L 609.165074 29.918047 
L 610.190371 33.169943 
L 611.215668 33.735496 
L 612.240965 34.795903 
L 613.266262 33.735496 
L 614.29156 33.099242 
L 616.342154 30.978454 
L 617.367451 31.89746 
L 618.392748 31.614683 
L 619.418045 32.463013 
L 620.443342 32.816491 
L 621.46864 33.664796 
L 622.493937 34.159649 
L 623.519234 31.331906 
L 624.544531 33.099242 
L 625.569828 31.19053 
L 626.595125 33.028567 
L 627.620422 34.088948 
L 628.64572 34.725203 
L 629.671017 32.74579 
L 630.696314 34.159649 
L 631.721611 31.96816 
L 633.772205 31.685383 
L 634.797502 31.331906 
L 635.8228 31.19053 
L 636.848097 30.837053 
L 637.873394 32.250937 
L 638.898691 32.533714 
L 639.923988 31.261231 
L 641.974582 33.099242 
L 642.99988 31.614683 
L 644.025177 31.756084 
L 645.050474 30.200824 
L 646.075771 32.957866 
L 647.101068 30.3422 
L 648.126365 33.382019 
L 649.151662 31.402606 
L 650.17696 32.392313 
L 651.202257 31.756084 
L 652.227554 32.392313 
L 653.252851 31.89746 
L 654.278148 30.837053 
L 655.303445 30.200824 
L 656.328742 32.816491 
L 657.35404 31.89746 
L 659.404634 32.321638 
L 660.429931 34.230349 
L 661.455228 31.049154 
L 662.480525 30.554301 
L 663.505822 33.452719 
L 664.531119 31.473307 
L 665.556417 30.554301 
L 666.581714 30.766378 
L 667.607011 32.038861 
L 668.632308 29.281818 
L 669.657605 33.735496 
L 670.682902 33.169943 
L 671.708199 33.099242 
L 672.733497 30.059448 
L 673.758794 31.89746 
L 674.784091 30.4129 
L 674.784091 30.4129 
" style="fill:none;stroke:#1f77b4;stroke-linecap:square;stroke-width:1.5;"/>
   </g>
   <g id="line2d_14">
    <path clip-path="url(#p202320b3de)" d="M 94.465909 265.709468 
L 95.491206 223.936538 
L 96.516503 206.548835 
L 97.541801 180.679305 
L 98.567098 157.990485 
L 99.592395 147.388202 
L 100.617692 140.602756 
L 101.642989 135.937767 
L 102.668286 125.971636 
L 103.693583 121.942773 
L 104.718881 120.246418 
L 105.744178 109.220059 
L 106.769475 109.856211 
L 107.794772 95.225091 
L 108.820069 97.133497 
L 109.845366 97.769624 
L 110.870663 85.895087 
L 111.89596 88.863721 
L 112.921258 85.25896 
L 113.946555 87.803493 
L 114.971852 80.593946 
L 115.997149 81.018047 
L 117.022446 79.109641 
L 118.047743 75.928956 
L 119.07304 75.928956 
L 120.098338 75.080779 
L 121.123635 72.324195 
L 122.148932 70.41579 
L 123.174229 74.868728 
L 124.199526 74.020551 
L 125.224823 70.41579 
L 126.25012 68.93146 
L 127.275418 67.023054 
L 128.300715 68.719434 
L 129.326012 67.871231 
L 130.351309 64.478521 
L 131.376606 66.811003 
L 132.401903 68.719434 
L 133.4272 64.902597 
L 134.452498 64.902597 
L 135.477795 69.991688 
L 136.503092 62.358065 
L 137.528389 61.933963 
L 138.553686 65.326699 
L 139.578983 60.87376 
L 140.60428 59.601481 
L 141.629578 61.085786 
L 142.654875 59.601481 
L 143.680172 60.449659 
L 144.705469 59.38943 
L 145.730766 60.661709 
L 146.756063 59.38943 
L 147.78136 59.17738 
L 148.806658 61.085786 
L 149.831955 57.481025 
L 150.857252 59.813532 
L 151.882549 57.481025 
L 152.907846 58.117151 
L 153.933143 57.481025 
L 154.95844 60.87376 
L 155.983738 58.329202 
L 157.009035 58.541253 
L 158.034332 55.996695 
L 159.059629 57.905126 
L 160.084926 58.753304 
L 161.110223 55.572619 
L 162.13552 55.996695 
L 163.160818 58.117151 
L 164.186115 52.603985 
L 165.211412 57.056923 
L 166.236709 54.936492 
L 167.262006 58.753304 
L 168.287303 56.844898 
L 169.3126 55.572619 
L 170.337898 53.452162 
L 171.363195 54.30034 
L 172.388492 54.30034 
L 173.413789 55.148517 
L 174.439086 52.816035 
L 175.464383 52.603985 
L 176.48968 54.51239 
L 177.514978 55.572619 
L 178.540275 53.876264 
L 179.565572 53.028086 
L 180.590869 54.936492 
L 181.616166 52.816035 
L 182.641463 55.572619 
L 183.66676 51.331705 
L 184.692058 54.30034 
L 185.717355 52.816035 
L 186.742652 55.784669 
L 187.767949 53.452162 
L 188.793246 53.028086 
L 189.818543 53.240111 
L 190.84384 51.119655 
L 191.869137 54.30034 
L 192.894435 51.967858 
L 193.919732 50.483528 
L 194.945029 52.391934 
L 195.970326 50.483528 
L 196.995623 50.907629 
L 198.02092 52.603985 
L 199.046217 49.847401 
L 200.071515 51.755807 
L 201.096812 51.967858 
L 202.122109 49.4233 
L 203.147406 50.483528 
L 204.172703 47.726944 
L 205.198 49.211249 
L 206.223297 50.483528 
L 207.248595 48.787173 
L 209.299189 52.816035 
L 210.324486 52.391934 
L 211.349783 52.603985 
L 212.37508 51.755807 
L 213.400377 51.967858 
L 214.425675 50.483528 
L 215.450972 50.059452 
L 216.476269 51.331705 
L 217.501566 51.119655 
L 218.526863 50.271477 
L 219.55216 53.240111 
L 220.577457 51.967858 
L 221.602755 51.755807 
L 222.628052 47.302843 
L 223.653349 50.059452 
L 224.678646 48.787173 
L 225.703943 46.242615 
L 226.72924 50.907629 
L 227.754537 47.726944 
L 228.779835 47.090818 
L 229.805132 49.63535 
L 230.830429 51.543756 
L 231.855726 50.907629 
L 232.881023 48.999224 
L 233.90632 51.967858 
L 234.931617 50.695579 
L 235.956915 46.242615 
L 236.982212 50.907629 
L 238.007509 49.211249 
L 239.032806 46.666716 
L 240.058103 47.090818 
L 241.0834 46.666716 
L 242.108697 51.119655 
L 243.133995 48.787173 
L 244.159292 49.847401 
L 245.184589 48.575122 
L 246.209886 49.63535 
L 247.235183 50.483528 
L 248.26048 51.967858 
L 249.285777 48.787173 
L 250.311075 49.4233 
L 251.336372 48.575122 
L 252.361669 49.4233 
L 253.386966 47.090818 
L 254.412263 48.575122 
L 255.43756 46.666716 
L 256.462857 46.454665 
L 257.488155 48.999224 
L 258.513452 47.726944 
L 259.538749 47.938995 
L 260.564046 48.575122 
L 261.589343 49.63535 
L 262.61464 46.878767 
L 263.639937 46.454665 
L 264.665235 47.090818 
L 265.690532 49.4233 
L 266.715829 48.787173 
L 267.741126 47.938995 
L 268.766423 47.302843 
L 269.79172 47.514894 
L 270.817017 46.242615 
L 271.842314 49.63535 
L 272.867612 46.030589 
L 273.892909 44.75831 
L 274.918206 48.575122 
L 275.943503 46.666716 
L 276.9688 46.454665 
L 277.994097 47.302843 
L 279.019394 45.818539 
L 280.044692 46.454665 
L 281.069989 47.938995 
L 282.095286 46.454665 
L 283.120583 47.514894 
L 284.14588 50.695579 
L 285.171177 46.666716 
L 286.196474 47.302843 
L 287.221772 46.666716 
L 288.247069 48.787173 
L 289.272366 44.75831 
L 290.297663 46.666716 
L 291.32296 46.030589 
L 292.348257 49.211249 
L 293.373554 46.878767 
L 294.398852 46.454665 
L 295.424149 47.302843 
L 296.449446 45.606488 
L 297.474743 45.818539 
L 298.50004 47.302843 
L 299.525337 46.666716 
L 300.550634 48.15102 
L 301.575932 45.182412 
L 302.601229 44.122184 
L 303.626526 46.454665 
L 304.651823 46.454665 
L 305.67712 46.030589 
L 307.727714 46.030589 
L 308.753012 47.514894 
L 309.778309 45.818539 
L 310.803606 45.182412 
L 311.828903 47.090818 
L 312.8542 47.090818 
L 313.879497 47.302843 
L 314.904794 46.242615 
L 315.930092 44.970361 
L 316.955389 46.030589 
L 317.980686 44.970361 
L 319.005983 46.454665 
L 320.03128 45.182412 
L 321.056577 47.090818 
L 322.081874 46.878767 
L 323.107172 47.514894 
L 324.132469 45.606488 
L 325.157766 45.818539 
L 327.20836 45.394437 
L 328.233657 44.122184 
L 329.258954 45.182412 
L 330.284252 45.182412 
L 331.309549 45.394437 
L 332.334846 46.030589 
L 333.360143 44.122184 
L 334.38544 45.394437 
L 335.410737 46.242615 
L 336.436034 45.818539 
L 338.486629 45.818539 
L 339.511926 44.970361 
L 340.537223 43.698082 
L 341.56252 46.242615 
L 342.587817 44.970361 
L 343.613114 46.666716 
L 344.638412 45.182412 
L 345.663709 44.54626 
L 346.689006 42.637854 
L 347.714303 44.970361 
L 348.7396 43.698082 
L 349.764897 42.213778 
L 350.790194 44.75831 
L 351.815491 45.606488 
L 352.840789 44.970361 
L 353.866086 44.970361 
L 354.891383 44.122184 
L 355.91668 45.394437 
L 356.941977 45.394437 
L 357.967274 43.910133 
L 358.992571 47.514894 
L 360.017869 43.698082 
L 361.043166 45.182412 
L 362.068463 46.878767 
L 363.09376 45.606488 
L 364.119057 46.242615 
L 366.169651 43.698082 
L 367.194949 44.122184 
L 368.220246 43.486031 
L 369.245543 44.122184 
L 370.27084 45.606488 
L 372.321434 45.182412 
L 373.346731 44.54626 
L 374.372029 44.334209 
L 375.397326 46.666716 
L 376.422623 43.910133 
L 377.44792 45.606488 
L 378.473217 44.122184 
L 379.498514 44.54626 
L 380.523811 44.54626 
L 381.549109 43.061955 
L 382.574406 43.061955 
L 383.599703 46.454665 
L 384.625 46.030589 
L 385.650297 45.394437 
L 386.675594 45.606488 
L 387.700891 47.090818 
L 389.751486 45.394437 
L 390.776783 46.030589 
L 391.80208 44.122184 
L 392.827377 46.666716 
L 393.852674 48.15102 
L 394.877971 44.334209 
L 395.903269 43.27398 
L 396.928566 44.54626 
L 397.953863 43.910133 
L 398.97916 44.970361 
L 400.004457 44.122184 
L 401.029754 43.698082 
L 402.055051 45.394437 
L 403.080349 44.54626 
L 404.105646 46.242615 
L 405.130943 43.486031 
L 406.15624 44.970361 
L 407.181537 43.910133 
L 408.206834 43.061955 
L 409.232131 44.122184 
L 410.257429 45.394437 
L 411.282726 43.27398 
L 412.308023 44.75831 
L 413.33332 42.425803 
L 414.358617 43.910133 
L 415.383914 43.27398 
L 416.409211 43.486031 
L 417.434509 44.122184 
L 418.459806 42.637854 
L 419.485103 45.182412 
L 420.5104 43.910133 
L 421.535697 43.27398 
L 422.560994 44.122184 
L 423.586291 44.75831 
L 424.611588 43.27398 
L 425.636886 44.122184 
L 426.662183 43.698082 
L 427.68748 44.334209 
L 428.712777 44.122184 
L 429.738074 42.637854 
L 430.763371 41.365575 
L 431.788668 42.425803 
L 432.813966 43.061955 
L 433.839263 45.818539 
L 434.86456 44.54626 
L 435.889857 46.878767 
L 436.915154 44.122184 
L 437.940451 43.486031 
L 438.965748 43.698082 
L 439.991046 44.75831 
L 441.016343 43.061955 
L 442.04164 44.54626 
L 443.066937 42.637854 
L 444.092234 45.394437 
L 445.117531 41.577625 
L 446.142828 44.334209 
L 447.168126 42.849904 
L 448.193423 46.030589 
L 449.21872 42.849904 
L 450.244017 42.849904 
L 451.269314 43.486031 
L 452.294611 42.425803 
L 453.319908 42.849904 
L 454.345206 42.637854 
L 455.370503 43.061955 
L 456.3958 44.54626 
L 457.421097 42.425803 
L 458.446394 43.486031 
L 459.471691 44.970361 
L 460.496988 41.789676 
L 461.522286 43.27398 
L 462.547583 45.182412 
L 463.57288 42.637854 
L 464.598177 43.486031 
L 465.623474 44.122184 
L 466.648771 43.698082 
L 467.674068 41.789676 
L 468.699366 42.213778 
L 469.724663 41.365575 
L 470.74996 45.606488 
L 471.775257 41.153549 
L 472.800554 42.425803 
L 473.825851 44.334209 
L 474.851148 43.27398 
L 475.876446 45.394437 
L 476.901743 46.030589 
L 477.92704 45.182412 
L 478.952337 42.425803 
L 479.977634 42.637854 
L 481.002931 44.970361 
L 482.028228 45.182412 
L 483.053526 44.54626 
L 484.078823 46.030589 
L 485.10412 44.54626 
L 486.129417 43.698082 
L 487.154714 44.75831 
L 488.180011 44.122184 
L 489.205308 41.789676 
L 490.230606 44.334209 
L 491.255903 45.818539 
L 492.2812 44.334209 
L 493.306497 41.789676 
L 494.331794 42.425803 
L 495.357091 44.122184 
L 496.382388 43.698082 
L 497.407686 42.001727 
L 498.432983 43.486031 
L 499.45828 43.27398 
L 500.483577 42.425803 
L 501.508874 42.001727 
L 502.534171 43.698082 
L 503.559468 44.334209 
L 504.584765 46.030589 
L 505.610063 44.122184 
L 506.63536 41.153549 
L 507.660657 42.425803 
L 508.685954 42.425803 
L 509.711251 42.849904 
L 510.736548 45.182412 
L 511.761845 41.365575 
L 512.787143 44.54626 
L 513.81244 44.54626 
L 514.837737 43.061955 
L 515.863034 40.941499 
L 516.888331 44.970361 
L 517.913628 42.637854 
L 518.938925 43.910133 
L 519.964223 43.27398 
L 520.98952 43.486031 
L 522.014817 44.54626 
L 523.040114 41.153549 
L 524.065411 43.698082 
L 525.090708 42.637854 
L 526.116005 42.849904 
L 527.141303 43.486031 
L 528.1666 43.061955 
L 529.191897 41.365575 
L 530.217194 46.030589 
L 531.242491 43.061955 
L 532.267788 40.941499 
L 533.293085 43.698082 
L 534.318383 43.486031 
L 535.34368 44.54626 
L 536.368977 41.365575 
L 537.394274 42.213778 
L 538.419571 42.849904 
L 539.444868 44.75831 
L 540.470165 43.910133 
L 541.495463 44.334209 
L 542.52076 44.122184 
L 543.546057 42.425803 
L 544.571354 43.061955 
L 545.596651 41.365575 
L 546.621948 41.789676 
L 547.647245 42.425803 
L 548.672543 43.486031 
L 549.69784 43.486031 
L 550.723137 42.425803 
L 551.748434 43.910133 
L 552.773731 42.637854 
L 553.799028 44.75831 
L 554.824325 42.213778 
L 555.849623 42.849904 
L 556.87492 42.637854 
L 557.900217 42.213778 
L 558.925514 43.698082 
L 559.950811 42.637854 
L 560.976108 43.061955 
L 562.001405 41.365575 
L 563.026703 43.061955 
L 564.052 41.789676 
L 565.077297 42.213778 
L 566.102594 43.910133 
L 567.127891 44.54626 
L 568.153188 43.486031 
L 569.178485 43.27398 
L 570.203783 42.213778 
L 571.22908 44.334209 
L 572.254377 45.182412 
L 573.279674 40.941499 
L 574.304971 42.213778 
L 575.330268 43.698082 
L 576.355565 41.789676 
L 577.380863 42.001727 
L 578.40616 44.122184 
L 579.431457 45.606488 
L 580.456754 43.486031 
L 581.482051 44.970361 
L 582.507348 40.517397 
L 584.557942 44.334209 
L 585.58324 44.54626 
L 587.633834 40.517397 
L 588.659131 42.637854 
L 589.684428 42.849904 
L 590.709725 42.849904 
L 591.735022 43.061955 
L 592.76032 41.789676 
L 593.785617 44.54626 
L 594.810914 42.425803 
L 597.886805 42.425803 
L 598.912102 41.577625 
L 599.9374 43.698082 
L 600.962697 42.425803 
L 601.987994 44.75831 
L 603.013291 42.213778 
L 604.038588 41.365575 
L 605.063885 43.061955 
L 606.089182 42.213778 
L 607.11448 43.27398 
L 608.139777 41.789676 
L 609.165074 42.425803 
L 610.190371 43.486031 
L 611.215668 42.001727 
L 612.240965 42.637854 
L 613.266262 42.849904 
L 614.29156 41.577625 
L 615.316857 44.970361 
L 616.342154 45.182412 
L 617.367451 43.910133 
L 618.392748 42.849904 
L 619.418045 42.425803 
L 620.443342 42.849904 
L 621.46864 43.486031 
L 622.493937 41.153549 
L 623.519234 41.153549 
L 624.544531 41.789676 
L 625.569828 43.27398 
L 626.595125 42.001727 
L 627.620422 43.061955 
L 628.64572 42.425803 
L 629.671017 42.849904 
L 630.696314 41.577625 
L 631.721611 43.910133 
L 632.746908 43.061955 
L 633.772205 43.698082 
L 634.797502 42.001727 
L 635.8228 43.486031 
L 636.848097 43.27398 
L 637.873394 44.122184 
L 638.898691 43.910133 
L 639.923988 41.577625 
L 640.949285 43.27398 
L 641.974582 43.27398 
L 642.99988 42.849904 
L 644.025177 42.637854 
L 645.050474 43.910133 
L 646.075771 42.001727 
L 647.101068 42.001727 
L 648.126365 41.789676 
L 649.151662 42.637854 
L 650.17696 42.001727 
L 651.202257 42.213778 
L 652.227554 42.213778 
L 653.252851 40.729448 
L 654.278148 42.849904 
L 655.303445 42.001727 
L 656.328742 43.486031 
L 657.35404 42.849904 
L 658.379337 41.365575 
L 659.404634 42.849904 
L 660.429931 42.849904 
L 661.455228 43.061955 
L 662.480525 43.486031 
L 663.505822 42.849904 
L 664.531119 41.365575 
L 665.556417 41.365575 
L 666.581714 42.849904 
L 668.632308 39.88127 
L 669.657605 42.001727 
L 670.682902 43.698082 
L 671.708199 40.941499 
L 672.733497 41.577625 
L 673.758794 41.365575 
L 674.784091 40.941499 
L 674.784091 40.941499 
" style="fill:none;stroke:#ff7f0e;stroke-linecap:square;stroke-width:1.5;"/>
   </g>
   <g id="patch_3">
    <path d="M 65.45 304 
L 65.45 16.2 
" style="fill:none;stroke:#000000;stroke-linecap:square;stroke-linejoin:miter;stroke-width:0.8;"/>
   </g>
   <g id="patch_4">
    <path d="M 703.8 304 
L 703.8 16.2 
" style="fill:none;stroke:#000000;stroke-linecap:square;stroke-linejoin:miter;stroke-width:0.8;"/>
   </g>
   <g id="patch_5">
    <path d="M 65.45 304 
L 703.8 304 
" style="fill:none;stroke:#000000;stroke-linecap:square;stroke-linejoin:miter;stroke-width:0.8;"/>
   </g>
   <g id="patch_6">
    <path d="M 65.45 16.2 
L 703.8 16.2 
" style="fill:none;stroke:#000000;stroke-linecap:square;stroke-linejoin:miter;stroke-width:0.8;"/>
   </g>
   <g id="legend_1">
    <g id="patch_7">
     <path d="M 496.570312 296.5 
L 693.3 296.5 
Q 696.3 296.5 696.3 293.5 
L 696.3 250.965625 
Q 696.3 247.965625 693.3 247.965625 
L 496.570312 247.965625 
Q 493.570312 247.965625 493.570312 250.965625 
L 493.570312 293.5 
Q 493.570312 296.5 496.570312 296.5 
z
" style="fill:#ffffff;opacity:0.8;stroke:#cccccc;stroke-linejoin:miter;"/>
    </g>
    <g id="line2d_15">
     <path d="M 499.570312 260.113281 
L 529.570312 260.113281 
" style="fill:none;stroke:#1f77b4;stroke-linecap:square;stroke-width:1.5;"/>
    </g>
    <g id="line2d_16"/>
    <g id="text_15">
     <text style="font-family:DejaVu Sans;font-size:15px;font-style:normal;font-weight:normal;text-anchor:start;" transform="rotate(-0, 541.570312, 265.363281)" x="541.570312" y="265.363281">Training Accuracy</text>
    </g>
    <g id="line2d_17">
     <path d="M 499.570312 282.130469 
L 529.570312 282.130469 
" style="fill:none;stroke:#ff7f0e;stroke-linecap:square;stroke-width:1.5;"/>
    </g>
    <g id="line2d_18"/>
    <g id="text_16">
     <text style="font-family:DejaVu Sans;font-size:15px;font-style:normal;font-weight:normal;text-anchor:start;" transform="rotate(-0, 541.570312, 287.380469)" x="541.570312" y="287.380469">Validation Accuracy</text>
    </g>
   </g>
  </g>
 </g>
 <defs>
  <clipPath id="p202320b3de">
   <rect height="287.8" width="638.35" x="65.45" y="16.2"/>
  </clipPath>
 </defs>
</svg>
