<?xml version="1.0" encoding="utf-8" standalone="no"?>
<!DOCTYPE svg PUBLIC "-//W3C//DTD SVG 1.1//EN"
  "http://www.w3.org/Graphics/SVG/1.1/DTD/svg11.dtd">
<!-- Created with matplotlib (https://matplotlib.org/) -->
<svg height="360pt" version="1.1" viewBox="0 0 720 360" width="720pt" xmlns="http://www.w3.org/2000/svg" xmlns:xlink="http://www.w3.org/1999/xlink">
 <defs>
  <style type="text/css">
*{stroke-linecap:butt;stroke-linejoin:round;}
  </style>
 </defs>
 <g id="figure_1">
  <g id="patch_1">
   <path d="M 0 360 
L 720 360 
L 720 0 
L 0 0 
z
" style="fill:#ffffff;"/>
  </g>
  <g id="axes_1">
   <g id="patch_2">
    <path d="M 65.45 304 
L 703.8 304 
L 703.8 16.2 
L 65.45 16.2 
z
" style="fill:#ffffff;"/>
   </g>
   <g id="matplotlib.axis_1">
    <g id="xtick_1">
     <g id="line2d_1">
      <defs>
       <path d="M 0 0 
L 0 3.5 
" id="m12b7360b2b" style="stroke:#000000;stroke-width:0.8;"/>
      </defs>
      <g>
       <use style="stroke:#000000;stroke-width:0.8;" x="93.347762" xlink:href="#m12b7360b2b" y="304"/>
      </g>
     </g>
     <g id="text_1">
      <text style="font-family:DejaVu Sans;font-size:15px;font-style:normal;font-weight:normal;text-anchor:middle;" transform="rotate(-0, 93.347762, 322.397656)" x="93.347762" y="322.397656">0</text>
     </g>
    </g>
    <g id="xtick_2">
     <g id="line2d_2">
      <g>
       <use style="stroke:#000000;stroke-width:0.8;" x="205.162441" xlink:href="#m12b7360b2b" y="304"/>
      </g>
     </g>
     <g id="text_2">
      <text style="font-family:DejaVu Sans;font-size:15px;font-style:normal;font-weight:normal;text-anchor:middle;" transform="rotate(-0, 205.162441, 322.397656)" x="205.162441" y="322.397656">100</text>
     </g>
    </g>
    <g id="xtick_3">
     <g id="line2d_3">
      <g>
       <use style="stroke:#000000;stroke-width:0.8;" x="316.977119" xlink:href="#m12b7360b2b" y="304"/>
      </g>
     </g>
     <g id="text_3">
      <text style="font-family:DejaVu Sans;font-size:15px;font-style:normal;font-weight:normal;text-anchor:middle;" transform="rotate(-0, 316.977119, 322.397656)" x="316.977119" y="322.397656">200</text>
     </g>
    </g>
    <g id="xtick_4">
     <g id="line2d_4">
      <g>
       <use style="stroke:#000000;stroke-width:0.8;" x="428.791798" xlink:href="#m12b7360b2b" y="304"/>
      </g>
     </g>
     <g id="text_4">
      <text style="font-family:DejaVu Sans;font-size:15px;font-style:normal;font-weight:normal;text-anchor:middle;" transform="rotate(-0, 428.791798, 322.397656)" x="428.791798" y="322.397656">300</text>
     </g>
    </g>
    <g id="xtick_5">
     <g id="line2d_5">
      <g>
       <use style="stroke:#000000;stroke-width:0.8;" x="540.606477" xlink:href="#m12b7360b2b" y="304"/>
      </g>
     </g>
     <g id="text_5">
      <text style="font-family:DejaVu Sans;font-size:15px;font-style:normal;font-weight:normal;text-anchor:middle;" transform="rotate(-0, 540.606477, 322.397656)" x="540.606477" y="322.397656">400</text>
     </g>
    </g>
    <g id="xtick_6">
     <g id="line2d_6">
      <g>
       <use style="stroke:#000000;stroke-width:0.8;" x="652.421155" xlink:href="#m12b7360b2b" y="304"/>
      </g>
     </g>
     <g id="text_6">
      <text style="font-family:DejaVu Sans;font-size:15px;font-style:normal;font-weight:normal;text-anchor:middle;" transform="rotate(-0, 652.421155, 322.397656)" x="652.421155" y="322.397656">500</text>
     </g>
    </g>
    <g id="text_7">
     <text style="font-family:DejaVu Sans;font-size:15px;font-style:normal;font-weight:normal;text-anchor:middle;" transform="rotate(-0, 384.625, 340.914844)" x="384.625" y="340.914844">Epochs</text>
    </g>
   </g>
   <g id="matplotlib.axis_2">
    <g id="ytick_1">
     <g id="line2d_7">
      <defs>
       <path d="M 0 0 
L -3.5 0 
" id="mcdcff80589" style="stroke:#000000;stroke-width:0.8;"/>
      </defs>
      <g>
       <use style="stroke:#000000;stroke-width:0.8;" x="65.45" xlink:href="#mcdcff80589" y="268.633553"/>
      </g>
     </g>
     <g id="text_8">
      <text style="font-family:DejaVu Sans;font-size:15px;font-style:normal;font-weight:normal;text-anchor:end;" transform="rotate(-0, 58.45, 274.332381)" x="58.45" y="274.332381">0.2</text>
     </g>
    </g>
    <g id="ytick_2">
     <g id="line2d_8">
      <g>
       <use style="stroke:#000000;stroke-width:0.8;" x="65.45" xlink:href="#mcdcff80589" y="214.055204"/>
      </g>
     </g>
     <g id="text_9">
      <text style="font-family:DejaVu Sans;font-size:15px;font-style:normal;font-weight:normal;text-anchor:end;" transform="rotate(-0, 58.45, 219.754032)" x="58.45" y="219.754032">0.4</text>
     </g>
    </g>
    <g id="ytick_3">
     <g id="line2d_9">
      <g>
       <use style="stroke:#000000;stroke-width:0.8;" x="65.45" xlink:href="#mcdcff80589" y="159.476855"/>
      </g>
     </g>
     <g id="text_10">
      <text style="font-family:DejaVu Sans;font-size:15px;font-style:normal;font-weight:normal;text-anchor:end;" transform="rotate(-0, 58.45, 165.175683)" x="58.45" y="165.175683">0.6</text>
     </g>
    </g>
    <g id="ytick_4">
     <g id="line2d_10">
      <g>
       <use style="stroke:#000000;stroke-width:0.8;" x="65.45" xlink:href="#mcdcff80589" y="104.898505"/>
      </g>
     </g>
     <g id="text_11">
      <text style="font-family:DejaVu Sans;font-size:15px;font-style:normal;font-weight:normal;text-anchor:end;" transform="rotate(-0, 58.45, 110.597333)" x="58.45" y="110.597333">0.8</text>
     </g>
    </g>
    <g id="ytick_5">
     <g id="line2d_11">
      <g>
       <use style="stroke:#000000;stroke-width:0.8;" x="65.45" xlink:href="#mcdcff80589" y="50.320156"/>
      </g>
     </g>
     <g id="text_12">
      <text style="font-family:DejaVu Sans;font-size:15px;font-style:normal;font-weight:normal;text-anchor:end;" transform="rotate(-0, 58.45, 56.018984)" x="58.45" y="56.018984">1.0</text>
     </g>
    </g>
    <g id="text_13">
     <text style="font-family:DejaVu Sans;font-size:15px;font-style:normal;font-weight:normal;text-anchor:middle;" transform="rotate(-90, 27.475781, 160.1)" x="27.475781" y="160.1">Loss</text>
    </g>
   </g>
   <g id="line2d_12">
    <path clip-path="url(#p8dd6e02725)" d="M 94.465909 29.281818 
L 95.584056 46.12379 
L 97.820349 64.683768 
L 98.938496 71.826634 
L 100.056643 75.784433 
L 101.17479 82.880535 
L 102.292937 88.46213 
L 103.411083 92.345985 
L 104.52923 98.748944 
L 105.647377 104.231726 
L 106.765524 110.694998 
L 107.883671 114.719128 
L 109.001817 117.320455 
L 110.119964 121.525962 
L 111.238111 128.256479 
L 112.356258 129.064262 
L 113.474404 130.644157 
L 114.592551 137.149769 
L 115.710698 138.866459 
L 116.828845 142.758544 
L 117.946992 148.239064 
L 119.065138 150.604768 
L 120.183285 154.067311 
L 121.301432 152.798137 
L 122.419579 156.124651 
L 123.537726 158.565014 
L 125.774019 161.472541 
L 126.892166 164.834254 
L 128.010313 169.541767 
L 129.128459 171.264052 
L 130.246606 172.601638 
L 132.4829 174.228655 
L 133.601047 180.447569 
L 134.719193 177.464927 
L 135.83734 183.471282 
L 136.955487 178.287284 
L 138.073634 183.531172 
L 139.191781 187.819521 
L 140.309927 186.535106 
L 141.428074 188.759454 
L 142.546221 192.879257 
L 143.664368 193.194575 
L 144.782514 192.182032 
L 145.900661 195.470053 
L 147.018808 196.365264 
L 148.136955 194.471515 
L 149.255102 196.117685 
L 150.373248 197.215004 
L 151.491395 202.419513 
L 152.609542 206.911507 
L 153.727689 200.690405 
L 154.845836 208.259251 
L 155.963982 203.134094 
L 157.082129 202.957319 
L 158.200276 204.96243 
L 159.318423 205.020555 
L 160.436569 209.568796 
L 161.554716 215.290364 
L 162.672863 212.155574 
L 163.79101 211.01106 
L 164.909157 212.995912 
L 166.027303 217.457294 
L 167.14545 211.324929 
L 168.263597 218.448407 
L 169.381744 213.554311 
L 170.499891 216.674934 
L 171.618037 220.566507 
L 172.736184 217.797286 
L 173.854331 219.575687 
L 174.972478 219.104716 
L 176.090624 217.983283 
L 177.208771 221.424811 
L 178.326918 221.417906 
L 179.445065 223.121933 
L 180.563212 225.675138 
L 181.681358 225.220344 
L 182.799505 221.85537 
L 183.917652 223.155164 
L 185.035799 222.365208 
L 186.153946 224.694924 
L 187.272092 229.002026 
L 188.390239 229.247198 
L 189.508386 234.237489 
L 190.626533 226.601319 
L 191.744679 227.668433 
L 192.862826 233.190292 
L 193.980973 231.090474 
L 195.09912 232.532429 
L 197.335413 228.910914 
L 198.45356 230.56921 
L 199.571707 233.606253 
L 200.689854 234.053598 
L 201.808001 232.217372 
L 202.926147 235.863839 
L 204.044294 238.984991 
L 205.162441 235.621188 
L 206.280588 236.220446 
L 207.398734 237.219545 
L 208.516881 236.80805 
L 209.635028 235.702817 
L 210.753175 235.663861 
L 211.871322 238.337278 
L 212.989468 235.480849 
L 214.107615 238.474974 
L 215.225762 239.944711 
L 216.343909 243.185066 
L 217.462056 241.306436 
L 218.580202 244.351936 
L 219.698349 241.031335 
L 220.816496 238.892179 
L 221.934643 242.940976 
L 223.052789 246.551658 
L 224.170936 241.832311 
L 225.289083 241.685864 
L 226.40723 244.86101 
L 227.525377 243.319729 
L 228.643523 242.926337 
L 229.76167 243.687706 
L 230.879817 246.746487 
L 231.997964 244.766872 
L 233.116111 243.470511 
L 234.234257 246.813721 
L 235.352404 248.369901 
L 236.470551 251.241157 
L 237.588698 245.61436 
L 238.706844 249.916607 
L 239.824991 247.520852 
L 240.943138 246.243538 
L 242.061285 247.827158 
L 243.179432 246.481293 
L 244.297578 249.644418 
L 246.533872 249.321505 
L 247.652019 251.666389 
L 249.888312 250.286869 
L 252.124606 251.301754 
L 253.242753 247.538875 
L 254.360899 251.897799 
L 255.479046 255.440011 
L 256.597193 252.999014 
L 257.71534 251.198988 
L 258.833487 255.472888 
L 259.951633 255.30621 
L 261.06978 253.560446 
L 262.187927 252.251479 
L 263.306074 255.51119 
L 264.424221 256.696298 
L 265.542367 254.382128 
L 266.660514 253.197422 
L 267.778661 255.214602 
L 268.896808 252.277504 
L 270.014954 257.32139 
L 271.133101 256.483292 
L 272.251248 257.116765 
L 273.369395 259.403621 
L 274.487542 254.172993 
L 275.605688 253.8584 
L 276.723835 256.66811 
L 277.841982 260.013699 
L 278.960129 258.333038 
L 280.078276 254.031913 
L 281.196422 256.468999 
L 282.314569 260.06958 
L 283.432716 258.433726 
L 284.550863 260.347677 
L 285.669009 259.117988 
L 286.787156 260.067774 
L 287.905303 257.920794 
L 289.02345 260.575762 
L 290.141597 258.40542 
L 291.259743 260.969922 
L 292.37789 260.97394 
L 293.496037 259.70255 
L 294.614184 261.211715 
L 295.732331 260.849845 
L 296.850477 260.344871 
L 297.968624 261.661914 
L 299.086771 264.056599 
L 300.204918 260.726646 
L 301.323064 263.693412 
L 302.441211 263.152613 
L 303.559358 263.375355 
L 304.677505 261.520855 
L 306.913798 260.617589 
L 308.031945 262.072052 
L 309.150092 264.462223 
L 310.268239 263.733995 
L 311.386386 259.198446 
L 312.504532 266.319598 
L 313.622679 266.314149 
L 314.740826 267.693412 
L 315.858973 263.00848 
L 316.977119 261.545855 
L 318.095266 264.357294 
L 319.213413 261.671926 
L 320.33156 263.262178 
L 321.449707 267.337537 
L 322.567853 265.97375 
L 323.686 259.366421 
L 324.804147 262.416875 
L 325.922294 264.491013 
L 327.040441 266.823299 
L 328.158587 264.718894 
L 329.276734 266.522023 
L 330.394881 270.406598 
L 331.513028 269.843177 
L 332.631174 267.179882 
L 333.749321 264.018709 
L 334.867468 269.00784 
L 337.103762 262.389366 
L 338.221908 265.697926 
L 339.340055 268.537589 
L 340.458202 269.198242 
L 341.576349 265.560229 
L 342.694496 269.069243 
L 343.812642 269.078535 
L 344.930789 269.322674 
L 346.048936 270.722928 
L 347.167083 268.640669 
L 348.285229 270.209304 
L 349.403376 263.215403 
L 350.521523 265.112425 
L 351.63967 266.322164 
L 352.757817 272.22474 
L 353.875963 270.334631 
L 354.99411 272.014108 
L 356.112257 268.40607 
L 357.230404 267.713203 
L 358.348551 271.585392 
L 359.466697 267.112059 
L 360.584844 272.141493 
L 361.702991 269.777611 
L 362.821138 272.10653 
L 365.057431 270.41641 
L 366.175578 270.210475 
L 367.293725 271.961636 
L 368.411872 271.460756 
L 369.530018 269.29649 
L 370.648165 270.715685 
L 371.766312 272.514305 
L 374.002606 269.772963 
L 375.120752 267.93666 
L 376.238899 270.261871 
L 377.357046 269.640788 
L 378.475193 274.683369 
L 379.593339 272.919896 
L 380.711486 272.300367 
L 381.829633 269.881589 
L 382.94778 273.297083 
L 384.065927 273.168215 
L 385.184073 271.920972 
L 386.30222 273.162737 
L 387.420367 270.145498 
L 388.538514 270.900402 
L 389.656661 272.539008 
L 390.774807 276.971238 
L 391.892954 271.35237 
L 393.011101 273.779981 
L 394.129248 273.062017 
L 395.247394 274.449523 
L 396.365541 274.49821 
L 397.483688 271.895585 
L 398.601835 274.763652 
L 399.719982 278.293449 
L 400.838128 272.476857 
L 401.956275 270.51753 
L 403.074422 273.61654 
L 404.192569 273.42498 
L 405.310716 268.868021 
L 407.547009 273.255468 
L 408.665156 276.136222 
L 409.783303 276.479707 
L 410.901449 273.712609 
L 412.019596 274.515077 
L 413.137743 275.893791 
L 414.25589 279.43547 
L 415.374037 270.635646 
L 416.492183 274.838385 
L 417.61033 277.355208 
L 418.728477 270.477898 
L 419.846624 272.558104 
L 420.964771 275.37443 
L 422.082917 275.840135 
L 423.201064 275.260433 
L 424.319211 277.475427 
L 426.555504 274.723879 
L 427.673651 280.783447 
L 428.791798 278.434155 
L 429.909945 278.305157 
L 431.028092 276.409318 
L 432.146238 275.80956 
L 433.264385 279.012808 
L 434.382532 275.294586 
L 435.500679 278.835737 
L 436.618826 279.248778 
L 437.736972 277.874008 
L 438.855119 273.275483 
L 439.973266 279.339337 
L 441.091413 278.114076 
L 442.209559 276.179737 
L 443.327706 277.972382 
L 445.564 272.364132 
L 446.682147 278.350103 
L 447.800293 275.860398 
L 450.036587 278.26762 
L 451.154734 280.728648 
L 452.272881 281.04388 
L 453.391027 280.739822 
L 455.627321 277.822483 
L 456.745468 283.071637 
L 457.863614 280.503446 
L 458.981761 276.128061 
L 460.099908 279.351097 
L 461.218055 280.100189 
L 462.336202 279.343919 
L 463.454348 276.357195 
L 464.572495 279.808612 
L 465.690642 281.206605 
L 466.808789 281.794916 
L 467.926936 279.986615 
L 469.045082 278.637292 
L 470.163229 280.647885 
L 471.281376 275.24753 
L 472.399523 276.793231 
L 473.517669 283.804927 
L 474.635816 279.181312 
L 475.753963 284.419519 
L 476.87211 278.474213 
L 477.990257 283.941603 
L 479.108403 280.358105 
L 480.22655 282.270783 
L 481.344697 283.868526 
L 482.462844 280.611845 
L 483.580991 281.390744 
L 484.699137 279.438061 
L 485.817284 277.74335 
L 486.935431 278.20026 
L 488.053578 281.430782 
L 489.171724 277.53914 
L 490.289871 281.043196 
L 491.408018 285.09392 
L 492.526165 283.230344 
L 493.644312 280.186141 
L 494.762458 279.547642 
L 495.880605 277.30056 
L 498.116899 285.140607 
L 499.235046 280.521566 
L 500.353192 279.31247 
L 501.471339 277.696611 
L 502.589486 282.12538 
L 503.707633 280.515084 
L 504.825779 279.578596 
L 505.943926 276.462246 
L 507.062073 282.968399 
L 508.18022 283.572235 
L 509.298367 279.939611 
L 510.416513 280.482106 
L 511.53466 280.252431 
L 512.652807 282.338558 
L 513.770954 282.564833 
L 514.889101 284.387549 
L 516.007247 283.171939 
L 517.125394 282.855808 
L 518.243541 284.682437 
L 519.361688 279.853253 
L 520.479834 281.563521 
L 521.597981 287.264595 
L 522.716128 281.339401 
L 523.834275 283.724559 
L 524.952422 282.933338 
L 526.070568 282.587714 
L 527.188715 281.106795 
L 528.306862 287.252835 
L 529.425009 283.538082 
L 530.543156 283.263087 
L 531.661302 287.469021 
L 532.779449 285.61551 
L 533.897596 282.156899 
L 535.015743 284.255534 
L 536.133889 279.380208 
L 537.252036 283.715007 
L 538.370183 282.974376 
L 539.48833 281.188855 
L 540.606477 282.56369 
L 541.724623 286.264943 
L 542.84277 283.539676 
L 543.960917 286.458122 
L 545.079064 286.938714 
L 546.197211 281.941876 
L 547.315357 282.443707 
L 548.433504 286.628886 
L 549.551651 284.340745 
L 550.669798 288.050973 
L 551.787944 286.742111 
L 552.906091 287.99669 
L 554.024238 287.843249 
L 555.142385 285.798075 
L 556.260532 285.030131 
L 557.378678 281.653478 
L 558.496825 280.405426 
L 559.614972 283.930128 
L 560.733119 284.298414 
L 561.851266 280.487657 
L 562.969412 280.676757 
L 564.087559 285.727108 
L 565.205706 289.014361 
L 566.323853 285.039463 
L 567.441999 284.495488 
L 568.560146 280.77424 
L 569.678293 281.973614 
L 570.79644 283.454346 
L 571.914587 281.89863 
L 573.032733 283.318146 
L 574.15088 286.512591 
L 575.269027 283.549407 
L 576.387174 285.610081 
L 577.505321 284.783227 
L 578.623467 287.278697 
L 579.741614 283.774458 
L 580.859761 285.080253 
L 581.977908 287.57134 
L 583.096054 282.701671 
L 584.214201 285.25924 
L 585.332348 283.127102 
L 586.450495 286.641427 
L 587.568642 286.59666 
L 588.686788 281.887349 
L 589.804935 281.394664 
L 590.923082 281.74069 
L 592.041229 288.077477 
L 593.159376 283.449202 
L 594.277522 285.177696 
L 595.395669 283.641783 
L 596.513816 288.612169 
L 597.631963 285.174736 
L 598.750109 284.036696 
L 599.868256 286.983745 
L 603.222697 283.943258 
L 604.340843 286.050131 
L 605.45899 286.404685 
L 606.577137 286.223933 
L 607.695284 284.906081 
L 608.813431 287.184926 
L 609.931577 282.083423 
L 611.049724 284.999149 
L 612.167871 288.335845 
L 613.286018 288.229106 
L 614.404164 285.198154 
L 615.522311 288.467616 
L 616.640458 286.37844 
L 617.758605 289.802958 
L 618.876752 283.107348 
L 619.994898 287.218742 
L 621.113045 287.57759 
L 622.231192 281.753268 
L 623.349339 290.161318 
L 624.467486 287.296736 
L 625.585632 287.227286 
L 626.703779 288.012 
L 627.821926 285.691556 
L 628.940073 285.269992 
L 630.058219 288.2501 
L 631.176366 287.616734 
L 632.294513 286.260877 
L 633.41266 285.752348 
L 634.530807 284.757043 
L 635.648953 287.201863 
L 636.7671 290.490959 
L 637.885247 290.020812 
L 639.003394 288.640931 
L 640.121541 286.714728 
L 641.239687 288.646741 
L 642.357834 287.861852 
L 643.475981 290.895792 
L 644.594128 284.85044 
L 645.712274 285.836486 
L 646.830421 289.183826 
L 647.948568 290.918182 
L 649.066715 286.96029 
L 650.184862 288.283644 
L 652.421155 286.797508 
L 653.539302 285.031208 
L 654.657449 288.706257 
L 656.893742 282.627748 
L 659.130036 288.816384 
L 660.248183 288.988653 
L 661.366329 290.368477 
L 662.484476 290.39692 
L 663.602623 288.749215 
L 664.72077 285.932876 
L 665.838917 286.186095 
L 666.957063 289.45795 
L 668.07521 284.982619 
L 669.193357 290.218372 
L 670.311504 287.491736 
L 671.429651 289.831391 
L 672.547797 287.115143 
L 673.665944 287.643263 
L 674.784091 290.316952 
L 674.784091 290.316952 
" style="fill:none;stroke:#1f77b4;stroke-linecap:square;stroke-width:1.5;"/>
   </g>
   <g id="line2d_13">
    <path clip-path="url(#p8dd6e02725)" d="M 94.465909 41.820493 
L 95.584056 50.455648 
L 96.702203 61.26145 
L 97.820349 69.676938 
L 100.056643 83.635536 
L 101.17479 85.847188 
L 102.292937 95.699906 
L 103.411083 101.902489 
L 104.52923 107.046051 
L 105.647377 111.624025 
L 106.765524 120.704825 
L 107.883671 123.766177 
L 110.119964 134.624744 
L 111.238111 138.163264 
L 112.356258 142.636617 
L 113.474404 143.915582 
L 114.592551 148.98873 
L 115.710698 152.384438 
L 116.828845 158.859031 
L 117.946992 159.014059 
L 119.065138 158.711128 
L 120.183285 168.06454 
L 121.301432 166.514346 
L 122.419579 170.852027 
L 123.537726 174.033273 
L 124.655872 174.897546 
L 125.774019 181.180189 
L 126.892166 183.773091 
L 128.010313 184.77829 
L 129.128459 186.654057 
L 130.246606 186.835134 
L 131.364753 182.646372 
L 132.4829 190.265243 
L 133.601047 191.618477 
L 134.719193 196.47221 
L 135.83734 197.080194 
L 136.955487 195.877604 
L 138.073634 199.928206 
L 139.191781 199.276703 
L 140.309927 198.446856 
L 141.428074 203.547639 
L 142.546221 207.768851 
L 143.664368 203.847593 
L 144.782514 206.567765 
L 145.900661 205.289182 
L 147.018808 209.346965 
L 148.136955 204.063381 
L 149.255102 210.497693 
L 150.373248 213.56673 
L 151.491395 213.92167 
L 153.727689 218.538713 
L 154.845836 216.978939 
L 155.963982 214.423732 
L 157.082129 218.085228 
L 158.200276 217.370981 
L 159.318423 220.53866 
L 160.436569 222.65646 
L 161.554716 222.628166 
L 162.672863 223.601858 
L 163.79101 222.46076 
L 164.909157 219.432729 
L 166.027303 225.922628 
L 167.14545 223.340104 
L 168.263597 227.984043 
L 169.381744 221.521616 
L 170.499891 227.355035 
L 171.618037 229.73589 
L 172.736184 225.991196 
L 173.854331 230.908657 
L 174.972478 228.13193 
L 176.090624 229.860013 
L 177.208771 227.7475 
L 178.326918 229.140682 
L 179.445065 230.169328 
L 180.563212 230.307488 
L 181.681358 231.005804 
L 182.799505 229.592557 
L 183.917652 233.135924 
L 185.035799 230.611379 
L 186.153946 228.471922 
L 187.272092 229.875213 
L 188.390239 233.073212 
L 189.508386 234.978729 
L 190.626533 234.176118 
L 191.744679 234.195442 
L 192.862826 235.950559 
L 193.980973 236.390129 
L 195.09912 234.520836 
L 196.217267 231.632266 
L 197.335413 231.308303 
L 198.45356 238.546079 
L 199.571707 241.386162 
L 200.689854 236.738311 
L 201.808001 239.51046 
L 202.926147 237.823105 
L 204.044294 233.987486 
L 205.162441 238.441012 
L 206.280588 241.322823 
L 207.398734 236.615969 
L 208.516881 239.080291 
L 209.635028 239.800711 
L 210.753175 239.401016 
L 211.871322 237.719005 
L 212.989468 241.41396 
L 214.107615 239.437712 
L 215.225762 239.919873 
L 216.343909 241.926668 
L 217.462056 244.353352 
L 218.580202 239.533931 
L 219.698349 242.646885 
L 220.816496 241.162721 
L 221.934643 241.368579 
L 223.052789 242.552301 
L 224.170936 242.737314 
L 225.289083 242.728311 
L 226.40723 241.750495 
L 227.525377 243.253828 
L 228.643523 245.620638 
L 229.76167 243.666308 
L 230.879817 243.714048 
L 231.997964 238.646357 
L 233.116111 243.889172 
L 234.234257 243.650197 
L 235.352404 245.076212 
L 236.470551 241.527778 
L 237.588698 243.546845 
L 238.706844 243.518031 
L 239.824991 243.044913 
L 240.943138 244.122103 
L 242.061285 240.602899 
L 243.179432 242.428381 
L 244.297578 241.772852 
L 245.415725 243.194963 
L 246.533872 245.723681 
L 247.652019 246.498493 
L 248.770166 242.356267 
L 249.888312 245.623615 
L 251.006459 246.907094 
L 252.124606 244.592602 
L 253.242753 246.745495 
L 254.360899 244.263346 
L 255.479046 245.497589 
L 256.597193 244.957814 
L 257.71534 245.031815 
L 258.833487 247.40104 
L 259.951633 248.902804 
L 261.06978 248.123217 
L 262.187927 250.092585 
L 263.306074 248.859179 
L 264.424221 247.815203 
L 265.542367 246.542671 
L 266.660514 248.550881 
L 267.778661 245.816021 
L 268.896808 247.072816 
L 270.014954 250.159314 
L 271.133101 246.317132 
L 272.251248 251.130005 
L 273.369395 249.612472 
L 274.487542 249.161752 
L 275.605688 248.471895 
L 276.723835 248.67088 
L 277.841982 248.005283 
L 278.960129 245.332233 
L 280.078276 246.540979 
L 281.196422 245.200904 
L 282.314569 246.169879 
L 283.432716 248.381694 
L 284.550863 248.925299 
L 285.669009 247.476545 
L 286.787156 248.10552 
L 287.905303 245.10597 
L 289.02345 250.384024 
L 290.141597 247.72292 
L 291.259743 248.931691 
L 292.37789 250.529007 
L 293.496037 249.530128 
L 294.614184 244.14703 
L 295.732331 243.130917 
L 296.850477 246.072985 
L 297.968624 245.755927 
L 299.086771 246.60618 
L 300.204918 246.215952 
L 301.323064 244.274943 
L 302.441211 244.043654 
L 303.559358 243.115172 
L 304.677505 246.713525 
L 305.795652 247.188774 
L 306.913798 248.25174 
L 308.031945 248.528597 
L 309.150092 248.211913 
L 310.268239 249.463187 
L 311.386386 247.827638 
L 312.504532 248.823094 
L 313.622679 251.28583 
L 314.740826 250.764387 
L 315.858973 247.706744 
L 316.977119 248.610868 
L 318.095266 247.69657 
L 319.213413 247.239067 
L 320.33156 242.242636 
L 321.449707 248.990727 
L 322.567853 247.562785 
L 323.686 250.044056 
L 324.804147 250.361618 
L 325.922294 249.471506 
L 327.040441 251.053565 
L 328.158587 248.988548 
L 329.276734 244.975772 
L 330.394881 247.942872 
L 331.513028 254.553072 
L 332.631174 251.10272 
L 333.749321 251.240579 
L 334.867468 249.294602 
L 335.985615 249.00034 
L 337.103762 248.0357 
L 338.221908 249.65456 
L 339.340055 248.974494 
L 341.576349 250.945757 
L 342.694496 252.364484 
L 343.812642 251.447494 
L 344.930789 248.794662 
L 346.048936 250.92758 
L 347.167083 249.397888 
L 348.285229 244.909888 
L 349.403376 252.568837 
L 350.521523 251.451772 
L 351.63967 251.506075 
L 352.757817 250.603382 
L 353.875963 253.656771 
L 354.99411 249.963118 
L 356.112257 252.31437 
L 357.230404 251.621016 
L 358.348551 251.333936 
L 359.466697 254.244977 
L 360.584844 251.613956 
L 361.702991 249.908669 
L 362.821138 247.369802 
L 363.939284 250.395223 
L 365.057431 251.591648 
L 366.175578 246.729945 
L 367.293725 246.409236 
L 368.411872 244.700736 
L 369.530018 249.354939 
L 370.648165 248.764611 
L 371.766312 250.862339 
L 372.884459 252.677321 
L 374.002606 252.875241 
L 375.120752 254.01172 
L 376.238899 252.136717 
L 377.357046 253.540919 
L 378.475193 253.353263 
L 379.593339 251.519551 
L 380.711486 249.983459 
L 381.829633 245.141071 
L 382.94778 251.22459 
L 384.065927 245.719761 
L 385.184073 251.71229 
L 386.30222 253.653258 
L 387.420367 253.592709 
L 388.538514 250.728473 
L 389.656661 248.931748 
L 390.774807 251.480229 
L 391.892954 249.04464 
L 393.011101 251.117318 
L 394.129248 247.964554 
L 395.247394 249.922584 
L 396.365541 248.924616 
L 397.483688 245.762873 
L 398.601835 251.172613 
L 399.719982 246.204883 
L 401.956275 250.290448 
L 403.074422 252.180423 
L 404.192569 250.673007 
L 405.310716 249.636602 
L 406.428862 251.32978 
L 407.547009 251.931542 
L 408.665156 253.729495 
L 409.783303 252.333864 
L 410.901449 251.503269 
L 412.019596 251.926386 
L 413.137743 253.568514 
L 414.25589 245.65086 
L 415.374037 251.952021 
L 416.492183 248.376652 
L 417.61033 252.582037 
L 418.728477 251.925906 
L 419.846624 250.804449 
L 420.964771 245.896438 
L 422.082917 253.55603 
L 423.201064 248.315777 
L 424.319211 250.787045 
L 425.437358 251.092432 
L 426.555504 253.742271 
L 427.673651 250.931687 
L 428.791798 250.815046 
L 429.909945 252.135822 
L 431.028092 249.423873 
L 432.146238 250.716737 
L 433.264385 249.800397 
L 435.500679 246.455829 
L 437.736972 254.07862 
L 438.855119 249.120234 
L 439.973266 249.26839 
L 441.091413 245.019632 
L 442.209559 249.34335 
L 443.327706 250.001822 
L 444.445853 248.767921 
L 446.682147 254.139275 
L 447.800293 251.330927 
L 448.91844 249.028374 
L 450.036587 253.094518 
L 451.154734 255.564106 
L 453.391027 248.749817 
L 454.509174 250.259209 
L 455.627321 249.849625 
L 456.745468 250.322898 
L 457.863614 247.983105 
L 458.981761 250.842324 
L 460.099908 251.678043 
L 461.218055 250.051538 
L 462.336202 253.744183 
L 463.454348 250.642631 
L 464.572495 249.016094 
L 465.690642 250.083728 
L 466.808789 252.907788 
L 467.926936 252.079137 
L 469.045082 250.217838 
L 470.163229 252.865652 
L 471.281376 251.89244 
L 472.399523 253.92369 
L 473.517669 249.098633 
L 474.635816 247.277925 
L 475.753963 251.601904 
L 476.87211 247.030591 
L 477.990257 252.741643 
L 479.108403 250.365627 
L 480.22655 250.505552 
L 481.344697 250.179866 
L 482.462844 249.419107 
L 483.580991 245.025195 
L 484.699137 249.959377 
L 485.817284 247.659899 
L 486.935431 248.387403 
L 488.053578 248.279147 
L 489.171724 252.109358 
L 490.289871 249.540277 
L 491.408018 252.899875 
L 492.526165 250.428445 
L 493.644312 249.122641 
L 494.762458 248.064539 
L 495.880605 248.593391 
L 496.998752 251.485726 
L 498.116899 253.354044 
L 499.235046 250.238682 
L 500.353192 248.351098 
L 501.471339 240.884213 
L 502.589486 250.888445 
L 503.707633 252.789822 
L 504.825779 248.037701 
L 505.943926 246.214431 
L 507.062073 248.596571 
L 508.18022 247.728947 
L 509.298367 244.965467 
L 510.416513 249.166485 
L 511.53466 247.663307 
L 512.652807 247.614835 
L 513.770954 241.572444 
L 514.889101 250.015982 
L 516.007247 246.664704 
L 517.125394 249.614855 
L 518.243541 247.480083 
L 519.361688 247.294134 
L 520.479834 249.380411 
L 521.597981 245.935061 
L 522.716128 247.954469 
L 523.834275 244.976593 
L 524.952422 247.814325 
L 526.070568 246.584693 
L 527.188715 249.940737 
L 528.306862 247.508613 
L 529.425009 247.246142 
L 530.543156 245.769168 
L 531.661302 246.451958 
L 532.779449 246.018739 
L 533.897596 247.587655 
L 535.015743 252.630492 
L 536.133889 250.171139 
L 537.252036 251.906103 
L 538.370183 244.470976 
L 539.48833 248.692627 
L 540.606477 247.04989 
L 541.724623 252.158415 
L 542.84277 248.044231 
L 545.079064 244.048688 
L 546.197211 246.155004 
L 547.315357 246.037567 
L 548.433504 248.877681 
L 549.551651 247.639567 
L 550.669798 249.804065 
L 552.906091 246.467548 
L 554.024238 247.216507 
L 555.142385 245.282785 
L 556.260532 247.903355 
L 557.378678 249.122617 
L 558.496825 251.265067 
L 559.614972 247.382578 
L 561.851266 245.709139 
L 562.969412 245.699266 
L 564.087559 251.789292 
L 565.205706 247.162269 
L 566.323853 246.382731 
L 567.441999 249.034693 
L 568.560146 249.417236 
L 569.678293 250.670852 
L 570.79644 249.592685 
L 571.914587 247.644748 
L 573.032733 247.257431 
L 574.15088 247.028061 
L 575.269027 248.957066 
L 576.387174 248.174641 
L 577.505321 248.583103 
L 578.623467 246.741144 
L 579.741614 248.406719 
L 580.859761 245.004757 
L 581.977908 248.282295 
L 583.096054 247.919311 
L 584.214201 249.15475 
L 585.332348 252.589251 
L 586.450495 238.327055 
L 587.568642 245.927936 
L 588.686788 249.553152 
L 589.804935 250.131549 
L 590.923082 247.045059 
L 592.041229 245.788019 
L 593.159376 249.660017 
L 594.277522 248.214947 
L 595.395669 248.042515 
L 596.513816 250.407178 
L 597.631963 246.370263 
L 599.868256 250.12218 
L 600.986403 248.740074 
L 602.10455 250.204744 
L 603.222697 247.093262 
L 604.340843 250.551795 
L 605.45899 251.318573 
L 606.577137 249.269585 
L 607.695284 247.830029 
L 608.813431 250.382739 
L 609.931577 248.667009 
L 611.049724 249.287851 
L 612.167871 249.662717 
L 613.286018 247.334416 
L 614.404164 243.397982 
L 615.522311 243.556678 
L 616.640458 247.809364 
L 617.758605 250.874587 
L 618.876752 248.104861 
L 619.994898 246.243668 
L 621.113045 251.060592 
L 622.231192 249.469132 
L 623.349339 248.896623 
L 624.467486 243.602645 
L 625.585632 250.484789 
L 626.703779 245.39061 
L 627.821926 245.23873 
L 628.940073 247.759339 
L 630.058219 244.99394 
L 631.176366 247.3905 
L 633.41266 244.853479 
L 634.530807 246.36122 
L 635.648953 245.252905 
L 636.7671 246.590817 
L 637.885247 246.18769 
L 639.003394 244.294917 
L 640.121541 246.729758 
L 641.239687 244.038905 
L 642.357834 246.193912 
L 643.475981 250.037948 
L 644.594128 248.745987 
L 645.712274 250.633929 
L 646.830421 247.403447 
L 647.948568 249.20854 
L 649.066715 246.517296 
L 650.184862 249.108165 
L 651.303008 247.054501 
L 652.421155 246.124596 
L 653.539302 244.984571 
L 654.657449 244.83239 
L 655.775596 248.026258 
L 656.893742 245.632748 
L 658.011889 250.811728 
L 659.130036 251.322322 
L 660.248183 244.060091 
L 661.366329 246.054694 
L 662.484476 250.377737 
L 663.602623 251.392354 
L 664.72077 245.706081 
L 665.838917 241.557902 
L 666.957063 248.070394 
L 668.07521 246.62874 
L 669.193357 250.737833 
L 670.311504 248.067857 
L 671.429651 248.581289 
L 672.547797 244.767417 
L 673.665944 250.065885 
L 674.784091 249.405435 
L 674.784091 249.405435 
" style="fill:none;stroke:#ff7f0e;stroke-linecap:square;stroke-width:1.5;"/>
   </g>
   <g id="patch_3">
    <path d="M 65.45 304 
L 65.45 16.2 
" style="fill:none;stroke:#000000;stroke-linecap:square;stroke-linejoin:miter;stroke-width:0.8;"/>
   </g>
   <g id="patch_4">
    <path d="M 703.8 304 
L 703.8 16.2 
" style="fill:none;stroke:#000000;stroke-linecap:square;stroke-linejoin:miter;stroke-width:0.8;"/>
   </g>
   <g id="patch_5">
    <path d="M 65.45 304 
L 703.8 304 
" style="fill:none;stroke:#000000;stroke-linecap:square;stroke-linejoin:miter;stroke-width:0.8;"/>
   </g>
   <g id="patch_6">
    <path d="M 65.45 16.2 
L 703.8 16.2 
" style="fill:none;stroke:#000000;stroke-linecap:square;stroke-linejoin:miter;stroke-width:0.8;"/>
   </g>
   <g id="legend_1">
    <g id="patch_7">
     <path d="M 532.153125 72.234375 
L 693.3 72.234375 
Q 696.3 72.234375 696.3 69.234375 
L 696.3 26.7 
Q 696.3 23.7 693.3 23.7 
L 532.153125 23.7 
Q 529.153125 23.7 529.153125 26.7 
L 529.153125 69.234375 
Q 529.153125 72.234375 532.153125 72.234375 
z
" style="fill:#ffffff;opacity:0.8;stroke:#cccccc;stroke-linejoin:miter;"/>
    </g>
    <g id="line2d_14">
     <path d="M 535.153125 35.847656 
L 565.153125 35.847656 
" style="fill:none;stroke:#1f77b4;stroke-linecap:square;stroke-width:1.5;"/>
    </g>
    <g id="line2d_15"/>
    <g id="text_14">
     <text style="font-family:DejaVu Sans;font-size:15px;font-style:normal;font-weight:normal;text-anchor:start;" transform="rotate(-0, 577.153125, 41.097656)" x="577.153125" y="41.097656">Training Loss</text>
    </g>
    <g id="line2d_16">
     <path d="M 535.153125 57.864844 
L 565.153125 57.864844 
" style="fill:none;stroke:#ff7f0e;stroke-linecap:square;stroke-width:1.5;"/>
    </g>
    <g id="line2d_17"/>
    <g id="text_15">
     <text style="font-family:DejaVu Sans;font-size:15px;font-style:normal;font-weight:normal;text-anchor:start;" transform="rotate(-0, 577.153125, 63.114844)" x="577.153125" y="63.114844">Validation Loss</text>
    </g>
   </g>
  </g>
 </g>
 <defs>
  <clipPath id="p8dd6e02725">
   <rect height="287.8" width="638.35" x="65.45" y="16.2"/>
  </clipPath>
 </defs>
</svg>
