<?xml version="1.0" encoding="utf-8" standalone="no"?>
<!DOCTYPE svg PUBLIC "-//W3C//DTD SVG 1.1//EN"
  "http://www.w3.org/Graphics/SVG/1.1/DTD/svg11.dtd">
<!-- Created with matplotlib (https://matplotlib.org/) -->
<svg height="360pt" version="1.1" viewBox="0 0 720 360" width="720pt" xmlns="http://www.w3.org/2000/svg" xmlns:xlink="http://www.w3.org/1999/xlink">
 <defs>
  <style type="text/css">
*{stroke-linecap:butt;stroke-linejoin:round;}
  </style>
 </defs>
 <g id="figure_1">
  <g id="patch_1">
   <path d="M 0 360 
L 720 360 
L 720 0 
L 0 0 
z
" style="fill:#ffffff;"/>
  </g>
  <g id="axes_1">
   <g id="patch_2">
    <path d="M 65.45 304 
L 703.8 304 
L 703.8 16.2 
L 65.45 16.2 
z
" style="fill:#ffffff;"/>
   </g>
   <g id="matplotlib.axis_1">
    <g id="xtick_1">
     <g id="line2d_1">
      <defs>
       <path d="M 0 0 
L 0 3.5 
" id="m50c1a2eccf" style="stroke:#000000;stroke-width:0.8;"/>
      </defs>
      <g>
       <use style="stroke:#000000;stroke-width:0.8;" x="93.347762" xlink:href="#m50c1a2eccf" y="304"/>
      </g>
     </g>
     <g id="text_1">
      <text style="font-family:DejaVu Sans;font-size:15px;font-style:normal;font-weight:normal;text-anchor:middle;" transform="rotate(-0, 93.347762, 322.397656)" x="93.347762" y="322.397656">0</text>
     </g>
    </g>
    <g id="xtick_2">
     <g id="line2d_2">
      <g>
       <use style="stroke:#000000;stroke-width:0.8;" x="205.162441" xlink:href="#m50c1a2eccf" y="304"/>
      </g>
     </g>
     <g id="text_2">
      <text style="font-family:DejaVu Sans;font-size:15px;font-style:normal;font-weight:normal;text-anchor:middle;" transform="rotate(-0, 205.162441, 322.397656)" x="205.162441" y="322.397656">100</text>
     </g>
    </g>
    <g id="xtick_3">
     <g id="line2d_3">
      <g>
       <use style="stroke:#000000;stroke-width:0.8;" x="316.977119" xlink:href="#m50c1a2eccf" y="304"/>
      </g>
     </g>
     <g id="text_3">
      <text style="font-family:DejaVu Sans;font-size:15px;font-style:normal;font-weight:normal;text-anchor:middle;" transform="rotate(-0, 316.977119, 322.397656)" x="316.977119" y="322.397656">200</text>
     </g>
    </g>
    <g id="xtick_4">
     <g id="line2d_4">
      <g>
       <use style="stroke:#000000;stroke-width:0.8;" x="428.791798" xlink:href="#m50c1a2eccf" y="304"/>
      </g>
     </g>
     <g id="text_4">
      <text style="font-family:DejaVu Sans;font-size:15px;font-style:normal;font-weight:normal;text-anchor:middle;" transform="rotate(-0, 428.791798, 322.397656)" x="428.791798" y="322.397656">300</text>
     </g>
    </g>
    <g id="xtick_5">
     <g id="line2d_5">
      <g>
       <use style="stroke:#000000;stroke-width:0.8;" x="540.606477" xlink:href="#m50c1a2eccf" y="304"/>
      </g>
     </g>
     <g id="text_5">
      <text style="font-family:DejaVu Sans;font-size:15px;font-style:normal;font-weight:normal;text-anchor:middle;" transform="rotate(-0, 540.606477, 322.397656)" x="540.606477" y="322.397656">400</text>
     </g>
    </g>
    <g id="xtick_6">
     <g id="line2d_6">
      <g>
       <use style="stroke:#000000;stroke-width:0.8;" x="652.421155" xlink:href="#m50c1a2eccf" y="304"/>
      </g>
     </g>
     <g id="text_6">
      <text style="font-family:DejaVu Sans;font-size:15px;font-style:normal;font-weight:normal;text-anchor:middle;" transform="rotate(-0, 652.421155, 322.397656)" x="652.421155" y="322.397656">500</text>
     </g>
    </g>
    <g id="text_7">
     <text style="font-family:DejaVu Sans;font-size:15px;font-style:normal;font-weight:normal;text-anchor:middle;" transform="rotate(-0, 384.625, 340.914844)" x="384.625" y="340.914844">Epoch</text>
    </g>
   </g>
   <g id="matplotlib.axis_2">
    <g id="ytick_1">
     <g id="line2d_7">
      <defs>
       <path d="M 0 0 
L -3.5 0 
" id="m6a18f99627" style="stroke:#000000;stroke-width:0.8;"/>
      </defs>
      <g>
       <use style="stroke:#000000;stroke-width:0.8;" x="65.45" xlink:href="#m6a18f99627" y="293.534548"/>
      </g>
     </g>
     <g id="text_8">
      <text style="font-family:DejaVu Sans;font-size:15px;font-style:normal;font-weight:normal;text-anchor:end;" transform="rotate(-0, 58.45, 299.233376)" x="58.45" y="299.233376">0.4</text>
     </g>
    </g>
    <g id="ytick_2">
     <g id="line2d_8">
      <g>
       <use style="stroke:#000000;stroke-width:0.8;" x="65.45" xlink:href="#m6a18f99627" y="246.259564"/>
      </g>
     </g>
     <g id="text_9">
      <text style="font-family:DejaVu Sans;font-size:15px;font-style:normal;font-weight:normal;text-anchor:end;" transform="rotate(-0, 58.45, 251.958392)" x="58.45" y="251.958392">0.5</text>
     </g>
    </g>
    <g id="ytick_3">
     <g id="line2d_9">
      <g>
       <use style="stroke:#000000;stroke-width:0.8;" x="65.45" xlink:href="#m6a18f99627" y="198.98458"/>
      </g>
     </g>
     <g id="text_10">
      <text style="font-family:DejaVu Sans;font-size:15px;font-style:normal;font-weight:normal;text-anchor:end;" transform="rotate(-0, 58.45, 204.683408)" x="58.45" y="204.683408">0.6</text>
     </g>
    </g>
    <g id="ytick_4">
     <g id="line2d_10">
      <g>
       <use style="stroke:#000000;stroke-width:0.8;" x="65.45" xlink:href="#m6a18f99627" y="151.709596"/>
      </g>
     </g>
     <g id="text_11">
      <text style="font-family:DejaVu Sans;font-size:15px;font-style:normal;font-weight:normal;text-anchor:end;" transform="rotate(-0, 58.45, 157.408424)" x="58.45" y="157.408424">0.7</text>
     </g>
    </g>
    <g id="ytick_5">
     <g id="line2d_11">
      <g>
       <use style="stroke:#000000;stroke-width:0.8;" x="65.45" xlink:href="#m6a18f99627" y="104.434612"/>
      </g>
     </g>
     <g id="text_12">
      <text style="font-family:DejaVu Sans;font-size:15px;font-style:normal;font-weight:normal;text-anchor:end;" transform="rotate(-0, 58.45, 110.13344)" x="58.45" y="110.13344">0.8</text>
     </g>
    </g>
    <g id="ytick_6">
     <g id="line2d_12">
      <g>
       <use style="stroke:#000000;stroke-width:0.8;" x="65.45" xlink:href="#m6a18f99627" y="57.159628"/>
      </g>
     </g>
     <g id="text_13">
      <text style="font-family:DejaVu Sans;font-size:15px;font-style:normal;font-weight:normal;text-anchor:end;" transform="rotate(-0, 58.45, 62.858456)" x="58.45" y="62.858456">0.9</text>
     </g>
    </g>
    <g id="text_14">
     <text style="font-family:DejaVu Sans;font-size:15px;font-style:normal;font-weight:normal;text-anchor:middle;" transform="rotate(-90, 27.475781, 160.1)" x="27.475781" y="160.1">Accuracy</text>
    </g>
   </g>
   <g id="line2d_13">
    <path clip-path="url(#pf0925ccfc8)" d="M 94.465909 290.918182 
L 95.584056 242.199694 
L 96.702203 227.53903 
L 97.820349 214.908315 
L 98.938496 204.758625 
L 100.056643 204.081984 
L 101.17479 192.579013 
L 102.292937 188.970218 
L 103.411083 187.278603 
L 104.52923 183.669835 
L 105.647377 172.956273 
L 106.765524 170.475249 
L 107.883671 169.911377 
L 109.001817 162.017174 
L 110.119964 159.310584 
L 111.238111 149.724765 
L 112.356258 152.318586 
L 113.474404 154.12297 
L 114.592551 147.582047 
L 115.710698 146.228766 
L 116.828845 145.439357 
L 117.946992 137.094051 
L 119.065138 137.996229 
L 120.183285 131.455334 
L 121.301432 133.372486 
L 122.419579 130.665925 
L 123.537726 129.763719 
L 124.655872 126.94436 
L 125.774019 129.087078 
L 126.892166 121.418412 
L 128.010313 120.065131 
L 130.246606 115.215824 
L 131.364753 120.1779 
L 132.4829 117.020236 
L 133.601047 112.847568 
L 134.719193 111.94539 
L 135.83734 110.70485 
L 136.955487 113.185903 
L 138.073634 112.058159 
L 139.191781 105.742802 
L 140.309927 104.615059 
L 142.546221 101.344597 
L 143.664368 102.47234 
L 144.782514 101.231828 
L 145.900661 99.765751 
L 147.018808 100.667957 
L 148.136955 100.555188 
L 149.255102 98.976342 
L 150.373248 99.540213 
L 151.491395 91.194907 
L 152.609542 89.841626 
L 153.727689 92.999291 
L 154.845836 91.307675 
L 155.963982 94.352599 
L 158.200276 91.984316 
L 159.318423 92.435419 
L 160.436569 90.292729 
L 161.554716 85.668959 
L 162.672863 85.781755 
L 163.79101 89.841626 
L 164.909157 86.683933 
L 166.027303 84.992318 
L 167.14545 88.93942 
L 168.263597 84.541215 
L 169.381744 84.766781 
L 170.499891 82.8496 
L 171.618037 85.443421 
L 172.736184 82.962397 
L 173.854331 84.315678 
L 174.972478 81.383551 
L 176.090624 80.594113 
L 177.208771 81.270782 
L 178.326918 81.496319 
L 179.445065 80.594113 
L 180.563212 77.098115 
L 181.681358 77.549218 
L 182.799505 76.195937 
L 183.917652 77.32368 
L 185.035799 80.030242 
L 186.153946 78.000321 
L 187.272092 75.519296 
L 188.390239 72.248835 
L 189.508386 70.669989 
L 190.626533 74.955425 
L 191.744679 74.729859 
L 192.862826 71.121092 
L 193.980973 71.346629 
L 196.217267 73.038244 
L 197.335413 74.842628 
L 198.45356 73.038244 
L 199.571707 69.429477 
L 200.689854 71.459398 
L 201.808001 71.797732 
L 202.926147 67.399527 
L 204.044294 66.835656 
L 205.162441 69.993348 
L 206.280588 69.655014 
L 207.398734 67.399527 
L 208.516881 66.271784 
L 209.635028 67.737862 
L 210.753175 70.55722 
L 211.871322 69.88058 
L 212.989468 70.218886 
L 214.107615 68.188965 
L 215.225762 65.482375 
L 216.343909 63.903528 
L 217.462056 67.286759 
L 218.580202 62.888554 
L 219.698349 66.948424 
L 220.816496 65.933478 
L 221.934643 63.677991 
L 223.052789 64.016297 
L 224.170936 65.256809 
L 225.289083 64.692938 
L 226.40723 62.437451 
L 227.525377 65.482375 
L 228.643523 64.805734 
L 229.76167 64.4674 
L 230.879817 62.211913 
L 231.997964 65.031272 
L 233.116111 66.159015 
L 234.234257 62.437451 
L 235.352404 59.843658 
L 236.470551 58.603146 
L 237.588698 59.392555 
L 238.706844 60.40753 
L 239.824991 62.211913 
L 240.943138 60.40753 
L 242.061285 59.956427 
L 243.179432 60.858633 
L 244.297578 59.505324 
L 245.415725 60.069195 
L 246.533872 60.294761 
L 247.652019 58.715915 
L 248.770166 57.813709 
L 249.888312 59.505324 
L 251.006459 60.40753 
L 252.124606 59.843658 
L 253.242753 64.016297 
L 254.360899 58.152043 
L 255.479046 55.558222 
L 256.597193 57.813709 
L 257.71534 58.490377 
L 258.833487 57.137068 
L 259.951633 55.332684 
L 261.06978 60.181992 
L 262.187927 56.460428 
L 263.306074 56.122094 
L 264.424221 54.092172 
L 265.542367 54.543275 
L 266.660514 54.430478 
L 267.778661 54.543275 
L 268.896808 56.23489 
L 270.014954 55.332684 
L 272.251248 55.783787 
L 273.369395 54.092172 
L 274.487542 56.347659 
L 275.605688 56.685965 
L 276.723835 57.475402 
L 277.841982 54.881581 
L 278.960129 55.332684 
L 280.078276 56.573197 
L 281.196422 57.249837 
L 282.314569 54.543275 
L 283.432716 53.415532 
L 284.550863 48.453456 
L 285.669009 54.092172 
L 286.787156 52.287789 
L 289.02345 57.024299 
L 290.141597 52.400557 
L 291.259743 51.836686 
L 292.37789 54.768813 
L 293.496037 51.160045 
L 294.614184 51.272814 
L 295.732331 51.723917 
L 296.850477 52.400557 
L 297.968624 49.581199 
L 299.086771 50.483377 
L 300.204918 50.483377 
L 301.323064 50.257839 
L 302.441211 50.370608 
L 303.559358 51.836686 
L 304.677505 52.964429 
L 305.795652 53.528301 
L 306.913798 53.077198 
L 308.031945 49.017327 
L 309.150092 49.242865 
L 310.268239 51.723917 
L 311.386386 53.302735 
L 312.504532 49.919505 
L 313.622679 48.904558 
L 314.740826 48.904558 
L 315.858973 50.596174 
L 316.977119 50.483377 
L 318.095266 49.017327 
L 319.213413 50.708942 
L 320.33156 46.0852 
L 321.449707 48.904558 
L 322.567853 48.566224 
L 323.686 52.85166 
L 324.804147 51.949454 
L 325.922294 50.145071 
L 327.040441 48.115121 
L 328.158587 48.791762 
L 329.276734 49.130096 
L 330.394881 46.76184 
L 331.513028 47.325712 
L 333.749321 49.806736 
L 334.867468 47.325712 
L 335.985615 48.791762 
L 337.103762 49.806736 
L 338.221908 47.100147 
L 339.340055 46.310737 
L 340.458202 47.325712 
L 341.576349 49.581199 
L 342.694496 45.070225 
L 343.812642 44.619122 
L 344.930789 46.423506 
L 346.048936 45.521328 
L 347.167083 48.340687 
L 348.285229 45.521328 
L 349.403376 49.355633 
L 350.521523 50.257839 
L 351.63967 49.017327 
L 352.757817 43.604148 
L 353.875963 46.536303 
L 354.99411 44.619122 
L 356.112257 45.521328 
L 357.230404 50.145071 
L 358.348551 44.844688 
L 359.466697 47.212943 
L 360.584844 45.070225 
L 361.702991 44.055251 
L 362.821138 43.37861 
L 363.939284 47.664018 
L 365.057431 44.731891 
L 366.175578 44.844688 
L 367.293725 44.844688 
L 368.411872 44.055251 
L 369.530018 44.393585 
L 370.648165 44.393585 
L 371.766312 43.37861 
L 372.884459 44.957457 
L 374.002606 44.393585 
L 375.120752 47.325712 
L 376.238899 42.70197 
L 377.357046 47.212943 
L 378.475193 41.235892 
L 379.593339 43.716945 
L 380.711486 44.280816 
L 381.829633 45.972431 
L 382.94778 42.138098 
L 384.065927 42.70197 
L 385.184073 43.604148 
L 386.30222 43.153073 
L 387.420367 47.100147 
L 388.538514 46.0852 
L 390.774807 41.348661 
L 391.892954 44.506354 
L 393.011101 43.604148 
L 394.129248 44.280816 
L 395.247394 42.70197 
L 396.365541 43.491379 
L 397.483688 45.070225 
L 398.601835 42.250867 
L 399.719982 41.799764 
L 400.838128 45.746866 
L 401.956275 47.889584 
L 403.074422 40.784789 
L 405.310716 43.829713 
L 406.428862 44.957457 
L 407.547009 41.123124 
L 408.665156 40.333714 
L 409.783303 42.476404 
L 410.901449 42.363636 
L 412.019596 42.02533 
L 413.137743 40.559252 
L 414.25589 39.657046 
L 415.374037 45.859634 
L 416.492183 42.138098 
L 417.61033 41.123124 
L 418.728477 45.182994 
L 419.846624 42.70197 
L 420.964771 41.235892 
L 422.082917 42.138098 
L 423.201064 41.010355 
L 424.319211 39.31874 
L 425.437358 40.446483 
L 426.555504 43.37861 
L 427.673651 38.867637 
L 428.791798 40.220918 
L 429.909945 40.784789 
L 431.028092 39.544277 
L 432.146238 42.02533 
L 433.264385 42.138098 
L 434.382532 42.02533 
L 435.500679 38.754868 
L 436.618826 38.303765 
L 437.736972 41.010355 
L 438.855119 41.461458 
L 439.973266 38.529303 
L 441.091413 40.446483 
L 442.209559 41.686995 
L 443.327706 38.980406 
L 444.445853 40.446483 
L 445.564 42.589201 
L 446.682147 39.99538 
L 447.800293 41.348661 
L 448.91844 40.559252 
L 450.036587 40.108149 
L 451.154734 37.739893 
L 452.272881 37.627125 
L 454.509174 40.108149 
L 455.627321 37.627125 
L 456.745468 37.852662 
L 457.863614 39.431509 
L 458.981761 41.912533 
L 460.099908 39.882612 
L 461.218055 38.980406 
L 462.336202 38.303765 
L 463.454348 42.589201 
L 464.572495 36.837688 
L 465.690642 39.31874 
L 466.808789 39.99538 
L 467.926936 38.416534 
L 469.045082 40.446483 
L 470.163229 38.529303 
L 471.281376 41.235892 
L 472.399523 41.348661 
L 473.517669 36.386613 
L 474.635816 38.078228 
L 475.753963 35.709944 
L 476.87211 38.416534 
L 477.990257 37.28879 
L 479.108403 38.642099 
L 480.22655 35.258869 
L 481.344697 36.048278 
L 482.462844 39.431509 
L 483.580991 40.672021 
L 484.699137 37.627125 
L 485.817284 39.544277 
L 486.935431 39.431509 
L 488.053578 38.078228 
L 489.171724 40.559252 
L 490.289871 36.950484 
L 491.408018 35.371638 
L 492.526165 35.371638 
L 493.644312 39.882612 
L 494.762458 40.784789 
L 495.880605 41.123124 
L 498.116899 34.243895 
L 499.235046 40.220918 
L 500.353192 37.965431 
L 501.471339 40.333714 
L 502.589486 36.837688 
L 503.707633 38.980406 
L 504.825779 37.852662 
L 505.943926 39.882612 
L 507.062073 36.273816 
L 508.18022 36.950484 
L 509.298367 40.220918 
L 511.53466 37.627125 
L 512.652807 36.724919 
L 513.770954 36.61215 
L 514.889101 34.356663 
L 516.007247 37.627125 
L 517.125394 37.965431 
L 518.243541 35.033304 
L 519.361688 38.980406 
L 520.479834 38.980406 
L 521.597981 34.018329 
L 522.716128 36.048278 
L 523.834275 36.161047 
L 524.952422 37.176022 
L 526.070568 36.837688 
L 527.188715 38.529303 
L 528.306862 34.807766 
L 529.425009 35.93551 
L 530.543156 36.837688 
L 531.661302 34.920535 
L 532.779449 34.356663 
L 533.897596 37.739893 
L 535.015743 36.161047 
L 536.133889 40.333714 
L 537.252036 35.822741 
L 538.370183 36.048278 
L 539.48833 38.867637 
L 541.724623 33.454457 
L 542.84277 35.258869 
L 543.960917 33.90556 
L 545.079064 32.890586 
L 546.197211 35.146072 
L 547.315357 36.161047 
L 548.433504 33.341689 
L 549.551651 35.822741 
L 550.669798 33.116151 
L 551.787944 32.777817 
L 552.906091 34.469432 
L 554.024238 33.90556 
L 555.142385 33.116151 
L 556.260532 34.694998 
L 557.378678 37.965431 
L 558.496825 36.61215 
L 559.614972 35.709944 
L 560.733119 34.469432 
L 561.851266 38.980406 
L 562.969412 40.220918 
L 564.087559 34.018329 
L 565.205706 31.537305 
L 566.323853 33.90556 
L 568.560146 39.431509 
L 569.678293 36.273816 
L 570.79644 36.386613 
L 571.914587 37.28879 
L 573.032733 35.371638 
L 574.15088 31.875639 
L 575.269027 35.597175 
L 576.387174 34.920535 
L 577.505321 35.033304 
L 578.623467 33.454457 
L 579.741614 35.258869 
L 580.859761 34.131126 
L 581.977908 30.747896 
L 583.096054 35.709944 
L 584.214201 35.484407 
L 585.332348 36.499381 
L 586.450495 32.777817 
L 587.568642 35.709944 
L 588.686788 37.739893 
L 589.804935 37.28879 
L 590.923082 35.371638 
L 592.041229 32.55228 
L 593.159376 36.950484 
L 594.277522 33.454457 
L 595.395669 35.709944 
L 596.513816 33.116151 
L 597.631963 35.146072 
L 598.750109 36.837688 
L 599.868256 33.454457 
L 600.986403 34.243895 
L 602.10455 32.777817 
L 603.222697 34.356663 
L 604.340843 34.131126 
L 605.45899 34.356663 
L 606.577137 34.243895 
L 608.813431 34.807766 
L 609.931577 36.161047 
L 611.049724 35.822741 
L 612.167871 33.454457 
L 613.286018 32.439511 
L 614.404164 34.582201 
L 615.522311 32.326714 
L 616.640458 35.597175 
L 617.758605 31.424536 
L 618.876752 35.822741 
L 619.994898 34.131126 
L 621.113045 34.018329 
L 622.231192 36.386613 
L 623.349339 33.341689 
L 625.585632 33.341689 
L 626.703779 34.356663 
L 627.821926 34.469432 
L 628.940073 35.93551 
L 630.058219 34.582201 
L 631.176366 33.792792 
L 632.294513 34.131126 
L 633.41266 35.822741 
L 634.530807 36.724919 
L 636.7671 29.958459 
L 637.885247 31.988408 
L 639.003394 32.213945 
L 640.121541 34.356663 
L 641.239687 33.792792 
L 642.357834 32.213945 
L 643.475981 31.086202 
L 644.594128 34.694998 
L 645.712274 35.597175 
L 646.830421 31.875639 
L 647.948568 31.311768 
L 649.066715 34.243895 
L 650.184862 32.55228 
L 651.303008 32.777817 
L 652.421155 35.371638 
L 653.539302 35.258869 
L 654.657449 31.650074 
L 655.775596 34.018329 
L 656.893742 37.852662 
L 658.011889 35.146072 
L 659.130036 32.890586 
L 660.248183 33.792792 
L 661.366329 32.665048 
L 662.484476 31.988408 
L 663.602623 32.101177 
L 664.72077 34.582201 
L 666.957063 32.777817 
L 668.07521 34.807766 
L 669.193357 30.635127 
L 670.311504 31.875639 
L 671.429651 29.281818 
L 672.547797 33.567254 
L 673.665944 31.424536 
L 674.784091 31.198999 
L 674.784091 31.198999 
" style="fill:none;stroke:#1f77b4;stroke-linecap:square;stroke-width:1.5;"/>
   </g>
   <g id="line2d_14">
    <path clip-path="url(#pf0925ccfc8)" d="M 94.465909 246.597729 
L 95.584056 235.43839 
L 96.702203 219.206629 
L 97.820349 213.796042 
L 98.938496 214.810537 
L 100.056643 199.255106 
L 101.17479 203.313061 
L 103.411083 187.0813 
L 104.52923 182.68518 
L 105.647377 177.612758 
L 106.765524 175.583795 
L 109.001817 155.632273 
L 110.119964 152.250649 
L 111.238111 152.926979 
L 112.356258 144.134768 
L 113.474404 139.738677 
L 114.592551 138.386044 
L 115.710698 134.666255 
L 116.828845 127.226705 
L 117.946992 140.753172 
L 119.065138 128.917503 
L 120.183285 126.550374 
L 121.301432 125.197742 
L 122.419579 128.579337 
L 123.537726 124.859576 
L 124.655872 116.405531 
L 125.774019 110.318613 
L 126.892166 112.009439 
L 128.010313 108.96598 
L 129.128459 113.023907 
L 130.246606 110.318613 
L 131.364753 117.420026 
L 132.4829 101.52643 
L 133.601047 102.202733 
L 134.719193 98.482972 
L 135.83734 92.396054 
L 136.955487 101.52643 
L 138.073634 97.806641 
L 139.191781 96.115843 
L 140.309927 98.144806 
L 141.428074 92.057889 
L 142.546221 93.072384 
L 143.664368 93.072384 
L 144.782514 86.309165 
L 145.900661 91.381587 
L 147.018808 91.381587 
L 148.136955 92.734219 
L 149.255102 90.367091 
L 150.373248 84.618339 
L 151.491395 82.589376 
L 152.609542 79.884082 
L 153.727689 79.545917 
L 154.845836 82.927541 
L 155.963982 85.294669 
L 157.082129 77.855119 
L 158.200276 81.57488 
L 159.318423 74.13533 
L 160.436569 75.487991 
L 161.554716 78.531449 
L 162.672863 74.473495 
L 163.79101 74.473495 
L 164.909157 79.207752 
L 166.027303 72.106367 
L 167.14545 74.13533 
L 168.263597 72.106367 
L 169.381744 75.149825 
L 170.499891 71.430036 
L 171.618037 72.106367 
L 172.736184 73.459027 
L 173.854331 66.357614 
L 174.972478 70.415569 
L 176.090624 71.091871 
L 177.208771 69.401073 
L 178.326918 70.753734 
L 179.445065 68.04844 
L 180.563212 69.739238 
L 181.681358 69.739238 
L 182.799505 67.710275 
L 183.917652 69.062908 
L 185.035799 68.724743 
L 186.153946 71.768201 
L 187.272092 69.401073 
L 188.390239 66.357614 
L 189.508386 67.37211 
L 190.626533 62.637853 
L 191.744679 69.401073 
L 192.862826 63.652321 
L 193.980973 66.69578 
L 195.09912 68.724743 
L 196.217267 67.710275 
L 197.335413 66.019449 
L 198.45356 60.270725 
L 199.571707 57.903597 
L 200.689854 63.314156 
L 201.808001 62.976019 
L 204.044294 63.652321 
L 205.162441 62.976019 
L 206.280588 60.608862 
L 207.398734 63.990486 
L 208.516881 63.990486 
L 209.635028 66.69578 
L 210.753175 63.652321 
L 211.871322 62.637853 
L 212.989468 64.328651 
L 214.107615 61.285192 
L 216.343909 57.903597 
L 217.462056 57.565431 
L 218.580202 61.961523 
L 219.698349 58.579899 
L 220.816496 60.608862 
L 223.052789 57.227266 
L 224.170936 59.594395 
L 225.289083 59.594395 
L 226.40723 61.285192 
L 227.525377 58.918064 
L 229.76167 55.53644 
L 230.879817 54.860138 
L 231.997964 60.270725 
L 233.116111 57.903597 
L 234.234257 57.227266 
L 235.352404 57.227266 
L 236.470551 58.579899 
L 237.588698 56.889101 
L 238.706844 57.565431 
L 239.824991 58.579899 
L 240.943138 55.53644 
L 242.061285 59.256229 
L 243.179432 60.608862 
L 244.297578 59.93256 
L 245.415725 58.918064 
L 246.533872 55.198303 
L 247.652019 55.874605 
L 248.770166 57.227266 
L 249.888312 53.507477 
L 251.006459 56.550936 
L 252.124606 56.212771 
L 253.242753 56.889101 
L 254.360899 57.903597 
L 255.479046 59.594395 
L 256.597193 55.198303 
L 257.71534 55.874605 
L 258.833487 55.874605 
L 259.951633 51.478514 
L 261.06978 56.550936 
L 262.187927 52.154844 
L 263.306074 53.507477 
L 264.424221 51.478514 
L 265.542367 56.212771 
L 266.660514 55.53644 
L 267.778661 57.565431 
L 268.896808 52.49301 
L 270.014954 54.183807 
L 271.133101 55.198303 
L 272.251248 54.183807 
L 273.369395 53.845642 
L 274.487542 57.903597 
L 275.605688 55.874605 
L 276.723835 55.874605 
L 277.841982 54.860138 
L 278.960129 55.198303 
L 280.078276 55.198303 
L 281.196422 54.521973 
L 282.314569 56.889101 
L 283.432716 53.507477 
L 284.550863 54.183807 
L 285.669009 54.183807 
L 286.787156 55.874605 
L 287.905303 54.860138 
L 289.02345 51.816679 
L 290.141597 55.53644 
L 292.37789 51.478514 
L 293.496037 54.521973 
L 294.614184 56.550936 
L 295.732331 56.889101 
L 297.968624 54.860138 
L 299.086771 56.212771 
L 301.323064 54.860138 
L 302.441211 58.241734 
L 303.559358 58.579899 
L 304.677505 56.212771 
L 305.795652 53.169312 
L 306.913798 55.874605 
L 308.031945 52.154844 
L 309.150092 53.845642 
L 310.268239 52.49301 
L 311.386386 53.507477 
L 312.504532 51.140349 
L 313.622679 53.169312 
L 314.740826 50.802184 
L 315.858973 52.49301 
L 316.977119 55.53644 
L 318.095266 52.154844 
L 319.213413 53.169312 
L 320.33156 57.903597 
L 321.449707 52.154844 
L 322.567853 55.874605 
L 323.686 51.140349 
L 324.804147 52.49301 
L 325.922294 51.478514 
L 327.040441 51.478514 
L 328.158587 53.169312 
L 329.276734 54.183807 
L 330.394881 51.140349 
L 331.513028 47.420588 
L 332.631174 50.464018 
L 333.749321 52.154844 
L 334.867468 53.169312 
L 335.985615 55.198303 
L 337.103762 54.521973 
L 338.221908 53.507477 
L 339.340055 51.478514 
L 340.458202 50.464018 
L 341.576349 48.09689 
L 342.694496 52.49301 
L 343.812642 50.464018 
L 344.930789 52.831147 
L 346.048936 51.816679 
L 347.167083 51.478514 
L 348.285229 55.874605 
L 349.403376 52.831147 
L 350.521523 53.169312 
L 351.63967 49.111386 
L 352.757817 50.464018 
L 353.875963 52.49301 
L 354.99411 51.140349 
L 356.112257 52.154844 
L 357.230404 51.816679 
L 358.348551 51.140349 
L 360.584844 51.140349 
L 361.702991 52.154844 
L 362.821138 55.198303 
L 363.939284 52.831147 
L 365.057431 49.787716 
L 366.175578 53.845642 
L 367.293725 54.521973 
L 368.411872 53.169312 
L 369.530018 56.550936 
L 370.648165 52.154844 
L 371.766312 50.125881 
L 372.884459 48.435055 
L 374.002606 51.140349 
L 375.120752 47.758725 
L 376.238899 49.787716 
L 377.357046 52.831147 
L 378.475193 49.787716 
L 379.593339 49.449551 
L 380.711486 52.154844 
L 381.829633 52.154844 
L 382.94778 49.111386 
L 384.065927 52.831147 
L 385.184073 49.111386 
L 386.30222 49.111386 
L 387.420367 48.435055 
L 388.538514 49.111386 
L 389.656661 50.125881 
L 390.774807 49.111386 
L 391.892954 52.49301 
L 393.011101 51.478514 
L 394.129248 47.758725 
L 395.247394 51.478514 
L 397.483688 51.478514 
L 398.601835 49.111386 
L 399.719982 52.49301 
L 400.838128 49.449551 
L 401.956275 51.140349 
L 403.074422 48.77322 
L 404.192569 46.744257 
L 405.310716 47.758725 
L 406.428862 50.125881 
L 407.547009 49.449551 
L 408.665156 47.082423 
L 409.783303 51.816679 
L 410.901449 48.435055 
L 412.019596 48.77322 
L 413.137743 45.729762 
L 414.25589 51.478514 
L 415.374037 47.758725 
L 416.492183 50.802184 
L 417.61033 48.435055 
L 419.846624 50.464018 
L 420.964771 50.464018 
L 422.082917 47.082423 
L 423.201064 50.125881 
L 424.319211 48.77322 
L 425.437358 50.464018 
L 426.555504 48.09689 
L 427.673651 48.09689 
L 428.791798 49.111386 
L 429.909945 48.77322 
L 431.028092 46.406092 
L 432.146238 48.435055 
L 433.264385 48.09689 
L 434.382532 50.464018 
L 435.500679 51.816679 
L 436.618826 46.406092 
L 437.736972 50.464018 
L 438.855119 51.140349 
L 439.973266 50.125881 
L 441.091413 51.140349 
L 442.209559 45.391596 
L 443.327706 47.420588 
L 444.445853 50.464018 
L 445.564 46.744257 
L 446.682147 47.420588 
L 447.800293 47.082423 
L 448.91844 47.420588 
L 450.036587 48.435055 
L 451.154734 43.362633 
L 452.272881 44.038964 
L 453.391027 50.802184 
L 454.509174 49.449551 
L 455.627321 45.729762 
L 456.745468 47.082423 
L 457.863614 48.77322 
L 458.981761 50.125881 
L 460.099908 49.111386 
L 461.218055 50.464018 
L 462.336202 49.449551 
L 463.454348 49.449551 
L 464.572495 48.09689 
L 465.690642 48.435055 
L 466.808789 46.744257 
L 467.926936 47.082423 
L 469.045082 50.802184 
L 470.163229 44.715294 
L 471.281376 48.09689 
L 472.399523 47.420588 
L 473.517669 48.09689 
L 474.635816 47.082423 
L 475.753963 47.420588 
L 476.87211 50.802184 
L 477.990257 49.449551 
L 479.108403 49.787716 
L 480.22655 47.758725 
L 481.344697 49.111386 
L 482.462844 47.420588 
L 483.580991 49.787716 
L 484.699137 47.420588 
L 485.817284 48.435055 
L 486.935431 50.125881 
L 488.053578 49.449551 
L 489.171724 48.435055 
L 491.408018 47.758725 
L 492.526165 48.09689 
L 493.644312 47.082423 
L 494.762458 49.449551 
L 496.998752 48.09689 
L 498.116899 49.449551 
L 499.235046 47.758725 
L 500.353192 51.478514 
L 501.471339 52.831147 
L 502.589486 51.478514 
L 503.707633 46.744257 
L 505.943926 50.802184 
L 507.062073 50.802184 
L 509.298367 49.449551 
L 510.416513 48.435055 
L 511.53466 49.787716 
L 512.652807 49.787716 
L 513.770954 48.77322 
L 514.889101 48.77322 
L 516.007247 50.464018 
L 517.125394 47.420588 
L 518.243541 49.787716 
L 519.361688 48.435055 
L 520.479834 48.77322 
L 521.597981 46.744257 
L 522.716128 47.420588 
L 523.834275 49.787716 
L 524.952422 46.744257 
L 526.070568 46.744257 
L 527.188715 47.758725 
L 528.306862 46.744257 
L 529.425009 49.111386 
L 530.543156 49.111386 
L 531.661302 48.435055 
L 532.779449 48.435055 
L 533.897596 51.140349 
L 535.015743 51.140349 
L 536.133889 48.77322 
L 537.252036 46.744257 
L 538.370183 51.140349 
L 539.48833 52.154844 
L 540.606477 53.845642 
L 541.724623 48.435055 
L 542.84277 47.082423 
L 543.960917 47.082423 
L 546.197211 48.435055 
L 547.315357 46.744257 
L 548.433504 49.787716 
L 550.669798 47.758725 
L 551.787944 48.77322 
L 552.906091 47.758725 
L 554.024238 48.435055 
L 555.142385 50.125881 
L 556.260532 50.125881 
L 557.378678 48.435055 
L 558.496825 47.082423 
L 559.614972 49.787716 
L 560.733119 52.831147 
L 561.851266 48.77322 
L 562.969412 51.140349 
L 564.087559 48.435055 
L 565.205706 49.787716 
L 566.323853 48.435055 
L 567.441999 49.787716 
L 569.678293 47.082423 
L 570.79644 50.125881 
L 571.914587 46.744257 
L 573.032733 52.49301 
L 574.15088 48.77322 
L 575.269027 48.77322 
L 576.387174 51.140349 
L 577.505321 47.082423 
L 578.623467 49.111386 
L 580.859761 47.758725 
L 583.096054 47.758725 
L 584.214201 48.435055 
L 585.332348 45.391596 
L 586.450495 53.845642 
L 587.568642 48.435055 
L 588.686788 46.406092 
L 589.804935 51.140349 
L 592.041229 49.111386 
L 594.277522 50.464018 
L 595.395669 48.77322 
L 596.513816 45.729762 
L 597.631963 51.140349 
L 598.750109 49.787716 
L 599.868256 48.09689 
L 600.986403 48.435055 
L 602.10455 45.391596 
L 603.222697 51.140349 
L 604.340843 48.09689 
L 605.45899 48.77322 
L 606.577137 48.435055 
L 608.813431 49.787716 
L 609.931577 47.758725 
L 611.049724 46.406092 
L 612.167871 47.758725 
L 613.286018 48.435055 
L 614.404164 50.802184 
L 615.522311 50.464018 
L 616.640458 49.787716 
L 617.758605 47.420588 
L 618.876752 46.744257 
L 619.994898 49.449551 
L 621.113045 43.700799 
L 622.231192 45.729762 
L 623.349339 49.787716 
L 624.467486 47.758725 
L 625.585632 48.435055 
L 626.703779 48.09689 
L 627.821926 49.787716 
L 628.940073 47.420588 
L 630.058219 48.435055 
L 631.176366 48.77322 
L 632.294513 50.125881 
L 633.41266 50.125881 
L 634.530807 48.09689 
L 635.648953 50.464018 
L 636.7671 48.77322 
L 637.885247 49.111386 
L 639.003394 48.435055 
L 640.121541 50.125881 
L 641.239687 49.111386 
L 642.357834 50.464018 
L 644.594128 47.082423 
L 646.830421 46.406092 
L 647.948568 48.77322 
L 649.066715 50.802184 
L 650.184862 47.420588 
L 651.303008 45.391596 
L 652.421155 45.729762 
L 653.539302 44.715294 
L 654.657449 47.420588 
L 655.775596 46.406092 
L 656.893742 47.420588 
L 658.011889 47.082423 
L 659.130036 45.053431 
L 660.248183 49.787716 
L 661.366329 48.435055 
L 662.484476 48.435055 
L 663.602623 46.406092 
L 664.72077 47.082423 
L 665.838917 52.831147 
L 666.957063 47.082423 
L 668.07521 50.802184 
L 669.193357 47.082423 
L 670.311504 45.729762 
L 671.429651 47.758725 
L 672.547797 48.77322 
L 673.665944 46.744257 
L 674.784091 46.406092 
L 674.784091 46.406092 
" style="fill:none;stroke:#ff7f0e;stroke-linecap:square;stroke-width:1.5;"/>
   </g>
   <g id="patch_3">
    <path d="M 65.45 304 
L 65.45 16.2 
" style="fill:none;stroke:#000000;stroke-linecap:square;stroke-linejoin:miter;stroke-width:0.8;"/>
   </g>
   <g id="patch_4">
    <path d="M 703.8 304 
L 703.8 16.2 
" style="fill:none;stroke:#000000;stroke-linecap:square;stroke-linejoin:miter;stroke-width:0.8;"/>
   </g>
   <g id="patch_5">
    <path d="M 65.45 304 
L 703.8 304 
" style="fill:none;stroke:#000000;stroke-linecap:square;stroke-linejoin:miter;stroke-width:0.8;"/>
   </g>
   <g id="patch_6">
    <path d="M 65.45 16.2 
L 703.8 16.2 
" style="fill:none;stroke:#000000;stroke-linecap:square;stroke-linejoin:miter;stroke-width:0.8;"/>
   </g>
   <g id="legend_1">
    <g id="patch_7">
     <path d="M 496.570313 296.5 
L 693.3 296.5 
Q 696.3 296.5 696.3 293.5 
L 696.3 250.965625 
Q 696.3 247.965625 693.3 247.965625 
L 496.570313 247.965625 
Q 493.570313 247.965625 493.570313 250.965625 
L 493.570313 293.5 
Q 493.570313 296.5 496.570313 296.5 
z
" style="fill:#ffffff;opacity:0.8;stroke:#cccccc;stroke-linejoin:miter;"/>
    </g>
    <g id="line2d_15">
     <path d="M 499.570313 260.113281 
L 529.570312 260.113281 
" style="fill:none;stroke:#1f77b4;stroke-linecap:square;stroke-width:1.5;"/>
    </g>
    <g id="line2d_16"/>
    <g id="text_15">
     <text style="font-family:DejaVu Sans;font-size:15px;font-style:normal;font-weight:normal;text-anchor:start;" transform="rotate(-0, 541.570312, 265.363281)" x="541.570312" y="265.363281">Training Accuracy</text>
    </g>
    <g id="line2d_17">
     <path d="M 499.570313 282.130469 
L 529.570312 282.130469 
" style="fill:none;stroke:#ff7f0e;stroke-linecap:square;stroke-width:1.5;"/>
    </g>
    <g id="line2d_18"/>
    <g id="text_16">
     <text style="font-family:DejaVu Sans;font-size:15px;font-style:normal;font-weight:normal;text-anchor:start;" transform="rotate(-0, 541.570312, 287.380469)" x="541.570312" y="287.380469">Validation Accuracy</text>
    </g>
   </g>
  </g>
 </g>
 <defs>
  <clipPath id="pf0925ccfc8">
   <rect height="287.8" width="638.35" x="65.45" y="16.2"/>
  </clipPath>
 </defs>
</svg>
