<?xml version="1.0" encoding="utf-8" standalone="no"?>
<!DOCTYPE svg PUBLIC "-//W3C//DTD SVG 1.1//EN"
  "http://www.w3.org/Graphics/SVG/1.1/DTD/svg11.dtd">
<!-- Created with matplotlib (https://matplotlib.org/) -->
<svg height="360pt" version="1.1" viewBox="0 0 720 360" width="720pt" xmlns="http://www.w3.org/2000/svg" xmlns:xlink="http://www.w3.org/1999/xlink">
 <defs>
  <style type="text/css">
*{stroke-linecap:butt;stroke-linejoin:round;}
  </style>
 </defs>
 <g id="figure_1">
  <g id="patch_1">
   <path d="M 0 360 
L 720 360 
L 720 0 
L 0 0 
z
" style="fill:#ffffff;"/>
  </g>
  <g id="axes_1">
   <g id="patch_2">
    <path d="M 65.45 304 
L 703.8 304 
L 703.8 21.219128 
L 65.45 21.219128 
z
" style="fill:#ffffff;"/>
   </g>
   <g id="matplotlib.axis_1">
    <g id="xtick_1">
     <g id="line2d_1">
      <defs>
       <path d="M 0 0 
L 0 3.5 
" id="mce4f6d9f69" style="stroke:#000000;stroke-width:0.8;"/>
      </defs>
      <g>
       <use style="stroke:#000000;stroke-width:0.8;" x="93.288793" xlink:href="#mce4f6d9f69" y="304"/>
      </g>
     </g>
     <g id="text_1">
      <text style="font-family:DejaVu Sans;font-size:15px;font-style:normal;font-weight:normal;text-anchor:middle;" transform="rotate(-0, 93.288793, 322.397656)" x="93.288793" y="322.397656">0</text>
     </g>
    </g>
    <g id="xtick_2">
     <g id="line2d_2">
      <g>
       <use style="stroke:#000000;stroke-width:0.8;" x="211.000392" xlink:href="#mce4f6d9f69" y="304"/>
      </g>
     </g>
     <g id="text_2">
      <text style="font-family:DejaVu Sans;font-size:15px;font-style:normal;font-weight:normal;text-anchor:middle;" transform="rotate(-0, 211.000392, 322.397656)" x="211.000392" y="322.397656">100</text>
     </g>
    </g>
    <g id="xtick_3">
     <g id="line2d_3">
      <g>
       <use style="stroke:#000000;stroke-width:0.8;" x="328.711991" xlink:href="#mce4f6d9f69" y="304"/>
      </g>
     </g>
     <g id="text_3">
      <text style="font-family:DejaVu Sans;font-size:15px;font-style:normal;font-weight:normal;text-anchor:middle;" transform="rotate(-0, 328.711991, 322.397656)" x="328.711991" y="322.397656">200</text>
     </g>
    </g>
    <g id="xtick_4">
     <g id="line2d_4">
      <g>
       <use style="stroke:#000000;stroke-width:0.8;" x="446.423589" xlink:href="#mce4f6d9f69" y="304"/>
      </g>
     </g>
     <g id="text_4">
      <text style="font-family:DejaVu Sans;font-size:15px;font-style:normal;font-weight:normal;text-anchor:middle;" transform="rotate(-0, 446.423589, 322.397656)" x="446.423589" y="322.397656">300</text>
     </g>
    </g>
    <g id="xtick_5">
     <g id="line2d_5">
      <g>
       <use style="stroke:#000000;stroke-width:0.8;" x="564.135188" xlink:href="#mce4f6d9f69" y="304"/>
      </g>
     </g>
     <g id="text_5">
      <text style="font-family:DejaVu Sans;font-size:15px;font-style:normal;font-weight:normal;text-anchor:middle;" transform="rotate(-0, 564.135188, 322.397656)" x="564.135188" y="322.397656">400</text>
     </g>
    </g>
    <g id="xtick_6">
     <g id="line2d_6">
      <g>
       <use style="stroke:#000000;stroke-width:0.8;" x="681.846787" xlink:href="#mce4f6d9f69" y="304"/>
      </g>
     </g>
     <g id="text_6">
      <text style="font-family:DejaVu Sans;font-size:15px;font-style:normal;font-weight:normal;text-anchor:middle;" transform="rotate(-0, 681.846787, 322.397656)" x="681.846787" y="322.397656">500</text>
     </g>
    </g>
    <g id="text_7">
     <text style="font-family:DejaVu Sans;font-size:15px;font-style:normal;font-weight:normal;text-anchor:middle;" transform="rotate(-0, 384.625, 340.914844)" x="384.625" y="340.914844">Epochs</text>
    </g>
   </g>
   <g id="matplotlib.axis_2">
    <g id="ytick_1">
     <g id="line2d_7">
      <defs>
       <path d="M 0 0 
L -3.5 0 
" id="m08d067dbb3" style="stroke:#000000;stroke-width:0.8;"/>
      </defs>
      <g>
       <use style="stroke:#000000;stroke-width:0.8;" x="65.45" xlink:href="#m08d067dbb3" y="299.233601"/>
      </g>
     </g>
     <g id="text_8">
      <text style="font-family:DejaVu Sans;font-size:15px;font-style:normal;font-weight:normal;text-anchor:end;" transform="rotate(-0, 58.45, 304.932429)" x="58.45" y="304.932429">0.0</text>
     </g>
    </g>
    <g id="ytick_2">
     <g id="line2d_8">
      <g>
       <use style="stroke:#000000;stroke-width:0.8;" x="65.45" xlink:href="#m08d067dbb3" y="264.576266"/>
      </g>
     </g>
     <g id="text_9">
      <text style="font-family:DejaVu Sans;font-size:15px;font-style:normal;font-weight:normal;text-anchor:end;" transform="rotate(-0, 58.45, 270.275094)" x="58.45" y="270.275094">0.1</text>
     </g>
    </g>
    <g id="ytick_3">
     <g id="line2d_9">
      <g>
       <use style="stroke:#000000;stroke-width:0.8;" x="65.45" xlink:href="#m08d067dbb3" y="229.91893"/>
      </g>
     </g>
     <g id="text_10">
      <text style="font-family:DejaVu Sans;font-size:15px;font-style:normal;font-weight:normal;text-anchor:end;" transform="rotate(-0, 58.45, 235.617758)" x="58.45" y="235.617758">0.2</text>
     </g>
    </g>
    <g id="ytick_4">
     <g id="line2d_10">
      <g>
       <use style="stroke:#000000;stroke-width:0.8;" x="65.45" xlink:href="#m08d067dbb3" y="195.261594"/>
      </g>
     </g>
     <g id="text_11">
      <text style="font-family:DejaVu Sans;font-size:15px;font-style:normal;font-weight:normal;text-anchor:end;" transform="rotate(-0, 58.45, 200.960422)" x="58.45" y="200.960422">0.3</text>
     </g>
    </g>
    <g id="ytick_5">
     <g id="line2d_11">
      <g>
       <use style="stroke:#000000;stroke-width:0.8;" x="65.45" xlink:href="#m08d067dbb3" y="160.604259"/>
      </g>
     </g>
     <g id="text_12">
      <text style="font-family:DejaVu Sans;font-size:15px;font-style:normal;font-weight:normal;text-anchor:end;" transform="rotate(-0, 58.45, 166.303087)" x="58.45" y="166.303087">0.4</text>
     </g>
    </g>
    <g id="ytick_6">
     <g id="line2d_12">
      <g>
       <use style="stroke:#000000;stroke-width:0.8;" x="65.45" xlink:href="#m08d067dbb3" y="125.946923"/>
      </g>
     </g>
     <g id="text_13">
      <text style="font-family:DejaVu Sans;font-size:15px;font-style:normal;font-weight:normal;text-anchor:end;" transform="rotate(-0, 58.45, 131.645751)" x="58.45" y="131.645751">0.5</text>
     </g>
    </g>
    <g id="ytick_7">
     <g id="line2d_13">
      <g>
       <use style="stroke:#000000;stroke-width:0.8;" x="65.45" xlink:href="#m08d067dbb3" y="91.289587"/>
      </g>
     </g>
     <g id="text_14">
      <text style="font-family:DejaVu Sans;font-size:15px;font-style:normal;font-weight:normal;text-anchor:end;" transform="rotate(-0, 58.45, 96.988415)" x="58.45" y="96.988415">0.6</text>
     </g>
    </g>
    <g id="ytick_8">
     <g id="line2d_14">
      <g>
       <use style="stroke:#000000;stroke-width:0.8;" x="65.45" xlink:href="#m08d067dbb3" y="56.632252"/>
      </g>
     </g>
     <g id="text_15">
      <text style="font-family:DejaVu Sans;font-size:15px;font-style:normal;font-weight:normal;text-anchor:end;" transform="rotate(-0, 58.45, 62.33108)" x="58.45" y="62.33108">0.7</text>
     </g>
    </g>
    <g id="ytick_9">
     <g id="line2d_15">
      <g>
       <use style="stroke:#000000;stroke-width:0.8;" x="65.45" xlink:href="#m08d067dbb3" y="21.974916"/>
      </g>
     </g>
     <g id="text_16">
      <text style="font-family:DejaVu Sans;font-size:15px;font-style:normal;font-weight:normal;text-anchor:end;" transform="rotate(-0, 58.45, 27.673744)" x="58.45" y="27.673744">0.8</text>
     </g>
    </g>
    <g id="text_17">
     <text style="font-family:DejaVu Sans;font-size:15px;font-style:normal;font-weight:normal;text-anchor:middle;" transform="rotate(-90, 27.475781, 162.609564)" x="27.475781" y="162.609564">Loss</text>
    </g>
   </g>
   <g id="line2d_16">
    <path clip-path="url(#pbef712a709)" d="M 94.465909 34.072804 
L 95.643025 69.473525 
L 96.820141 84.263446 
L 97.997257 91.433375 
L 100.351489 104.31695 
L 101.528605 108.584993 
L 102.705721 113.654541 
L 103.882837 116.829354 
L 105.059953 128.868589 
L 106.237069 128.955257 
L 107.414185 140.184238 
L 108.591301 145.423415 
L 109.768417 147.960978 
L 110.945533 155.748801 
L 113.299765 166.021541 
L 114.476881 167.66528 
L 115.653997 173.264185 
L 116.831113 182.636935 
L 118.008229 181.477281 
L 119.185345 183.490973 
L 120.362461 189.58771 
L 121.539577 198.088264 
L 122.716693 191.755578 
L 123.893809 201.394736 
L 125.070925 200.109124 
L 126.248041 204.783094 
L 127.425157 197.901356 
L 128.602273 204.353699 
L 129.779389 205.295831 
L 130.956505 210.519422 
L 132.133621 210.844713 
L 133.310737 202.438977 
L 134.487853 210.969763 
L 135.664969 216.655738 
L 136.842085 212.945331 
L 138.019201 218.039085 
L 139.196317 216.200878 
L 140.373433 221.174174 
L 141.550549 218.060285 
L 142.727665 220.11978 
L 143.904781 223.317759 
L 145.081897 224.316218 
L 146.259013 223.278521 
L 147.436129 223.323099 
L 148.613245 225.213689 
L 149.790361 227.957371 
L 150.967476 227.315066 
L 152.144592 227.735666 
L 153.321708 230.168966 
L 154.498824 232.907644 
L 155.67594 228.282864 
L 156.853056 230.772962 
L 158.030172 236.570353 
L 159.207288 234.746941 
L 160.384404 231.304771 
L 161.56152 232.058739 
L 162.738636 233.334839 
L 163.915752 235.452556 
L 165.092868 237.308575 
L 166.269984 237.530875 
L 167.4471 237.062448 
L 168.624216 238.576448 
L 169.801332 236.570038 
L 170.978448 238.18685 
L 172.155564 234.587249 
L 173.33268 237.857969 
L 174.509796 244.494829 
L 175.686912 245.046939 
L 176.864028 247.292572 
L 178.041144 243.547125 
L 179.21826 244.829871 
L 180.395376 245.775638 
L 181.572492 250.458259 
L 182.749608 242.629029 
L 183.926724 243.895972 
L 185.10384 243.3713 
L 186.280956 247.845116 
L 187.458072 248.499376 
L 188.635188 249.560985 
L 189.812304 245.686089 
L 190.98942 252.148467 
L 192.166536 246.764822 
L 193.343652 253.718928 
L 194.520768 256.29023 
L 195.697884 248.278404 
L 196.875 245.24367 
L 198.052116 248.425919 
L 199.229232 253.95938 
L 200.406348 250.400305 
L 201.583464 248.819746 
L 202.76058 252.92442 
L 203.937696 254.047396 
L 205.114812 254.544175 
L 206.291928 254.148855 
L 207.469044 249.466152 
L 208.64616 250.256602 
L 209.823276 257.421493 
L 211.000392 260.343436 
L 212.177508 252.806626 
L 213.354624 250.309954 
L 214.53174 250.263914 
L 215.708856 258.684661 
L 216.885972 258.039595 
L 218.063088 261.939446 
L 219.240204 258.744472 
L 220.41732 260.688463 
L 221.594436 253.782858 
L 222.771552 259.152951 
L 223.948668 263.606892 
L 225.125784 255.972231 
L 226.3029 255.904547 
L 227.480016 260.42354 
L 228.657132 256.848419 
L 229.834248 243.764136 
L 231.011364 253.668029 
L 232.18848 259.465559 
L 233.365596 257.651252 
L 234.542712 259.444674 
L 235.719828 261.827219 
L 236.896944 259.3102 
L 238.07406 258.965733 
L 239.251176 263.066435 
L 241.605408 264.116984 
L 242.782524 264.51413 
L 243.959639 266.141919 
L 245.136755 261.590251 
L 246.313871 260.51011 
L 247.490987 261.662384 
L 248.668103 269.184049 
L 249.845219 260.462691 
L 251.022335 267.707157 
L 253.376567 264.179295 
L 254.553683 264.523643 
L 255.730799 266.474629 
L 256.907915 266.915021 
L 258.085031 259.671423 
L 259.262147 265.982165 
L 260.439263 268.202408 
L 261.616379 266.727907 
L 262.793495 267.152935 
L 263.970611 270.392082 
L 265.147727 268.872564 
L 266.324843 270.06136 
L 267.501959 264.574119 
L 268.679075 265.750872 
L 269.856191 272.116189 
L 271.033307 266.146779 
L 272.210423 268.135395 
L 273.387539 267.589302 
L 274.564655 269.74508 
L 275.741771 267.089248 
L 276.918887 271.663658 
L 278.096003 271.37777 
L 279.273119 267.804492 
L 280.450235 272.339944 
L 281.627351 269.190125 
L 282.804467 266.60144 
L 283.981583 270.036719 
L 285.158699 273.126472 
L 286.335815 274.50986 
L 287.512931 269.570311 
L 288.690047 271.492535 
L 289.867163 271.056049 
L 291.044279 269.63942 
L 292.221395 271.350892 
L 293.398511 262.93651 
L 295.752743 268.402534 
L 296.929859 274.124086 
L 298.106975 271.9873 
L 299.284091 270.954224 
L 300.461207 273.624681 
L 301.638323 275.605492 
L 302.815439 274.561622 
L 303.992555 274.759179 
L 305.169671 271.834182 
L 306.346787 272.703414 
L 307.523903 272.013973 
L 308.701019 273.452768 
L 309.878135 268.266448 
L 312.232367 273.831418 
L 313.409483 270.766926 
L 314.586599 266.998779 
L 315.763715 275.115886 
L 316.940831 270.761793 
L 318.117947 272.117867 
L 319.295063 267.522658 
L 320.472179 273.395397 
L 321.649295 273.082828 
L 322.826411 274.655291 
L 324.003527 274.008351 
L 325.180643 270.888244 
L 327.534875 276.581863 
L 328.711991 273.189696 
L 329.889107 275.144065 
L 331.066223 277.466115 
L 332.243339 275.575118 
L 333.420455 268.682529 
L 334.597571 257.805085 
L 335.774687 269.816875 
L 336.951803 274.18296 
L 338.128918 275.977069 
L 339.306034 274.975811 
L 340.48315 275.625955 
L 341.660266 275.239345 
L 342.837382 276.82036 
L 344.014498 277.313062 
L 345.191614 275.786755 
L 346.36873 276.855126 
L 347.545846 275.857362 
L 348.722962 276.852485 
L 349.900078 281.445686 
L 351.077194 277.896824 
L 352.25431 277.501666 
L 353.431426 277.264664 
L 354.608542 276.546802 
L 355.785658 280.313013 
L 356.962774 280.85677 
L 358.13989 277.86802 
L 359.317006 278.546003 
L 360.494122 277.688313 
L 361.671238 279.720265 
L 362.848354 280.037036 
L 364.02547 278.936092 
L 365.202586 282.193776 
L 366.379702 282.80248 
L 367.556818 281.123193 
L 368.733934 277.178306 
L 369.91105 279.294695 
L 371.088166 275.132505 
L 372.265282 279.804226 
L 373.442398 278.802596 
L 374.619514 281.014344 
L 375.79663 282.01958 
L 376.973746 280.364805 
L 378.150862 278.99548 
L 379.327978 271.950604 
L 380.505094 279.23799 
L 381.68221 280.701217 
L 382.859326 279.246141 
L 384.036442 280.002245 
L 385.213558 276.57345 
L 386.390674 279.724302 
L 387.56779 277.876999 
L 388.744906 281.453537 
L 389.922022 279.392581 
L 391.099138 279.096587 
L 392.276254 280.663412 
L 393.45337 280.520278 
L 394.630486 280.903037 
L 395.807602 282.270357 
L 396.984718 279.681591 
L 398.161834 277.722184 
L 399.33895 278.547875 
L 400.516066 275.140677 
L 401.693182 276.296491 
L 402.870298 269.84093 
L 404.047414 276.681196 
L 405.22453 273.132795 
L 406.401646 277.102968 
L 407.578762 277.332426 
L 408.755878 280.757802 
L 409.932994 280.544114 
L 411.11011 282.453853 
L 412.287226 280.8584 
L 413.464342 282.062712 
L 414.641458 278.336905 
L 415.818574 278.268839 
L 416.99569 281.206226 
L 418.172806 281.985478 
L 419.349922 283.937213 
L 420.527038 280.697748 
L 421.704154 281.434005 
L 422.88127 285.75923 
L 424.058386 282.256845 
L 425.235502 284.830934 
L 426.412618 283.385333 
L 427.589734 284.491698 
L 428.76685 279.811306 
L 429.943966 281.881227 
L 431.121082 278.130771 
L 432.298197 282.013049 
L 433.475313 282.810532 
L 434.652429 275.083926 
L 435.829545 272.02274 
L 437.006661 279.363222 
L 438.183777 261.001763 
L 439.360893 277.080677 
L 440.538009 277.342279 
L 442.892241 279.908417 
L 444.069357 276.456937 
L 445.246473 279.150453 
L 446.423589 278.675 
L 447.600705 282.464081 
L 448.777821 281.427653 
L 449.954937 283.649738 
L 451.132053 283.587312 
L 452.309169 281.265862 
L 453.486285 281.56317 
L 454.663401 285.073253 
L 455.840517 284.57035 
L 457.017633 277.645927 
L 458.194749 280.735839 
L 459.371865 283.222005 
L 460.548981 281.08598 
L 461.726097 282.68578 
L 462.903213 282.857868 
L 464.080329 284.124771 
L 465.257445 284.518851 
L 466.434561 287.834445 
L 467.611677 283.83214 
L 468.788793 284.914805 
L 469.965909 281.009496 
L 471.143025 284.407176 
L 472.320141 283.96875 
L 473.497257 283.27264 
L 474.674373 284.685694 
L 475.851489 274.445683 
L 477.028605 279.622664 
L 478.205721 281.144982 
L 479.382837 283.710515 
L 480.559953 286.791357 
L 481.737069 287.391176 
L 482.914185 285.539315 
L 484.091301 278.441453 
L 485.268417 285.411477 
L 486.445533 282.519082 
L 487.622649 283.141838 
L 488.799765 286.991381 
L 489.976881 282.166394 
L 491.153997 285.343166 
L 492.331113 283.667177 
L 493.508229 285.793049 
L 494.685345 285.276765 
L 495.862461 285.105554 
L 497.039577 288.484107 
L 498.216693 283.249637 
L 499.393809 285.917274 
L 500.570925 287.103624 
L 501.748041 284.252818 
L 502.925157 282.433337 
L 504.102273 283.275086 
L 505.279389 285.419417 
L 506.456505 281.343708 
L 507.633621 282.398091 
L 508.810737 282.774264 
L 509.987853 284.456282 
L 511.164969 283.991034 
L 512.342085 281.569976 
L 513.519201 277.897024 
L 514.696317 281.250799 
L 515.873433 284.137374 
L 517.050549 281.329145 
L 518.227665 279.368232 
L 519.404781 284.41229 
L 520.581897 284.063107 
L 521.759013 280.185606 
L 522.936129 282.305793 
L 524.113245 285.245681 
L 525.290361 288.950634 
L 526.467476 286.896729 
L 527.644592 287.393895 
L 528.821708 286.843035 
L 529.998824 288.344891 
L 531.17594 286.479957 
L 532.353056 288.241824 
L 533.530172 287.812504 
L 534.707288 284.761506 
L 535.884404 283.304317 
L 537.06152 267.636457 
L 538.238636 277.744933 
L 539.415752 278.890586 
L 540.592868 283.277187 
L 541.769984 284.548436 
L 542.9471 284.807144 
L 544.124216 278.926011 
L 545.301332 286.084403 
L 546.478448 287.626484 
L 547.655564 287.510228 
L 548.83268 285.814991 
L 550.009796 285.327322 
L 551.186912 289.078007 
L 552.364028 284.744147 
L 553.541144 288.73968 
L 554.71826 286.985513 
L 555.895376 286.236125 
L 557.072492 283.792313 
L 558.249608 285.070967 
L 559.426724 288.623202 
L 560.60384 284.124682 
L 561.780956 284.869727 
L 562.958072 288.556704 
L 564.135188 288.206558 
L 565.312304 285.164611 
L 566.48942 287.529949 
L 567.666536 284.042044 
L 568.843652 284.485466 
L 570.020768 286.405818 
L 571.197884 287.843843 
L 572.375 286.613276 
L 573.552116 288.244287 
L 574.729232 287.878828 
L 575.906348 290.560918 
L 577.083464 286.257836 
L 578.26058 289.523682 
L 579.437696 288.747423 
L 580.614812 287.810029 
L 581.791928 288.061934 
L 582.969044 287.428581 
L 584.14616 290.347246 
L 585.323276 291.146324 
L 586.500392 288.497474 
L 587.677508 287.256863 
L 588.854624 282.86809 
L 590.03174 283.678704 
L 591.208856 284.123923 
L 592.385972 289.73559 
L 593.563088 289.307707 
L 594.740204 288.250537 
L 595.91732 286.611228 
L 597.094436 283.799432 
L 598.271552 275.945964 
L 599.448668 276.420134 
L 600.625784 278.664215 
L 601.8029 282.271129 
L 602.980016 288.599084 
L 604.157132 289.036952 
L 605.334248 288.346683 
L 606.511364 289.595903 
L 607.68848 288.368649 
L 608.865596 289.586567 
L 610.042712 287.581047 
L 611.219828 287.957073 
L 612.396944 289.752334 
L 613.57406 287.310079 
L 614.751176 286.470295 
L 615.928292 290.165466 
L 617.105408 288.521156 
L 618.282524 288.759229 
L 619.459639 280.929236 
L 620.636755 276.4531 
L 621.813871 283.864946 
L 622.990987 288.159913 
L 624.168103 288.192055 
L 625.345219 285.400033 
L 626.522335 285.176173 
L 627.699451 286.665188 
L 628.876567 288.777397 
L 630.053683 283.132963 
L 631.230799 279.261372 
L 632.407915 286.931356 
L 633.585031 288.306623 
L 634.762147 286.938282 
L 635.939263 283.022412 
L 637.116379 285.839847 
L 638.293495 282.174212 
L 639.470611 287.887095 
L 640.647727 290.734183 
L 641.824843 288.18664 
L 643.001959 288.840805 
L 644.179075 289.094561 
L 645.356191 287.812499 
L 646.533307 290.139204 
L 647.710423 287.750119 
L 648.887539 288.115766 
L 650.064655 289.432477 
L 651.241771 287.401182 
L 653.596003 290.266156 
L 654.773119 288.542716 
L 655.950235 289.705925 
L 657.127351 288.205897 
L 658.304467 289.632607 
L 659.481583 289.326675 
L 660.658699 287.960256 
L 661.835815 286.212354 
L 663.012931 288.469013 
L 664.190047 287.616611 
L 665.367163 287.520858 
L 666.544279 291.038406 
L 668.898511 286.544843 
L 670.075627 289.954444 
L 671.252743 287.745991 
L 672.429859 288.688174 
L 673.606975 286.299601 
L 674.784091 280.689725 
L 674.784091 280.689725 
" style="fill:none;stroke:#1f77b4;stroke-linecap:square;stroke-width:1.5;"/>
   </g>
   <g id="line2d_17">
    <path clip-path="url(#pbef712a709)" d="M 94.465909 71.224486 
L 95.643025 92.517888 
L 96.820141 105.738571 
L 97.997257 114.597695 
L 99.174373 121.686958 
L 100.351489 127.983875 
L 101.528605 130.414825 
L 102.705721 142.602867 
L 103.882837 142.293812 
L 105.059953 154.992049 
L 106.237069 158.295329 
L 107.414185 170.698548 
L 108.591301 174.340269 
L 110.945533 179.803868 
L 112.122649 199.519428 
L 113.299765 205.566153 
L 114.476881 207.088468 
L 115.653997 213.001489 
L 116.831113 217.994941 
L 118.008229 217.824812 
L 119.185345 221.527714 
L 120.362461 220.557009 
L 121.539577 231.798425 
L 122.716693 230.497583 
L 123.893809 230.497237 
L 125.070925 234.960229 
L 126.248041 234.060538 
L 127.425157 236.205543 
L 128.602273 234.51373 
L 129.779389 241.283753 
L 130.956505 239.095914 
L 132.133621 236.233033 
L 133.310737 234.950292 
L 134.487853 242.8159 
L 135.664969 245.162884 
L 136.842085 243.310051 
L 138.019201 232.644789 
L 139.196317 249.002735 
L 140.373433 240.275518 
L 141.550549 244.324437 
L 143.904781 247.931629 
L 145.081897 247.750376 
L 146.259013 250.295814 
L 147.436129 244.123203 
L 148.613245 253.309117 
L 149.790361 254.542936 
L 150.967476 251.149455 
L 152.144592 254.561342 
L 153.321708 254.263189 
L 154.498824 246.468043 
L 155.67594 254.24108 
L 156.853056 253.529232 
L 158.030172 257.70027 
L 159.207288 254.754168 
L 160.384404 257.008691 
L 161.56152 254.283985 
L 162.738636 254.494784 
L 163.915752 258.338867 
L 165.092868 255.495226 
L 166.269984 256.648478 
L 167.4471 259.798161 
L 168.624216 260.497054 
L 169.801332 256.361891 
L 170.978448 257.45856 
L 172.155564 260.033691 
L 173.33268 257.006094 
L 175.686912 262.071932 
L 176.864028 262.070927 
L 178.041144 257.378621 
L 180.395376 261.096232 
L 181.572492 261.493603 
L 182.749608 263.498376 
L 183.926724 258.006053 
L 185.10384 260.20593 
L 186.280956 262.039438 
L 187.458072 261.915104 
L 188.635188 260.827523 
L 189.812304 264.968536 
L 190.98942 261.044813 
L 192.166536 263.507607 
L 193.343652 263.613213 
L 194.520768 263.567852 
L 195.697884 262.607583 
L 196.875 260.880703 
L 198.052116 260.470308 
L 199.229232 261.460099 
L 200.406348 261.154277 
L 201.583464 258.958813 
L 202.76058 263.206699 
L 203.937696 260.460104 
L 205.114812 264.223489 
L 206.291928 264.461389 
L 207.469044 264.186194 
L 208.64616 263.727582 
L 209.823276 264.619318 
L 211.000392 263.856022 
L 212.177508 263.310608 
L 214.53174 264.359047 
L 215.708856 265.810074 
L 216.885972 265.993178 
L 218.063088 267.198407 
L 219.240204 266.637993 
L 220.41732 264.284154 
L 221.594436 264.7542 
L 222.771552 268.061235 
L 223.948668 269.571561 
L 225.125784 265.613666 
L 226.3029 266.467466 
L 227.480016 264.677806 
L 228.657132 265.596657 
L 229.834248 263.222251 
L 231.011364 263.965284 
L 232.18848 268.464746 
L 233.365596 268.05022 
L 234.542712 266.39247 
L 235.719828 264.127287 
L 236.896944 268.401266 
L 238.07406 264.678868 
L 239.251176 267.305911 
L 240.428292 267.719167 
L 241.605408 268.985149 
L 242.782524 266.914913 
L 243.959639 267.133331 
L 245.136755 268.686007 
L 246.313871 267.904691 
L 247.490987 264.876938 
L 248.668103 267.715276 
L 249.845219 267.498871 
L 251.022335 265.742299 
L 252.199451 265.547699 
L 253.376567 267.466674 
L 254.553683 266.099385 
L 255.730799 263.582268 
L 256.907915 265.715187 
L 258.085031 263.268986 
L 259.262147 266.326808 
L 260.439263 267.559194 
L 261.616379 263.530945 
L 262.793495 265.068321 
L 263.970611 268.670525 
L 265.147727 266.998516 
L 266.324843 269.618706 
L 267.501959 268.193899 
L 268.679075 267.722578 
L 269.856191 269.135331 
L 271.033307 270.26028 
L 272.210423 269.081255 
L 273.387539 267.055907 
L 274.564655 265.64914 
L 275.741771 264.441711 
L 276.918887 267.165905 
L 278.096003 270.338471 
L 279.273119 268.085735 
L 280.450235 269.261153 
L 281.627351 269.32116 
L 282.804467 270.735757 
L 283.981583 266.850297 
L 285.158699 268.75106 
L 286.335815 269.006894 
L 287.512931 270.57638 
L 288.690047 270.179004 
L 289.867163 264.489414 
L 291.044279 266.475195 
L 292.221395 266.069298 
L 293.398511 264.050886 
L 294.575627 268.293582 
L 295.752743 269.428444 
L 296.929859 271.330503 
L 298.106975 266.166057 
L 299.284091 266.744355 
L 300.461207 269.943541 
L 301.638323 268.844878 
L 302.815439 269.929187 
L 303.992555 268.595172 
L 305.169671 266.391411 
L 306.346787 265.284441 
L 307.523903 268.747039 
L 308.701019 269.905446 
L 309.878135 267.024679 
L 311.055251 265.666564 
L 312.232367 261.335411 
L 313.409483 265.274472 
L 314.586599 266.199548 
L 315.763715 268.561257 
L 316.940831 266.389286 
L 318.117947 260.836941 
L 319.295063 267.397095 
L 320.472179 267.474811 
L 321.649295 264.625468 
L 322.826411 268.376281 
L 324.003527 269.439253 
L 325.180643 266.584782 
L 326.357759 271.053103 
L 327.534875 271.208472 
L 328.711991 262.336997 
L 329.889107 268.491322 
L 331.066223 268.787024 
L 332.243339 269.67539 
L 333.420455 270.122666 
L 334.597571 267.884256 
L 335.774687 268.3589 
L 336.951803 267.473003 
L 338.128918 263.825909 
L 339.306034 266.838803 
L 340.48315 267.775117 
L 341.660266 268.290426 
L 342.837382 270.820124 
L 344.014498 269.521544 
L 345.191614 268.447456 
L 346.36873 267.938282 
L 347.545846 271.209931 
L 348.722962 269.628379 
L 349.900078 269.179677 
L 351.077194 269.297897 
L 352.25431 268.374582 
L 353.431426 268.073821 
L 354.608542 269.692796 
L 355.785658 268.167148 
L 356.962774 270.735506 
L 358.13989 269.668459 
L 359.317006 265.828893 
L 360.494122 268.614961 
L 361.671238 266.451294 
L 362.848354 267.034406 
L 364.02547 270.799911 
L 365.202586 267.876424 
L 366.379702 266.656239 
L 367.556818 262.455684 
L 368.733934 268.282847 
L 369.91105 266.987524 
L 371.088166 269.756891 
L 372.265282 263.376107 
L 373.442398 262.92983 
L 374.619514 267.121554 
L 375.79663 264.926798 
L 376.973746 272.437891 
L 378.150862 266.702374 
L 379.327978 272.885356 
L 380.505094 270.59007 
L 382.859326 270.882703 
L 384.036442 269.772611 
L 385.213558 270.345931 
L 386.390674 267.640609 
L 387.56779 268.758894 
L 388.744906 268.409965 
L 389.922022 271.662692 
L 391.099138 267.978851 
L 392.276254 269.327499 
L 393.45337 265.973554 
L 394.630486 270.980521 
L 395.807602 269.842743 
L 396.984718 271.46365 
L 398.161834 269.776598 
L 399.33895 273.963968 
L 400.516066 269.157089 
L 401.693182 270.987183 
L 402.870298 266.2546 
L 404.047414 274.442589 
L 405.22453 270.038668 
L 406.401646 270.895955 
L 407.578762 270.294603 
L 408.755878 271.345384 
L 409.932994 274.237981 
L 411.11011 269.765348 
L 412.287226 273.77792 
L 413.464342 270.054001 
L 414.641458 272.484531 
L 415.818574 273.306725 
L 416.99569 273.201432 
L 418.172806 268.3229 
L 419.349922 271.337194 
L 421.704154 270.47034 
L 422.88127 268.643536 
L 424.058386 272.458301 
L 425.235502 271.962211 
L 426.412618 266.307658 
L 427.589734 270.767517 
L 428.76685 268.235653 
L 429.943966 267.741523 
L 431.121082 271.168872 
L 432.298197 269.65629 
L 433.475313 271.220882 
L 435.829545 269.419001 
L 437.006661 272.989836 
L 438.183777 273.560372 
L 439.360893 274.98114 
L 440.538009 273.823294 
L 441.715125 268.989733 
L 444.069357 274.4775 
L 445.246473 271.489994 
L 446.423589 272.616154 
L 447.600705 273.514123 
L 448.777821 272.337509 
L 449.954937 270.279675 
L 451.132053 273.315094 
L 453.486285 269.764609 
L 454.663401 271.945936 
L 455.840517 268.258634 
L 457.017633 270.763913 
L 458.194749 272.628241 
L 459.371865 267.946685 
L 461.726097 272.125435 
L 462.903213 269.009959 
L 464.080329 270.941796 
L 465.257445 268.308375 
L 466.434561 269.654567 
L 467.611677 266.786437 
L 468.788793 271.182341 
L 469.965909 269.292751 
L 471.143025 264.553707 
L 472.320141 271.873082 
L 473.497257 272.258534 
L 474.674373 269.114875 
L 475.851489 271.08906 
L 477.028605 269.851409 
L 478.205721 267.266602 
L 479.382837 268.641129 
L 480.559953 270.970559 
L 481.737069 268.256948 
L 482.914185 270.203566 
L 484.091301 267.21815 
L 485.268417 266.583119 
L 486.445533 271.608211 
L 487.622649 270.891255 
L 488.799765 271.873454 
L 489.976881 270.510457 
L 491.153997 273.851419 
L 492.331113 270.625012 
L 493.508229 271.390609 
L 494.685345 270.373101 
L 495.862461 270.178049 
L 497.039577 271.940211 
L 498.216693 267.317807 
L 499.393809 272.410141 
L 500.570925 272.069007 
L 501.748041 271.202038 
L 502.925157 270.560894 
L 504.102273 271.684643 
L 506.456505 268.39486 
L 507.633621 270.685996 
L 508.810737 269.045686 
L 509.987853 269.966881 
L 511.164969 269.21942 
L 512.342085 267.286947 
L 513.519201 259.998489 
L 514.696317 272.935876 
L 515.873433 264.309795 
L 517.050549 272.001429 
L 518.227665 272.048791 
L 519.404781 271.065353 
L 520.581897 270.474585 
L 521.759013 267.16989 
L 522.936129 272.474563 
L 524.113245 271.596728 
L 526.467476 268.361387 
L 527.644592 272.668748 
L 528.821708 270.9607 
L 529.998824 268.82837 
L 531.17594 270.872031 
L 532.353056 268.447102 
L 533.530172 262.042777 
L 534.707288 267.395081 
L 535.884404 266.942227 
L 537.06152 271.917493 
L 538.238636 269.568581 
L 539.415752 272.90503 
L 540.592868 271.555416 
L 541.769984 267.681539 
L 542.9471 272.681969 
L 544.124216 272.289303 
L 545.301332 272.276999 
L 546.478448 272.56826 
L 547.655564 269.954407 
L 548.83268 271.138578 
L 550.009796 269.906629 
L 551.186912 270.827225 
L 552.364028 273.54144 
L 553.541144 274.097624 
L 554.71826 269.292131 
L 555.895376 270.344844 
L 557.072492 267.155587 
L 558.249608 268.445326 
L 559.426724 272.091896 
L 560.60384 268.782227 
L 561.780956 266.432114 
L 562.958072 269.096271 
L 564.135188 270.109758 
L 565.312304 270.789587 
L 566.48942 270.854924 
L 567.666536 268.281068 
L 568.843652 269.028303 
L 570.020768 271.795555 
L 571.197884 269.667783 
L 572.375 268.937082 
L 573.552116 273.298517 
L 574.729232 270.691428 
L 577.083464 272.097313 
L 578.26058 269.347067 
L 579.437696 271.054699 
L 580.614812 267.823554 
L 581.791928 267.893239 
L 582.969044 269.674602 
L 584.14616 267.772904 
L 585.323276 271.390807 
L 586.500392 267.994711 
L 587.677508 271.553425 
L 588.854624 269.430858 
L 590.03174 272.131679 
L 591.208856 270.942116 
L 593.563088 272.587577 
L 594.740204 270.110615 
L 595.91732 268.266967 
L 597.094436 264.421681 
L 598.271552 264.679924 
L 599.448668 268.7912 
L 600.625784 267.259153 
L 601.8029 268.753632 
L 602.980016 273.150186 
L 604.157132 267.878758 
L 605.334248 264.437174 
L 606.511364 269.819865 
L 607.68848 268.693126 
L 608.865596 269.771661 
L 610.042712 269.496306 
L 611.219828 271.190973 
L 612.396944 268.666471 
L 613.57406 269.244575 
L 614.751176 270.024045 
L 615.928292 268.704516 
L 617.105408 266.232587 
L 618.282524 270.421057 
L 619.459639 266.700376 
L 620.636755 266.91826 
L 621.813871 267.778089 
L 622.990987 269.031316 
L 624.168103 267.737893 
L 625.345219 264.164246 
L 626.522335 268.820985 
L 627.699451 272.451357 
L 628.876567 270.383259 
L 630.053683 271.541942 
L 631.230799 267.074228 
L 632.407915 263.624629 
L 633.585031 266.300599 
L 634.762147 271.543842 
L 635.939263 266.123963 
L 637.116379 265.731049 
L 638.293495 266.802157 
L 639.470611 267.122644 
L 640.647727 266.76925 
L 641.824843 268.996862 
L 643.001959 270.676816 
L 644.179075 269.17771 
L 645.356191 268.47046 
L 646.533307 269.62755 
L 647.710423 271.972101 
L 648.887539 272.575405 
L 650.064655 273.352518 
L 651.241771 269.638865 
L 652.418887 271.724336 
L 653.596003 268.254818 
L 654.773119 271.702083 
L 655.950235 269.085963 
L 657.127351 271.727975 
L 659.481583 267.679076 
L 660.658699 265.404716 
L 661.835815 266.3572 
L 663.012931 265.960304 
L 664.190047 271.715931 
L 665.367163 266.363152 
L 666.544279 268.676061 
L 667.721395 267.861359 
L 668.898511 268.174611 
L 670.075627 267.899508 
L 671.252743 264.938004 
L 672.429859 267.838494 
L 673.606975 268.177983 
L 674.784091 271.784281 
L 674.784091 271.784281 
" style="fill:none;stroke:#ff7f0e;stroke-linecap:square;stroke-width:1.5;"/>
   </g>
   <g id="patch_3">
    <path d="M 65.45 304 
L 65.45 21.219128 
" style="fill:none;stroke:#000000;stroke-linecap:square;stroke-linejoin:miter;stroke-width:0.8;"/>
   </g>
   <g id="patch_4">
    <path d="M 703.8 304 
L 703.8 21.219128 
" style="fill:none;stroke:#000000;stroke-linecap:square;stroke-linejoin:miter;stroke-width:0.8;"/>
   </g>
   <g id="patch_5">
    <path d="M 65.45 304 
L 703.8 304 
" style="fill:none;stroke:#000000;stroke-linecap:square;stroke-linejoin:miter;stroke-width:0.8;"/>
   </g>
   <g id="patch_6">
    <path d="M 65.45 21.219128 
L 703.8 21.219128 
" style="fill:none;stroke:#000000;stroke-linecap:square;stroke-linejoin:miter;stroke-width:0.8;"/>
   </g>
   <g id="legend_1">
    <g id="patch_7">
     <path d="M 532.153125 77.253503 
L 693.3 77.253503 
Q 696.3 77.253503 696.3 74.253503 
L 696.3 31.719128 
Q 696.3 28.719128 693.3 28.719128 
L 532.153125 28.719128 
Q 529.153125 28.719128 529.153125 31.719128 
L 529.153125 74.253503 
Q 529.153125 77.253503 532.153125 77.253503 
z
" style="fill:#ffffff;opacity:0.8;stroke:#cccccc;stroke-linejoin:miter;"/>
    </g>
    <g id="line2d_18">
     <path d="M 535.153125 40.866784 
L 565.153125 40.866784 
" style="fill:none;stroke:#1f77b4;stroke-linecap:square;stroke-width:1.5;"/>
    </g>
    <g id="line2d_19"/>
    <g id="text_18">
     <text style="font-family:DejaVu Sans;font-size:15px;font-style:normal;font-weight:normal;text-anchor:start;" transform="rotate(-0, 577.153125, 46.116784)" x="577.153125" y="46.116784">Training Loss</text>
    </g>
    <g id="line2d_20">
     <path d="M 535.153125 62.883972 
L 565.153125 62.883972 
" style="fill:none;stroke:#ff7f0e;stroke-linecap:square;stroke-width:1.5;"/>
    </g>
    <g id="line2d_21"/>
    <g id="text_19">
     <text style="font-family:DejaVu Sans;font-size:15px;font-style:normal;font-weight:normal;text-anchor:start;" transform="rotate(-0, 577.153125, 68.133972)" x="577.153125" y="68.133972">Validation Loss</text>
    </g>
   </g>
  </g>
 </g>
 <defs>
  <clipPath id="pbef712a709">
   <rect height="282.780872" width="638.35" x="65.45" y="21.219128"/>
  </clipPath>
 </defs>
</svg>
