<?xml version="1.0" encoding="utf-8" standalone="no"?>
<!DOCTYPE svg PUBLIC "-//W3C//DTD SVG 1.1//EN"
  "http://www.w3.org/Graphics/SVG/1.1/DTD/svg11.dtd">
<!-- Created with matplotlib (https://matplotlib.org/) -->
<svg height="360pt" version="1.1" viewBox="0 0 720 360" width="720pt" xmlns="http://www.w3.org/2000/svg" xmlns:xlink="http://www.w3.org/1999/xlink">
 <defs>
  <style type="text/css">
*{stroke-linecap:butt;stroke-linejoin:round;}
  </style>
 </defs>
 <g id="figure_1">
  <g id="patch_1">
   <path d="M 0 360 
L 720 360 
L 720 0 
L 0 0 
z
" style="fill:#ffffff;"/>
  </g>
  <g id="axes_1">
   <g id="patch_2">
    <path d="M 65.45 304 
L 703.8 304 
L 703.8 16.2 
L 65.45 16.2 
z
" style="fill:#ffffff;"/>
   </g>
   <g id="matplotlib.axis_1">
    <g id="xtick_1">
     <g id="line2d_1">
      <defs>
       <path d="M 0 0 
L 0 3.5 
" id="m2eb1d263cc" style="stroke:#000000;stroke-width:0.8;"/>
      </defs>
      <g>
       <use style="stroke:#000000;stroke-width:0.8;" x="93.288793" xlink:href="#m2eb1d263cc" y="304"/>
      </g>
     </g>
     <g id="text_1">
      <text style="font-family:DejaVu Sans;font-size:15px;font-style:normal;font-weight:normal;text-anchor:middle;" transform="rotate(-0, 93.288793, 322.397656)" x="93.288793" y="322.397656">0</text>
     </g>
    </g>
    <g id="xtick_2">
     <g id="line2d_2">
      <g>
       <use style="stroke:#000000;stroke-width:0.8;" x="211.000392" xlink:href="#m2eb1d263cc" y="304"/>
      </g>
     </g>
     <g id="text_2">
      <text style="font-family:DejaVu Sans;font-size:15px;font-style:normal;font-weight:normal;text-anchor:middle;" transform="rotate(-0, 211.000392, 322.397656)" x="211.000392" y="322.397656">100</text>
     </g>
    </g>
    <g id="xtick_3">
     <g id="line2d_3">
      <g>
       <use style="stroke:#000000;stroke-width:0.8;" x="328.711991" xlink:href="#m2eb1d263cc" y="304"/>
      </g>
     </g>
     <g id="text_3">
      <text style="font-family:DejaVu Sans;font-size:15px;font-style:normal;font-weight:normal;text-anchor:middle;" transform="rotate(-0, 328.711991, 322.397656)" x="328.711991" y="322.397656">200</text>
     </g>
    </g>
    <g id="xtick_4">
     <g id="line2d_4">
      <g>
       <use style="stroke:#000000;stroke-width:0.8;" x="446.423589" xlink:href="#m2eb1d263cc" y="304"/>
      </g>
     </g>
     <g id="text_4">
      <text style="font-family:DejaVu Sans;font-size:15px;font-style:normal;font-weight:normal;text-anchor:middle;" transform="rotate(-0, 446.423589, 322.397656)" x="446.423589" y="322.397656">300</text>
     </g>
    </g>
    <g id="xtick_5">
     <g id="line2d_5">
      <g>
       <use style="stroke:#000000;stroke-width:0.8;" x="564.135188" xlink:href="#m2eb1d263cc" y="304"/>
      </g>
     </g>
     <g id="text_5">
      <text style="font-family:DejaVu Sans;font-size:15px;font-style:normal;font-weight:normal;text-anchor:middle;" transform="rotate(-0, 564.135188, 322.397656)" x="564.135188" y="322.397656">400</text>
     </g>
    </g>
    <g id="xtick_6">
     <g id="line2d_6">
      <g>
       <use style="stroke:#000000;stroke-width:0.8;" x="681.846787" xlink:href="#m2eb1d263cc" y="304"/>
      </g>
     </g>
     <g id="text_6">
      <text style="font-family:DejaVu Sans;font-size:15px;font-style:normal;font-weight:normal;text-anchor:middle;" transform="rotate(-0, 681.846787, 322.397656)" x="681.846787" y="322.397656">500</text>
     </g>
    </g>
    <g id="text_7">
     <text style="font-family:DejaVu Sans;font-size:15px;font-style:normal;font-weight:normal;text-anchor:middle;" transform="rotate(-0, 384.625, 340.914844)" x="384.625" y="340.914844">Epoch</text>
    </g>
   </g>
   <g id="matplotlib.axis_2">
    <g id="ytick_1">
     <g id="line2d_7">
      <defs>
       <path d="M 0 0 
L -3.5 0 
" id="ma47b1bc70f" style="stroke:#000000;stroke-width:0.8;"/>
      </defs>
      <g>
       <use style="stroke:#000000;stroke-width:0.8;" x="65.45" xlink:href="#ma47b1bc70f" y="255.513427"/>
      </g>
     </g>
     <g id="text_8">
      <text style="font-family:DejaVu Sans;font-size:15px;font-style:normal;font-weight:normal;text-anchor:end;" transform="rotate(-0, 58.45, 261.212256)" x="58.45" y="261.212256">0.6</text>
     </g>
    </g>
    <g id="ytick_2">
     <g id="line2d_8">
      <g>
       <use style="stroke:#000000;stroke-width:0.8;" x="65.45" xlink:href="#ma47b1bc70f" y="197.785761"/>
      </g>
     </g>
     <g id="text_9">
      <text style="font-family:DejaVu Sans;font-size:15px;font-style:normal;font-weight:normal;text-anchor:end;" transform="rotate(-0, 58.45, 203.484589)" x="58.45" y="203.484589">0.7</text>
     </g>
    </g>
    <g id="ytick_3">
     <g id="line2d_9">
      <g>
       <use style="stroke:#000000;stroke-width:0.8;" x="65.45" xlink:href="#ma47b1bc70f" y="140.058094"/>
      </g>
     </g>
     <g id="text_10">
      <text style="font-family:DejaVu Sans;font-size:15px;font-style:normal;font-weight:normal;text-anchor:end;" transform="rotate(-0, 58.45, 145.756923)" x="58.45" y="145.756923">0.8</text>
     </g>
    </g>
    <g id="ytick_4">
     <g id="line2d_10">
      <g>
       <use style="stroke:#000000;stroke-width:0.8;" x="65.45" xlink:href="#ma47b1bc70f" y="82.330428"/>
      </g>
     </g>
     <g id="text_11">
      <text style="font-family:DejaVu Sans;font-size:15px;font-style:normal;font-weight:normal;text-anchor:end;" transform="rotate(-0, 58.45, 88.029256)" x="58.45" y="88.029256">0.9</text>
     </g>
    </g>
    <g id="ytick_5">
     <g id="line2d_11">
      <g>
       <use style="stroke:#000000;stroke-width:0.8;" x="65.45" xlink:href="#ma47b1bc70f" y="24.602762"/>
      </g>
     </g>
     <g id="text_12">
      <text style="font-family:DejaVu Sans;font-size:15px;font-style:normal;font-weight:normal;text-anchor:end;" transform="rotate(-0, 58.45, 30.30159)" x="58.45" y="30.30159">1.0</text>
     </g>
    </g>
    <g id="text_13">
     <text style="font-family:DejaVu Sans;font-size:15px;font-style:normal;font-weight:normal;text-anchor:middle;" transform="rotate(-90, 27.475781, 160.1)" x="27.475781" y="160.1">Accuracy</text>
    </g>
   </g>
   <g id="line2d_12">
    <path clip-path="url(#p0deb572585)" d="M 94.465909 290.918182 
L 95.643025 244.907618 
L 96.820141 210.204712 
L 97.997257 199.286936 
L 99.174373 191.488554 
L 100.351489 182.325433 
L 101.528605 178.6212 
L 102.705721 170.432868 
L 103.882837 166.533677 
L 105.059953 155.615901 
L 106.237069 154.446154 
L 107.414185 140.993892 
L 108.591301 137.289659 
L 110.945533 130.855982 
L 112.122649 123.447516 
L 113.299765 120.328156 
L 114.476881 123.447516 
L 115.653997 117.79367 
L 116.831113 105.901105 
L 119.185345 107.070852 
L 121.539577 97.712773 
L 122.716693 102.001879 
L 123.893809 93.228708 
L 125.070925 98.687562 
L 126.248041 88.354694 
L 127.425157 95.76316 
L 128.602273 94.788371 
L 129.779389 92.058927 
L 130.956505 88.354694 
L 132.133621 86.989989 
L 133.310737 91.669011 
L 134.487853 87.76982 
L 135.664969 80.751235 
L 136.842085 83.090764 
L 138.019201 80.751235 
L 139.196317 84.650461 
L 140.373433 78.606699 
L 141.550549 79.776446 
L 142.727665 79.38653 
L 143.904781 75.487339 
L 145.081897 78.801657 
L 146.259013 77.826868 
L 147.436129 75.487339 
L 148.613245 76.462129 
L 149.790361 73.342769 
L 150.967476 74.1226 
L 152.144592 71.198198 
L 153.321708 73.732685 
L 154.498824 71.003241 
L 155.67594 74.512516 
L 156.853056 71.588114 
L 158.030172 69.053662 
L 159.207288 69.833494 
L 160.384404 69.443578 
L 161.56152 69.638536 
L 162.738636 70.418367 
L 163.915752 63.98469 
L 165.092868 68.468754 
L 166.269984 68.078839 
L 167.4471 63.399816 
L 168.624216 66.324218 
L 169.801332 66.714134 
L 170.978448 64.179648 
L 172.155564 67.688923 
L 173.33268 64.959479 
L 174.509796 60.670372 
L 175.686912 60.280457 
L 176.864028 61.255246 
L 178.041144 64.764521 
L 180.395376 59.110675 
L 181.572492 57.745971 
L 182.749608 61.840119 
L 183.926724 59.695583 
L 185.10384 60.475415 
L 187.458072 57.745971 
L 188.635188 58.525802 
L 189.812304 61.450204 
L 190.98942 55.016527 
L 192.166536 59.890541 
L 193.343652 55.991316 
L 194.520768 53.261872 
L 195.697884 58.525802 
L 196.875 61.255246 
L 198.052116 55.796358 
L 199.229232 53.651822 
L 200.406348 55.211485 
L 201.583464 55.991316 
L 202.76058 52.287083 
L 203.937696 55.406442 
L 205.114812 52.676998 
L 206.291928 53.651822 
L 207.469044 57.745971 
L 208.64616 57.940929 
L 209.823276 51.312294 
L 211.000392 48.387892 
L 212.177508 56.186274 
L 213.354624 58.135886 
L 214.53174 59.305633 
L 215.708856 49.557639 
L 216.885972 51.117336 
L 218.063088 49.752597 
L 219.240204 50.33747 
L 220.41732 51.312294 
L 221.594436 55.406442 
L 222.771552 49.167723 
L 223.948668 49.557639 
L 225.125784 53.84678 
L 226.3029 54.041738 
L 227.480016 51.312294 
L 228.657132 53.45683 
L 229.834248 61.840119 
L 231.011364 55.211485 
L 232.18848 51.312294 
L 233.365596 51.312294 
L 234.542712 52.676998 
L 235.719828 49.947554 
L 236.896944 53.45683 
L 238.07406 49.947554 
L 239.251176 47.21811 
L 240.428292 49.167723 
L 241.605408 47.21811 
L 242.782524 44.293709 
L 243.959639 47.60806 
L 245.136755 48.777807 
L 246.313871 47.803018 
L 247.490987 48.777807 
L 248.668103 43.903793 
L 249.845219 49.557639 
L 251.022335 45.46349 
L 252.199451 48.777807 
L 253.376567 48.58285 
L 254.553683 46.828195 
L 255.730799 43.708835 
L 256.907915 45.853406 
L 258.085031 49.362681 
L 259.262147 44.878616 
L 260.439263 44.488701 
L 261.616379 43.903793 
L 262.793495 45.268532 
L 263.970611 41.954215 
L 265.147727 43.123962 
L 266.324843 42.149172 
L 267.501959 46.633237 
L 268.679075 44.683659 
L 269.856191 42.149172 
L 271.033307 45.46349 
L 272.210423 41.174349 
L 273.387539 44.098751 
L 274.564655 42.929004 
L 275.741771 44.878616 
L 276.918887 41.564299 
L 278.096003 42.539088 
L 279.273119 45.268532 
L 280.450235 41.564299 
L 281.627351 46.633237 
L 282.804467 44.683659 
L 283.981583 42.149172 
L 285.158699 40.979391 
L 286.335815 41.174349 
L 287.512931 43.318919 
L 288.690047 43.123962 
L 289.867163 42.539088 
L 291.044279 43.903793 
L 292.221395 41.954215 
L 293.398511 48.972765 
L 294.575627 47.60806 
L 295.752743 43.903793 
L 296.929859 39.809644 
L 298.106975 42.149172 
L 299.284091 43.318919 
L 300.461207 41.174349 
L 301.638323 39.419728 
L 302.815439 38.249947 
L 303.992555 41.759257 
L 305.169671 41.369341 
L 306.346787 41.369341 
L 307.523903 40.979391 
L 308.701019 42.34413 
L 309.878135 44.878616 
L 311.055251 43.318919 
L 312.232367 39.614686 
L 313.409483 43.123962 
L 314.586599 43.903793 
L 315.763715 41.564299 
L 316.940831 43.513877 
L 318.117947 41.174349 
L 319.295063 44.098751 
L 320.472179 39.614686 
L 321.649295 40.979391 
L 322.826411 38.444939 
L 324.003527 39.419728 
L 325.180643 43.513877 
L 327.534875 39.614686 
L 328.711991 38.639897 
L 329.889107 40.589475 
L 331.066223 36.690284 
L 332.243339 40.784433 
L 333.420455 42.929004 
L 334.597571 53.066914 
L 335.774687 42.734046 
L 336.951803 40.784433 
L 338.128918 39.224771 
L 339.306034 38.639897 
L 340.48315 40.19956 
L 341.660266 40.19956 
L 342.837382 37.0802 
L 344.014498 39.614686 
L 345.191614 39.224771 
L 346.36873 37.860031 
L 347.545846 38.054989 
L 348.722962 38.834855 
L 349.900078 35.130587 
L 351.077194 37.860031 
L 352.25431 36.690284 
L 353.431426 37.0802 
L 354.608542 39.224771 
L 355.785658 35.520537 
L 356.962774 36.690284 
L 358.13989 37.0802 
L 359.317006 38.054989 
L 360.494122 37.0802 
L 361.671238 37.0802 
L 362.848354 36.690284 
L 364.02547 37.665074 
L 365.202586 35.715495 
L 366.379702 35.910453 
L 367.556818 35.715495 
L 368.733934 39.029813 
L 371.088166 38.249947 
L 372.265282 37.470116 
L 373.442398 38.249947 
L 374.619514 34.350756 
L 375.79663 34.740672 
L 376.973746 36.300369 
L 378.150862 38.834855 
L 379.327978 40.979391 
L 380.505094 37.665074 
L 381.68221 36.105411 
L 382.859326 36.885242 
L 384.036442 34.350756 
L 385.213558 37.275158 
L 386.390674 38.444939 
L 387.56779 38.444939 
L 388.744906 34.740672 
L 389.922022 36.690284 
L 391.099138 36.690284 
L 392.276254 34.93563 
L 393.45337 36.300369 
L 394.630486 36.495327 
L 395.807602 34.350756 
L 396.984718 36.885242 
L 398.161834 38.834855 
L 399.33895 39.614686 
L 400.516066 41.564299 
L 401.693182 38.834855 
L 402.870298 42.734046 
L 404.047414 36.105411 
L 405.22453 40.394518 
L 406.401646 38.834855 
L 407.578762 36.690284 
L 408.755878 37.470116 
L 409.932994 36.495327 
L 411.11011 34.545714 
L 412.287226 35.32558 
L 413.464342 36.300369 
L 414.641458 37.0802 
L 415.818574 38.444939 
L 416.99569 33.765883 
L 418.172806 34.740672 
L 419.349922 34.350756 
L 420.527038 35.910453 
L 421.704154 34.740672 
L 422.88127 31.621312 
L 424.058386 35.520537 
L 425.235502 33.570925 
L 426.412618 33.96084 
L 427.589734 34.740672 
L 428.76685 36.105411 
L 429.943966 37.275158 
L 431.121082 36.300369 
L 432.298197 34.93563 
L 433.475313 33.96084 
L 434.652429 40.004602 
L 435.829545 43.123962 
L 437.006661 36.495327 
L 438.183777 49.947554 
L 439.360893 38.639897 
L 440.538009 39.614686 
L 441.715125 38.054989 
L 442.892241 35.910453 
L 444.069357 38.834855 
L 445.246473 36.885242 
L 446.423589 36.885242 
L 447.600705 34.93563 
L 448.777821 35.715495 
L 449.954937 34.350756 
L 451.132053 34.350756 
L 452.309169 35.32558 
L 453.486285 36.690284 
L 454.663401 32.596136 
L 455.840517 34.545714 
L 457.017633 37.665074 
L 459.371865 34.545714 
L 460.548981 37.275158 
L 462.903213 33.570925 
L 464.080329 34.545714 
L 465.257445 34.155798 
L 466.434561 31.621312 
L 467.611677 34.155798 
L 468.788793 33.765883 
L 469.965909 35.715495 
L 471.143025 33.181009 
L 472.320141 33.765883 
L 473.497257 34.155798 
L 474.674373 33.570925 
L 475.851489 40.19956 
L 477.028605 37.275158 
L 478.205721 35.32558 
L 479.382837 33.96084 
L 480.559953 32.791093 
L 481.737069 32.20622 
L 482.914185 33.181009 
L 484.091301 36.300369 
L 485.268417 33.570925 
L 486.445533 35.520537 
L 487.622649 34.545714 
L 488.799765 32.20622 
L 489.976881 34.740672 
L 491.153997 32.011228 
L 492.331113 33.96084 
L 493.508229 32.986051 
L 494.685345 33.181009 
L 495.862461 33.570925 
L 497.039577 31.231396 
L 498.216693 34.350756 
L 499.393809 33.570925 
L 500.570925 31.036439 
L 501.748041 34.350756 
L 502.925157 34.155798 
L 504.102273 35.32558 
L 505.279389 34.545714 
L 506.456505 36.495327 
L 507.633621 34.545714 
L 508.810737 35.520537 
L 509.987853 32.791093 
L 511.164969 32.596136 
L 512.342085 35.520537 
L 513.519201 38.834855 
L 514.696317 35.910453 
L 515.873433 33.375967 
L 517.050549 34.545714 
L 518.227665 36.105411 
L 519.404781 33.570925 
L 520.581897 33.570925 
L 521.759013 36.690284 
L 522.936129 36.105411 
L 525.290361 31.621312 
L 526.467476 32.401178 
L 527.644592 32.20622 
L 528.821708 31.81627 
L 529.998824 30.646523 
L 531.17594 30.061649 
L 532.353056 31.036439 
L 533.530172 32.791093 
L 534.707288 32.401178 
L 535.884404 34.740672 
L 537.06152 42.929004 
L 538.238636 37.0802 
L 539.415752 38.054989 
L 540.592868 33.96084 
L 541.769984 34.155798 
L 542.9471 33.181009 
L 544.124216 36.105411 
L 545.301332 32.401178 
L 546.478448 31.231396 
L 547.655564 31.231396 
L 548.83268 32.401178 
L 550.009796 33.96084 
L 551.186912 30.841481 
L 552.364028 35.32558 
L 553.541144 31.231396 
L 554.71826 32.401178 
L 555.895376 33.375967 
L 557.072492 33.181009 
L 559.426724 31.231396 
L 560.60384 33.96084 
L 561.780956 34.740672 
L 562.958072 32.20622 
L 564.135188 31.81627 
L 565.312304 31.81627 
L 566.48942 31.036439 
L 567.666536 34.740672 
L 568.843652 33.181009 
L 570.020768 32.401178 
L 571.197884 31.231396 
L 572.375 31.81627 
L 573.552116 31.036439 
L 574.729232 30.646523 
L 575.906348 29.866692 
L 577.083464 32.596136 
L 578.26058 30.451565 
L 579.437696 30.841481 
L 580.614812 31.621312 
L 581.791928 31.231396 
L 582.969044 31.621312 
L 584.14616 29.476776 
L 585.323276 29.671734 
L 586.500392 30.451565 
L 587.677508 31.81627 
L 588.854624 34.93563 
L 590.03174 33.570925 
L 591.208856 34.545714 
L 592.385972 30.451565 
L 593.563088 30.451565 
L 594.740204 31.426354 
L 595.91732 32.011228 
L 597.094436 34.155798 
L 598.271552 38.834855 
L 599.448668 37.470116 
L 600.625784 37.0802 
L 601.8029 35.32558 
L 602.980016 30.061649 
L 605.334248 31.231396 
L 606.511364 30.841481 
L 607.68848 29.281818 
L 608.865596 30.451565 
L 610.042712 31.426354 
L 611.219828 31.621312 
L 612.396944 30.451565 
L 613.57406 31.231396 
L 614.751176 32.596136 
L 615.928292 29.866692 
L 617.105408 31.231396 
L 618.282524 30.646523 
L 619.459639 37.0802 
L 620.636755 39.224771 
L 621.813871 34.545714 
L 622.990987 30.646523 
L 624.168103 31.426354 
L 625.345219 32.011228 
L 626.522335 33.375967 
L 627.699451 31.426354 
L 628.876567 30.646523 
L 630.053683 33.375967 
L 631.230799 34.740672 
L 632.407915 32.401178 
L 633.585031 31.81627 
L 634.762147 32.596136 
L 635.939263 33.765883 
L 637.116379 33.181009 
L 638.293495 34.545714 
L 639.470611 31.426354 
L 640.647727 31.231396 
L 641.824843 32.20622 
L 643.001959 31.231396 
L 644.179075 31.036439 
L 645.356191 31.036439 
L 646.533307 29.866692 
L 647.710423 31.426354 
L 648.887539 30.646523 
L 650.064655 31.036439 
L 651.241771 31.231396 
L 652.418887 30.646523 
L 653.596003 29.866692 
L 654.773119 31.426354 
L 655.950235 30.061649 
L 657.127351 29.866692 
L 659.481583 30.256607 
L 660.658699 30.841481 
L 661.835815 32.986051 
L 663.012931 30.841481 
L 664.190047 32.011228 
L 665.367163 32.011228 
L 666.544279 29.671734 
L 668.898511 33.375967 
L 670.075627 29.866692 
L 671.252743 31.231396 
L 672.429859 30.841481 
L 673.606975 32.791093 
L 674.784091 36.885242 
L 674.784091 36.885242 
" style="fill:none;stroke:#1f77b4;stroke-linecap:square;stroke-width:1.5;"/>
   </g>
   <g id="line2d_13">
    <path clip-path="url(#p0deb572585)" d="M 94.465909 193.462012 
L 96.820141 166.584774 
L 97.997257 163.663331 
L 100.351489 145.550386 
L 101.528605 135.033227 
L 102.705721 122.178879 
L 103.882837 121.010302 
L 105.059953 112.830262 
L 106.237069 116.335994 
L 107.414185 104.650223 
L 108.591301 107.571665 
L 109.768417 112.830262 
L 110.945533 111.661685 
L 112.122649 87.705889 
L 113.299765 81.278715 
L 114.476881 78.941561 
L 115.653997 74.267253 
L 116.831113 73.098676 
L 118.008229 76.604407 
L 119.185345 74.267253 
L 120.362461 77.188696 
L 121.539577 66.671502 
L 122.716693 67.255791 
L 123.893809 68.424368 
L 125.070925 61.412905 
L 126.248041 69.592945 
L 127.425157 57.907174 
L 128.602273 67.840079 
L 129.779389 59.075751 
L 130.956505 58.491462 
L 132.133621 61.997194 
L 133.310737 67.840079 
L 134.487853 59.66004 
L 135.664969 59.075751 
L 136.842085 59.075751 
L 138.019201 70.761522 
L 139.196317 52.064288 
L 140.373433 67.255791 
L 141.550549 59.075751 
L 142.727665 53.817154 
L 143.904781 57.322885 
L 145.081897 56.738597 
L 146.259013 51.48 
L 147.436129 59.075751 
L 148.613245 53.817154 
L 149.790361 50.311423 
L 150.967476 52.064288 
L 152.144592 52.064288 
L 153.321708 50.311423 
L 154.498824 58.491462 
L 155.67594 53.232866 
L 156.853056 52.064288 
L 158.030172 47.974303 
L 159.207288 51.48 
L 160.384404 50.311423 
L 161.56152 50.311423 
L 162.738636 51.48 
L 163.915752 51.48 
L 165.092868 52.064288 
L 166.269984 46.805726 
L 167.4471 49.142846 
L 168.624216 45.637149 
L 169.801332 47.974303 
L 170.978448 50.895711 
L 172.155564 50.895711 
L 173.33268 47.974303 
L 174.509796 51.48 
L 175.686912 49.142846 
L 176.864028 47.390015 
L 178.041144 50.895711 
L 179.21826 47.974303 
L 180.395376 48.558592 
L 181.572492 48.558592 
L 182.749608 47.974303 
L 183.926724 50.311423 
L 185.10384 47.390015 
L 186.280956 50.895711 
L 187.458072 48.558592 
L 188.635188 54.401443 
L 189.812304 43.299995 
L 190.98942 50.311423 
L 192.166536 45.05286 
L 193.343652 43.884283 
L 194.520768 46.221437 
L 195.697884 42.715706 
L 196.875 45.05286 
L 198.052116 49.142846 
L 199.229232 43.884283 
L 200.406348 50.311423 
L 201.583464 49.727134 
L 202.76058 47.974303 
L 203.937696 48.558592 
L 205.114812 46.221437 
L 206.291928 47.974303 
L 207.469044 46.805726 
L 208.64616 46.805726 
L 209.823276 44.468572 
L 211.000392 46.805726 
L 213.354624 47.974303 
L 214.53174 43.884283 
L 215.708856 43.884283 
L 219.240204 45.637149 
L 220.41732 46.805726 
L 221.594436 46.221437 
L 222.771552 40.962841 
L 223.948668 44.468572 
L 225.125784 45.05286 
L 226.3029 46.221437 
L 227.480016 43.884283 
L 228.657132 43.299995 
L 229.834248 43.884283 
L 231.011364 47.390015 
L 232.18848 45.05286 
L 233.365596 45.05286 
L 234.542712 46.805726 
L 235.719828 49.142846 
L 236.896944 44.468572 
L 238.07406 49.142846 
L 239.251176 43.299995 
L 240.428292 46.805726 
L 241.605408 43.299995 
L 242.782524 44.468572 
L 243.959639 46.805726 
L 245.136755 47.390015 
L 246.313871 45.637149 
L 247.490987 47.390015 
L 248.668103 43.884283 
L 249.845219 46.805726 
L 251.022335 45.637149 
L 252.199451 43.299995 
L 253.376567 48.558592 
L 254.553683 45.637149 
L 255.730799 43.299995 
L 256.907915 43.884283 
L 258.085031 47.974303 
L 259.262147 47.974303 
L 260.439263 43.299995 
L 261.616379 47.974303 
L 262.793495 46.221437 
L 267.501959 41.547129 
L 268.679075 43.884283 
L 269.856191 42.131418 
L 271.033307 43.299995 
L 272.210423 42.131418 
L 273.387539 45.05286 
L 274.564655 46.805726 
L 275.741771 42.715706 
L 276.918887 44.468572 
L 278.096003 45.05286 
L 279.273119 43.299995 
L 280.450235 43.299995 
L 281.627351 42.715706 
L 282.804467 43.299995 
L 283.981583 43.299995 
L 285.158699 41.547129 
L 286.335815 43.299995 
L 287.512931 44.468572 
L 288.690047 42.131418 
L 289.867163 44.468572 
L 291.044279 45.637149 
L 292.221395 45.637149 
L 293.398511 47.390015 
L 294.575627 46.805726 
L 295.752743 43.884283 
L 296.929859 43.299995 
L 298.106975 45.637149 
L 299.284091 43.884283 
L 300.461207 42.715706 
L 301.638323 43.299995 
L 303.992555 42.131418 
L 305.169671 46.221437 
L 306.346787 44.468572 
L 307.523903 43.299995 
L 309.878135 42.131418 
L 311.055251 42.131418 
L 312.232367 46.805726 
L 313.409483 45.05286 
L 314.586599 44.468572 
L 315.763715 42.131418 
L 318.117947 47.974303 
L 319.295063 42.715706 
L 320.472179 44.468572 
L 322.826411 43.299995 
L 325.180643 46.805726 
L 326.357759 42.131418 
L 327.534875 41.547129 
L 328.711991 44.468572 
L 331.066223 44.468572 
L 333.420455 42.131418 
L 334.597571 45.05286 
L 335.774687 45.05286 
L 336.951803 45.637149 
L 338.128918 47.390015 
L 339.306034 44.468572 
L 341.660266 43.299995 
L 342.837382 44.468572 
L 344.014498 42.715706 
L 345.191614 42.715706 
L 346.36873 43.299995 
L 347.545846 42.715706 
L 348.722962 43.299995 
L 349.900078 42.715706 
L 351.077194 40.962841 
L 352.25431 43.299995 
L 353.431426 42.715706 
L 355.785658 43.884283 
L 356.962774 42.131418 
L 358.13989 41.547129 
L 359.317006 43.884283 
L 360.494122 43.299995 
L 361.671238 44.468572 
L 362.848354 42.715706 
L 364.02547 43.299995 
L 365.202586 42.131418 
L 366.379702 43.299995 
L 367.556818 43.884283 
L 368.733934 39.794264 
L 369.91105 43.884283 
L 371.088166 42.131418 
L 372.265282 41.547129 
L 373.442398 43.884283 
L 374.619514 43.884283 
L 375.79663 41.547129 
L 378.150862 41.547129 
L 379.327978 39.794264 
L 380.505094 41.547129 
L 381.68221 42.131418 
L 382.859326 39.794264 
L 384.036442 42.715706 
L 385.213558 42.131418 
L 386.390674 43.299995 
L 387.56779 43.884283 
L 389.922022 42.715706 
L 391.099138 45.05286 
L 392.276254 43.299995 
L 393.45337 42.715706 
L 394.630486 41.547129 
L 395.807602 41.547129 
L 396.984718 42.715706 
L 398.161834 41.547129 
L 399.33895 42.715706 
L 400.516066 43.299995 
L 402.870298 43.299995 
L 404.047414 40.962841 
L 405.22453 44.468572 
L 407.578762 40.962841 
L 408.755878 41.547129 
L 409.932994 43.299995 
L 412.287226 39.794264 
L 413.464342 40.378552 
L 414.641458 43.884283 
L 415.818574 40.378552 
L 416.99569 38.625686 
L 418.172806 41.547129 
L 419.349922 41.547129 
L 420.527038 42.131418 
L 421.704154 41.547129 
L 422.88127 42.715706 
L 424.058386 42.131418 
L 425.235502 40.378552 
L 426.412618 43.299995 
L 427.589734 40.378552 
L 428.76685 41.547129 
L 429.943966 40.962841 
L 431.121082 42.131418 
L 432.298197 38.625686 
L 433.475313 39.209975 
L 434.652429 40.962841 
L 435.829545 43.884283 
L 437.006661 40.378552 
L 438.183777 42.131418 
L 439.360893 40.962841 
L 440.538009 42.715706 
L 441.715125 43.299995 
L 442.892241 40.378552 
L 444.069357 39.794264 
L 445.246473 37.457109 
L 446.423589 40.962841 
L 447.600705 40.378552 
L 448.777821 36.872821 
L 449.954937 39.794264 
L 451.132053 38.625686 
L 452.309169 42.131418 
L 453.486285 42.131418 
L 454.663401 40.378552 
L 455.840517 43.884283 
L 457.017633 42.715706 
L 458.194749 42.131418 
L 459.371865 40.962841 
L 460.548981 42.715706 
L 461.726097 39.209975 
L 462.903213 42.715706 
L 464.080329 38.625686 
L 465.257445 40.962841 
L 466.434561 38.625686 
L 467.611677 41.547129 
L 468.788793 36.872821 
L 469.965909 42.131418 
L 471.143025 45.05286 
L 472.320141 39.794264 
L 473.497257 40.962841 
L 474.674373 41.547129 
L 475.851489 39.209975 
L 477.028605 39.209975 
L 478.205721 42.715706 
L 479.382837 43.884283 
L 480.559953 41.547129 
L 481.737069 40.962841 
L 482.914185 40.962841 
L 484.091301 42.131418 
L 485.268417 43.884283 
L 486.445533 42.131418 
L 487.622649 43.299995 
L 488.799765 39.209975 
L 489.976881 40.962841 
L 491.153997 39.794264 
L 492.331113 40.378552 
L 494.685345 42.715706 
L 495.862461 42.131418 
L 497.039577 40.962841 
L 498.216693 42.715706 
L 499.393809 40.378552 
L 500.570925 41.547129 
L 501.748041 39.794264 
L 502.925157 37.457109 
L 504.102273 42.131418 
L 506.456505 39.794264 
L 507.633621 40.378552 
L 508.810737 42.715706 
L 509.987853 38.625686 
L 511.164969 39.209975 
L 512.342085 38.625686 
L 513.519201 48.558592 
L 514.696317 39.209975 
L 515.873433 40.962841 
L 517.050549 39.794264 
L 518.227665 39.209975 
L 519.404781 37.457109 
L 520.581897 41.547129 
L 521.759013 42.715706 
L 522.936129 39.209975 
L 524.113245 38.041398 
L 525.290361 40.962841 
L 526.467476 39.794264 
L 527.644592 40.378552 
L 528.821708 38.041398 
L 529.998824 41.547129 
L 531.17594 40.962841 
L 532.353056 39.794264 
L 534.707288 42.131418 
L 535.884404 41.547129 
L 537.06152 40.378552 
L 538.238636 42.715706 
L 539.415752 38.625686 
L 541.769984 42.131418 
L 542.9471 40.378552 
L 544.124216 37.457109 
L 545.301332 39.209975 
L 546.478448 42.131418 
L 547.655564 39.794264 
L 548.83268 40.378552 
L 550.009796 38.625686 
L 551.186912 40.378552 
L 552.364028 38.041398 
L 553.541144 40.378552 
L 554.71826 41.547129 
L 555.895376 39.209975 
L 557.072492 42.131418 
L 558.249608 40.378552 
L 559.426724 39.794264 
L 560.60384 43.299995 
L 561.780956 43.299995 
L 562.958072 39.794264 
L 564.135188 40.378552 
L 565.312304 42.131418 
L 566.48942 40.962841 
L 567.666536 41.547129 
L 568.843652 39.209975 
L 570.020768 40.962841 
L 571.197884 43.299995 
L 572.375 39.209975 
L 574.729232 39.209975 
L 578.26058 40.962841 
L 579.437696 38.625686 
L 580.614812 42.131418 
L 581.791928 38.625686 
L 582.969044 40.962841 
L 584.14616 40.962841 
L 586.500392 38.625686 
L 587.677508 39.209975 
L 588.854624 40.378552 
L 590.03174 39.209975 
L 591.208856 39.209975 
L 592.385972 38.041398 
L 593.563088 39.209975 
L 594.740204 39.794264 
L 595.91732 41.547129 
L 597.094436 42.131418 
L 598.271552 39.209975 
L 599.448668 40.962841 
L 600.625784 40.378552 
L 601.8029 43.299995 
L 602.980016 39.794264 
L 604.157132 42.131418 
L 605.334248 43.299995 
L 606.511364 40.378552 
L 608.865596 39.209975 
L 610.042712 41.547129 
L 611.219828 39.209975 
L 612.396944 39.209975 
L 613.57406 37.457109 
L 614.751176 40.962841 
L 615.928292 39.794264 
L 618.282524 39.794264 
L 619.459639 40.378552 
L 620.636755 41.547129 
L 621.813871 38.625686 
L 622.990987 38.041398 
L 624.168103 38.041398 
L 625.345219 38.625686 
L 626.522335 43.299995 
L 627.699451 35.119955 
L 628.876567 38.625686 
L 630.053683 36.872821 
L 631.230799 41.547129 
L 632.407915 43.299995 
L 633.585031 42.715706 
L 634.762147 40.962841 
L 635.939263 42.131418 
L 637.116379 42.715706 
L 638.293495 40.378552 
L 639.470611 42.131418 
L 640.647727 40.962841 
L 641.824843 38.041398 
L 643.001959 39.794264 
L 644.179075 37.457109 
L 645.356191 40.962841 
L 646.533307 39.209975 
L 647.710423 36.288532 
L 648.887539 36.872821 
L 650.064655 39.794264 
L 651.241771 38.041398 
L 652.418887 36.872821 
L 653.596003 36.872821 
L 654.773119 38.041398 
L 655.950235 38.625686 
L 657.127351 38.625686 
L 659.481583 40.962841 
L 660.658699 42.715706 
L 661.835815 41.547129 
L 663.012931 39.209975 
L 664.190047 40.378552 
L 665.367163 38.625686 
L 666.544279 38.625686 
L 667.721395 40.962841 
L 668.898511 39.794264 
L 670.075627 39.209975 
L 671.252743 39.794264 
L 672.429859 38.625686 
L 673.606975 39.209975 
L 674.784091 39.209975 
L 674.784091 39.209975 
" style="fill:none;stroke:#ff7f0e;stroke-linecap:square;stroke-width:1.5;"/>
   </g>
   <g id="patch_3">
    <path d="M 65.45 304 
L 65.45 16.2 
" style="fill:none;stroke:#000000;stroke-linecap:square;stroke-linejoin:miter;stroke-width:0.8;"/>
   </g>
   <g id="patch_4">
    <path d="M 703.8 304 
L 703.8 16.2 
" style="fill:none;stroke:#000000;stroke-linecap:square;stroke-linejoin:miter;stroke-width:0.8;"/>
   </g>
   <g id="patch_5">
    <path d="M 65.45 304 
L 703.8 304 
" style="fill:none;stroke:#000000;stroke-linecap:square;stroke-linejoin:miter;stroke-width:0.8;"/>
   </g>
   <g id="patch_6">
    <path d="M 65.45 16.2 
L 703.8 16.2 
" style="fill:none;stroke:#000000;stroke-linecap:square;stroke-linejoin:miter;stroke-width:0.8;"/>
   </g>
   <g id="legend_1">
    <g id="patch_7">
     <path d="M 496.570313 296.5 
L 693.3 296.5 
Q 696.3 296.5 696.3 293.5 
L 696.3 250.965625 
Q 696.3 247.965625 693.3 247.965625 
L 496.570313 247.965625 
Q 493.570313 247.965625 493.570313 250.965625 
L 493.570313 293.5 
Q 493.570313 296.5 496.570313 296.5 
z
" style="fill:#ffffff;opacity:0.8;stroke:#cccccc;stroke-linejoin:miter;"/>
    </g>
    <g id="line2d_14">
     <path d="M 499.570313 260.113281 
L 529.570312 260.113281 
" style="fill:none;stroke:#1f77b4;stroke-linecap:square;stroke-width:1.5;"/>
    </g>
    <g id="line2d_15"/>
    <g id="text_14">
     <text style="font-family:DejaVu Sans;font-size:15px;font-style:normal;font-weight:normal;text-anchor:start;" transform="rotate(-0, 541.570312, 265.363281)" x="541.570312" y="265.363281">Training Accuracy</text>
    </g>
    <g id="line2d_16">
     <path d="M 499.570313 282.130469 
L 529.570312 282.130469 
" style="fill:none;stroke:#ff7f0e;stroke-linecap:square;stroke-width:1.5;"/>
    </g>
    <g id="line2d_17"/>
    <g id="text_15">
     <text style="font-family:DejaVu Sans;font-size:15px;font-style:normal;font-weight:normal;text-anchor:start;" transform="rotate(-0, 541.570312, 287.380469)" x="541.570312" y="287.380469">Validation Accuracy</text>
    </g>
   </g>
  </g>
 </g>
 <defs>
  <clipPath id="p0deb572585">
   <rect height="287.8" width="638.35" x="65.45" y="16.2"/>
  </clipPath>
 </defs>
</svg>
