<?xml version="1.0" encoding="utf-8" standalone="no"?>
<!DOCTYPE svg PUBLIC "-//W3C//DTD SVG 1.1//EN"
  "http://www.w3.org/Graphics/SVG/1.1/DTD/svg11.dtd">
<!-- Created with matplotlib (https://matplotlib.org/) -->
<svg height="360pt" version="1.1" viewBox="0 0 720 360" width="720pt" xmlns="http://www.w3.org/2000/svg" xmlns:xlink="http://www.w3.org/1999/xlink">
 <defs>
  <style type="text/css">
*{stroke-linecap:butt;stroke-linejoin:round;}
  </style>
 </defs>
 <g id="figure_1">
  <g id="patch_1">
   <path d="M 0 360 
L 720 360 
L 720 0 
L 0 0 
z
" style="fill:#ffffff;"/>
  </g>
  <g id="axes_1">
   <g id="patch_2">
    <path d="M 65.45 304 
L 703.8 304 
L 703.8 16.2 
L 65.45 16.2 
z
" style="fill:#ffffff;"/>
   </g>
   <g id="matplotlib.axis_1">
    <g id="xtick_1">
     <g id="line2d_1">
      <defs>
       <path d="M 0 0 
L 0 3.5 
" id="m3a7b34ecfc" style="stroke:#000000;stroke-width:0.8;"/>
      </defs>
      <g>
       <use style="stroke:#000000;stroke-width:0.8;" x="93.360541" xlink:href="#m3a7b34ecfc" y="304"/>
      </g>
     </g>
     <g id="text_1">
      <text style="font-family:DejaVu Sans;font-size:15px;font-style:normal;font-weight:normal;text-anchor:middle;" transform="rotate(-0, 93.360541, 322.397656)" x="93.360541" y="322.397656">0</text>
     </g>
    </g>
    <g id="xtick_2">
     <g id="line2d_2">
      <g>
       <use style="stroke:#000000;stroke-width:0.8;" x="203.897338" xlink:href="#m3a7b34ecfc" y="304"/>
      </g>
     </g>
     <g id="text_2">
      <text style="font-family:DejaVu Sans;font-size:15px;font-style:normal;font-weight:normal;text-anchor:middle;" transform="rotate(-0, 203.897338, 322.397656)" x="203.897338" y="322.397656">100</text>
     </g>
    </g>
    <g id="xtick_3">
     <g id="line2d_3">
      <g>
       <use style="stroke:#000000;stroke-width:0.8;" x="314.434134" xlink:href="#m3a7b34ecfc" y="304"/>
      </g>
     </g>
     <g id="text_3">
      <text style="font-family:DejaVu Sans;font-size:15px;font-style:normal;font-weight:normal;text-anchor:middle;" transform="rotate(-0, 314.434134, 322.397656)" x="314.434134" y="322.397656">200</text>
     </g>
    </g>
    <g id="xtick_4">
     <g id="line2d_4">
      <g>
       <use style="stroke:#000000;stroke-width:0.8;" x="424.970931" xlink:href="#m3a7b34ecfc" y="304"/>
      </g>
     </g>
     <g id="text_4">
      <text style="font-family:DejaVu Sans;font-size:15px;font-style:normal;font-weight:normal;text-anchor:middle;" transform="rotate(-0, 424.970931, 322.397656)" x="424.970931" y="322.397656">300</text>
     </g>
    </g>
    <g id="xtick_5">
     <g id="line2d_5">
      <g>
       <use style="stroke:#000000;stroke-width:0.8;" x="535.507727" xlink:href="#m3a7b34ecfc" y="304"/>
      </g>
     </g>
     <g id="text_5">
      <text style="font-family:DejaVu Sans;font-size:15px;font-style:normal;font-weight:normal;text-anchor:middle;" transform="rotate(-0, 535.507727, 322.397656)" x="535.507727" y="322.397656">400</text>
     </g>
    </g>
    <g id="xtick_6">
     <g id="line2d_6">
      <g>
       <use style="stroke:#000000;stroke-width:0.8;" x="646.044524" xlink:href="#m3a7b34ecfc" y="304"/>
      </g>
     </g>
     <g id="text_6">
      <text style="font-family:DejaVu Sans;font-size:15px;font-style:normal;font-weight:normal;text-anchor:middle;" transform="rotate(-0, 646.044524, 322.397656)" x="646.044524" y="322.397656">500</text>
     </g>
    </g>
    <g id="text_7">
     <text style="font-family:DejaVu Sans;font-size:15px;font-style:normal;font-weight:normal;text-anchor:middle;" transform="rotate(-0, 384.625, 340.914844)" x="384.625" y="340.914844">Epoch</text>
    </g>
   </g>
   <g id="matplotlib.axis_2">
    <g id="ytick_1">
     <g id="line2d_7">
      <defs>
       <path d="M 0 0 
L -3.5 0 
" id="m9e1c1928dc" style="stroke:#000000;stroke-width:0.8;"/>
      </defs>
      <g>
       <use style="stroke:#000000;stroke-width:0.8;" x="65.45" xlink:href="#m9e1c1928dc" y="296.511362"/>
      </g>
     </g>
     <g id="text_8">
      <text style="font-family:DejaVu Sans;font-size:15px;font-style:normal;font-weight:normal;text-anchor:end;" transform="rotate(-0, 58.45, 302.21019)" x="58.45" y="302.21019">0.4</text>
     </g>
    </g>
    <g id="ytick_2">
     <g id="line2d_8">
      <g>
       <use style="stroke:#000000;stroke-width:0.8;" x="65.45" xlink:href="#m9e1c1928dc" y="249.072938"/>
      </g>
     </g>
     <g id="text_9">
      <text style="font-family:DejaVu Sans;font-size:15px;font-style:normal;font-weight:normal;text-anchor:end;" transform="rotate(-0, 58.45, 254.771766)" x="58.45" y="254.771766">0.5</text>
     </g>
    </g>
    <g id="ytick_3">
     <g id="line2d_9">
      <g>
       <use style="stroke:#000000;stroke-width:0.8;" x="65.45" xlink:href="#m9e1c1928dc" y="201.634514"/>
      </g>
     </g>
     <g id="text_10">
      <text style="font-family:DejaVu Sans;font-size:15px;font-style:normal;font-weight:normal;text-anchor:end;" transform="rotate(-0, 58.45, 207.333342)" x="58.45" y="207.333342">0.6</text>
     </g>
    </g>
    <g id="ytick_4">
     <g id="line2d_10">
      <g>
       <use style="stroke:#000000;stroke-width:0.8;" x="65.45" xlink:href="#m9e1c1928dc" y="154.19609"/>
      </g>
     </g>
     <g id="text_11">
      <text style="font-family:DejaVu Sans;font-size:15px;font-style:normal;font-weight:normal;text-anchor:end;" transform="rotate(-0, 58.45, 159.894918)" x="58.45" y="159.894918">0.7</text>
     </g>
    </g>
    <g id="ytick_5">
     <g id="line2d_11">
      <g>
       <use style="stroke:#000000;stroke-width:0.8;" x="65.45" xlink:href="#m9e1c1928dc" y="106.757666"/>
      </g>
     </g>
     <g id="text_12">
      <text style="font-family:DejaVu Sans;font-size:15px;font-style:normal;font-weight:normal;text-anchor:end;" transform="rotate(-0, 58.45, 112.456494)" x="58.45" y="112.456494">0.8</text>
     </g>
    </g>
    <g id="ytick_6">
     <g id="line2d_12">
      <g>
       <use style="stroke:#000000;stroke-width:0.8;" x="65.45" xlink:href="#m9e1c1928dc" y="59.319242"/>
      </g>
     </g>
     <g id="text_13">
      <text style="font-family:DejaVu Sans;font-size:15px;font-style:normal;font-weight:normal;text-anchor:end;" transform="rotate(-0, 58.45, 65.018071)" x="58.45" y="65.018071">0.9</text>
     </g>
    </g>
    <g id="text_14">
     <text style="font-family:DejaVu Sans;font-size:15px;font-style:normal;font-weight:normal;text-anchor:middle;" transform="rotate(-90, 27.475781, 160.1)" x="27.475781" y="160.1">Accuracy</text>
    </g>
   </g>
   <g id="line2d_13">
    <path clip-path="url(#p47f2d39da4)" d="M 94.465909 290.918182 
L 95.571277 249.901552 
L 96.676645 231.671938 
L 101.098117 198.630768 
L 102.203485 193.659058 
L 103.308853 186.926519 
L 104.414221 183.819211 
L 105.519589 178.226033 
L 106.624957 168.386186 
L 107.730325 169.2148 
L 108.835693 163.828797 
L 109.941061 159.892847 
L 111.046429 156.889112 
L 112.151797 153.160308 
L 113.257165 148.499345 
L 114.362532 150.674467 
L 115.4679 146.53137 
L 116.573268 143.527635 
L 117.678636 137.520137 
L 118.784004 140.109579 
L 119.889372 128.71605 
L 120.99474 126.748103 
L 122.100108 127.887436 
L 123.205476 126.333782 
L 124.310844 125.919489 
L 125.416212 123.1229 
L 126.52158 123.537193 
L 127.626948 121.569218 
L 128.732316 116.908256 
L 129.837684 113.179452 
L 130.943052 118.358337 
L 132.04842 111.936545 
L 133.153788 112.765159 
L 134.259156 108.932782 
L 135.364524 111.211505 
L 136.469892 105.411153 
L 138.680628 101.578804 
L 139.785996 104.686112 
L 140.891364 104.789686 
L 141.996732 96.0892 
L 143.1021 95.467733 
L 144.207468 97.642854 
L 145.312835 95.674879 
L 146.418203 92.671144 
L 147.523571 91.635384 
L 148.628939 95.260586 
L 149.734307 94.017652 
L 150.839675 90.288876 
L 151.945043 93.085465 
L 153.050411 95.467733 
L 154.155779 90.910343 
L 155.261147 88.424474 
L 156.366515 86.87082 
L 157.471883 87.18154 
L 158.577251 86.456499 
L 159.682619 89.045942 
L 160.787987 83.245618 
L 161.893355 85.627885 
L 162.998723 82.831297 
L 164.104091 84.488524 
L 165.209459 80.345456 
L 166.314827 79.620415 
L 167.420195 82.417004 
L 168.525563 79.827562 
L 169.630931 79.309668 
L 170.736299 79.931135 
L 171.841667 82.831297 
L 172.947035 77.134546 
L 174.052403 79.723989 
L 175.157771 74.959425 
L 176.263139 76.202359 
L 177.368506 75.373717 
L 178.473874 76.720225 
L 179.579242 76.202359 
L 180.68461 74.337957 
L 181.789978 70.712755 
L 182.895346 75.373717 
L 184.000714 74.337957 
L 185.106082 72.784303 
L 186.21145 72.473555 
L 187.316818 70.091288 
L 188.422186 74.648677 
L 189.527554 71.541369 
L 190.632922 69.884141 
L 191.73829 75.270144 
L 192.843658 66.051764 
L 193.949026 69.46982 
L 195.054394 68.226886 
L 196.159762 71.127048 
L 197.26513 69.055499 
L 198.370498 70.194861 
L 199.475866 69.159101 
L 200.581234 71.541369 
L 201.686602 67.916166 
L 202.79197 69.884141 
L 203.897338 64.290964 
L 205.002706 65.223151 
L 206.108074 67.501845 
L 207.213442 63.151602 
L 208.31881 67.294699 
L 209.424177 65.637472 
L 210.529545 64.912431 
L 211.634913 65.948191 
L 212.740281 63.048029 
L 213.845649 65.741045 
L 214.951017 63.358749 
L 216.056385 66.776805 
L 217.161753 62.633708 
L 218.267121 62.944456 
L 219.372489 61.494375 
L 220.477857 60.872908 
L 221.583225 59.215652 
L 222.688593 62.944456 
L 223.793961 64.705257 
L 224.899329 62.115842 
L 226.004697 60.147867 
L 227.110065 57.661998 
L 228.215433 62.219416 
L 229.320801 62.219416 
L 230.426169 61.701522 
L 231.531537 58.179892 
L 232.636905 60.355014 
L 233.742273 57.972746 
L 234.847641 58.490612 
L 235.953009 61.908668 
L 237.058377 57.144132 
L 238.163745 57.869173 
L 239.269113 58.387039 
L 240.374481 58.490612 
L 241.479848 54.761836 
L 242.585216 58.387039 
L 243.690584 54.140369 
L 244.795952 56.729811 
L 245.90132 56.004771 
L 247.006688 57.454852 
L 248.112056 56.729811 
L 249.217424 56.936958 
L 250.322792 59.940693 
L 251.42816 56.626238 
L 252.533528 58.697786 
L 253.638896 54.140369 
L 254.744264 56.729811 
L 255.849632 53.829649 
L 256.955 55.901198 
L 258.060368 52.586715 
L 259.165736 53.829649 
L 260.271104 54.243942 
L 261.376472 56.833385 
L 262.48184 52.690288 
L 263.587208 52.586715 
L 264.692576 56.419064 
L 265.797944 52.379569 
L 266.903312 55.383304 
L 268.00868 53.311755 
L 269.114048 55.176157 
L 270.219416 54.761836 
L 271.324784 54.658263 
L 272.430152 53.933223 
L 273.535519 52.068821 
L 274.640887 52.586715 
L 275.746255 56.31549 
L 276.851623 51.136634 
L 277.956991 54.243942 
L 279.062359 48.443618 
L 280.167727 50.411593 
L 281.273095 48.340045 
L 282.378463 52.586715 
L 283.483831 51.758101 
L 284.589199 51.34378 
L 285.694567 52.172394 
L 286.799935 51.654528 
L 287.905303 48.857939 
L 289.010671 49.58298 
L 290.116039 50.515167 
L 291.221407 47.407858 
L 292.326775 52.068821 
L 293.432143 52.897434 
L 294.537511 52.068821 
L 295.642879 48.650765 
L 296.748247 47.615005 
L 297.853615 49.997272 
L 298.958983 50.929488 
L 300.064351 49.375805 
L 301.169719 49.065086 
L 302.275087 47.925724 
L 303.380455 50.204447 
L 304.485823 47.097111 
L 305.59119 47.925724 
L 306.696558 47.200684 
L 307.801926 47.511432 
L 308.907294 46.164924 
L 310.012662 47.718578 
L 311.11803 45.543456 
L 312.223398 49.790126 
L 313.328766 48.650765 
L 314.434134 52.068821 
L 315.539502 50.61874 
L 316.64487 49.997272 
L 317.750238 46.682818 
L 318.855606 48.340045 
L 319.960974 49.168659 
L 321.066342 47.511432 
L 322.17171 45.33631 
L 323.277078 46.268497 
L 324.382446 46.993537 
L 325.487814 46.268497 
L 326.593182 48.132899 
L 327.69855 47.200684 
L 328.803918 45.854176 
L 329.909286 45.33631 
L 331.014654 45.64703 
L 332.120022 50.411593 
L 333.22539 48.029326 
L 334.330758 44.921989 
L 335.436126 47.511432 
L 336.541494 43.782628 
L 337.646861 45.232737 
L 338.752229 46.061351 
L 339.857597 44.300522 
L 340.962965 47.304257 
L 342.068333 46.579216 
L 343.173701 43.471908 
L 344.279069 46.786391 
L 345.384437 47.511432 
L 346.489805 46.475643 
L 347.595173 44.61127 
L 348.700541 43.679055 
L 349.805909 44.921989 
L 350.911277 46.475643 
L 352.016645 45.232737 
L 353.122013 41.193214 
L 354.227381 41.711108 
L 355.332749 48.443618 
L 356.438117 46.061351 
L 357.543485 48.236472 
L 358.648853 48.029326 
L 359.754221 45.232737 
L 360.859589 43.989802 
L 361.964957 44.818416 
L 363.070325 44.093375 
L 364.175693 43.886229 
L 365.281061 42.643295 
L 366.386429 43.679055 
L 367.491797 42.954014 
L 368.597165 41.814681 
L 369.702532 42.746868 
L 370.8079 42.228974 
L 371.913268 46.061351 
L 373.018636 45.439883 
L 374.124004 43.989802 
L 375.229372 43.161189 
L 376.33474 42.643295 
L 377.440108 47.304257 
L 378.545476 41.814681 
L 379.650844 41.08964 
L 380.756212 40.778893 
L 381.86158 43.679055 
L 382.966948 42.332547 
L 384.072316 42.954014 
L 385.177684 40.053852 
L 386.283052 43.368335 
L 387.38842 41.918254 
L 388.493788 44.61127 
L 389.599156 43.575481 
L 391.809892 40.986039 
L 392.91526 40.986039 
L 394.020628 43.989802 
L 395.125996 44.507668 
L 396.231364 40.778893 
L 397.336732 42.436148 
L 398.4421 43.161189 
L 399.547468 41.503933 
L 400.652835 42.332547 
L 401.758203 40.778893 
L 402.863571 40.260998 
L 403.968939 43.679055 
L 405.074307 43.368335 
L 406.179675 40.986039 
L 407.285043 40.3646 
L 408.390411 42.539721 
L 409.495779 40.778893 
L 410.601147 42.643295 
L 411.706515 43.161189 
L 412.811883 41.711108 
L 413.917251 42.746868 
L 415.022619 38.18945 
L 416.127987 39.535958 
L 417.233355 37.775158 
L 418.338723 38.603771 
L 419.444091 43.471908 
L 421.654827 41.296787 
L 422.760195 43.368335 
L 424.970931 38.18945 
L 426.076299 38.18945 
L 427.181667 41.607506 
L 428.287035 40.157425 
L 429.392403 40.3646 
L 430.497771 39.950279 
L 431.603139 41.607506 
L 432.708506 40.571746 
L 433.813874 37.360837 
L 434.919242 37.982304 
L 436.02461 38.914519 
L 437.129978 36.946544 
L 438.235346 39.225238 
L 439.340714 36.739369 
L 440.446082 41.296787 
L 441.55145 38.293052 
L 442.656818 40.986039 
L 443.762186 40.778893 
L 444.867554 39.743133 
L 445.972922 37.568011 
L 447.07829 38.603771 
L 448.183658 37.46441 
L 450.394394 38.18945 
L 451.499762 37.671584 
L 452.60513 39.121665 
L 453.710498 39.950279 
L 454.815866 37.568011 
L 455.921234 37.050117 
L 457.026602 42.643295 
L 458.13197 39.846706 
L 459.237338 35.39289 
L 460.342706 36.11793 
L 461.448074 38.810918 
L 462.553442 40.053852 
L 463.65881 36.532223 
L 464.764177 37.257263 
L 465.869545 41.08964 
L 466.974913 37.878731 
L 468.080281 37.568011 
L 469.185649 38.603771 
L 470.291017 35.185715 
L 471.396385 36.325077 
L 472.501753 37.982304 
L 473.607121 34.978569 
L 474.712489 36.221503 
L 475.817857 38.396625 
L 476.923225 36.014329 
L 478.028593 36.635796 
L 479.133961 37.982304 
L 480.239329 38.707344 
L 481.344697 37.15369 
L 482.450065 39.950279 
L 483.555433 38.396625 
L 484.660801 35.807182 
L 485.766169 38.396625 
L 486.871537 38.293052 
L 487.976905 36.014329 
L 489.082273 35.910756 
L 490.187641 36.946544 
L 491.293009 35.289288 
L 492.398377 39.018092 
L 493.503745 40.3646 
L 494.609113 36.014329 
L 495.714481 38.603771 
L 496.819848 35.910756 
L 497.925216 35.910756 
L 499.030584 39.535958 
L 500.135952 37.360837 
L 501.24132 40.3646 
L 503.452056 34.253528 
L 504.557424 36.42865 
L 505.662792 35.703609 
L 506.76816 38.085877 
L 507.873528 37.050117 
L 508.978896 36.842971 
L 510.084264 36.325077 
L 511.189632 39.950279 
L 512.295 35.910756 
L 513.400368 38.500198 
L 514.505736 36.325077 
L 515.611104 38.293052 
L 516.716472 36.946544 
L 517.82184 36.221503 
L 518.927208 33.528488 
L 520.032576 35.600036 
L 521.137944 39.328812 
L 522.243312 36.325077 
L 523.34868 37.050117 
L 524.454048 34.771422 
L 525.559416 38.085877 
L 526.664784 35.807182 
L 527.770152 34.564248 
L 528.875519 35.910756 
L 529.980887 38.603771 
L 531.086255 35.185715 
L 532.191623 34.667821 
L 533.296991 36.842971 
L 534.402359 35.807182 
L 535.507727 34.149955 
L 536.613095 36.946544 
L 537.718463 31.974834 
L 538.823831 34.978569 
L 539.929199 35.910756 
L 541.034567 36.325077 
L 542.139935 36.221503 
L 543.245303 36.635796 
L 544.350671 36.014329 
L 545.456039 33.321342 
L 546.561407 36.014329 
L 547.666775 36.221503 
L 548.772143 33.839207 
L 549.877511 33.942781 
L 550.982879 35.39289 
L 552.088247 35.082142 
L 553.193615 36.221503 
L 554.298983 36.42865 
L 555.404351 36.42865 
L 556.509719 35.807182 
L 557.615087 33.010594 
L 558.720455 36.946544 
L 559.825823 33.528488 
L 560.93119 34.564248 
L 562.036558 37.982304 
L 564.247294 33.942781 
L 565.352662 34.667821 
L 566.45803 34.564248 
L 567.563398 33.632061 
L 568.668766 32.907021 
L 569.774134 34.667821 
L 570.879502 34.149955 
L 571.98487 32.078407 
L 573.090238 38.18945 
L 574.195606 36.532223 
L 575.300974 36.532223 
L 576.406342 36.221503 
L 577.51171 34.564248 
L 578.617078 36.635796 
L 579.722446 36.739369 
L 580.827814 36.221503 
L 581.933182 33.528488 
L 583.03855 34.667821 
L 584.143918 37.15369 
L 585.249286 35.703609 
L 586.354654 34.046382 
L 587.460022 36.325077 
L 588.56539 35.496463 
L 589.670758 34.460675 
L 590.776126 34.046382 
L 591.881494 34.149955 
L 592.986861 33.528488 
L 594.092229 33.735634 
L 595.197597 33.632061 
L 596.302965 34.771422 
L 597.408333 33.632061 
L 598.513701 34.149955 
L 599.619069 33.21774 
L 600.724437 35.082142 
L 601.829805 36.325077 
L 602.935173 34.046382 
L 604.040541 35.910756 
L 606.251277 35.807182 
L 607.356645 33.424915 
L 608.462013 34.149955 
L 609.567381 32.699874 
L 610.672749 34.149955 
L 611.778117 36.325077 
L 612.883485 33.010594 
L 613.988853 34.253528 
L 615.094221 37.568011 
L 616.199589 34.149955 
L 617.304957 31.974834 
L 618.410325 32.389126 
L 620.621061 32.803447 
L 621.726429 34.771422 
L 622.831797 34.978569 
L 623.937165 31.042619 
L 625.042532 33.114167 
L 626.1479 34.771422 
L 627.253268 37.15369 
L 628.358636 32.803447 
L 631.67474 31.871232 
L 632.780108 31.871232 
L 633.885476 34.978569 
L 634.990844 34.667821 
L 636.096212 32.078407 
L 637.20158 31.249793 
L 638.306948 32.596301 
L 639.412316 33.632061 
L 640.517684 31.146192 
L 641.623052 33.114167 
L 642.72842 33.632061 
L 643.833788 29.903285 
L 644.939156 32.285553 
L 646.044524 29.281818 
L 647.149892 34.357102 
L 648.25526 33.114167 
L 649.360628 30.939045 
L 650.465996 33.21774 
L 651.571364 32.699874 
L 652.676732 32.699874 
L 653.7821 31.042619 
L 654.887468 32.699874 
L 655.992835 34.771422 
L 657.098203 31.974834 
L 658.203571 33.632061 
L 659.308939 29.488965 
L 660.414307 30.628326 
L 661.519675 30.628326 
L 662.625043 32.699874 
L 663.730411 34.253528 
L 664.835779 36.739369 
L 665.941147 31.767659 
L 667.046515 33.942781 
L 668.151883 31.45694 
L 669.257251 33.114167 
L 670.362619 31.767659 
L 671.467987 31.974834 
L 672.573355 31.353366 
L 673.678723 35.807182 
L 674.784091 33.632061 
L 674.784091 33.632061 
" style="fill:none;stroke:#1f77b4;stroke-linecap:square;stroke-width:1.5;"/>
   </g>
   <g id="line2d_14">
    <path clip-path="url(#p47f2d39da4)" d="M 94.465909 235.559057 
L 95.571277 228.41378 
L 96.676645 212.259222 
L 97.782013 206.356597 
L 98.887381 191.134055 
L 99.992749 182.746127 
L 101.098117 182.124801 
L 102.203485 173.42621 
L 103.308853 177.464828 
L 104.414221 165.038281 
L 105.519589 163.174275 
L 106.624957 153.543695 
L 107.730325 151.679717 
L 109.941061 139.563805 
L 111.046429 137.078502 
L 112.151797 130.865214 
L 113.257165 130.243888 
L 114.362532 124.96259 
L 115.4679 124.96259 
L 116.573268 127.13723 
L 117.678636 116.885324 
L 118.784004 115.953335 
L 119.889372 121.234606 
L 120.99474 112.225351 
L 122.100108 101.352119 
L 123.205476 102.284108 
L 124.310844 101.041457 
L 125.416212 99.17745 
L 126.52158 96.070821 
L 127.626948 97.934799 
L 128.732316 87.682893 
L 129.837684 87.682893 
L 130.943052 90.168196 
L 132.04842 90.478859 
L 133.153788 86.129549 
L 134.259156 80.226953 
L 136.469892 77.120295 
L 137.57526 76.498969 
L 138.680628 74.324329 
L 139.785996 85.508224 
L 140.891364 78.984273 
L 141.996732 77.430958 
L 143.1021 74.634992 
L 144.207468 74.324329 
L 145.312835 75.256317 
L 146.418203 69.04303 
L 147.523571 73.703003 
L 148.628939 71.838997 
L 149.734307 73.703003 
L 150.839675 72.771014 
L 151.945043 72.771014 
L 153.050411 70.596345 
L 154.155779 65.004411 
L 155.261147 65.9364 
L 156.366515 65.625737 
L 157.471883 67.179052 
L 158.577251 72.149688 
L 159.682619 66.868389 
L 160.787987 69.04303 
L 161.893355 69.353693 
L 162.998723 62.519079 
L 164.104091 64.072394 
L 165.209459 66.557726 
L 166.314827 61.897754 
L 167.420195 66.557726 
L 168.525563 67.179052 
L 169.630931 62.829742 
L 170.736299 65.315074 
L 171.841667 60.655102 
L 172.947035 61.897754 
L 175.157771 61.897754 
L 176.263139 58.480461 
L 177.368506 60.344439 
L 178.473874 60.655102 
L 179.579242 59.723113 
L 180.68461 60.344439 
L 181.789978 61.897754 
L 182.895346 58.480461 
L 184.000714 58.791124 
L 185.106082 60.344439 
L 186.21145 58.169798 
L 187.316818 59.101787 
L 188.422186 58.480461 
L 189.527554 58.480461 
L 190.632922 56.616455 
L 191.73829 57.859107 
L 192.843658 60.344439 
L 193.949026 56.305792 
L 195.054394 57.548444 
L 196.159762 60.344439 
L 197.26513 59.101787 
L 198.370498 58.480461 
L 199.475866 61.276428 
L 200.581234 56.305792 
L 201.686602 57.548444 
L 202.79197 55.995129 
L 203.897338 57.548444 
L 205.002706 54.441814 
L 206.108074 54.752477 
L 207.213442 55.684466 
L 208.31881 54.752477 
L 209.424177 57.548444 
L 210.529545 57.237781 
L 211.634913 55.06314 
L 212.740281 55.06314 
L 213.845649 55.373803 
L 214.951017 58.169798 
L 216.056385 56.927118 
L 217.161753 53.199162 
L 218.267121 53.820488 
L 219.372489 55.06314 
L 220.477857 52.888499 
L 221.583225 54.441814 
L 222.688593 57.859107 
L 223.793961 53.820488 
L 224.899329 53.509825 
L 226.004697 52.577836 
L 227.110065 52.267173 
L 228.215433 52.577836 
L 229.320801 53.199162 
L 230.426169 53.199162 
L 231.531537 53.509825 
L 232.636905 54.752477 
L 233.742273 49.471178 
L 234.847641 51.95651 
L 235.953009 54.131151 
L 237.058377 48.849853 
L 238.163745 53.509825 
L 239.269113 52.577836 
L 240.374481 54.752477 
L 241.479848 53.509825 
L 242.585216 54.441814 
L 243.690584 54.441814 
L 244.795952 54.752477 
L 245.90132 53.820488 
L 247.006688 52.267173 
L 248.112056 52.267173 
L 249.217424 48.228527 
L 250.322792 53.820488 
L 251.42816 53.199162 
L 252.533528 51.95651 
L 253.638896 50.403167 
L 254.744264 52.267173 
L 255.849632 50.092504 
L 256.955 49.781841 
L 258.060368 51.95651 
L 259.165736 50.092504 
L 260.271104 48.849853 
L 261.376472 48.849853 
L 262.48184 51.335184 
L 263.587208 51.335184 
L 264.692576 50.71383 
L 265.797944 52.888499 
L 266.903312 50.403167 
L 268.00868 52.577836 
L 269.114048 50.71383 
L 270.219416 52.577836 
L 271.324784 48.849853 
L 272.430152 49.471178 
L 273.535519 51.335184 
L 274.640887 48.849853 
L 275.746255 50.403167 
L 276.851623 50.092504 
L 277.956991 51.335184 
L 279.062359 47.607201 
L 280.167727 47.296538 
L 281.273095 50.092504 
L 282.378463 51.645847 
L 283.483831 48.228527 
L 284.589199 48.53919 
L 285.694567 51.95651 
L 286.799935 51.335184 
L 287.905303 47.917864 
L 289.010671 49.471178 
L 290.116039 47.917864 
L 291.221407 47.917864 
L 292.326775 48.53919 
L 293.432143 51.95651 
L 294.537511 48.228527 
L 295.642879 48.53919 
L 297.853615 45.43256 
L 298.958983 47.296538 
L 300.064351 51.024522 
L 301.169719 47.296538 
L 302.275087 49.471178 
L 303.380455 49.471178 
L 304.485823 48.53919 
L 305.59119 49.471178 
L 306.696558 47.296538 
L 307.801926 48.228527 
L 308.907294 45.121897 
L 310.012662 49.781841 
L 311.11803 50.403167 
L 312.223398 48.53919 
L 313.328766 49.160515 
L 314.434134 46.675212 
L 315.539502 51.024522 
L 316.64487 51.024522 
L 317.750238 48.53919 
L 318.855606 45.743223 
L 319.960974 45.43256 
L 321.066342 46.985875 
L 322.17171 47.607201 
L 324.382446 47.607201 
L 325.487814 51.024522 
L 326.593182 46.985875 
L 327.69855 46.985875 
L 328.803918 45.43256 
L 329.909286 48.849853 
L 331.014654 47.917864 
L 332.120022 48.849853 
L 333.22539 46.053886 
L 334.330758 46.364549 
L 335.436126 46.053886 
L 336.541494 47.917864 
L 337.646861 48.849853 
L 338.752229 47.607201 
L 339.857597 46.053886 
L 340.962965 48.849853 
L 342.068333 47.296538 
L 343.173701 46.985875 
L 344.279069 48.53919 
L 345.384437 48.53919 
L 346.489805 50.403167 
L 347.595173 47.296538 
L 348.700541 47.296538 
L 349.805909 46.675212 
L 350.911277 48.53919 
L 352.016645 48.53919 
L 353.122013 46.675212 
L 354.227381 46.985875 
L 355.332749 45.743223 
L 356.438117 47.607201 
L 357.543485 45.121897 
L 358.648853 47.296538 
L 359.754221 47.296538 
L 360.859589 47.607201 
L 361.964957 45.743223 
L 363.070325 45.743223 
L 364.175693 46.985875 
L 365.281061 44.811234 
L 366.386429 45.43256 
L 367.491797 46.675212 
L 368.597165 46.675212 
L 369.702532 45.743223 
L 370.8079 47.917864 
L 371.913268 48.228527 
L 373.018636 49.160515 
L 374.124004 47.607201 
L 375.229372 47.296538 
L 376.33474 48.849853 
L 377.440108 46.985875 
L 378.545476 47.296538 
L 379.650844 46.053886 
L 380.756212 45.743223 
L 381.86158 45.743223 
L 382.966948 44.811234 
L 384.072316 46.053886 
L 385.177684 47.917864 
L 386.283052 46.985875 
L 387.38842 46.675212 
L 388.493788 44.189908 
L 389.599156 45.743223 
L 390.704524 44.500571 
L 391.809892 44.811234 
L 392.91526 43.568554 
L 394.020628 46.675212 
L 395.125996 47.607201 
L 396.231364 42.015239 
L 397.336732 46.985875 
L 398.4421 45.43256 
L 399.547468 46.675212 
L 400.652835 42.325902 
L 402.863571 41.704576 
L 403.968939 44.811234 
L 405.074307 45.43256 
L 406.179675 44.500571 
L 407.285043 44.189908 
L 408.390411 46.985875 
L 410.601147 42.015239 
L 411.706515 44.500571 
L 412.811883 45.121897 
L 413.917251 43.257891 
L 415.022619 45.43256 
L 416.127987 46.985875 
L 417.233355 45.43256 
L 418.338723 45.43256 
L 419.444091 43.879245 
L 420.549459 47.296538 
L 421.654827 45.743223 
L 422.760195 44.811234 
L 423.865563 47.296538 
L 424.970931 43.879245 
L 426.076299 46.053886 
L 427.181667 47.296538 
L 428.287035 46.985875 
L 430.497771 45.121897 
L 431.603139 43.257891 
L 432.708506 44.500571 
L 433.813874 43.879245 
L 434.919242 44.811234 
L 436.02461 44.500571 
L 437.129978 48.228527 
L 438.235346 45.121897 
L 440.446082 45.743223 
L 441.55145 43.257891 
L 442.656818 46.053886 
L 443.762186 42.947228 
L 444.867554 44.500571 
L 445.972922 45.43256 
L 447.07829 45.121897 
L 448.183658 45.121897 
L 449.289026 43.568554 
L 450.394394 43.257891 
L 451.499762 43.879245 
L 452.60513 44.189908 
L 454.815866 43.568554 
L 455.921234 45.121897 
L 457.026602 43.879245 
L 458.13197 47.607201 
L 459.237338 42.947228 
L 460.342706 45.121897 
L 461.448074 43.879245 
L 462.553442 44.811234 
L 463.65881 45.43256 
L 464.764177 45.743223 
L 466.974913 45.121897 
L 468.080281 46.053886 
L 469.185649 46.364549 
L 470.291017 45.743223 
L 471.396385 43.568554 
L 472.501753 47.607201 
L 473.607121 43.879245 
L 474.712489 45.43256 
L 475.817857 43.257891 
L 476.923225 43.879245 
L 478.028593 45.743223 
L 479.133961 44.500571 
L 480.239329 42.015239 
L 481.344697 42.015239 
L 482.450065 44.811234 
L 483.555433 47.296538 
L 484.660801 42.636565 
L 485.766169 44.189908 
L 486.871537 41.393913 
L 487.976905 45.121897 
L 489.082273 43.568554 
L 490.187641 43.257891 
L 491.293009 44.189908 
L 492.398377 43.257891 
L 493.503745 44.500571 
L 494.609113 44.189908 
L 495.714481 47.296538 
L 496.819848 48.53919 
L 497.925216 42.947228 
L 499.030584 43.257891 
L 500.135952 45.743223 
L 501.24132 45.43256 
L 502.346688 43.257891 
L 503.452056 44.500571 
L 504.557424 43.568554 
L 505.662792 44.500571 
L 506.76816 43.879245 
L 507.873528 44.811234 
L 508.978896 46.675212 
L 510.084264 45.121897 
L 511.189632 44.500571 
L 512.295 46.364549 
L 513.400368 44.811234 
L 514.505736 46.675212 
L 515.611104 42.947228 
L 516.716472 44.500571 
L 518.927208 42.636565 
L 520.032576 46.985875 
L 521.137944 40.772587 
L 522.243312 44.500571 
L 523.34868 43.257891 
L 524.454048 42.947228 
L 525.559416 46.053886 
L 526.664784 41.08325 
L 527.770152 41.704576 
L 528.875519 49.781841 
L 529.980887 41.393913 
L 531.086255 43.568554 
L 532.191623 44.811234 
L 533.296991 43.568554 
L 534.402359 43.257891 
L 535.507727 41.393913 
L 536.613095 41.08325 
L 537.718463 42.015239 
L 539.929199 40.772587 
L 541.034567 41.393913 
L 542.139935 44.500571 
L 543.245303 42.947228 
L 544.350671 43.257891 
L 545.456039 42.636565 
L 546.561407 41.08325 
L 547.666775 43.568554 
L 548.772143 42.947228 
L 549.877511 44.189908 
L 550.982879 45.121897 
L 552.088247 42.636565 
L 553.193615 44.811234 
L 554.298983 44.500571 
L 555.404351 43.257891 
L 556.509719 41.704576 
L 557.615087 43.879245 
L 558.720455 42.015239 
L 559.825823 43.568554 
L 560.93119 44.189908 
L 562.036558 43.879245 
L 563.141926 41.393913 
L 564.247294 42.947228 
L 565.352662 43.879245 
L 566.45803 42.947228 
L 567.563398 43.257891 
L 568.668766 43.257891 
L 569.774134 43.568554 
L 570.879502 42.947228 
L 571.98487 42.636565 
L 573.090238 44.189908 
L 574.195606 41.393913 
L 575.300974 42.947228 
L 576.406342 44.811234 
L 577.51171 42.636565 
L 578.617078 44.811234 
L 579.722446 43.257891 
L 580.827814 43.879245 
L 581.933182 43.879245 
L 583.03855 42.015239 
L 584.143918 43.879245 
L 585.249286 43.568554 
L 586.354654 41.704576 
L 587.460022 46.364549 
L 589.670758 42.015239 
L 590.776126 42.015239 
L 591.881494 41.704576 
L 592.986861 40.461924 
L 594.092229 45.743223 
L 595.197597 42.947228 
L 596.302965 41.08325 
L 597.408333 42.947228 
L 598.513701 41.393913 
L 599.619069 42.636565 
L 600.724437 41.704576 
L 601.829805 42.636565 
L 602.935173 44.811234 
L 604.040541 42.947228 
L 605.145909 43.568554 
L 606.251277 42.015239 
L 607.356645 43.257891 
L 608.462013 42.015239 
L 609.567381 42.636565 
L 611.778117 43.257891 
L 612.883485 45.743223 
L 613.988853 42.015239 
L 615.094221 40.461924 
L 616.199589 39.840598 
L 617.304957 40.461924 
L 618.410325 41.704576 
L 619.515693 43.568554 
L 620.621061 43.568554 
L 621.726429 40.772587 
L 622.831797 45.121897 
L 623.937165 43.879245 
L 625.042532 45.743223 
L 626.1479 44.811234 
L 627.253268 46.364549 
L 628.358636 43.879245 
L 629.464004 42.015239 
L 630.569372 42.636565 
L 631.67474 45.43256 
L 632.780108 42.015239 
L 633.885476 45.121897 
L 634.990844 44.500571 
L 636.096212 42.636565 
L 637.20158 40.151261 
L 638.306948 42.947228 
L 639.412316 41.704576 
L 640.517684 43.568554 
L 641.623052 45.743223 
L 642.72842 45.121897 
L 643.833788 43.879245 
L 644.939156 45.743223 
L 646.044524 41.704576 
L 647.149892 42.325902 
L 648.25526 42.636565 
L 649.360628 39.219272 
L 650.465996 40.772587 
L 651.571364 45.43256 
L 652.676732 42.325902 
L 653.7821 40.772587 
L 654.887468 40.151261 
L 655.992835 41.704576 
L 657.098203 41.393913 
L 658.203571 40.461924 
L 659.308939 42.015239 
L 660.414307 41.704576 
L 661.519675 41.08325 
L 662.625043 41.704576 
L 663.730411 42.947228 
L 664.835779 38.908609 
L 665.941147 43.257891 
L 667.046515 43.879245 
L 668.151883 47.296538 
L 669.257251 43.257891 
L 670.362619 42.636565 
L 671.467987 42.325902 
L 672.573355 42.325902 
L 673.678723 43.879245 
L 674.784091 44.811234 
L 674.784091 44.811234 
" style="fill:none;stroke:#ff7f0e;stroke-linecap:square;stroke-width:1.5;"/>
   </g>
   <g id="patch_3">
    <path d="M 65.45 304 
L 65.45 16.2 
" style="fill:none;stroke:#000000;stroke-linecap:square;stroke-linejoin:miter;stroke-width:0.8;"/>
   </g>
   <g id="patch_4">
    <path d="M 703.8 304 
L 703.8 16.2 
" style="fill:none;stroke:#000000;stroke-linecap:square;stroke-linejoin:miter;stroke-width:0.8;"/>
   </g>
   <g id="patch_5">
    <path d="M 65.45 304 
L 703.8 304 
" style="fill:none;stroke:#000000;stroke-linecap:square;stroke-linejoin:miter;stroke-width:0.8;"/>
   </g>
   <g id="patch_6">
    <path d="M 65.45 16.2 
L 703.8 16.2 
" style="fill:none;stroke:#000000;stroke-linecap:square;stroke-linejoin:miter;stroke-width:0.8;"/>
   </g>
   <g id="legend_1">
    <g id="patch_7">
     <path d="M 496.570313 296.5 
L 693.3 296.5 
Q 696.3 296.5 696.3 293.5 
L 696.3 250.965625 
Q 696.3 247.965625 693.3 247.965625 
L 496.570313 247.965625 
Q 493.570313 247.965625 493.570313 250.965625 
L 493.570313 293.5 
Q 493.570313 296.5 496.570313 296.5 
z
" style="fill:#ffffff;opacity:0.8;stroke:#cccccc;stroke-linejoin:miter;"/>
    </g>
    <g id="line2d_15">
     <path d="M 499.570313 260.113281 
L 529.570312 260.113281 
" style="fill:none;stroke:#1f77b4;stroke-linecap:square;stroke-width:1.5;"/>
    </g>
    <g id="line2d_16"/>
    <g id="text_15">
     <text style="font-family:DejaVu Sans;font-size:15px;font-style:normal;font-weight:normal;text-anchor:start;" transform="rotate(-0, 541.570312, 265.363281)" x="541.570312" y="265.363281">Training Accuracy</text>
    </g>
    <g id="line2d_17">
     <path d="M 499.570313 282.130469 
L 529.570312 282.130469 
" style="fill:none;stroke:#ff7f0e;stroke-linecap:square;stroke-width:1.5;"/>
    </g>
    <g id="line2d_18"/>
    <g id="text_16">
     <text style="font-family:DejaVu Sans;font-size:15px;font-style:normal;font-weight:normal;text-anchor:start;" transform="rotate(-0, 541.570312, 287.380469)" x="541.570312" y="287.380469">Validation Accuracy</text>
    </g>
   </g>
  </g>
 </g>
 <defs>
  <clipPath id="p47f2d39da4">
   <rect height="287.8" width="638.35" x="65.45" y="16.2"/>
  </clipPath>
 </defs>
</svg>
