<?xml version="1.0" encoding="utf-8" standalone="no"?>
<!DOCTYPE svg PUBLIC "-//W3C//DTD SVG 1.1//EN"
  "http://www.w3.org/Graphics/SVG/1.1/DTD/svg11.dtd">
<!-- Created with matplotlib (https://matplotlib.org/) -->
<svg height="360pt" version="1.1" viewBox="0 0 720 360" width="720pt" xmlns="http://www.w3.org/2000/svg" xmlns:xlink="http://www.w3.org/1999/xlink">
 <defs>
  <style type="text/css">
*{stroke-linecap:butt;stroke-linejoin:round;}
  </style>
 </defs>
 <g id="figure_1">
  <g id="patch_1">
   <path d="M 0 360 
L 720 360 
L 720 0 
L 0 0 
z
" style="fill:#ffffff;"/>
  </g>
  <g id="axes_1">
   <g id="patch_2">
    <path d="M 65.45 304 
L 703.8 304 
L 703.8 16.2 
L 65.45 16.2 
z
" style="fill:#ffffff;"/>
   </g>
   <g id="matplotlib.axis_1">
    <g id="xtick_1">
     <g id="line2d_1">
      <defs>
       <path d="M 0 0 
L 0 3.5 
" id="m55f92080fb" style="stroke:#000000;stroke-width:0.8;"/>
      </defs>
      <g>
       <use style="stroke:#000000;stroke-width:0.8;" x="93.360541" xlink:href="#m55f92080fb" y="304"/>
      </g>
     </g>
     <g id="text_1">
      <text style="font-family:DejaVu Sans;font-size:15px;font-style:normal;font-weight:normal;text-anchor:middle;" transform="rotate(-0, 93.360541, 322.397656)" x="93.360541" y="322.397656">0</text>
     </g>
    </g>
    <g id="xtick_2">
     <g id="line2d_2">
      <g>
       <use style="stroke:#000000;stroke-width:0.8;" x="203.897338" xlink:href="#m55f92080fb" y="304"/>
      </g>
     </g>
     <g id="text_2">
      <text style="font-family:DejaVu Sans;font-size:15px;font-style:normal;font-weight:normal;text-anchor:middle;" transform="rotate(-0, 203.897338, 322.397656)" x="203.897338" y="322.397656">100</text>
     </g>
    </g>
    <g id="xtick_3">
     <g id="line2d_3">
      <g>
       <use style="stroke:#000000;stroke-width:0.8;" x="314.434134" xlink:href="#m55f92080fb" y="304"/>
      </g>
     </g>
     <g id="text_3">
      <text style="font-family:DejaVu Sans;font-size:15px;font-style:normal;font-weight:normal;text-anchor:middle;" transform="rotate(-0, 314.434134, 322.397656)" x="314.434134" y="322.397656">200</text>
     </g>
    </g>
    <g id="xtick_4">
     <g id="line2d_4">
      <g>
       <use style="stroke:#000000;stroke-width:0.8;" x="424.970931" xlink:href="#m55f92080fb" y="304"/>
      </g>
     </g>
     <g id="text_4">
      <text style="font-family:DejaVu Sans;font-size:15px;font-style:normal;font-weight:normal;text-anchor:middle;" transform="rotate(-0, 424.970931, 322.397656)" x="424.970931" y="322.397656">300</text>
     </g>
    </g>
    <g id="xtick_5">
     <g id="line2d_5">
      <g>
       <use style="stroke:#000000;stroke-width:0.8;" x="535.507727" xlink:href="#m55f92080fb" y="304"/>
      </g>
     </g>
     <g id="text_5">
      <text style="font-family:DejaVu Sans;font-size:15px;font-style:normal;font-weight:normal;text-anchor:middle;" transform="rotate(-0, 535.507727, 322.397656)" x="535.507727" y="322.397656">400</text>
     </g>
    </g>
    <g id="xtick_6">
     <g id="line2d_6">
      <g>
       <use style="stroke:#000000;stroke-width:0.8;" x="646.044524" xlink:href="#m55f92080fb" y="304"/>
      </g>
     </g>
     <g id="text_6">
      <text style="font-family:DejaVu Sans;font-size:15px;font-style:normal;font-weight:normal;text-anchor:middle;" transform="rotate(-0, 646.044524, 322.397656)" x="646.044524" y="322.397656">500</text>
     </g>
    </g>
    <g id="text_7">
     <text style="font-family:DejaVu Sans;font-size:15px;font-style:normal;font-weight:normal;text-anchor:middle;" transform="rotate(-0, 384.625, 340.914844)" x="384.625" y="340.914844">Epochs</text>
    </g>
   </g>
   <g id="matplotlib.axis_2">
    <g id="ytick_1">
     <g id="line2d_7">
      <defs>
       <path d="M 0 0 
L -3.5 0 
" id="m1581e5281c" style="stroke:#000000;stroke-width:0.8;"/>
      </defs>
      <g>
       <use style="stroke:#000000;stroke-width:0.8;" x="65.45" xlink:href="#m1581e5281c" y="263.881064"/>
      </g>
     </g>
     <g id="text_8">
      <text style="font-family:DejaVu Sans;font-size:15px;font-style:normal;font-weight:normal;text-anchor:end;" transform="rotate(-0, 58.45, 269.579892)" x="58.45" y="269.579892">0.2</text>
     </g>
    </g>
    <g id="ytick_2">
     <g id="line2d_8">
      <g>
       <use style="stroke:#000000;stroke-width:0.8;" x="65.45" xlink:href="#m1581e5281c" y="210.603617"/>
      </g>
     </g>
     <g id="text_9">
      <text style="font-family:DejaVu Sans;font-size:15px;font-style:normal;font-weight:normal;text-anchor:end;" transform="rotate(-0, 58.45, 216.302445)" x="58.45" y="216.302445">0.4</text>
     </g>
    </g>
    <g id="ytick_3">
     <g id="line2d_9">
      <g>
       <use style="stroke:#000000;stroke-width:0.8;" x="65.45" xlink:href="#m1581e5281c" y="157.32617"/>
      </g>
     </g>
     <g id="text_10">
      <text style="font-family:DejaVu Sans;font-size:15px;font-style:normal;font-weight:normal;text-anchor:end;" transform="rotate(-0, 58.45, 163.024998)" x="58.45" y="163.024998">0.6</text>
     </g>
    </g>
    <g id="ytick_4">
     <g id="line2d_10">
      <g>
       <use style="stroke:#000000;stroke-width:0.8;" x="65.45" xlink:href="#m1581e5281c" y="104.048723"/>
      </g>
     </g>
     <g id="text_11">
      <text style="font-family:DejaVu Sans;font-size:15px;font-style:normal;font-weight:normal;text-anchor:end;" transform="rotate(-0, 58.45, 109.747551)" x="58.45" y="109.747551">0.8</text>
     </g>
    </g>
    <g id="ytick_5">
     <g id="line2d_11">
      <g>
       <use style="stroke:#000000;stroke-width:0.8;" x="65.45" xlink:href="#m1581e5281c" y="50.771276"/>
      </g>
     </g>
     <g id="text_12">
      <text style="font-family:DejaVu Sans;font-size:15px;font-style:normal;font-weight:normal;text-anchor:end;" transform="rotate(-0, 58.45, 56.470104)" x="58.45" y="56.470104">1.0</text>
     </g>
    </g>
    <g id="text_13">
     <text style="font-family:DejaVu Sans;font-size:15px;font-style:normal;font-weight:normal;text-anchor:middle;" transform="rotate(-90, 27.475781, 160.1)" x="27.475781" y="160.1">Loss</text>
    </g>
   </g>
   <g id="line2d_12">
    <path clip-path="url(#p92e3837fdd)" d="M 94.465909 29.281818 
L 95.571277 43.476517 
L 96.676645 55.751353 
L 97.782013 64.19904 
L 98.887381 69.508821 
L 99.992749 77.74603 
L 101.098117 84.743952 
L 102.203485 87.63151 
L 103.308853 96.655724 
L 104.414221 100.386955 
L 107.730325 117.987959 
L 108.835693 122.566594 
L 109.941061 123.719093 
L 111.046429 129.406594 
L 112.151797 132.892003 
L 114.362532 140.840314 
L 115.4679 141.869234 
L 116.573268 143.436893 
L 117.678636 148.037392 
L 118.784004 151.682644 
L 119.889372 158.224377 
L 120.99474 161.486686 
L 122.100108 159.755501 
L 123.205476 163.580951 
L 124.310844 164.747661 
L 125.416212 169.877069 
L 126.52158 168.07934 
L 128.732316 176.179427 
L 129.837684 178.887295 
L 130.943052 175.513491 
L 132.04842 181.074097 
L 133.153788 182.269053 
L 134.259156 184.668912 
L 135.364524 185.177712 
L 136.469892 186.579264 
L 137.57526 191.262408 
L 138.680628 193.371773 
L 140.891364 194.54373 
L 141.996732 197.981251 
L 143.1021 198.02744 
L 144.207468 197.643981 
L 145.312835 198.780117 
L 146.418203 199.714334 
L 147.523571 202.743785 
L 148.628939 202.117425 
L 149.734307 203.078483 
L 150.839675 209.083241 
L 151.945043 204.942852 
L 153.050411 203.93154 
L 154.155779 206.802029 
L 155.261147 209.993546 
L 156.366515 211.017457 
L 157.471883 210.678059 
L 158.577251 214.129743 
L 159.682619 212.542968 
L 160.787987 213.366484 
L 161.893355 213.483885 
L 162.998723 216.036245 
L 164.104091 214.879014 
L 165.209459 221.288278 
L 166.314827 221.095425 
L 167.420195 217.2235 
L 168.525563 220.384579 
L 169.630931 220.786798 
L 170.736299 222.108484 
L 171.841667 218.952494 
L 172.947035 224.504295 
L 174.052403 221.164415 
L 175.157771 226.565288 
L 176.263139 224.789827 
L 177.368506 227.412137 
L 178.473874 226.928416 
L 180.68461 227.06653 
L 181.789978 228.973365 
L 182.895346 228.632728 
L 184.000714 229.267717 
L 185.106082 233.178813 
L 186.21145 228.182819 
L 187.316818 232.042598 
L 188.422186 228.969546 
L 189.527554 230.975705 
L 190.632922 234.969128 
L 191.73829 230.434188 
L 192.843658 233.651261 
L 193.949026 234.25201 
L 195.054394 236.145356 
L 196.159762 234.72533 
L 197.26513 236.258534 
L 198.370498 233.215999 
L 199.475866 239.310785 
L 200.581234 233.044129 
L 201.686602 236.435295 
L 202.79197 237.308604 
L 203.897338 242.015692 
L 205.002706 240.909477 
L 206.108074 239.230903 
L 207.213442 243.175899 
L 208.31881 238.91976 
L 209.424177 239.537149 
L 210.529545 240.410601 
L 211.634913 240.194248 
L 212.740281 245.658062 
L 213.845649 241.420548 
L 214.951017 242.655834 
L 216.056385 242.03103 
L 217.161753 242.923551 
L 218.267121 242.636494 
L 219.372489 246.543327 
L 220.477857 247.813584 
L 221.583225 246.746302 
L 222.688593 245.092355 
L 223.793961 242.961999 
L 224.899329 243.917112 
L 226.004697 246.710863 
L 227.110065 248.629265 
L 228.215433 244.380048 
L 229.320801 244.507278 
L 230.426169 245.394433 
L 231.531537 250.76197 
L 232.636905 248.35202 
L 233.742273 248.399384 
L 234.847641 248.867409 
L 235.953009 248.722936 
L 237.058377 248.838083 
L 239.269113 250.115922 
L 240.374481 252.924332 
L 241.479848 253.388757 
L 242.585216 249.915209 
L 243.690584 255.951989 
L 244.795952 251.865283 
L 247.006688 251.988786 
L 248.112056 250.815939 
L 249.217424 252.283761 
L 250.322792 249.450836 
L 251.42816 254.052252 
L 252.533528 250.541553 
L 253.638896 256.243337 
L 254.744264 252.631087 
L 255.849632 255.606767 
L 256.955 253.266319 
L 258.060368 257.038368 
L 259.165736 257.827941 
L 260.271104 256.102472 
L 261.376472 252.347591 
L 262.48184 256.721508 
L 263.587208 258.039181 
L 264.692576 249.909755 
L 265.797944 258.593423 
L 266.903312 255.548547 
L 268.00868 257.890762 
L 270.219416 255.65273 
L 271.324784 256.089404 
L 272.430152 256.032788 
L 273.535519 260.097185 
L 274.640887 258.088204 
L 275.746255 255.636467 
L 276.851623 258.796164 
L 277.956991 256.173827 
L 279.062359 260.397222 
L 280.167727 260.093672 
L 281.273095 261.037773 
L 282.378463 260.024817 
L 283.483831 260.440116 
L 284.589199 261.982894 
L 285.694567 259.806059 
L 286.799935 260.678067 
L 287.905303 263.045845 
L 289.010671 259.927668 
L 290.116039 260.076881 
L 291.221407 263.992054 
L 292.326775 260.032224 
L 293.432143 258.931353 
L 294.537511 261.495541 
L 295.642879 265.881689 
L 296.748247 264.647998 
L 297.853615 260.875993 
L 298.958983 261.279149 
L 300.064351 259.91836 
L 301.169719 264.642378 
L 302.275087 263.324947 
L 303.380455 261.57403 
L 304.485823 264.586392 
L 305.59119 264.496618 
L 306.696558 265.681218 
L 307.801926 263.992685 
L 308.907294 266.776953 
L 310.012662 266.230951 
L 311.11803 268.345163 
L 312.223398 260.094065 
L 313.328766 262.822344 
L 314.434134 260.123649 
L 315.539502 262.369632 
L 316.64487 261.094802 
L 317.750238 265.13162 
L 318.855606 263.35236 
L 319.960974 262.935982 
L 321.066342 266.166268 
L 322.17171 267.584492 
L 323.277078 266.998958 
L 324.382446 267.594007 
L 325.487814 265.968053 
L 326.593182 263.223305 
L 327.69855 267.766036 
L 328.803918 268.535123 
L 329.909286 268.677008 
L 331.014654 268.173737 
L 332.120022 262.566745 
L 333.22539 264.973031 
L 334.330758 268.400053 
L 335.436126 264.686074 
L 336.541494 270.402298 
L 338.752229 267.489173 
L 339.857597 268.700888 
L 340.962965 266.525748 
L 342.068333 266.248484 
L 343.173701 269.000981 
L 344.279069 266.870922 
L 345.384437 266.260123 
L 346.489805 268.28006 
L 347.595173 266.686838 
L 348.700541 270.540079 
L 349.805909 267.882743 
L 350.911277 267.661055 
L 353.122013 272.814078 
L 354.227381 272.152703 
L 355.332749 263.296629 
L 356.438117 266.814516 
L 357.543485 267.522901 
L 358.648853 267.983591 
L 359.754221 269.010769 
L 360.859589 269.376168 
L 361.964957 269.918895 
L 363.070325 270.266288 
L 364.175693 268.34768 
L 365.281061 272.340892 
L 366.386429 271.434097 
L 367.491797 269.459233 
L 368.597165 271.304088 
L 369.702532 272.325737 
L 370.8079 272.060758 
L 371.913268 269.864827 
L 373.018636 269.969081 
L 374.124004 267.534103 
L 375.229372 271.387261 
L 376.33474 272.802301 
L 377.440108 268.308704 
L 378.545476 273.790808 
L 379.650844 274.935844 
L 380.756212 275.220091 
L 381.86158 270.237227 
L 382.966948 272.946484 
L 384.072316 273.828002 
L 385.177684 275.23504 
L 386.283052 270.67381 
L 387.38842 273.223697 
L 388.493788 269.514214 
L 389.599156 271.979773 
L 390.704524 272.042153 
L 391.809892 273.335358 
L 392.91526 274.344316 
L 394.020628 274.51319 
L 395.125996 269.433523 
L 396.231364 273.059718 
L 397.336732 273.53467 
L 398.4421 272.170296 
L 399.547468 274.794872 
L 400.652835 272.041729 
L 401.758203 274.210136 
L 402.863571 274.196195 
L 403.968939 272.073496 
L 405.074307 269.666373 
L 406.179675 273.932411 
L 407.285043 273.775419 
L 408.390411 274.922392 
L 409.495779 277.484567 
L 410.601147 273.928247 
L 411.706515 271.659583 
L 412.811883 274.118794 
L 413.917251 272.243934 
L 415.022619 279.663089 
L 416.127987 275.734769 
L 417.233355 276.342826 
L 418.338723 277.204572 
L 419.444091 272.118078 
L 420.549459 271.293037 
L 421.654827 274.994989 
L 422.760195 272.931801 
L 423.865563 276.865614 
L 424.970931 278.598455 
L 426.076299 277.990632 
L 427.181667 272.417158 
L 428.287035 275.339945 
L 430.497771 276.47524 
L 431.603139 275.127491 
L 432.708506 274.682595 
L 433.813874 278.127889 
L 434.919242 279.186259 
L 436.02461 277.858103 
L 437.129978 277.685538 
L 438.235346 277.721922 
L 439.340714 281.495583 
L 440.446082 275.439448 
L 441.55145 276.533953 
L 443.762186 273.36713 
L 444.867554 277.299998 
L 445.972922 279.354132 
L 447.07829 276.561977 
L 448.183658 277.328551 
L 449.289026 279.360777 
L 450.394394 279.3365 
L 451.499762 278.671692 
L 452.60513 275.916298 
L 453.710498 277.190719 
L 454.815866 278.272838 
L 455.921234 280.840647 
L 457.026602 273.763899 
L 458.13197 275.651506 
L 459.237338 279.928337 
L 460.342706 280.02638 
L 461.448074 276.231867 
L 462.553442 277.258335 
L 463.65881 281.670161 
L 464.764177 279.252077 
L 465.869545 275.772051 
L 466.974913 278.975305 
L 468.080281 279.703506 
L 469.185649 277.795429 
L 470.291017 281.108591 
L 472.501753 279.174883 
L 473.607121 280.991285 
L 474.712489 282.416443 
L 475.817857 280.133357 
L 476.923225 280.482755 
L 478.028593 281.761395 
L 479.133961 277.211678 
L 480.239329 277.506824 
L 481.344697 279.227276 
L 482.450065 276.443607 
L 483.555433 278.667254 
L 484.660801 279.989749 
L 485.766169 278.150146 
L 486.871537 277.592549 
L 487.976905 280.597965 
L 489.082273 281.60287 
L 490.187641 279.1997 
L 491.293009 282.890486 
L 492.398377 277.12789 
L 493.503745 276.383041 
L 494.609113 280.89092 
L 495.714481 279.057513 
L 496.819848 281.245423 
L 497.925216 282.083098 
L 499.030584 277.164218 
L 500.135952 280.595293 
L 501.24132 276.670919 
L 502.346688 280.682384 
L 503.452056 280.078511 
L 504.557424 280.389285 
L 505.662792 284.135043 
L 506.76816 280.203807 
L 507.873528 277.726579 
L 508.978896 281.845342 
L 510.084264 280.514911 
L 511.189632 277.648507 
L 512.295 280.173937 
L 513.400368 279.442211 
L 514.505736 280.89801 
L 515.611104 278.141687 
L 516.716472 279.440365 
L 517.82184 283.237311 
L 518.927208 284.640623 
L 520.032576 282.649864 
L 521.137944 278.429855 
L 522.243312 280.327893 
L 523.34868 278.882856 
L 524.454048 280.469632 
L 525.559416 278.795758 
L 526.664784 280.118916 
L 527.770152 282.184101 
L 528.875519 281.271708 
L 529.980887 277.631819 
L 531.086255 283.147946 
L 532.191623 282.460341 
L 533.296991 283.106902 
L 534.402359 282.107046 
L 535.507727 282.998753 
L 536.613095 281.121257 
L 537.718463 285.781192 
L 538.823831 283.843359 
L 539.929199 280.811753 
L 541.034567 280.872954 
L 543.245303 280.586894 
L 544.350671 281.421421 
L 545.456039 283.820364 
L 546.561407 281.468948 
L 547.666775 281.915764 
L 548.772143 285.867786 
L 549.877511 286.201811 
L 550.982879 282.865053 
L 552.088247 282.841217 
L 553.193615 279.746238 
L 554.298983 279.672362 
L 555.404351 280.771495 
L 556.509719 282.686971 
L 557.615087 285.382729 
L 558.720455 281.969964 
L 559.825823 286.13989 
L 562.036558 280.603768 
L 563.141926 282.99141 
L 564.247294 284.533818 
L 565.352662 282.110555 
L 566.45803 283.384488 
L 567.563398 284.908924 
L 568.668766 283.911041 
L 569.774134 283.257726 
L 570.879502 283.197065 
L 571.98487 286.180612 
L 573.090238 279.450031 
L 574.195606 282.155318 
L 575.300974 282.798862 
L 576.406342 279.464119 
L 577.51171 283.987991 
L 578.617078 279.45587 
L 579.722446 280.798352 
L 580.827814 283.273493 
L 581.933182 285.474152 
L 583.03855 284.631527 
L 584.143918 278.772302 
L 585.249286 281.544999 
L 586.354654 283.749596 
L 587.460022 279.631341 
L 588.56539 281.801253 
L 590.776126 285.380232 
L 591.881494 284.492752 
L 592.986861 286.222387 
L 594.092229 285.434598 
L 595.197597 285.12232 
L 596.302965 284.409945 
L 597.408333 285.960614 
L 598.513701 283.795857 
L 599.619069 285.199226 
L 600.724437 283.99779 
L 601.829805 284.093988 
L 602.935173 283.601912 
L 604.040541 283.417589 
L 605.145909 282.324045 
L 606.251277 282.917089 
L 607.356645 286.532824 
L 608.462013 284.968246 
L 609.567381 285.719567 
L 610.672749 284.506477 
L 611.778117 282.820055 
L 612.883485 286.019563 
L 613.988853 284.027845 
L 615.094221 280.881902 
L 616.199589 283.284742 
L 617.304957 287.549787 
L 618.410325 287.381527 
L 619.515693 287.744035 
L 621.726429 284.034877 
L 622.831797 284.741678 
L 623.937165 285.998965 
L 625.042532 286.241296 
L 626.1479 283.409722 
L 627.253268 279.948804 
L 628.358636 284.805932 
L 629.464004 286.801929 
L 630.569372 286.383796 
L 631.67474 288.459292 
L 632.780108 286.801375 
L 633.885476 283.720349 
L 634.990844 284.113742 
L 636.096212 285.228876 
L 637.20158 289.022361 
L 638.306948 286.999639 
L 639.412316 283.26763 
L 640.517684 288.363334 
L 641.623052 286.876901 
L 642.72842 284.183724 
L 643.833788 288.034834 
L 644.939156 285.691759 
L 646.044524 288.807159 
L 647.149892 286.21755 
L 648.25526 284.47275 
L 649.360628 285.540391 
L 650.465996 285.45157 
L 651.571364 286.019112 
L 652.676732 287.467782 
L 653.7821 289.715884 
L 654.887468 285.654726 
L 655.992835 284.683535 
L 657.098203 286.316986 
L 658.203571 285.305197 
L 659.308939 290.918182 
L 660.414307 288.560347 
L 661.519675 289.30675 
L 662.625043 286.360624 
L 663.730411 285.109978 
L 664.835779 281.462871 
L 665.941147 288.815573 
L 667.046515 285.719482 
L 668.151883 286.858576 
L 669.257251 283.077345 
L 670.362619 285.693528 
L 671.467987 287.590685 
L 672.573355 287.547892 
L 673.678723 283.127039 
L 674.784091 285.354592 
L 674.784091 285.354592 
" style="fill:none;stroke:#1f77b4;stroke-linecap:square;stroke-width:1.5;"/>
   </g>
   <g id="line2d_13">
    <path clip-path="url(#p92e3837fdd)" d="M 94.465909 41.076252 
L 95.571277 55.45188 
L 96.676645 68.189668 
L 98.887381 81.494949 
L 99.992749 90.115356 
L 101.098117 95.57836 
L 102.203485 105.156617 
L 103.308853 105.771394 
L 104.414221 117.986784 
L 105.519589 125.114174 
L 106.624957 128.528561 
L 107.730325 135.126693 
L 108.835693 138.652194 
L 109.941061 148.761107 
L 111.046429 152.275764 
L 113.257165 160.899092 
L 114.362532 164.719509 
L 115.4679 167.519008 
L 116.573268 166.466397 
L 117.678636 171.281376 
L 118.784004 177.997591 
L 119.889372 177.553962 
L 120.99474 182.651996 
L 122.100108 189.208179 
L 124.310844 192.453918 
L 125.416212 194.010915 
L 126.52158 196.701785 
L 127.626948 195.546381 
L 128.732316 201.249665 
L 129.837684 205.129656 
L 130.943052 203.15746 
L 133.153788 205.755937 
L 134.259156 211.433689 
L 135.364524 209.554355 
L 136.469892 212.237707 
L 137.57526 217.131662 
L 138.680628 216.81169 
L 139.785996 208.563494 
L 140.891364 216.893684 
L 141.996732 218.680735 
L 143.1021 216.146382 
L 144.207468 221.015543 
L 145.312835 220.926103 
L 146.418203 222.404123 
L 147.523571 221.38788 
L 148.628939 225.112776 
L 149.734307 224.587431 
L 150.839675 227.934687 
L 151.945043 225.876536 
L 153.050411 225.81508 
L 154.155779 230.757923 
L 155.261147 231.850022 
L 156.366515 229.647676 
L 157.471883 232.368968 
L 158.577251 231.281347 
L 159.682619 235.465741 
L 160.787987 233.908062 
L 161.893355 228.956343 
L 162.998723 234.032839 
L 164.104091 233.383734 
L 165.209459 236.808434 
L 166.314827 237.195275 
L 168.525563 234.141833 
L 169.630931 238.370614 
L 170.736299 237.467343 
L 171.841667 239.358014 
L 172.947035 239.341779 
L 174.052403 238.734917 
L 175.157771 240.261793 
L 176.263139 244.71069 
L 177.368506 241.311252 
L 178.473874 241.812962 
L 179.579242 242.147518 
L 181.789978 241.209641 
L 182.895346 241.943971 
L 184.000714 243.281971 
L 185.106082 245.3498 
L 186.21145 244.381525 
L 187.316818 243.040262 
L 188.422186 242.124011 
L 189.527554 244.942349 
L 190.632922 249.485108 
L 191.73829 246.094951 
L 192.843658 244.455976 
L 193.949026 248.232991 
L 195.054394 248.176863 
L 196.159762 244.867389 
L 197.26513 245.603394 
L 198.370498 246.201333 
L 199.475866 246.505196 
L 200.581234 249.453019 
L 201.686602 248.704375 
L 202.79197 248.499613 
L 203.897338 249.112001 
L 205.002706 250.255584 
L 206.108074 249.583146 
L 207.213442 250.992875 
L 208.31881 251.563718 
L 209.424177 247.385087 
L 210.529545 247.476591 
L 211.634913 251.610062 
L 212.740281 250.709609 
L 213.845649 252.197477 
L 214.951017 249.727675 
L 216.056385 250.704989 
L 217.161753 253.199651 
L 218.267121 253.417087 
L 219.372489 251.565198 
L 220.477857 253.106924 
L 221.583225 252.88931 
L 222.688593 250.899136 
L 223.793961 250.891157 
L 224.899329 253.662131 
L 227.110065 255.001513 
L 228.215433 256.877425 
L 229.320801 252.808594 
L 230.426169 256.614273 
L 231.531537 253.130384 
L 232.636905 254.377039 
L 233.742273 256.896352 
L 234.847641 257.77679 
L 235.953009 254.322712 
L 237.058377 257.946188 
L 238.163745 255.708576 
L 239.269113 255.812898 
L 240.374481 256.040651 
L 241.479848 256.551857 
L 242.585216 257.568905 
L 243.690584 254.534841 
L 244.795952 256.091552 
L 245.90132 255.905963 
L 247.006688 257.192296 
L 248.112056 255.510003 
L 249.217424 257.796165 
L 250.322792 255.512691 
L 251.42816 255.894531 
L 252.533528 256.874309 
L 253.638896 255.746588 
L 254.744264 257.19386 
L 255.849632 257.785789 
L 256.955 259.583229 
L 258.060368 256.413723 
L 259.165736 258.361943 
L 260.271104 258.689667 
L 261.376472 259.253301 
L 263.587208 255.151607 
L 266.903312 259.471762 
L 268.00868 257.656968 
L 269.114048 257.195103 
L 270.219416 253.45658 
L 271.324784 258.123207 
L 272.430152 261.585867 
L 273.535519 255.430018 
L 274.640887 259.413863 
L 275.746255 256.249192 
L 276.851623 259.493062 
L 277.956991 258.768374 
L 279.062359 262.575767 
L 280.167727 261.004977 
L 281.273095 260.042966 
L 282.378463 256.676304 
L 283.483831 261.788326 
L 284.589199 260.741404 
L 285.694567 258.287753 
L 286.799935 256.444558 
L 287.905303 260.360985 
L 289.010671 258.796204 
L 290.116039 260.974495 
L 291.221407 260.285346 
L 292.326775 259.766174 
L 293.432143 257.982024 
L 294.537511 260.652515 
L 295.642879 259.387279 
L 296.748247 261.8198 
L 297.853615 262.567094 
L 298.958983 261.35647 
L 300.064351 257.330351 
L 301.169719 259.882881 
L 302.275087 257.850202 
L 303.380455 258.223325 
L 304.485823 258.721721 
L 305.59119 258.130618 
L 306.696558 257.254081 
L 307.801926 259.830773 
L 308.907294 261.846034 
L 310.012662 254.991788 
L 311.11803 255.042847 
L 312.223398 257.75684 
L 313.328766 258.124941 
L 314.434134 258.363352 
L 315.539502 257.344962 
L 316.64487 255.143589 
L 317.750238 258.886184 
L 318.855606 261.647191 
L 319.960974 262.065169 
L 321.066342 259.764519 
L 322.17171 261.528508 
L 323.277078 258.005103 
L 324.382446 258.214394 
L 325.487814 256.80056 
L 326.593182 259.376534 
L 327.69855 259.062874 
L 328.803918 260.686466 
L 329.909286 258.528264 
L 331.014654 256.871717 
L 332.120022 257.742069 
L 333.22539 259.51285 
L 334.330758 260.710239 
L 335.436126 261.437579 
L 336.541494 260.118807 
L 337.646861 259.339122 
L 338.752229 260.647295 
L 339.857597 259.090974 
L 340.962965 258.175608 
L 342.068333 260.084423 
L 343.173701 258.910144 
L 344.279069 257.145361 
L 345.384437 259.363693 
L 346.489805 256.90487 
L 347.595173 262.532853 
L 348.700541 260.914977 
L 349.805909 259.857111 
L 350.911277 259.38408 
L 352.016645 260.733723 
L 353.122013 263.58186 
L 354.227381 260.713506 
L 355.332749 261.056795 
L 356.438117 258.954166 
L 357.543485 264.512972 
L 358.648853 258.670864 
L 359.754221 260.848853 
L 360.859589 259.2036 
L 361.964957 262.07491 
L 363.070325 263.960401 
L 364.175693 262.289691 
L 365.281061 262.569607 
L 366.386429 258.561731 
L 367.491797 260.160538 
L 368.597165 257.267359 
L 369.702532 260.575055 
L 370.8079 259.092097 
L 371.913268 258.062974 
L 373.018636 260.855181 
L 374.124004 259.264321 
L 375.229372 261.851599 
L 376.33474 261.66944 
L 377.440108 257.990535 
L 378.545476 258.944174 
L 379.650844 260.301431 
L 380.756212 261.268118 
L 381.86158 260.38392 
L 382.966948 263.246578 
L 384.072316 262.570214 
L 385.177684 257.550887 
L 386.283052 260.189178 
L 387.38842 260.665225 
L 388.493788 262.838761 
L 389.599156 261.674517 
L 391.809892 258.381513 
L 392.91526 263.273721 
L 394.020628 261.486197 
L 395.125996 258.949684 
L 396.231364 262.790937 
L 397.336732 261.710822 
L 398.4421 263.532952 
L 399.547468 259.037219 
L 400.652835 264.729666 
L 401.758203 263.245542 
L 402.863571 264.710343 
L 403.968939 262.218038 
L 405.074307 261.506648 
L 406.179675 262.061581 
L 407.285043 262.880627 
L 408.390411 260.11787 
L 409.495779 261.468406 
L 410.601147 262.270951 
L 411.706515 259.986532 
L 412.811883 260.962651 
L 413.917251 263.568487 
L 415.022619 261.625863 
L 416.127987 260.026004 
L 417.233355 262.025439 
L 418.338723 258.322935 
L 419.444091 260.816383 
L 420.549459 264.493669 
L 421.654827 260.624078 
L 422.760195 264.293857 
L 423.865563 261.56255 
L 424.970931 263.889478 
L 426.076299 259.961099 
L 427.181667 262.588708 
L 428.287035 262.897212 
L 429.392403 259.107169 
L 430.497771 258.826011 
L 431.603139 261.751549 
L 432.708506 263.251206 
L 433.813874 262.366143 
L 434.919242 262.055246 
L 436.02461 260.911603 
L 437.129978 260.96221 
L 438.235346 262.31013 
L 439.340714 258.266231 
L 440.446082 256.146565 
L 441.55145 262.572334 
L 442.656818 261.368363 
L 443.762186 262.684075 
L 444.867554 263.66874 
L 445.972922 260.289268 
L 447.07829 261.446411 
L 448.183658 260.444284 
L 449.289026 264.103679 
L 450.394394 262.812257 
L 451.499762 260.50435 
L 452.60513 264.498274 
L 453.710498 265.769487 
L 454.815866 263.200663 
L 455.921234 263.014462 
L 457.026602 262.374682 
L 458.13197 259.3144 
L 459.237338 265.222441 
L 460.342706 263.928463 
L 461.448074 264.43658 
L 462.553442 264.805047 
L 463.65881 264.606374 
L 464.764177 261.60182 
L 465.869545 261.644182 
L 466.974913 262.909124 
L 468.080281 259.21367 
L 469.185649 260.273184 
L 471.396385 263.46578 
L 473.607121 258.395434 
L 474.712489 259.975628 
L 475.817857 265.473912 
L 476.923225 262.482096 
L 478.028593 257.930643 
L 479.133961 261.92981 
L 480.239329 260.375561 
L 481.344697 259.199733 
L 482.450065 260.501806 
L 483.555433 260.803784 
L 484.660801 260.455744 
L 485.766169 262.218113 
L 486.871537 261.890532 
L 487.976905 260.500591 
L 489.082273 264.097122 
L 490.187641 260.356753 
L 491.293009 260.657445 
L 492.398377 261.438345 
L 493.503745 261.79428 
L 494.609113 262.280621 
L 495.714481 258.498362 
L 496.819848 257.415385 
L 497.925216 261.707412 
L 499.030584 262.547989 
L 500.135952 260.239356 
L 501.24132 263.453578 
L 502.346688 259.672879 
L 503.452056 260.672716 
L 504.557424 260.884178 
L 505.662792 259.012303 
L 506.76816 258.18729 
L 507.873528 261.072065 
L 508.978896 259.291968 
L 510.084264 259.252619 
L 511.189632 260.575726 
L 512.295 260.674728 
L 513.400368 261.290716 
L 514.505736 261.51022 
L 515.611104 262.753886 
L 516.716472 260.646132 
L 517.82184 263.739968 
L 518.927208 262.472922 
L 520.032576 259.199201 
L 521.137944 265.230134 
L 522.243312 259.816987 
L 523.34868 260.736755 
L 525.559416 260.935321 
L 526.664784 262.315048 
L 527.770152 261.315351 
L 528.875519 258.255946 
L 529.980887 262.04718 
L 531.086255 261.896867 
L 532.191623 261.433498 
L 533.296991 263.265437 
L 534.402359 262.149632 
L 535.507727 262.055825 
L 536.613095 263.496845 
L 537.718463 262.344724 
L 538.823831 264.112365 
L 539.929199 264.047515 
L 541.034567 261.356494 
L 542.139935 261.530687 
L 543.245303 262.115415 
L 544.350671 262.018064 
L 545.456039 262.290969 
L 546.561407 264.613333 
L 547.666775 261.666201 
L 548.772143 262.053261 
L 549.877511 261.716502 
L 550.982879 260.278939 
L 552.088247 264.773962 
L 553.193615 258.777452 
L 554.298983 260.550841 
L 555.404351 262.85479 
L 556.509719 261.865302 
L 557.615087 261.270496 
L 558.720455 261.647961 
L 559.825823 260.098038 
L 560.93119 260.078358 
L 562.036558 261.347484 
L 563.141926 263.838244 
L 564.247294 262.599485 
L 565.352662 259.542776 
L 566.45803 263.801384 
L 567.563398 263.022532 
L 568.668766 263.326844 
L 569.774134 262.056833 
L 570.879502 259.572853 
L 571.98487 262.149223 
L 573.090238 258.939367 
L 574.195606 264.326796 
L 575.300974 262.125676 
L 576.406342 262.485045 
L 577.51171 263.386311 
L 578.617078 263.020468 
L 579.722446 264.881626 
L 580.827814 263.760947 
L 581.933182 262.231991 
L 583.03855 263.227778 
L 584.143918 261.509137 
L 585.249286 265.227165 
L 586.354654 262.770189 
L 587.460022 261.155369 
L 588.56539 261.720777 
L 589.670758 263.758474 
L 590.776126 265.127908 
L 591.881494 264.158689 
L 592.986861 263.925871 
L 594.092229 262.342013 
L 595.197597 260.397174 
L 596.302965 264.704873 
L 597.408333 262.622107 
L 598.513701 262.917937 
L 599.619069 262.263838 
L 600.724437 263.15164 
L 601.829805 260.49162 
L 602.935173 259.769862 
L 604.040541 263.092983 
L 605.145909 259.770644 
L 606.251277 262.20821 
L 607.356645 263.300507 
L 608.462013 260.263792 
L 609.567381 264.22407 
L 610.672749 261.017664 
L 611.778117 258.733899 
L 612.883485 259.03238 
L 613.988853 260.249887 
L 615.094221 262.211016 
L 616.199589 265.458006 
L 617.304957 261.687759 
L 618.410325 263.105494 
L 619.515693 261.033093 
L 620.621061 260.779654 
L 621.726429 262.106742 
L 622.831797 258.796192 
L 623.937165 260.755134 
L 625.042532 257.288513 
L 626.1479 260.573499 
L 627.253268 258.773975 
L 628.358636 259.053772 
L 629.464004 257.868489 
L 631.67474 261.186168 
L 632.780108 262.343192 
L 633.885476 255.689475 
L 636.096212 260.461861 
L 637.20158 261.484339 
L 638.306948 260.153647 
L 639.412316 262.164029 
L 640.517684 259.058531 
L 641.623052 258.160984 
L 642.72842 254.635817 
L 643.833788 258.962664 
L 644.939156 259.327896 
L 646.044524 260.711589 
L 648.25526 260.705527 
L 649.360628 259.591418 
L 650.465996 261.628364 
L 651.571364 261.396388 
L 653.7821 261.724417 
L 654.887468 262.814516 
L 655.992835 264.268012 
L 657.098203 262.104225 
L 658.203571 261.893295 
L 659.308939 263.367619 
L 660.414307 261.141523 
L 661.519675 262.18338 
L 662.625043 259.122404 
L 663.730411 259.212729 
L 664.835779 260.584292 
L 665.941147 258.383866 
L 667.046515 259.783914 
L 668.151883 256.940278 
L 669.257251 261.023098 
L 670.362619 258.134301 
L 671.467987 261.362949 
L 672.573355 259.060802 
L 673.678723 256.490548 
L 674.784091 256.754117 
L 674.784091 256.754117 
" style="fill:none;stroke:#ff7f0e;stroke-linecap:square;stroke-width:1.5;"/>
   </g>
   <g id="patch_3">
    <path d="M 65.45 304 
L 65.45 16.2 
" style="fill:none;stroke:#000000;stroke-linecap:square;stroke-linejoin:miter;stroke-width:0.8;"/>
   </g>
   <g id="patch_4">
    <path d="M 703.8 304 
L 703.8 16.2 
" style="fill:none;stroke:#000000;stroke-linecap:square;stroke-linejoin:miter;stroke-width:0.8;"/>
   </g>
   <g id="patch_5">
    <path d="M 65.45 304 
L 703.8 304 
" style="fill:none;stroke:#000000;stroke-linecap:square;stroke-linejoin:miter;stroke-width:0.8;"/>
   </g>
   <g id="patch_6">
    <path d="M 65.45 16.2 
L 703.8 16.2 
" style="fill:none;stroke:#000000;stroke-linecap:square;stroke-linejoin:miter;stroke-width:0.8;"/>
   </g>
   <g id="legend_1">
    <g id="patch_7">
     <path d="M 532.153125 72.234375 
L 693.3 72.234375 
Q 696.3 72.234375 696.3 69.234375 
L 696.3 26.7 
Q 696.3 23.7 693.3 23.7 
L 532.153125 23.7 
Q 529.153125 23.7 529.153125 26.7 
L 529.153125 69.234375 
Q 529.153125 72.234375 532.153125 72.234375 
z
" style="fill:#ffffff;opacity:0.8;stroke:#cccccc;stroke-linejoin:miter;"/>
    </g>
    <g id="line2d_14">
     <path d="M 535.153125 35.847656 
L 565.153125 35.847656 
" style="fill:none;stroke:#1f77b4;stroke-linecap:square;stroke-width:1.5;"/>
    </g>
    <g id="line2d_15"/>
    <g id="text_14">
     <text style="font-family:DejaVu Sans;font-size:15px;font-style:normal;font-weight:normal;text-anchor:start;" transform="rotate(-0, 577.153125, 41.097656)" x="577.153125" y="41.097656">Training Loss</text>
    </g>
    <g id="line2d_16">
     <path d="M 535.153125 57.864844 
L 565.153125 57.864844 
" style="fill:none;stroke:#ff7f0e;stroke-linecap:square;stroke-width:1.5;"/>
    </g>
    <g id="line2d_17"/>
    <g id="text_15">
     <text style="font-family:DejaVu Sans;font-size:15px;font-style:normal;font-weight:normal;text-anchor:start;" transform="rotate(-0, 577.153125, 63.114844)" x="577.153125" y="63.114844">Validation Loss</text>
    </g>
   </g>
  </g>
 </g>
 <defs>
  <clipPath id="p92e3837fdd">
   <rect height="287.8" width="638.35" x="65.45" y="16.2"/>
  </clipPath>
 </defs>
</svg>
