<?xml version="1.0" encoding="utf-8" standalone="no"?>
<!DOCTYPE svg PUBLIC "-//W3C//DTD SVG 1.1//EN"
  "http://www.w3.org/Graphics/SVG/1.1/DTD/svg11.dtd">
<svg xmlns:xlink="http://www.w3.org/1999/xlink" width="720pt" height="360pt" viewBox="0 0 720 360" xmlns="http://www.w3.org/2000/svg" version="1.1">
 <metadata>
  <rdf:RDF xmlns:dc="http://purl.org/dc/elements/1.1/" xmlns:cc="http://creativecommons.org/ns#" xmlns:rdf="http://www.w3.org/1999/02/22-rdf-syntax-ns#">
   <cc:Work>
    <dc:type rdf:resource="http://purl.org/dc/dcmitype/StillImage"/>
    <dc:date>2024-03-04T16:58:13.307530</dc:date>
    <dc:format>image/svg+xml</dc:format>
    <dc:creator>
     <cc:Agent>
      <dc:title>Matplotlib v3.7.5, https://matplotlib.org/</dc:title>
     </cc:Agent>
    </dc:creator>
   </cc:Work>
  </rdf:RDF>
 </metadata>
 <defs>
  <style type="text/css">*{stroke-linejoin: round; stroke-linecap: butt}</style>
 </defs>
 <g id="figure_1">
  <g id="patch_1">
   <path d="M 0 360 
L 720 360 
L 720 0 
L 0 0 
z
" style="fill: #ffffff"/>
  </g>
  <g id="axes_1">
   <g id="patch_2">
    <path d="M 65.54 304 
L 702.354103 304 
L 702.354103 16.2 
L 65.54 16.2 
z
" style="fill: #ffffff"/>
   </g>
   <g id="matplotlib.axis_1">
    <g id="xtick_1">
     <g id="line2d_1">
      <defs>
       <path id="m9d2fc354a9" d="M 0 0 
L 0 3.5 
" style="stroke: #000000; stroke-width: 0.8"/>
      </defs>
      <g>
       <use xlink:href="#m9d2fc354a9" x="93.297344" y="304" style="stroke: #000000; stroke-width: 0.8"/>
      </g>
     </g>
     <g id="text_1">
      <text style="font: 15px 'DejaVu Sans', 'Bitstream Vera Sans', 'Computer Modern Sans Serif', 'Lucida Grande', 'Verdana', 'Geneva', 'Lucid', 'Arial', 'Helvetica', 'Avant Garde', sans-serif; text-anchor: middle" x="93.297344" y="322.397656" transform="rotate(-0 93.297344 322.397656)">0</text>
     </g>
    </g>
    <g id="xtick_2">
     <g id="line2d_2">
      <g>
       <use xlink:href="#m9d2fc354a9" x="212.17248" y="304" style="stroke: #000000; stroke-width: 0.8"/>
      </g>
     </g>
     <g id="text_2">
      <text style="font: 15px 'DejaVu Sans', 'Bitstream Vera Sans', 'Computer Modern Sans Serif', 'Lucida Grande', 'Verdana', 'Geneva', 'Lucid', 'Arial', 'Helvetica', 'Avant Garde', sans-serif; text-anchor: middle" x="212.17248" y="322.397656" transform="rotate(-0 212.17248 322.397656)">100</text>
     </g>
    </g>
    <g id="xtick_3">
     <g id="line2d_3">
      <g>
       <use xlink:href="#m9d2fc354a9" x="331.047616" y="304" style="stroke: #000000; stroke-width: 0.8"/>
      </g>
     </g>
     <g id="text_3">
      <text style="font: 15px 'DejaVu Sans', 'Bitstream Vera Sans', 'Computer Modern Sans Serif', 'Lucida Grande', 'Verdana', 'Geneva', 'Lucid', 'Arial', 'Helvetica', 'Avant Garde', sans-serif; text-anchor: middle" x="331.047616" y="322.397656" transform="rotate(-0 331.047616 322.397656)">200</text>
     </g>
    </g>
    <g id="xtick_4">
     <g id="line2d_4">
      <g>
       <use xlink:href="#m9d2fc354a9" x="449.922752" y="304" style="stroke: #000000; stroke-width: 0.8"/>
      </g>
     </g>
     <g id="text_4">
      <text style="font: 15px 'DejaVu Sans', 'Bitstream Vera Sans', 'Computer Modern Sans Serif', 'Lucida Grande', 'Verdana', 'Geneva', 'Lucid', 'Arial', 'Helvetica', 'Avant Garde', sans-serif; text-anchor: middle" x="449.922752" y="322.397656" transform="rotate(-0 449.922752 322.397656)">300</text>
     </g>
    </g>
    <g id="xtick_5">
     <g id="line2d_5">
      <g>
       <use xlink:href="#m9d2fc354a9" x="568.797888" y="304" style="stroke: #000000; stroke-width: 0.8"/>
      </g>
     </g>
     <g id="text_5">
      <text style="font: 15px 'DejaVu Sans', 'Bitstream Vera Sans', 'Computer Modern Sans Serif', 'Lucida Grande', 'Verdana', 'Geneva', 'Lucid', 'Arial', 'Helvetica', 'Avant Garde', sans-serif; text-anchor: middle" x="568.797888" y="322.397656" transform="rotate(-0 568.797888 322.397656)">400</text>
     </g>
    </g>
    <g id="xtick_6">
     <g id="line2d_6">
      <g>
       <use xlink:href="#m9d2fc354a9" x="687.673024" y="304" style="stroke: #000000; stroke-width: 0.8"/>
      </g>
     </g>
     <g id="text_6">
      <text style="font: 15px 'DejaVu Sans', 'Bitstream Vera Sans', 'Computer Modern Sans Serif', 'Lucida Grande', 'Verdana', 'Geneva', 'Lucid', 'Arial', 'Helvetica', 'Avant Garde', sans-serif; text-anchor: middle" x="687.673024" y="322.397656" transform="rotate(-0 687.673024 322.397656)">500</text>
     </g>
    </g>
    <g id="text_7">
     <text style="font: 15px 'DejaVu Sans', 'Bitstream Vera Sans', 'Computer Modern Sans Serif', 'Lucida Grande', 'Verdana', 'Geneva', 'Lucid', 'Arial', 'Helvetica', 'Avant Garde', sans-serif; text-anchor: middle" x="383.947052" y="340.914844" transform="rotate(-0 383.947052 340.914844)">Epochs</text>
    </g>
   </g>
   <g id="matplotlib.axis_2">
    <g id="ytick_1">
     <g id="line2d_7">
      <defs>
       <path id="m7894d46e25" d="M 0 0 
L -3.5 0 
" style="stroke: #000000; stroke-width: 0.8"/>
      </defs>
      <g>
       <use xlink:href="#m7894d46e25" x="65.54" y="277.671144" style="stroke: #000000; stroke-width: 0.8"/>
      </g>
     </g>
     <g id="text_8">
      <text style="font: 15px 'DejaVu Sans', 'Bitstream Vera Sans', 'Computer Modern Sans Serif', 'Lucida Grande', 'Verdana', 'Geneva', 'Lucid', 'Arial', 'Helvetica', 'Avant Garde', sans-serif; text-anchor: end" x="58.54" y="283.369972" transform="rotate(-0 58.54 283.369972)">0.2</text>
     </g>
    </g>
    <g id="ytick_2">
     <g id="line2d_8">
      <g>
       <use xlink:href="#m7894d46e25" x="65.54" y="233.587956" style="stroke: #000000; stroke-width: 0.8"/>
      </g>
     </g>
     <g id="text_9">
      <text style="font: 15px 'DejaVu Sans', 'Bitstream Vera Sans', 'Computer Modern Sans Serif', 'Lucida Grande', 'Verdana', 'Geneva', 'Lucid', 'Arial', 'Helvetica', 'Avant Garde', sans-serif; text-anchor: end" x="58.54" y="239.286784" transform="rotate(-0 58.54 239.286784)">0.4</text>
     </g>
    </g>
    <g id="ytick_3">
     <g id="line2d_9">
      <g>
       <use xlink:href="#m7894d46e25" x="65.54" y="189.504768" style="stroke: #000000; stroke-width: 0.8"/>
      </g>
     </g>
     <g id="text_10">
      <text style="font: 15px 'DejaVu Sans', 'Bitstream Vera Sans', 'Computer Modern Sans Serif', 'Lucida Grande', 'Verdana', 'Geneva', 'Lucid', 'Arial', 'Helvetica', 'Avant Garde', sans-serif; text-anchor: end" x="58.54" y="195.203596" transform="rotate(-0 58.54 195.203596)">0.6</text>
     </g>
    </g>
    <g id="ytick_4">
     <g id="line2d_10">
      <g>
       <use xlink:href="#m7894d46e25" x="65.54" y="145.42158" style="stroke: #000000; stroke-width: 0.8"/>
      </g>
     </g>
     <g id="text_11">
      <text style="font: 15px 'DejaVu Sans', 'Bitstream Vera Sans', 'Computer Modern Sans Serif', 'Lucida Grande', 'Verdana', 'Geneva', 'Lucid', 'Arial', 'Helvetica', 'Avant Garde', sans-serif; text-anchor: end" x="58.54" y="151.120408" transform="rotate(-0 58.54 151.120408)">0.8</text>
     </g>
    </g>
    <g id="ytick_5">
     <g id="line2d_11">
      <g>
       <use xlink:href="#m7894d46e25" x="65.54" y="101.338392" style="stroke: #000000; stroke-width: 0.8"/>
      </g>
     </g>
     <g id="text_12">
      <text style="font: 15px 'DejaVu Sans', 'Bitstream Vera Sans', 'Computer Modern Sans Serif', 'Lucida Grande', 'Verdana', 'Geneva', 'Lucid', 'Arial', 'Helvetica', 'Avant Garde', sans-serif; text-anchor: end" x="58.54" y="107.03722" transform="rotate(-0 58.54 107.03722)">1.0</text>
     </g>
    </g>
    <g id="ytick_6">
     <g id="line2d_12">
      <g>
       <use xlink:href="#m7894d46e25" x="65.54" y="57.255204" style="stroke: #000000; stroke-width: 0.8"/>
      </g>
     </g>
     <g id="text_13">
      <text style="font: 15px 'DejaVu Sans', 'Bitstream Vera Sans', 'Computer Modern Sans Serif', 'Lucida Grande', 'Verdana', 'Geneva', 'Lucid', 'Arial', 'Helvetica', 'Avant Garde', sans-serif; text-anchor: end" x="58.54" y="62.954032" transform="rotate(-0 58.54 62.954032)">1.2</text>
     </g>
    </g>
    <g id="text_14">
     <text style="font: 15px 'DejaVu Sans', 'Bitstream Vera Sans', 'Computer Modern Sans Serif', 'Lucida Grande', 'Verdana', 'Geneva', 'Lucid', 'Arial', 'Helvetica', 'Avant Garde', sans-serif; text-anchor: middle" x="27.565781" y="160.1" transform="rotate(-90 27.565781 160.1)">Loss</text>
    </g>
   </g>
   <g id="line2d_13">
    <path d="M 94.486096 29.281818 
L 96.863598 94.051503 
L 98.05235 111.457504 
L 99.241101 125.887934 
L 101.618604 148.986615 
L 103.996106 161.761339 
L 105.184858 170.320033 
L 106.373609 172.762182 
L 107.562361 177.110917 
L 108.751112 180.990592 
L 109.939863 187.778651 
L 111.128615 189.245987 
L 112.317366 193.145724 
L 114.694869 195.547618 
L 115.88362 200.110421 
L 117.072371 202.007389 
L 118.261123 204.531137 
L 119.449874 205.100911 
L 120.638625 207.32534 
L 121.827377 206.977424 
L 123.016128 210.900284 
L 124.20488 211.972231 
L 125.393631 212.592138 
L 126.582382 212.795302 
L 127.771134 214.532922 
L 128.959885 217.945988 
L 130.148636 216.857231 
L 131.337388 219.430482 
L 132.526139 221.311318 
L 133.71489 222.291419 
L 134.903642 224.221679 
L 136.092393 222.518854 
L 137.281145 224.853785 
L 138.469896 227.440824 
L 139.658647 227.648809 
L 140.847399 227.407776 
L 142.03615 229.273523 
L 143.224901 226.300534 
L 144.413653 229.42734 
L 145.602404 233.10872 
L 146.791155 231.5789 
L 147.979907 235.344947 
L 149.168658 232.816535 
L 150.357409 233.857667 
L 151.546161 233.262827 
L 152.734912 235.297841 
L 153.923664 234.303328 
L 155.112415 235.831479 
L 156.301166 235.340487 
L 157.489918 235.206356 
L 158.678669 236.310392 
L 159.86742 239.552161 
L 161.056172 239.788234 
L 162.244923 239.378991 
L 163.433674 241.333609 
L 164.622426 238.922807 
L 165.811177 239.783492 
L 166.999928 241.483801 
L 168.18868 244.019674 
L 169.377431 241.995091 
L 170.566183 240.625586 
L 171.754934 243.472714 
L 172.943685 244.264491 
L 174.132437 243.997905 
L 175.321188 244.667034 
L 176.509939 246.844114 
L 177.698691 247.432589 
L 178.887442 245.984251 
L 180.076193 249.166144 
L 181.264945 249.106564 
L 182.453696 248.043747 
L 183.642448 250.540293 
L 184.831199 249.541793 
L 186.01995 249.351926 
L 187.208702 248.530241 
L 188.397453 249.781854 
L 190.774956 250.053551 
L 191.963707 249.995232 
L 193.152458 251.648291 
L 194.34121 252.811243 
L 195.529961 252.656493 
L 196.718712 250.674733 
L 197.907464 253.433864 
L 199.096215 253.044472 
L 200.284967 253.058825 
L 201.473718 254.659734 
L 202.662469 251.723176 
L 203.851221 250.494101 
L 205.039972 254.362491 
L 206.228723 254.041751 
L 207.417475 254.090052 
L 208.606226 255.282236 
L 209.794977 256.812831 
L 212.17248 256.213668 
L 213.361231 256.166713 
L 214.549983 254.349405 
L 215.738734 253.104309 
L 218.116237 258.500508 
L 219.304988 258.321072 
L 220.49374 259.321864 
L 221.682491 255.917404 
L 222.871242 258.933169 
L 224.059994 259.627417 
L 225.248745 259.86374 
L 226.437496 261.293771 
L 227.626248 259.797657 
L 228.814999 261.113021 
L 230.003751 261.432513 
L 231.192502 260.583856 
L 232.381253 260.407258 
L 233.570005 261.13973 
L 234.758756 259.830291 
L 235.947507 263.288617 
L 237.136259 260.445174 
L 238.32501 260.225437 
L 239.513761 258.005541 
L 240.702513 261.841231 
L 241.891264 262.15799 
L 243.080015 261.998779 
L 244.268767 264.199422 
L 245.457518 262.444348 
L 246.64627 261.79289 
L 247.835021 260.411528 
L 249.023772 262.776978 
L 250.212524 264.330715 
L 251.401275 263.863442 
L 252.590026 262.296226 
L 254.967529 265.435855 
L 256.15628 266.222022 
L 257.345032 262.266837 
L 258.533783 263.744033 
L 259.722535 263.374611 
L 260.911286 264.177797 
L 262.100037 265.582492 
L 263.288789 265.434061 
L 264.47754 266.281352 
L 265.666291 268.367341 
L 266.855043 264.656881 
L 268.043794 266.580986 
L 269.232545 267.298229 
L 270.421297 267.215119 
L 271.610048 265.840749 
L 272.798799 264.193346 
L 273.987551 265.469855 
L 275.176302 268.003384 
L 276.365054 268.414949 
L 277.553805 269.685767 
L 278.742556 268.569187 
L 279.931308 266.585078 
L 281.120059 267.513574 
L 282.30881 265.725905 
L 283.497562 266.493147 
L 284.686313 268.913671 
L 285.875064 269.949899 
L 287.063816 267.066842 
L 288.252567 267.04523 
L 289.441318 270.046324 
L 290.63007 270.124438 
L 291.818821 269.270142 
L 293.007573 268.246605 
L 294.196324 269.112554 
L 295.385075 271.227959 
L 296.573827 268.46286 
L 297.762578 270.843165 
L 298.951329 269.958833 
L 301.328832 270.805102 
L 302.517583 272.763546 
L 303.706335 271.130168 
L 304.895086 272.697003 
L 306.083838 272.635511 
L 307.272589 271.625335 
L 308.46134 271.569279 
L 309.650092 270.302853 
L 310.838843 273.811832 
L 312.027594 272.331936 
L 313.216346 272.59686 
L 314.405097 268.900106 
L 315.593848 270.742188 
L 316.7826 270.962023 
L 317.971351 272.276695 
L 319.160102 271.70923 
L 320.348854 271.924555 
L 321.537605 273.969459 
L 322.726357 271.715401 
L 323.915108 272.659018 
L 325.103859 274.195538 
L 326.292611 274.060761 
L 327.481362 271.349986 
L 328.670113 270.199304 
L 329.858865 274.432902 
L 331.047616 273.889112 
L 332.236367 276.211187 
L 333.425119 273.726117 
L 334.61387 273.578544 
L 335.802621 275.735431 
L 336.991373 273.261045 
L 338.180124 272.717462 
L 339.368876 275.013981 
L 340.557627 275.696211 
L 341.746378 271.969733 
L 342.93513 274.927534 
L 344.123881 272.979581 
L 345.312632 272.362406 
L 347.690135 275.734433 
L 348.878886 274.14702 
L 350.067638 273.120582 
L 351.256389 274.940432 
L 352.445141 274.180709 
L 353.633892 274.754532 
L 354.822643 274.946203 
L 356.011395 274.021291 
L 357.200146 273.722468 
L 358.388897 275.958045 
L 359.577649 275.855386 
L 360.7664 274.266515 
L 361.955151 276.142477 
L 363.143903 277.176636 
L 364.332654 277.668578 
L 365.521405 275.788583 
L 366.710157 276.79314 
L 367.898908 277.961893 
L 370.276411 276.545768 
L 371.465162 276.516192 
L 372.653914 275.970197 
L 373.842665 278.198328 
L 375.031416 277.035776 
L 376.220168 278.458273 
L 377.408919 276.897162 
L 378.59767 277.56787 
L 379.786422 273.698026 
L 380.975173 276.038901 
L 382.163924 277.359347 
L 383.352676 277.695396 
L 384.541427 276.294655 
L 385.730179 275.876127 
L 386.91893 276.618006 
L 388.107681 276.644203 
L 389.296433 274.966275 
L 390.485184 276.749279 
L 391.673935 276.857969 
L 392.862687 279.005781 
L 394.051438 280.112685 
L 395.240189 277.164727 
L 396.428941 278.338104 
L 397.617692 276.681699 
L 398.806444 279.567239 
L 399.995195 279.044334 
L 402.372698 277.579363 
L 403.561449 279.656573 
L 404.7502 280.117533 
L 405.938952 277.076046 
L 407.127703 277.437799 
L 408.316454 279.682129 
L 409.505206 280.498496 
L 410.693957 280.926878 
L 411.882708 279.296245 
L 413.07146 276.986677 
L 414.260211 280.010256 
L 415.448963 277.539112 
L 416.637714 280.73613 
L 417.826465 277.883135 
L 419.015217 278.60493 
L 421.392719 281.388212 
L 422.581471 280.028665 
L 423.770222 281.059432 
L 424.958973 278.250606 
L 426.147725 278.246961 
L 427.336476 278.510959 
L 428.525227 281.660224 
L 429.713979 278.893318 
L 430.90273 280.177277 
L 432.091482 281.923532 
L 433.280233 279.154573 
L 434.468984 281.68244 
L 435.657736 277.893921 
L 436.846487 279.330715 
L 438.035238 280.249104 
L 439.22399 280.775875 
L 440.412741 282.375995 
L 441.601492 281.71422 
L 442.790244 281.633945 
L 443.978995 280.250132 
L 445.167747 282.629844 
L 446.356498 283.41134 
L 447.545249 281.764364 
L 449.922752 280.501991 
L 451.111503 281.206063 
L 452.300255 282.561366 
L 453.489006 280.641386 
L 454.677757 280.891094 
L 455.866509 281.450889 
L 457.05526 278.729023 
L 458.244011 281.536269 
L 459.432763 281.70372 
L 460.621514 279.851088 
L 461.810266 282.118491 
L 462.999017 281.363217 
L 464.187768 281.728366 
L 465.37652 284.050304 
L 466.565271 281.007738 
L 467.754022 281.261784 
L 468.942774 282.456484 
L 470.131525 282.806403 
L 471.320276 284.845983 
L 472.509028 279.755067 
L 473.697779 279.424017 
L 474.88653 280.706573 
L 476.075282 284.301614 
L 477.264033 284.843828 
L 478.452785 280.724644 
L 479.641536 284.26247 
L 480.830287 280.299905 
L 482.019039 282.746485 
L 483.20779 282.994664 
L 484.396541 284.099578 
L 485.585293 283.274776 
L 486.774044 280.812493 
L 487.962795 282.535442 
L 489.151547 286.388802 
L 490.340298 280.523629 
L 491.52905 282.20635 
L 492.717801 282.794241 
L 493.906552 283.769109 
L 495.095304 281.988186 
L 496.284055 281.23781 
L 497.472806 283.123583 
L 498.661558 283.894674 
L 499.850309 283.059838 
L 501.03906 282.404481 
L 502.227812 282.181621 
L 503.416563 280.422077 
L 504.605314 282.022043 
L 505.794066 282.01905 
L 506.982817 284.812537 
L 508.171569 282.343426 
L 509.36032 284.707487 
L 510.549071 281.765211 
L 511.737823 284.648498 
L 512.926574 283.360523 
L 514.115325 286.272831 
L 515.304077 288.489358 
L 516.492828 286.51704 
L 517.681579 283.555872 
L 518.870331 283.275607 
L 520.059082 285.493634 
L 521.247833 285.581267 
L 522.436585 286.829116 
L 523.625336 284.669834 
L 524.814088 284.417904 
L 526.002839 282.507357 
L 527.19159 285.794267 
L 528.380342 284.068188 
L 529.569093 286.084343 
L 530.757844 286.536304 
L 531.946596 284.254768 
L 533.135347 285.118753 
L 534.324098 284.275884 
L 535.51285 287.569209 
L 536.701601 284.766486 
L 537.890353 287.396857 
L 539.079104 282.629617 
L 540.267855 285.820828 
L 541.456607 286.29939 
L 542.645358 283.757699 
L 543.834109 284.977509 
L 545.022861 287.666047 
L 546.211612 285.316326 
L 547.400363 287.167845 
L 548.589115 286.574114 
L 549.777866 285.359872 
L 550.966617 285.78624 
L 552.155369 283.740603 
L 553.34412 285.190739 
L 554.532872 287.881951 
L 555.721623 284.585621 
L 556.910374 282.962996 
L 558.099126 284.285691 
L 559.287877 286.301699 
L 560.476628 287.389122 
L 561.66538 285.580226 
L 564.042882 287.802842 
L 565.231634 288.052109 
L 566.420385 283.959821 
L 567.609136 285.194417 
L 568.797888 286.883372 
L 569.986639 286.598876 
L 571.175391 283.998285 
L 572.364142 284.999603 
L 573.552893 287.246613 
L 574.741645 284.2056 
L 575.930396 287.334429 
L 577.119147 283.884521 
L 578.307899 285.525342 
L 579.49665 287.749942 
L 580.685401 289.124788 
L 581.874153 286.110747 
L 583.062904 289.178587 
L 584.251656 286.214894 
L 585.440407 288.956552 
L 586.629158 286.467133 
L 587.81791 285.185021 
L 589.006661 284.839762 
L 590.195412 284.913475 
L 591.384164 286.278277 
L 592.572915 285.858048 
L 593.761666 287.370085 
L 594.950418 287.706387 
L 596.139169 284.517386 
L 597.32792 287.133076 
L 598.516672 284.585828 
L 599.705423 286.994084 
L 600.894175 287.299197 
L 602.082926 287.744178 
L 603.271677 287.554389 
L 604.460429 289.549254 
L 605.64918 287.612639 
L 606.837931 285.000027 
L 608.026683 285.409234 
L 609.215434 289.695784 
L 610.404185 287.202913 
L 611.592937 289.935273 
L 612.781688 286.93997 
L 613.970439 286.354651 
L 615.159191 286.917593 
L 616.347942 287.826683 
L 617.536694 288.158811 
L 618.725445 288.324541 
L 619.914196 288.272689 
L 621.102948 286.256518 
L 622.291699 289.383771 
L 623.48045 288.052059 
L 624.669202 288.643721 
L 625.857953 286.555643 
L 627.046704 289.491997 
L 628.235456 286.200945 
L 629.424207 289.217732 
L 630.612959 287.044786 
L 631.80171 289.306717 
L 632.990461 286.25657 
L 634.179213 288.366467 
L 636.556715 288.709469 
L 637.745467 287.751972 
L 638.934218 290.496731 
L 640.122969 288.517279 
L 641.311721 284.958245 
L 642.500472 288.580324 
L 643.689223 288.532138 
L 644.877975 290.70596 
L 646.066726 286.184532 
L 647.255478 287.964404 
L 648.444229 285.100157 
L 649.63298 289.699062 
L 650.821732 286.513779 
L 652.010483 286.256869 
L 653.199234 285.270124 
L 654.387986 290.837634 
L 655.576737 290.918182 
L 656.765488 288.996064 
L 657.95424 290.605568 
L 659.142991 290.087268 
L 660.331743 288.05786 
L 661.520494 288.643402 
L 662.709245 288.682172 
L 663.897997 288.219869 
L 665.086748 288.635037 
L 666.275499 289.928011 
L 667.464251 287.972267 
L 668.653002 290.380146 
L 669.841753 288.733337 
L 671.030505 288.307192 
L 672.219256 290.867795 
L 673.408007 288.879449 
L 673.408007 288.879449 
" clip-path="url(#p483eacdbdb)" style="fill: none; stroke: #1f77b4; stroke-width: 1.5; stroke-linecap: square"/>
   </g>
   <g id="line2d_14">
    <path d="M 94.486096 57.850362 
L 95.674847 94.063748 
L 96.863598 116.44739 
L 99.241101 149.123734 
L 100.429852 157.592014 
L 101.618604 170.50211 
L 102.807355 177.567837 
L 103.996106 182.327049 
L 105.184858 187.609646 
L 106.373609 194.103707 
L 107.562361 199.418294 
L 108.751112 201.551245 
L 109.939863 205.417664 
L 111.128615 207.294019 
L 112.317366 211.793852 
L 114.694869 217.565353 
L 115.88362 216.967917 
L 117.072371 221.036179 
L 118.261123 219.770272 
L 119.449874 222.771691 
L 120.638625 224.058691 
L 121.827377 227.327727 
L 123.016128 228.290177 
L 124.20488 230.184098 
L 125.393631 230.777192 
L 126.582382 231.848462 
L 127.771134 230.149559 
L 128.959885 233.890275 
L 130.148636 234.504192 
L 131.337388 235.563659 
L 132.526139 235.204372 
L 133.71489 236.137354 
L 134.903642 240.480091 
L 136.092393 239.775556 
L 137.281145 239.489329 
L 138.469896 236.774577 
L 139.658647 239.94843 
L 140.847399 242.014141 
L 142.03615 241.546652 
L 143.224901 241.47352 
L 144.413653 242.305689 
L 145.602404 245.82569 
L 146.791155 244.172323 
L 147.979907 245.022885 
L 149.168658 246.51915 
L 150.357409 243.368019 
L 151.546161 247.429016 
L 152.734912 246.356208 
L 153.923664 246.251356 
L 155.112415 245.882295 
L 156.301166 245.950027 
L 157.489918 246.190554 
L 159.86742 246.425911 
L 161.056172 245.982168 
L 162.244923 249.818062 
L 163.433674 246.119117 
L 164.622426 248.477414 
L 165.811177 250.249554 
L 166.999928 249.963891 
L 168.18868 247.682655 
L 169.377431 246.156349 
L 170.566183 249.119754 
L 171.754934 248.599911 
L 172.943685 250.996602 
L 174.132437 250.949792 
L 175.321188 249.9078 
L 176.509939 252.809378 
L 177.698691 250.483354 
L 178.887442 252.457534 
L 180.076193 250.726226 
L 181.264945 251.238292 
L 182.453696 253.097109 
L 183.642448 252.631413 
L 184.831199 253.331678 
L 186.01995 251.99394 
L 187.208702 253.510188 
L 188.397453 253.062051 
L 189.586204 253.189691 
L 190.774956 251.751692 
L 191.963707 254.860755 
L 193.152458 254.339559 
L 194.34121 252.499266 
L 195.529961 253.906917 
L 196.718712 252.734617 
L 197.907464 254.444622 
L 199.096215 253.759623 
L 200.284967 253.219225 
L 201.473718 254.317638 
L 202.662469 253.927997 
L 203.851221 252.420249 
L 205.039972 255.210799 
L 206.228723 252.82873 
L 207.417475 255.065626 
L 208.606226 254.153212 
L 209.794977 254.976112 
L 210.983729 256.217405 
L 212.17248 255.884237 
L 213.361231 256.097608 
L 214.549983 256.475741 
L 215.738734 258.006224 
L 216.927486 254.551813 
L 218.116237 257.598492 
L 219.304988 255.498846 
L 220.49374 257.91623 
L 221.682491 256.479459 
L 222.871242 258.639164 
L 224.059994 257.378282 
L 225.248745 254.649874 
L 226.437496 253.425679 
L 227.626248 256.264347 
L 228.814999 255.917397 
L 230.003751 256.301494 
L 231.192502 255.574369 
L 232.381253 256.224014 
L 234.758756 254.529308 
L 235.947507 254.753768 
L 237.136259 256.234918 
L 238.32501 258.740569 
L 240.702513 255.29741 
L 241.891264 257.434158 
L 243.080015 257.507696 
L 244.268767 254.733463 
L 245.457518 257.589328 
L 246.64627 254.413334 
L 247.835021 257.707247 
L 249.023772 254.909096 
L 250.212524 258.029649 
L 251.401275 256.289164 
L 252.590026 257.288078 
L 253.778778 256.270771 
L 254.967529 258.079053 
L 256.15628 257.766327 
L 257.345032 260.038342 
L 258.533783 258.808117 
L 259.722535 258.366758 
L 260.911286 256.981573 
L 263.288789 259.455778 
L 264.47754 258.2251 
L 265.666291 257.350778 
L 266.855043 259.932904 
L 268.043794 258.119695 
L 269.232545 260.58925 
L 270.421297 259.12307 
L 271.610048 259.249232 
L 272.798799 258.206543 
L 273.987551 259.498706 
L 275.176302 259.994875 
L 276.365054 259.075057 
L 277.553805 258.59782 
L 278.742556 259.52577 
L 279.931308 257.512564 
L 281.120059 257.117641 
L 282.30881 257.49358 
L 283.497562 258.06652 
L 284.686313 259.121999 
L 285.875064 258.632366 
L 287.063816 258.42823 
L 289.441318 257.701052 
L 290.63007 256.902339 
L 291.818821 259.279915 
L 293.007573 258.230394 
L 294.196324 260.396176 
L 295.385075 257.171027 
L 296.573827 259.391363 
L 297.762578 260.693426 
L 298.951329 258.788541 
L 300.140081 257.615308 
L 302.517583 257.903506 
L 303.706335 259.858557 
L 304.895086 257.451204 
L 306.083838 257.531923 
L 307.272589 258.600855 
L 308.46134 258.655074 
L 309.650092 257.515724 
L 310.838843 258.674269 
L 312.027594 258.767633 
L 313.216346 258.443746 
L 314.405097 260.035464 
L 315.593848 260.330008 
L 316.7826 258.602622 
L 317.971351 258.21275 
L 319.160102 259.693842 
L 320.348854 259.496197 
L 321.537605 258.050571 
L 322.726357 261.374621 
L 323.915108 260.13901 
L 325.103859 260.730159 
L 326.292611 257.690246 
L 327.481362 259.716564 
L 328.670113 259.545903 
L 329.858865 260.465294 
L 331.047616 258.249418 
L 332.236367 258.857062 
L 333.425119 257.458896 
L 334.61387 258.577226 
L 335.802621 257.231375 
L 336.991373 260.918542 
L 338.180124 258.037446 
L 339.368876 260.247798 
L 340.557627 257.663419 
L 341.746378 260.202545 
L 342.93513 258.077562 
L 344.123881 257.158073 
L 345.312632 257.950349 
L 346.501384 260.018162 
L 347.690135 257.621227 
L 348.878886 260.180401 
L 350.067638 257.491517 
L 351.256389 258.172411 
L 352.445141 257.672845 
L 353.633892 258.464228 
L 354.822643 259.402531 
L 356.011395 257.703345 
L 357.200146 260.394396 
L 358.388897 258.427225 
L 359.577649 260.033159 
L 360.7664 259.838463 
L 361.955151 261.347032 
L 363.143903 256.72618 
L 364.332654 258.746704 
L 365.521405 257.294976 
L 366.710157 259.866046 
L 367.898908 259.962096 
L 369.08766 258.861095 
L 370.276411 258.280824 
L 371.465162 260.036469 
L 372.653914 258.436816 
L 373.842665 260.928481 
L 375.031416 261.490031 
L 376.220168 256.588017 
L 377.408919 259.019215 
L 378.59767 256.230911 
L 379.786422 260.088935 
L 380.975173 256.584844 
L 382.163924 259.910839 
L 383.352676 259.561511 
L 384.541427 259.458682 
L 385.730179 257.80264 
L 388.107681 257.820107 
L 389.296433 259.324091 
L 390.485184 258.366272 
L 391.673935 256.986335 
L 392.862687 259.409014 
L 394.051438 256.898614 
L 395.240189 258.099371 
L 396.428941 257.069977 
L 397.617692 258.163385 
L 398.806444 258.515327 
L 399.995195 260.617975 
L 401.183946 259.124436 
L 402.372698 260.526976 
L 403.561449 257.188717 
L 404.7502 259.820142 
L 405.938952 253.2841 
L 407.127703 259.89665 
L 408.316454 258.103917 
L 409.505206 260.218514 
L 410.693957 259.707584 
L 413.07146 259.75513 
L 415.448963 258.97655 
L 416.637714 254.51845 
L 419.015217 259.217379 
L 420.203968 258.8715 
L 421.392719 258.794598 
L 422.581471 259.147197 
L 423.770222 258.374516 
L 426.147725 257.330993 
L 427.336476 258.724114 
L 428.525227 255.944842 
L 429.713979 258.782544 
L 430.90273 257.729574 
L 432.091482 258.018186 
L 433.280233 259.397164 
L 434.468984 258.94272 
L 435.657736 261.526941 
L 436.846487 257.390632 
L 438.035238 258.080354 
L 439.22399 259.294472 
L 440.412741 259.348764 
L 441.601492 257.501272 
L 442.790244 257.086255 
L 443.978995 257.580119 
L 445.167747 258.25577 
L 446.356498 259.349487 
L 447.545249 259.704437 
L 448.734001 259.142067 
L 449.922752 259.51099 
L 451.111503 256.722824 
L 452.300255 258.234809 
L 453.489006 259.253666 
L 454.677757 258.526186 
L 455.866509 257.322 
L 457.05526 258.239676 
L 458.244011 258.333257 
L 459.432763 259.904073 
L 460.621514 259.760352 
L 461.810266 260.904682 
L 462.999017 258.673658 
L 464.187768 257.97558 
L 465.37652 258.441375 
L 466.565271 259.836413 
L 467.754022 259.102936 
L 468.942774 259.944603 
L 470.131525 258.140105 
L 471.320276 258.153886 
L 472.509028 261.225724 
L 473.697779 259.104716 
L 474.88653 259.812437 
L 476.075282 258.111136 
L 477.264033 258.878844 
L 478.452785 257.193887 
L 479.641536 255.714385 
L 480.830287 255.181883 
L 482.019039 257.468999 
L 483.20779 257.996758 
L 484.396541 258.786866 
L 485.585293 256.203821 
L 486.774044 260.728011 
L 487.962795 258.584413 
L 489.151547 258.170368 
L 490.340298 258.258779 
L 491.52905 259.237086 
L 492.717801 258.817832 
L 493.906552 259.064383 
L 495.095304 256.894758 
L 496.284055 255.099358 
L 497.472806 256.701127 
L 498.661558 259.779862 
L 499.850309 258.722879 
L 501.03906 254.632552 
L 502.227812 259.060553 
L 503.416563 258.698968 
L 504.605314 259.907975 
L 505.794066 258.767869 
L 506.982817 257.951669 
L 508.171569 257.939405 
L 509.36032 257.434118 
L 510.549071 257.109345 
L 511.737823 258.528603 
L 512.926574 259.136063 
L 514.115325 257.734797 
L 515.304077 256.157228 
L 516.492828 257.049817 
L 517.681579 257.103945 
L 518.870331 258.115695 
L 520.059082 256.994632 
L 521.247833 256.882987 
L 522.436585 256.206495 
L 523.625336 254.665383 
L 524.814088 258.165763 
L 526.002839 257.586996 
L 527.19159 254.552523 
L 528.380342 254.583922 
L 529.569093 258.249563 
L 530.757844 256.67401 
L 531.946596 258.496678 
L 533.135347 256.711552 
L 534.324098 259.654796 
L 535.51285 258.725854 
L 536.701601 255.302114 
L 537.890353 254.304474 
L 539.079104 259.176021 
L 540.267855 257.106198 
L 541.456607 257.104917 
L 542.645358 259.801145 
L 543.834109 257.279585 
L 545.022861 257.197782 
L 546.211612 256.847291 
L 547.400363 258.997945 
L 548.589115 254.264804 
L 549.777866 256.391238 
L 550.966617 255.104245 
L 552.155369 257.202387 
L 553.34412 256.742839 
L 554.532872 257.840806 
L 555.721623 256.166135 
L 556.910374 256.57813 
L 559.287877 259.202658 
L 560.476628 256.413205 
L 561.66538 255.777663 
L 562.854131 256.029889 
L 564.042882 257.371845 
L 565.231634 253.652313 
L 566.420385 257.651562 
L 567.609136 257.455323 
L 568.797888 256.262856 
L 569.986639 259.956099 
L 571.175391 254.643443 
L 572.364142 258.939455 
L 573.552893 255.90849 
L 574.741645 258.131526 
L 575.930396 256.835697 
L 577.119147 259.329957 
L 578.307899 256.321102 
L 579.49665 257.003638 
L 580.685401 254.420757 
L 581.874153 256.079255 
L 583.062904 254.709519 
L 584.251656 257.652462 
L 585.440407 253.856823 
L 586.629158 255.406907 
L 587.81791 253.153772 
L 589.006661 256.286839 
L 590.195412 256.230281 
L 591.384164 257.947951 
L 592.572915 255.383548 
L 593.761666 255.746014 
L 594.950418 255.91293 
L 596.139169 254.939589 
L 597.32792 257.956294 
L 598.516672 255.867046 
L 599.705423 254.801983 
L 600.894175 257.431773 
L 602.082926 256.258658 
L 603.271677 257.328996 
L 604.460429 255.08779 
L 605.64918 256.796212 
L 606.837931 253.765646 
L 608.026683 255.737704 
L 609.215434 255.842354 
L 610.404185 254.567966 
L 611.592937 256.861986 
L 613.970439 257.052241 
L 615.159191 258.081339 
L 616.347942 258.24505 
L 617.536694 257.371319 
L 618.725445 258.041532 
L 619.914196 256.016213 
L 621.102948 257.753551 
L 622.291699 254.189998 
L 623.48045 256.025928 
L 624.669202 255.632057 
L 625.857953 256.302026 
L 627.046704 255.897007 
L 628.235456 257.589341 
L 629.424207 257.210782 
L 630.612959 257.918004 
L 631.80171 256.201482 
L 632.990461 256.565275 
L 634.179213 257.837311 
L 635.367964 256.491782 
L 636.556715 255.856766 
L 637.745467 256.885004 
L 638.934218 259.214285 
L 640.122969 255.748747 
L 641.311721 257.909806 
L 644.877975 255.583545 
L 646.066726 253.593101 
L 647.255478 255.182185 
L 648.444229 256.529337 
L 649.63298 252.246869 
L 650.821732 255.401363 
L 652.010483 255.092979 
L 653.199234 256.778338 
L 654.387986 254.887031 
L 656.765488 258.898952 
L 657.95424 257.247049 
L 659.142991 255.333973 
L 660.331743 254.967632 
L 661.520494 255.938444 
L 663.897997 254.483142 
L 665.086748 255.976235 
L 666.275499 257.77513 
L 667.464251 254.737877 
L 668.653002 254.18467 
L 669.841753 253.056507 
L 671.030505 257.872166 
L 672.219256 255.794887 
L 673.408007 255.913515 
L 673.408007 255.913515 
" clip-path="url(#p483eacdbdb)" style="fill: none; stroke: #ff7f0e; stroke-width: 1.5; stroke-linecap: square"/>
   </g>
   <g id="patch_3">
    <path d="M 65.54 304 
L 65.54 16.2 
" style="fill: none; stroke: #000000; stroke-width: 0.8; stroke-linejoin: miter; stroke-linecap: square"/>
   </g>
   <g id="patch_4">
    <path d="M 702.354103 304 
L 702.354103 16.2 
" style="fill: none; stroke: #000000; stroke-width: 0.8; stroke-linejoin: miter; stroke-linecap: square"/>
   </g>
   <g id="patch_5">
    <path d="M 65.54 304 
L 702.354103 304 
" style="fill: none; stroke: #000000; stroke-width: 0.8; stroke-linejoin: miter; stroke-linecap: square"/>
   </g>
   <g id="patch_6">
    <path d="M 65.54 16.2 
L 702.354103 16.2 
" style="fill: none; stroke: #000000; stroke-width: 0.8; stroke-linejoin: miter; stroke-linecap: square"/>
   </g>
   <g id="legend_1">
    <g id="patch_7">
     <path d="M 532.113478 72.234375 
L 691.854103 72.234375 
Q 694.854103 72.234375 694.854103 69.234375 
L 694.854103 26.7 
Q 694.854103 23.7 691.854103 23.7 
L 532.113478 23.7 
Q 529.113478 23.7 529.113478 26.7 
L 529.113478 69.234375 
Q 529.113478 72.234375 532.113478 72.234375 
z
" style="fill: #ffffff; opacity: 0.8; stroke: #cccccc; stroke-linejoin: miter"/>
    </g>
    <g id="line2d_15">
     <path d="M 535.113478 35.847656 
L 550.113478 35.847656 
L 565.113478 35.847656 
" style="fill: none; stroke: #1f77b4; stroke-width: 1.5; stroke-linecap: square"/>
    </g>
    <g id="text_15">
     <text style="font: 15px 'DejaVu Sans', 'Bitstream Vera Sans', 'Computer Modern Sans Serif', 'Lucida Grande', 'Verdana', 'Geneva', 'Lucid', 'Arial', 'Helvetica', 'Avant Garde', sans-serif; text-anchor: start" x="577.113478" y="41.097656" transform="rotate(-0 577.113478 41.097656)">Training Loss</text>
    </g>
    <g id="line2d_16">
     <path d="M 535.113478 57.864844 
L 550.113478 57.864844 
L 565.113478 57.864844 
" style="fill: none; stroke: #ff7f0e; stroke-width: 1.5; stroke-linecap: square"/>
    </g>
    <g id="text_16">
     <text style="font: 15px 'DejaVu Sans', 'Bitstream Vera Sans', 'Computer Modern Sans Serif', 'Lucida Grande', 'Verdana', 'Geneva', 'Lucid', 'Arial', 'Helvetica', 'Avant Garde', sans-serif; text-anchor: start" x="577.113478" y="63.114844" transform="rotate(-0 577.113478 63.114844)">Validation Loss</text>
    </g>
   </g>
  </g>
 </g>
 <defs>
  <clipPath id="p483eacdbdb">
   <rect x="65.54" y="16.2" width="636.814103" height="287.8"/>
  </clipPath>
 </defs>
</svg>
