<?xml version="1.0" encoding="utf-8" standalone="no"?>
<!DOCTYPE svg PUBLIC "-//W3C//DTD SVG 1.1//EN"
  "http://www.w3.org/Graphics/SVG/1.1/DTD/svg11.dtd">
<svg xmlns:xlink="http://www.w3.org/1999/xlink" width="720pt" height="360pt" viewBox="0 0 720 360" xmlns="http://www.w3.org/2000/svg" version="1.1">
 <metadata>
  <rdf:RDF xmlns:dc="http://purl.org/dc/elements/1.1/" xmlns:cc="http://creativecommons.org/ns#" xmlns:rdf="http://www.w3.org/1999/02/22-rdf-syntax-ns#">
   <cc:Work>
    <dc:type rdf:resource="http://purl.org/dc/dcmitype/StillImage"/>
    <dc:date>2024-03-04T16:58:13.225812</dc:date>
    <dc:format>image/svg+xml</dc:format>
    <dc:creator>
     <cc:Agent>
      <dc:title>Matplotlib v3.7.5, https://matplotlib.org/</dc:title>
     </cc:Agent>
    </dc:creator>
   </cc:Work>
  </rdf:RDF>
 </metadata>
 <defs>
  <style type="text/css">*{stroke-linejoin: round; stroke-linecap: butt}</style>
 </defs>
 <g id="figure_1">
  <g id="patch_1">
   <path d="M 0 360 
L 720 360 
L 720 0 
L 0 0 
z
" style="fill: #ffffff"/>
  </g>
  <g id="axes_1">
   <g id="patch_2">
    <path d="M 65.54 304 
L 702.354103 304 
L 702.354103 16.2 
L 65.54 16.2 
z
" style="fill: #ffffff"/>
   </g>
   <g id="matplotlib.axis_1">
    <g id="xtick_1">
     <g id="line2d_1">
      <defs>
       <path id="m17ac0c6754" d="M 0 0 
L 0 3.5 
" style="stroke: #000000; stroke-width: 0.8"/>
      </defs>
      <g>
       <use xlink:href="#m17ac0c6754" x="93.297344" y="304" style="stroke: #000000; stroke-width: 0.8"/>
      </g>
     </g>
     <g id="text_1">
      <text style="font: 15px 'DejaVu Sans', 'Bitstream Vera Sans', 'Computer Modern Sans Serif', 'Lucida Grande', 'Verdana', 'Geneva', 'Lucid', 'Arial', 'Helvetica', 'Avant Garde', sans-serif; text-anchor: middle" x="93.297344" y="322.397656" transform="rotate(-0 93.297344 322.397656)">0</text>
     </g>
    </g>
    <g id="xtick_2">
     <g id="line2d_2">
      <g>
       <use xlink:href="#m17ac0c6754" x="212.17248" y="304" style="stroke: #000000; stroke-width: 0.8"/>
      </g>
     </g>
     <g id="text_2">
      <text style="font: 15px 'DejaVu Sans', 'Bitstream Vera Sans', 'Computer Modern Sans Serif', 'Lucida Grande', 'Verdana', 'Geneva', 'Lucid', 'Arial', 'Helvetica', 'Avant Garde', sans-serif; text-anchor: middle" x="212.17248" y="322.397656" transform="rotate(-0 212.17248 322.397656)">100</text>
     </g>
    </g>
    <g id="xtick_3">
     <g id="line2d_3">
      <g>
       <use xlink:href="#m17ac0c6754" x="331.047616" y="304" style="stroke: #000000; stroke-width: 0.8"/>
      </g>
     </g>
     <g id="text_3">
      <text style="font: 15px 'DejaVu Sans', 'Bitstream Vera Sans', 'Computer Modern Sans Serif', 'Lucida Grande', 'Verdana', 'Geneva', 'Lucid', 'Arial', 'Helvetica', 'Avant Garde', sans-serif; text-anchor: middle" x="331.047616" y="322.397656" transform="rotate(-0 331.047616 322.397656)">200</text>
     </g>
    </g>
    <g id="xtick_4">
     <g id="line2d_4">
      <g>
       <use xlink:href="#m17ac0c6754" x="449.922752" y="304" style="stroke: #000000; stroke-width: 0.8"/>
      </g>
     </g>
     <g id="text_4">
      <text style="font: 15px 'DejaVu Sans', 'Bitstream Vera Sans', 'Computer Modern Sans Serif', 'Lucida Grande', 'Verdana', 'Geneva', 'Lucid', 'Arial', 'Helvetica', 'Avant Garde', sans-serif; text-anchor: middle" x="449.922752" y="322.397656" transform="rotate(-0 449.922752 322.397656)">300</text>
     </g>
    </g>
    <g id="xtick_5">
     <g id="line2d_5">
      <g>
       <use xlink:href="#m17ac0c6754" x="568.797888" y="304" style="stroke: #000000; stroke-width: 0.8"/>
      </g>
     </g>
     <g id="text_5">
      <text style="font: 15px 'DejaVu Sans', 'Bitstream Vera Sans', 'Computer Modern Sans Serif', 'Lucida Grande', 'Verdana', 'Geneva', 'Lucid', 'Arial', 'Helvetica', 'Avant Garde', sans-serif; text-anchor: middle" x="568.797888" y="322.397656" transform="rotate(-0 568.797888 322.397656)">400</text>
     </g>
    </g>
    <g id="xtick_6">
     <g id="line2d_6">
      <g>
       <use xlink:href="#m17ac0c6754" x="687.673024" y="304" style="stroke: #000000; stroke-width: 0.8"/>
      </g>
     </g>
     <g id="text_6">
      <text style="font: 15px 'DejaVu Sans', 'Bitstream Vera Sans', 'Computer Modern Sans Serif', 'Lucida Grande', 'Verdana', 'Geneva', 'Lucid', 'Arial', 'Helvetica', 'Avant Garde', sans-serif; text-anchor: middle" x="687.673024" y="322.397656" transform="rotate(-0 687.673024 322.397656)">500</text>
     </g>
    </g>
    <g id="text_7">
     <text style="font: 15px 'DejaVu Sans', 'Bitstream Vera Sans', 'Computer Modern Sans Serif', 'Lucida Grande', 'Verdana', 'Geneva', 'Lucid', 'Arial', 'Helvetica', 'Avant Garde', sans-serif; text-anchor: middle" x="383.947052" y="340.914844" transform="rotate(-0 383.947052 340.914844)">Epoch</text>
    </g>
   </g>
   <g id="matplotlib.axis_2">
    <g id="ytick_1">
     <g id="line2d_7">
      <defs>
       <path id="m79130f985b" d="M 0 0 
L -3.5 0 
" style="stroke: #000000; stroke-width: 0.8"/>
      </defs>
      <g>
       <use xlink:href="#m79130f985b" x="65.54" y="263.774635" style="stroke: #000000; stroke-width: 0.8"/>
      </g>
     </g>
     <g id="text_8">
      <text style="font: 15px 'DejaVu Sans', 'Bitstream Vera Sans', 'Computer Modern Sans Serif', 'Lucida Grande', 'Verdana', 'Geneva', 'Lucid', 'Arial', 'Helvetica', 'Avant Garde', sans-serif; text-anchor: end" x="58.54" y="269.473463" transform="rotate(-0 58.54 269.473463)">0.4</text>
     </g>
    </g>
    <g id="ytick_2">
     <g id="line2d_8">
      <g>
       <use xlink:href="#m79130f985b" x="65.54" y="220.819517" style="stroke: #000000; stroke-width: 0.8"/>
      </g>
     </g>
     <g id="text_9">
      <text style="font: 15px 'DejaVu Sans', 'Bitstream Vera Sans', 'Computer Modern Sans Serif', 'Lucida Grande', 'Verdana', 'Geneva', 'Lucid', 'Arial', 'Helvetica', 'Avant Garde', sans-serif; text-anchor: end" x="58.54" y="226.518345" transform="rotate(-0 58.54 226.518345)">0.5</text>
     </g>
    </g>
    <g id="ytick_3">
     <g id="line2d_9">
      <g>
       <use xlink:href="#m79130f985b" x="65.54" y="177.8644" style="stroke: #000000; stroke-width: 0.8"/>
      </g>
     </g>
     <g id="text_10">
      <text style="font: 15px 'DejaVu Sans', 'Bitstream Vera Sans', 'Computer Modern Sans Serif', 'Lucida Grande', 'Verdana', 'Geneva', 'Lucid', 'Arial', 'Helvetica', 'Avant Garde', sans-serif; text-anchor: end" x="58.54" y="183.563228" transform="rotate(-0 58.54 183.563228)">0.6</text>
     </g>
    </g>
    <g id="ytick_4">
     <g id="line2d_10">
      <g>
       <use xlink:href="#m79130f985b" x="65.54" y="134.909282" style="stroke: #000000; stroke-width: 0.8"/>
      </g>
     </g>
     <g id="text_11">
      <text style="font: 15px 'DejaVu Sans', 'Bitstream Vera Sans', 'Computer Modern Sans Serif', 'Lucida Grande', 'Verdana', 'Geneva', 'Lucid', 'Arial', 'Helvetica', 'Avant Garde', sans-serif; text-anchor: end" x="58.54" y="140.60811" transform="rotate(-0 58.54 140.60811)">0.7</text>
     </g>
    </g>
    <g id="ytick_5">
     <g id="line2d_11">
      <g>
       <use xlink:href="#m79130f985b" x="65.54" y="91.954164" style="stroke: #000000; stroke-width: 0.8"/>
      </g>
     </g>
     <g id="text_12">
      <text style="font: 15px 'DejaVu Sans', 'Bitstream Vera Sans', 'Computer Modern Sans Serif', 'Lucida Grande', 'Verdana', 'Geneva', 'Lucid', 'Arial', 'Helvetica', 'Avant Garde', sans-serif; text-anchor: end" x="58.54" y="97.652992" transform="rotate(-0 58.54 97.652992)">0.8</text>
     </g>
    </g>
    <g id="ytick_6">
     <g id="line2d_12">
      <g>
       <use xlink:href="#m79130f985b" x="65.54" y="48.999046" style="stroke: #000000; stroke-width: 0.8"/>
      </g>
     </g>
     <g id="text_13">
      <text style="font: 15px 'DejaVu Sans', 'Bitstream Vera Sans', 'Computer Modern Sans Serif', 'Lucida Grande', 'Verdana', 'Geneva', 'Lucid', 'Arial', 'Helvetica', 'Avant Garde', sans-serif; text-anchor: end" x="58.54" y="54.697875" transform="rotate(-0 58.54 54.697875)">0.9</text>
     </g>
    </g>
    <g id="text_14">
     <text style="font: 15px 'DejaVu Sans', 'Bitstream Vera Sans', 'Computer Modern Sans Serif', 'Lucida Grande', 'Verdana', 'Geneva', 'Lucid', 'Arial', 'Helvetica', 'Avant Garde', sans-serif; text-anchor: middle" x="27.565781" y="160.1" transform="rotate(-90 27.565781 160.1)">Accuracy</text>
    </g>
   </g>
   <g id="line2d_13">
    <path d="M 94.486096 290.918182 
L 95.674847 238.912883 
L 96.863598 197.8266 
L 99.241101 170.739032 
L 100.429852 156.670304 
L 101.618604 147.641141 
L 102.807355 144.00146 
L 103.996106 137.562039 
L 105.184858 129.37279 
L 107.562361 119.013717 
L 108.751112 114.604121 
L 109.939863 114.044178 
L 111.128615 110.054527 
L 112.317366 105.29496 
L 113.506117 104.735017 
L 115.88362 99.485482 
L 117.072371 99.415482 
L 118.261123 95.075886 
L 119.449874 93.676003 
L 120.638625 94.165972 
L 121.827377 93.53603 
L 123.016128 89.476379 
L 124.20488 90.176321 
L 125.393631 89.336406 
L 126.582382 90.736264 
L 127.771134 89.266407 
L 128.959885 83.456928 
L 131.337388 85.836724 
L 132.526139 83.526928 
L 133.71489 83.246956 
L 134.903642 82.826986 
L 136.092393 80.097245 
L 137.281145 79.047333 
L 138.469896 78.627363 
L 139.658647 80.237218 
L 140.847399 77.64745 
L 142.03615 76.107594 
L 143.224901 78.767361 
L 144.413653 77.297479 
L 145.602404 74.287766 
L 146.791155 74.357765 
L 147.979907 70.368114 
L 149.168658 73.447826 
L 150.357409 72.32794 
L 151.546161 73.447826 
L 152.734912 71.348027 
L 153.923664 72.537912 
L 155.112415 72.957882 
L 156.301166 72.537912 
L 157.489918 74.497738 
L 159.86742 70.648086 
L 161.056172 70.788084 
L 162.244923 71.138055 
L 163.433674 68.128317 
L 164.622426 69.4582 
L 165.811177 68.758259 
L 166.999928 67.778346 
L 168.18868 65.048605 
L 169.377431 68.058317 
L 170.566183 69.598173 
L 171.754934 63.718721 
L 172.943685 65.81852 
L 174.132437 65.678547 
L 175.321188 64.908606 
L 176.509939 63.998692 
L 177.698691 63.858694 
L 178.887442 63.858694 
L 181.264945 62.038866 
L 182.453696 63.088779 
L 183.642448 60.009041 
L 184.831199 63.158778 
L 186.01995 62.528836 
L 187.208702 64.068692 
L 188.397453 62.248839 
L 189.586204 61.198952 
L 190.774956 62.598809 
L 191.963707 62.388837 
L 193.152458 59.869068 
L 194.34121 59.72907 
L 195.529961 58.119214 
L 196.718712 61.758895 
L 197.907464 57.979241 
L 199.096215 57.909242 
L 200.284967 59.099127 
L 201.473718 57.489272 
L 202.662469 60.708983 
L 203.851221 59.029128 
L 205.039972 57.69927 
L 206.228723 58.749157 
L 207.417475 57.909242 
L 208.606226 58.539184 
L 210.983729 55.389473 
L 212.17248 56.439385 
L 213.361231 55.389473 
L 214.549983 60.009041 
L 216.927486 58.189214 
L 218.116237 54.759531 
L 219.304988 53.359648 
L 220.49374 54.269561 
L 221.682491 58.889155 
L 222.871242 55.179475 
L 224.059994 54.269561 
L 225.248745 54.549533 
L 226.437496 53.639619 
L 227.626248 54.969503 
L 228.814999 52.659706 
L 230.003751 52.869704 
L 231.192502 51.60982 
L 232.381253 54.619532 
L 233.570005 51.95979 
L 234.758756 53.149676 
L 235.947507 49.859966 
L 237.136259 53.779618 
L 238.32501 51.469821 
L 239.513761 55.319474 
L 240.702513 53.639619 
L 241.891264 49.929965 
L 243.080015 52.519733 
L 244.268767 51.049851 
L 245.457518 52.029764 
L 246.64627 53.639619 
L 247.835021 53.569646 
L 249.023772 50.839879 
L 250.212524 49.370022 
L 251.401275 51.749793 
L 252.590026 50.139937 
L 253.778778 50.629907 
L 256.15628 49.929965 
L 257.345032 54.899504 
L 258.533783 50.839879 
L 259.722535 51.469821 
L 260.911286 52.449734 
L 262.100037 49.090051 
L 263.288789 49.929965 
L 264.47754 48.110138 
L 265.666291 49.859966 
L 266.855043 49.160024 
L 268.043794 50.209937 
L 269.232545 48.530082 
L 270.421297 48.110138 
L 271.610048 49.300023 
L 272.798799 49.999964 
L 273.987551 49.719993 
L 275.176302 49.789966 
L 276.365054 46.570256 
L 277.553805 46.010313 
L 278.742556 46.920227 
L 279.931308 48.950052 
L 281.120059 47.550169 
L 282.30881 49.719993 
L 283.497562 48.950052 
L 284.686313 46.360284 
L 285.875064 45.310371 
L 287.063816 48.530082 
L 288.252567 48.180111 
L 289.441318 45.310371 
L 290.63007 44.890427 
L 291.818821 47.200198 
L 294.196324 48.110138 
L 295.385075 45.310371 
L 296.573827 47.270197 
L 297.762578 45.590343 
L 298.951329 47.130225 
L 300.140081 45.0304 
L 301.328832 44.260485 
L 302.517583 43.070574 
L 303.706335 43.210573 
L 304.895086 43.630543 
L 306.083838 43.630543 
L 307.272589 44.820428 
L 308.46134 44.050487 
L 309.650092 45.660342 
L 310.838843 44.680429 
L 312.027594 44.190486 
L 313.216346 45.170399 
L 314.405097 45.380371 
L 315.593848 44.050487 
L 316.7826 45.100399 
L 317.971351 44.890427 
L 319.160102 43.140573 
L 320.348854 45.520369 
L 321.537605 41.74069 
L 322.726357 45.100399 
L 323.915108 44.680429 
L 325.103859 42.090661 
L 326.292611 43.070574 
L 327.481362 45.730342 
L 328.670113 46.220285 
L 329.858865 43.140573 
L 331.047616 44.120486 
L 332.236367 40.550805 
L 333.425119 42.370658 
L 334.61387 42.65063 
L 335.802621 41.250746 
L 336.991373 43.490544 
L 339.368876 41.460719 
L 340.557627 41.320746 
L 341.746378 43.630543 
L 342.93513 42.23066 
L 345.312632 44.190486 
L 346.501384 42.510631 
L 347.690135 41.460719 
L 348.878886 42.370658 
L 350.067638 42.720603 
L 351.256389 43.420545 
L 352.445141 43.560543 
L 353.633892 44.050487 
L 354.822643 42.58063 
L 356.011395 42.23066 
L 357.200146 44.050487 
L 358.388897 41.670717 
L 359.577649 40.060861 
L 360.7664 41.810689 
L 361.955151 40.900776 
L 363.143903 40.760803 
L 364.332654 39.570892 
L 365.521405 41.460719 
L 366.710157 41.250746 
L 367.898908 41.320746 
L 369.08766 41.880689 
L 370.276411 42.300659 
L 371.465162 41.180747 
L 372.653914 40.410832 
L 373.842665 40.270833 
L 376.220168 40.270833 
L 377.408919 39.850863 
L 378.59767 41.530718 
L 379.786422 42.930601 
L 380.975173 40.480806 
L 382.163924 40.410832 
L 383.352676 40.620804 
L 384.541427 40.200834 
L 385.730179 40.480806 
L 386.91893 41.110748 
L 388.107681 41.040774 
L 389.296433 42.440632 
L 390.485184 40.340833 
L 391.673935 39.850863 
L 392.862687 38.311007 
L 394.051438 37.401094 
L 395.240189 40.130861 
L 396.428941 40.620804 
L 397.617692 40.970775 
L 398.806444 39.29092 
L 399.995195 39.500893 
L 402.372698 38.94095 
L 403.561449 38.800977 
L 404.7502 37.121122 
L 405.938952 40.270833 
L 407.127703 39.430919 
L 408.316454 38.381007 
L 409.505206 37.751064 
L 410.693957 38.171035 
L 411.882708 38.451006 
L 413.07146 39.990862 
L 414.260211 38.521005 
L 415.448963 40.130861 
L 416.637714 38.031036 
L 417.826465 39.220921 
L 419.015217 39.500893 
L 420.203968 36.421181 
L 421.392719 38.241008 
L 422.581471 39.150948 
L 423.770222 37.751064 
L 424.958973 39.570892 
L 426.147725 38.381007 
L 427.336476 38.311007 
L 428.525227 37.471093 
L 429.713979 39.150948 
L 430.90273 39.500893 
L 432.091482 37.541092 
L 434.468984 37.541092 
L 435.657736 39.640891 
L 436.846487 38.660978 
L 438.035238 37.471093 
L 439.22399 37.401094 
L 440.412741 36.211209 
L 441.601492 37.471093 
L 442.790244 36.561179 
L 443.978995 36.561179 
L 445.167747 35.301295 
L 446.356498 34.951324 
L 447.545249 36.701152 
L 448.734001 36.631153 
L 449.922752 38.171035 
L 451.111503 38.451006 
L 452.300255 35.091297 
L 453.489006 38.590979 
L 454.677757 36.771151 
L 455.866509 37.611066 
L 457.05526 39.080948 
L 458.244011 37.541092 
L 459.432763 37.051123 
L 460.621514 37.751064 
L 461.810266 35.791238 
L 464.187768 37.051123 
L 465.37652 34.811325 
L 466.565271 38.311007 
L 467.754022 37.401094 
L 468.942774 37.051123 
L 470.131525 35.651266 
L 471.320276 35.231296 
L 472.509028 36.701152 
L 473.697779 39.430919 
L 474.88653 37.961037 
L 477.264033 33.341469 
L 478.452785 36.91115 
L 479.641536 35.091297 
L 480.830287 37.541092 
L 482.019039 36.421181 
L 483.20779 35.651266 
L 484.396541 36.07121 
L 485.585293 35.791238 
L 486.774044 36.771151 
L 487.962795 35.791238 
L 489.151547 33.061497 
L 490.340298 37.821064 
L 491.52905 35.021298 
L 492.717801 36.841151 
L 493.906552 35.021298 
L 495.095304 37.961037 
L 496.284055 37.471093 
L 498.661558 35.161296 
L 499.850309 36.351181 
L 501.03906 35.441268 
L 503.416563 37.331094 
L 504.605314 36.211209 
L 505.794066 35.721239 
L 506.982817 34.391355 
L 508.171569 36.351181 
L 509.36032 32.431555 
L 510.549071 36.421181 
L 511.737823 34.881325 
L 512.926574 35.581266 
L 514.115325 31.941586 
L 515.304077 33.131471 
L 516.492828 33.481442 
L 517.681579 35.721239 
L 518.870331 35.441268 
L 520.059082 33.411442 
L 521.247833 34.881325 
L 522.436585 32.291556 
L 523.625336 35.161296 
L 524.814088 35.791238 
L 526.002839 37.191122 
L 527.19159 33.20147 
L 528.380342 35.301295 
L 529.569093 34.741326 
L 530.757844 33.481442 
L 531.946596 34.111384 
L 533.135347 34.601353 
L 534.324098 35.721239 
L 535.51285 33.341469 
L 536.701601 34.881325 
L 537.890353 32.291556 
L 539.079104 36.001211 
L 540.267855 33.271469 
L 541.456607 32.7815 
L 542.645358 35.231296 
L 543.834109 33.411442 
L 545.022861 32.991498 
L 546.211612 33.551441 
L 547.400363 33.061497 
L 548.589115 31.101671 
L 549.777866 33.411442 
L 550.966617 32.571528 
L 552.155369 35.861238 
L 553.34412 33.69144 
L 554.532872 30.611702 
L 555.721623 35.091297 
L 556.910374 36.281208 
L 558.099126 33.69144 
L 559.287877 32.641527 
L 560.476628 32.361556 
L 561.66538 34.181383 
L 562.854131 34.321382 
L 564.042882 31.941586 
L 565.231634 33.341469 
L 566.420385 34.461355 
L 567.609136 32.711527 
L 568.797888 31.661614 
L 569.986639 33.69144 
L 571.175391 34.531354 
L 572.364142 34.04141 
L 573.552893 32.081584 
L 574.741645 35.091297 
L 575.930396 32.571528 
L 577.119147 35.581266 
L 578.307899 34.251382 
L 579.49665 32.711527 
L 580.685401 30.7517 
L 581.874153 33.901412 
L 583.062904 30.961673 
L 584.251656 33.62144 
L 585.440407 32.431555 
L 586.629158 33.271469 
L 587.81791 33.411442 
L 589.006661 32.991498 
L 590.195412 34.181383 
L 591.384164 32.851499 
L 592.572915 33.831412 
L 593.761666 31.521616 
L 594.950418 31.171645 
L 596.139169 33.62144 
L 597.32792 31.731614 
L 598.516672 34.671353 
L 599.705423 32.711527 
L 600.894175 32.711527 
L 602.082926 31.451642 
L 603.271677 32.011585 
L 604.460429 30.611702 
L 605.64918 31.871586 
L 606.837931 34.671353 
L 608.026683 32.571528 
L 609.215434 29.771787 
L 610.404185 30.681701 
L 611.592937 31.031672 
L 612.781688 32.991498 
L 613.970439 32.711527 
L 615.159191 31.521616 
L 616.347942 31.241644 
L 617.536694 31.661614 
L 618.725445 30.961673 
L 619.914196 31.101671 
L 621.102948 33.131471 
L 622.291699 30.541703 
L 623.48045 31.801613 
L 624.669202 29.841787 
L 625.857953 33.831412 
L 627.046704 30.541703 
L 628.235456 34.671353 
L 629.424207 31.731614 
L 630.612959 32.641527 
L 631.80171 30.7517 
L 632.990461 32.221557 
L 634.179213 30.33173 
L 635.367964 31.171645 
L 637.745467 32.011585 
L 638.934218 29.631789 
L 642.500472 32.711527 
L 643.689223 31.311643 
L 644.877975 29.281818 
L 646.066726 32.081584 
L 647.255478 32.991498 
L 648.444229 34.181383 
L 649.63298 31.591615 
L 650.821732 32.361556 
L 652.010483 32.081584 
L 653.199234 34.321382 
L 654.387986 29.771787 
L 656.765488 30.541703 
L 657.95424 30.121758 
L 659.142991 31.241644 
L 660.331743 31.171645 
L 661.520494 31.451642 
L 662.709245 30.33173 
L 663.897997 30.471729 
L 665.086748 31.171645 
L 666.275499 30.681701 
L 667.464251 31.801613 
L 668.653002 29.98176 
L 669.841753 31.101671 
L 671.030505 31.521616 
L 672.219256 30.051759 
L 673.408007 31.031672 
L 673.408007 31.031672 
" clip-path="url(#p322135c7f9)" style="fill: none; stroke: #1f77b4; stroke-width: 1.5; stroke-linecap: square"/>
   </g>
   <g id="line2d_14">
    <path d="M 94.486096 232.786487 
L 96.863598 172.741692 
L 98.05235 159.934949 
L 99.241101 145.028714 
L 100.429852 140.619835 
L 101.618604 129.072771 
L 102.807355 121.094774 
L 103.996106 117.525682 
L 105.184858 108.078084 
L 106.373609 107.028351 
L 107.562361 103.249312 
L 108.751112 100.520006 
L 109.939863 99.680194 
L 111.128615 88.972917 
L 112.317366 86.453558 
L 113.506117 84.983931 
L 114.694869 81.414839 
L 115.88362 81.624786 
L 117.072371 76.796014 
L 118.261123 79.735266 
L 119.449874 79.52532 
L 120.638625 76.586067 
L 121.827377 80.365106 
L 123.016128 76.37612 
L 124.20488 74.906494 
L 125.393631 73.856761 
L 126.582382 73.226921 
L 127.771134 72.387109 
L 128.959885 70.077696 
L 130.148636 68.60807 
L 131.337388 70.49759 
L 132.526139 67.558337 
L 133.71489 67.768284 
L 134.903642 65.248924 
L 136.092393 65.458871 
L 137.281145 64.409138 
L 138.469896 69.027963 
L 139.658647 63.989245 
L 142.03615 65.248924 
L 143.224901 61.469885 
L 144.413653 62.939512 
L 145.602404 62.729565 
L 146.791155 61.469885 
L 147.979907 61.679832 
L 149.168658 56.22122 
L 150.357409 62.939512 
L 151.546161 58.950526 
L 152.734912 59.160473 
L 153.923664 57.270953 
L 155.112415 58.320686 
L 156.301166 58.11074 
L 157.489918 57.270953 
L 158.678669 60.840046 
L 159.86742 58.950526 
L 161.056172 57.900793 
L 162.244923 55.171487 
L 163.433674 57.690846 
L 164.622426 54.541647 
L 165.811177 55.381434 
L 166.999928 54.96154 
L 168.18868 57.690846 
L 169.377431 56.85106 
L 170.566183 54.121754 
L 171.754934 58.320686 
L 172.943685 54.331701 
L 174.132437 54.331701 
L 175.321188 55.381434 
L 176.509939 52.442181 
L 177.698691 54.541647 
L 178.887442 52.232234 
L 180.076193 57.061007 
L 181.264945 53.072021 
L 182.453696 52.232234 
L 183.642448 52.232234 
L 184.831199 53.281968 
L 186.01995 54.121754 
L 187.208702 50.972555 
L 188.397453 52.022288 
L 189.586204 54.96154 
L 190.774956 55.171487 
L 191.963707 54.541647 
L 193.152458 53.281968 
L 194.34121 55.381434 
L 195.529961 52.022288 
L 196.718712 51.812341 
L 197.907464 50.132768 
L 199.096215 51.602395 
L 200.284967 52.022288 
L 201.473718 47.613409 
L 202.662469 50.342715 
L 203.851221 51.182501 
L 205.039972 54.121754 
L 206.228723 54.96154 
L 207.417475 50.132768 
L 209.794977 48.453195 
L 210.983729 48.663142 
L 212.17248 47.613409 
L 213.361231 47.193516 
L 214.549983 48.873089 
L 215.738734 49.502929 
L 216.927486 48.453195 
L 218.116237 47.613409 
L 219.304988 51.602395 
L 220.49374 49.292982 
L 221.682491 49.083035 
L 222.871242 49.292982 
L 224.059994 46.773623 
L 225.248745 52.232234 
L 226.437496 50.132768 
L 227.626248 48.663142 
L 228.814999 49.292982 
L 230.003751 48.663142 
L 231.192502 48.453195 
L 232.381253 50.342715 
L 233.570005 49.922822 
L 234.758756 51.602395 
L 235.947507 50.342715 
L 237.136259 48.453195 
L 238.32501 44.884077 
L 239.513761 48.663142 
L 240.702513 50.132768 
L 241.891264 50.342715 
L 243.080015 45.513917 
L 244.268767 51.182501 
L 245.457518 46.563676 
L 246.64627 52.232234 
L 247.835021 48.453195 
L 249.023772 49.083035 
L 250.212524 48.453195 
L 251.401275 49.502929 
L 252.590026 47.403462 
L 253.778778 46.983569 
L 254.967529 46.353729 
L 256.15628 46.143757 
L 257.345032 44.674131 
L 258.533783 45.723864 
L 259.722535 45.513917 
L 260.911286 46.773623 
L 262.100037 48.453195 
L 263.288789 46.773623 
L 264.47754 45.303971 
L 265.666291 48.243249 
L 266.855043 44.464184 
L 268.043794 46.773623 
L 269.232545 44.674131 
L 270.421297 45.094024 
L 271.610048 47.823356 
L 273.987551 45.303971 
L 275.176302 45.303971 
L 276.365054 46.773623 
L 277.553805 48.873089 
L 278.742556 47.823356 
L 279.931308 47.613409 
L 281.120059 48.663142 
L 282.30881 48.243249 
L 283.497562 46.773623 
L 284.686313 45.513917 
L 285.875064 47.403462 
L 287.063816 45.93381 
L 288.252567 46.773623 
L 289.441318 45.723864 
L 290.63007 47.823356 
L 291.818821 44.464184 
L 293.007573 45.094024 
L 294.196324 46.563676 
L 295.385075 46.353729 
L 296.573827 44.464184 
L 297.762578 43.624398 
L 298.951329 45.93381 
L 300.140081 47.403462 
L 301.328832 48.243249 
L 302.517583 45.303971 
L 303.706335 45.723864 
L 304.895086 47.193516 
L 306.083838 44.044291 
L 307.272589 44.044291 
L 308.46134 45.303971 
L 309.650092 45.513917 
L 310.838843 44.464184 
L 312.027594 46.353729 
L 313.216346 46.143757 
L 314.405097 44.884077 
L 315.593848 43.414451 
L 316.7826 43.624398 
L 317.971351 45.723864 
L 319.160102 42.364718 
L 320.348854 43.414451 
L 321.537605 44.044291 
L 322.726357 43.204505 
L 323.915108 45.723864 
L 325.103859 44.464184 
L 326.292611 44.674131 
L 327.481362 42.364718 
L 328.670113 46.143757 
L 329.858865 43.624398 
L 331.047616 44.254238 
L 332.236367 45.303971 
L 333.425119 45.094024 
L 334.61387 42.994558 
L 335.802621 46.773623 
L 336.991373 38.585679 
L 338.180124 44.044291 
L 339.368876 42.994558 
L 340.557627 46.983569 
L 341.746378 45.513917 
L 342.93513 46.983569 
L 344.123881 47.193516 
L 345.312632 48.033302 
L 346.501384 44.674131 
L 347.690135 46.353729 
L 348.878886 44.464184 
L 350.067638 45.094024 
L 351.256389 45.513917 
L 352.445141 46.773623 
L 353.633892 43.834344 
L 354.822643 47.823356 
L 356.011395 44.044291 
L 357.200146 43.414451 
L 358.388897 45.723864 
L 359.577649 43.624398 
L 360.7664 43.624398 
L 361.955151 42.784611 
L 363.143903 47.403462 
L 364.332654 44.674131 
L 365.521405 45.723864 
L 366.710157 43.414451 
L 367.898908 44.884077 
L 369.08766 45.513917 
L 370.276411 45.513917 
L 371.465162 43.834344 
L 372.653914 46.143757 
L 373.842665 44.674131 
L 375.031416 42.784611 
L 376.220168 45.723864 
L 377.408919 43.834344 
L 378.59767 45.93381 
L 379.786422 42.784611 
L 380.975173 45.094024 
L 382.163924 42.574665 
L 384.541427 44.254238 
L 386.91893 45.094024 
L 389.296433 43.414451 
L 390.485184 45.723864 
L 391.673935 45.513917 
L 392.862687 44.044291 
L 394.051438 44.884077 
L 395.240189 45.094024 
L 396.428941 44.254238 
L 397.617692 43.624398 
L 398.806444 45.93381 
L 399.995195 42.994558 
L 401.183946 43.414451 
L 402.372698 40.055305 
L 403.561449 43.414451 
L 404.7502 41.944825 
L 405.938952 47.613409 
L 407.127703 40.685145 
L 408.316454 44.464184 
L 409.505206 42.364718 
L 410.693957 42.784611 
L 411.882708 41.944825 
L 413.07146 44.044291 
L 414.260211 42.574665 
L 415.448963 43.624398 
L 416.637714 44.464184 
L 417.826465 44.464184 
L 419.015217 41.314985 
L 420.203968 43.624398 
L 421.392719 42.364718 
L 422.581471 41.944825 
L 423.770222 44.254238 
L 424.958973 44.464184 
L 426.147725 44.044291 
L 427.336476 42.364718 
L 428.525227 44.884077 
L 429.713979 43.204505 
L 430.90273 44.674131 
L 432.091482 45.303971 
L 433.280233 42.574665 
L 434.468984 43.414451 
L 435.657736 42.784611 
L 436.846487 45.513917 
L 438.035238 45.513917 
L 439.22399 43.834344 
L 440.412741 41.734878 
L 441.601492 44.464184 
L 442.790244 44.464184 
L 443.978995 42.994558 
L 445.167747 41.944825 
L 446.356498 43.204505 
L 447.545249 42.994558 
L 449.922752 42.994558 
L 451.111503 44.674131 
L 452.300255 44.464184 
L 453.489006 43.414451 
L 454.677757 44.884077 
L 455.866509 43.834344 
L 457.05526 45.094024 
L 459.432763 41.734878 
L 460.621514 40.265252 
L 462.999017 41.524932 
L 464.187768 42.994558 
L 465.37652 41.524932 
L 466.565271 41.105038 
L 467.754022 44.464184 
L 468.942774 41.105038 
L 470.131525 43.624398 
L 471.320276 41.734878 
L 472.509028 42.364718 
L 473.697779 44.884077 
L 474.88653 40.685145 
L 476.075282 41.734878 
L 477.264033 41.734878 
L 478.452785 43.204505 
L 479.641536 44.464184 
L 480.830287 44.254238 
L 482.019039 41.734878 
L 483.20779 42.994558 
L 484.396541 43.834344 
L 485.585293 47.193516 
L 486.774044 40.895092 
L 487.962795 41.314985 
L 489.151547 41.944825 
L 490.340298 41.314985 
L 491.52905 42.574665 
L 492.717801 42.994558 
L 493.906552 41.105038 
L 495.095304 44.254238 
L 496.284055 43.204505 
L 497.472806 46.353729 
L 498.661558 41.944825 
L 499.850309 44.254238 
L 501.03906 44.884077 
L 502.227812 42.574665 
L 503.416563 41.314985 
L 504.605314 41.524932 
L 505.794066 43.414451 
L 506.982817 40.895092 
L 508.171569 41.314985 
L 509.36032 43.624398 
L 510.549071 41.524932 
L 511.737823 41.734878 
L 512.926574 41.734878 
L 514.115325 42.154771 
L 515.304077 42.784611 
L 516.492828 43.204505 
L 518.870331 43.624398 
L 520.059082 42.154771 
L 521.247833 43.414451 
L 522.436585 41.105038 
L 523.625336 40.895092 
L 524.814088 41.734878 
L 526.002839 41.105038 
L 527.19159 44.884077 
L 528.380342 43.624398 
L 529.569093 41.105038 
L 530.757844 40.265252 
L 531.946596 41.944825 
L 533.135347 42.574665 
L 534.324098 41.734878 
L 535.51285 43.204505 
L 536.701601 41.314985 
L 537.890353 44.674131 
L 539.079104 42.574665 
L 540.267855 42.154771 
L 541.456607 42.574665 
L 542.645358 41.105038 
L 543.834109 42.784611 
L 545.022861 40.685145 
L 546.211612 42.574665 
L 547.400363 40.895092 
L 549.777866 43.414451 
L 550.966617 45.094024 
L 553.34412 40.895092 
L 554.532872 41.734878 
L 555.721623 43.624398 
L 556.910374 42.994558 
L 558.099126 40.055305 
L 559.287877 40.265252 
L 560.476628 42.364718 
L 561.66538 43.624398 
L 562.854131 43.204505 
L 564.042882 41.105038 
L 565.231634 44.464184 
L 566.420385 40.685145 
L 567.609136 41.944825 
L 568.797888 42.364718 
L 569.986639 41.524932 
L 571.175391 45.303971 
L 572.364142 39.635412 
L 573.552893 43.204505 
L 574.741645 42.154771 
L 575.930396 40.685145 
L 577.119147 43.834344 
L 578.307899 44.044291 
L 579.49665 44.044291 
L 580.685401 43.834344 
L 581.874153 41.524932 
L 583.062904 41.734878 
L 584.251656 41.524932 
L 585.440407 44.884077 
L 586.629158 42.364718 
L 587.81791 44.044291 
L 589.006661 45.303971 
L 590.195412 42.154771 
L 591.384164 41.944825 
L 592.572915 41.524932 
L 593.761666 41.734878 
L 594.950418 41.524932 
L 596.139169 42.364718 
L 597.32792 41.105038 
L 598.516672 41.944825 
L 599.705423 41.524932 
L 600.894175 43.834344 
L 602.082926 42.574665 
L 603.271677 41.944825 
L 604.460429 43.414451 
L 605.64918 41.734878 
L 606.837931 41.944825 
L 608.026683 44.044291 
L 609.215434 41.524932 
L 610.404185 44.044291 
L 611.592937 42.994558 
L 613.970439 43.414451 
L 615.159191 41.734878 
L 616.347942 42.574665 
L 617.536694 40.685145 
L 618.725445 41.734878 
L 619.914196 41.734878 
L 621.102948 40.055305 
L 622.291699 42.784611 
L 623.48045 39.635412 
L 624.669202 42.784611 
L 625.857953 43.414451 
L 627.046704 40.475199 
L 628.235456 42.784611 
L 629.424207 41.734878 
L 630.612959 44.464184 
L 631.80171 44.464184 
L 632.990461 42.364718 
L 634.179213 41.524932 
L 635.367964 42.784611 
L 636.556715 43.204505 
L 637.745467 42.784611 
L 638.934218 41.105038 
L 640.122969 42.994558 
L 641.311721 43.624398 
L 642.500472 42.364718 
L 643.689223 41.944825 
L 644.877975 42.364718 
L 646.066726 44.254238 
L 647.255478 42.364718 
L 648.444229 42.154771 
L 649.63298 42.364718 
L 650.821732 42.364718 
L 652.010483 44.254238 
L 653.199234 42.154771 
L 654.387986 41.314985 
L 655.576737 39.845359 
L 656.765488 38.795626 
L 657.95424 40.475199 
L 659.142991 42.994558 
L 660.331743 41.314985 
L 661.520494 42.154771 
L 662.709245 40.895092 
L 663.897997 41.734878 
L 665.086748 40.475199 
L 666.275499 41.734878 
L 667.464251 44.464184 
L 668.653002 44.254238 
L 669.841753 44.464184 
L 671.030505 43.624398 
L 672.219256 41.944825 
L 673.408007 41.524932 
L 673.408007 41.524932 
" clip-path="url(#p322135c7f9)" style="fill: none; stroke: #ff7f0e; stroke-width: 1.5; stroke-linecap: square"/>
   </g>
   <g id="patch_3">
    <path d="M 65.54 304 
L 65.54 16.2 
" style="fill: none; stroke: #000000; stroke-width: 0.8; stroke-linejoin: miter; stroke-linecap: square"/>
   </g>
   <g id="patch_4">
    <path d="M 702.354103 304 
L 702.354103 16.2 
" style="fill: none; stroke: #000000; stroke-width: 0.8; stroke-linejoin: miter; stroke-linecap: square"/>
   </g>
   <g id="patch_5">
    <path d="M 65.54 304 
L 702.354103 304 
" style="fill: none; stroke: #000000; stroke-width: 0.8; stroke-linejoin: miter; stroke-linecap: square"/>
   </g>
   <g id="patch_6">
    <path d="M 65.54 16.2 
L 702.354103 16.2 
" style="fill: none; stroke: #000000; stroke-width: 0.8; stroke-linejoin: miter; stroke-linecap: square"/>
   </g>
   <g id="legend_1">
    <g id="patch_7">
     <path d="M 496.530666 296.5 
L 691.854103 296.5 
Q 694.854103 296.5 694.854103 293.5 
L 694.854103 250.965625 
Q 694.854103 247.965625 691.854103 247.965625 
L 496.530666 247.965625 
Q 493.530666 247.965625 493.530666 250.965625 
L 493.530666 293.5 
Q 493.530666 296.5 496.530666 296.5 
z
" style="fill: #ffffff; opacity: 0.8; stroke: #cccccc; stroke-linejoin: miter"/>
    </g>
    <g id="line2d_15">
     <path d="M 499.530666 260.113281 
L 514.530666 260.113281 
L 529.530666 260.113281 
" style="fill: none; stroke: #1f77b4; stroke-width: 1.5; stroke-linecap: square"/>
    </g>
    <g id="text_15">
     <text style="font: 15px 'DejaVu Sans', 'Bitstream Vera Sans', 'Computer Modern Sans Serif', 'Lucida Grande', 'Verdana', 'Geneva', 'Lucid', 'Arial', 'Helvetica', 'Avant Garde', sans-serif; text-anchor: start" x="541.530666" y="265.363281" transform="rotate(-0 541.530666 265.363281)">Training Accuracy</text>
    </g>
    <g id="line2d_16">
     <path d="M 499.530666 282.130469 
L 514.530666 282.130469 
L 529.530666 282.130469 
" style="fill: none; stroke: #ff7f0e; stroke-width: 1.5; stroke-linecap: square"/>
    </g>
    <g id="text_16">
     <text style="font: 15px 'DejaVu Sans', 'Bitstream Vera Sans', 'Computer Modern Sans Serif', 'Lucida Grande', 'Verdana', 'Geneva', 'Lucid', 'Arial', 'Helvetica', 'Avant Garde', sans-serif; text-anchor: start" x="541.530666" y="287.380469" transform="rotate(-0 541.530666 287.380469)">Validation Accuracy</text>
    </g>
   </g>
  </g>
 </g>
 <defs>
  <clipPath id="p322135c7f9">
   <rect x="65.54" y="16.2" width="636.814103" height="287.8"/>
  </clipPath>
 </defs>
</svg>
